<svg xmlns="http://www.w3.org/2000/svg"><defs><font id="filmP3" horiz-adv-x="276"><font-face font-family="filmP3" font-weight="700" panose-1="2 0 8 3 0 0 0 0 0 0" ascent="900" descent="-100" x-height="590" cap-height="700" bbox="30 -92 534 894" underline-thickness="50" underline-position="-100" unicode-range="U+0020-2212"/><glyph glyph-name=".notdef" horiz-adv-x="208"/><glyph glyph-name=".null" horiz-adv-x="0"/><glyph glyph-name="nonmarkingreturn" horiz-adv-x="333"/><glyph glyph-name="space" horiz-adv-x="208"/><glyph glyph-name="exclam" unicode="!" horiz-adv-x="132" d="M30 144v556h72V144H30zM30 0v72h72V0H30z"/><glyph glyph-name="quotedbl" unicode="&quot;" horiz-adv-x="234" d="M30 628v72h72V564H72v64H30zm102 72h72V564h-30v64h-42v72z"/><glyph glyph-name="numbersign" unicode="#" horiz-adv-x="420" d="M390 490h-72V210h72v-66h-72V0h-72v144h-72V0h-72v144H30v66h72v280H30v66h72v144h72V556h72v144h72V556h72v-66zM246 210v280h-72V210h72z"/><glyph glyph-name="dollar" unicode="$" d="M246 490h-72v108q0 15-10.5 25.5T138 634t-25.5-10.5T102 598V419q0-15 10.5-25.5T138 383q45 0 76.5-31.5T246 275V108q0-35-20-63T174 6v-70h-72V6Q70 17 50 45t-20 63v102h72V102q0-15 10.5-25.5T138 66t25.5 10.5T174 102v179q0 15-10.5 25.5T138 317q-45 0-76.5 31.5T30 425v167q0 35 20 63t52 39v70h72v-70q32-11 52-39t20-63V490z"/><glyph glyph-name="percent" unicode="%" horiz-adv-x="356" d="M261 0h-26q-27 0-46 19t-19 46v39q0 27 19 46t46 19h26q27 0 46-19t19-46V65q0-27-19-46T261 0zm-26 121q-7 0-12-5t-5-12V65q0-7 5-12t12-5h26q7 0 12 5t5 12v39q0 7-5 12t-12 5h-26zM121 531H95q-27 0-46 19t-19 46v39q0 27 19 46t46 19h26q27 0 46-19t19-46v-39q0-27-19-46t-46-19zM95 652q-7 0-12-5t-5-12v-39q0-7 5-12t12-5h26q7 0 12 5t5 12v39q0 7-5 12t-12 5H95zM47 7l216 700 46-14L93-7z"/><glyph glyph-name="ampersand" unicode="&amp;" horiz-adv-x="348" d="M318 383v-66h-72V108q0-45-31.5-76.5T138 0 61.5 31.5 30 108v167q0 45 30 75-30 30-30 75v167q0 45 31.5 76.5T138 700t76.5-31.5T246 592V490h-72v108q0 15-10.5 25.5T138 634t-25.5-10.5T102 598V419q0-15 10.5-25.5T138 383h180zM174 102v215h-36q-15 0-25.5-10.5T102 281V102q0-15 10.5-25.5T138 66t25.5 10.5T174 102z"/><glyph glyph-name="quotesingle" unicode="'" horiz-adv-x="132" d="M30 628v72h72V564H72v64H30z"/><glyph glyph-name="parenleft" unicode="(" horiz-adv-x="252" d="M30 30v640q0 40 28 68t68 28h96v-66h-96q-10 0-17-7t-7-17V24q0-10 7-17t17-7h96v-66h-96q-40 0-68 28T30 30z"/><glyph glyph-name="parenright" unicode=")" horiz-adv-x="252" d="M222 30q0-40-28-68t-68-28H30V0h96q10 0 17 7t7 17v652q0 10-7 17t-17 7H30v66h96q40 0 68-28t28-68V30z"/><glyph glyph-name="asterisk" unicode="*" horiz-adv-x="334" d="m304 612-79-56 79-56-38-54-66 47v-81h-66v81l-66-47-38 54 79 56-79 56 38 54 66-47v81h66v-81l66 47z"/><glyph glyph-name="plus" unicode="+" d="M246 383v-66h-75v-75h-66v75H30v66h75v75h66v-75h75z"/><glyph glyph-name="comma" unicode="," horiz-adv-x="132" d="M30 72h72V0L82-64H56L72 0H30v72z"/><glyph glyph-name="hyphen" unicode="-" horiz-adv-x="204" d="M30 317v66h144v-66H30z"/><glyph glyph-name="period" unicode="." horiz-adv-x="132" d="M30 0v72h72V0H30z"/><glyph glyph-name="slash" unicode="/" horiz-adv-x="322" d="m30 7 216 700 46-14L76-7z"/><glyph glyph-name="zero" unicode="0" d="M138 700q45 0 76.5-31.5T246 592V108q0-45-31.5-76.5T138 0 61.5 31.5 30 108v484q0 45 31.5 76.5T138 700zm36-598v496q0 15-10.5 25.5T138 634t-25.5-10.5T102 598V102q0-15 10.5-25.5T138 66t25.5 10.5T174 102z"/><glyph glyph-name="one" unicode="1" horiz-adv-x="168" d="M68 700q29 0 49.5-20.5T138 630V0H66v634H30v66h38z"/><glyph glyph-name="two" unicode="2" d="M138 700q45 0 76.5-31.5T246 592V425q0-45-31.5-76.5T138 317q-15 0-25.5-10.5T102 281V66h144V0H30v275q0 45 31.5 76.5T138 383q15 0 25.5 10.5T174 419v179q0 15-10.5 25.5T138 634t-25.5-10.5T102 598V490H30v102q0 45 31.5 76.5T138 700z"/><glyph glyph-name="three" unicode="3" d="M138 700q45 0 76.5-31.5T246 592V425q0-44-31-75 31-31 31-75V108q0-45-31.5-76.5T138 0 61.5 31.5 30 108v102h72V102q0-15 10.5-25.5T138 66t25.5 10.5T174 102v179q0 15-10.5 25.5T138 317h-36v66h36q15 0 25.5 10.5T174 419v179q0 15-10.5 25.5T138 634t-25.5-10.5T102 598V490H30v102q0 45 31.5 76.5T138 700z"/><glyph glyph-name="four" unicode="4" d="M174 383v317h72V0h-72v317h-36q-45 0-76.5 31.5T30 425v275h72V419q0-15 10.5-25.5T138 383h36z"/><glyph glyph-name="five" unicode="5" d="M30 425v275h216v-66H102V419q0-15 10.5-25.5T138 383h38q29 0 49.5-20.5T246 313V108q0-45-31.5-76.5T138 0 61.5 31.5 30 108v102h72V102q0-15 10.5-25.5T138 66t25.5 10.5T174 102v215h-36q-45 0-76.5 31.5T30 425z"/><glyph glyph-name="six" unicode="6" d="M138 700q45 0 76.5-31.5T246 592V490h-72v108q0 15-10.5 25.5T138 634t-25.5-10.5T102 598V383h36q45 0 76.5-31.5T246 275V108q0-45-31.5-76.5T138 0 61.5 31.5 30 108v484q0 45 31.5 76.5T138 700zm36-419q0 15-10.5 25.5T138 317h-36V102q0-15 10.5-25.5T138 66t25.5 10.5T174 102v179z"/><glyph glyph-name="seven" unicode="7" d="M138 700q45 0 76.5-31.5T246 592V0h-72v598q0 15-10.5 25.5T138 634t-25.5-10.5T102 598V490H30v102q0 45 31.5 76.5T138 700z"/><glyph glyph-name="eight" unicode="8" d="M138 700q45 0 76.5-31.5T246 592V425q0-44-31-75 31-31 31-75V108q0-45-31.5-76.5T138 0 61.5 31.5 30 108v167q0 44 31 75-31 31-31 75v167q0 45 31.5 76.5T138 700zm-36-102V419q0-15 10.5-25.5T138 383t25.5 10.5T174 419v179q0 15-10.5 25.5T138 634t-25.5-10.5T102 598zm72-496v179q0 15-10.5 25.5T138 317t-25.5-10.5T102 281V102q0-15 10.5-25.5T138 66t25.5 10.5T174 102z"/><glyph glyph-name="nine" unicode="9" d="M138 700q45 0 76.5-31.5T246 592V108q0-45-31.5-76.5T138 0 61.5 31.5 30 108v102h72V102q0-15 10.5-25.5T138 66t25.5 10.5T174 102v215h-36q-45 0-76.5 31.5T30 425v167q0 45 31.5 76.5T138 700zm-36-281q0-15 10.5-25.5T138 383h36v215q0 15-10.5 25.5T138 634t-25.5-10.5T102 598V419z"/><glyph glyph-name="colon" unicode=":" horiz-adv-x="132" d="M30 0v72h72V0H30zm0 314v72h72v-72H30z"/><glyph glyph-name="semicolon" unicode=";" horiz-adv-x="132" d="M30 314v72h72v-72H30zm0-242h72V0L82-64H56L72 0H30v72z"/><glyph glyph-name="less" unicode="&lt;" horiz-adv-x="282" d="M206 174 30 350l176 176 46-47-129-129 129-129z"/><glyph glyph-name="equal" unicode="=" d="M30 383v66h216v-66H30zm0-132v66h216v-66H30z"/><glyph glyph-name="greater" unicode="&gt;" horiz-adv-x="282" d="m76 174-46 47 129 129L30 479l46 47 176-176z"/><glyph glyph-name="question" unicode="?" d="M30 0v72h72V0H30zm108 700q45 0 76.5-31.5T246 592V425q0-45-31.5-76.5T138 317q-15 0-25.5-10.5T102 281V144H30v131q0 45 31.5 76.5T138 383q15 0 25.5 10.5T174 419v179q0 15-10.5 25.5T138 634t-25.5-10.5T102 598V490H30v102q0 45 31.5 76.5T138 700z"/><glyph glyph-name="at" unicode="@" horiz-adv-x="564" d="M460 516q74-74 74-178v-92q0-45-31.5-76.5T426 138H282q-45 0-76.5 31.5T174 246v98q0 45 31.5 76.5T282 452t76.5-31.5T390 344v-98q0-19-9-42h45q15 0 25.5 10.5T462 240v104q0 74-53 127t-127 53-127-53-53-127v-98q0-74 53-127t127-53h144V0H282Q178 0 104 74T30 252v86q0 104 74 178t178 74 178-74zM246 240q0-15 10.5-25.5T282 204t25.5 10.5T318 240v110q0 15-10.5 25.5T282 386t-25.5-10.5T246 350V240z"/><glyph glyph-name="A" unicode="A" d="M138 700q45 0 76.5-31.5T246 592V0h-72v317h-72V0H30v592q0 45 31.5 76.5T138 700zm-36-317h72v215q0 15-10.5 25.5T138 634t-25.5-10.5T102 598V383z"/><glyph glyph-name="B" unicode="B" d="M138 700q45 0 76.5-31.5T246 592V425q0-44-31-75 31-31 31-75V108q0-45-31.5-76.5T138 0H30v700h108zm-36-66V383h36q15 0 25.5 10.5T174 419v179q0 15-10.5 25.5T138 634h-36zm72-532v179q0 15-10.5 25.5T138 317h-36V66h36q15 0 25.5 10.5T174 102z"/><glyph glyph-name="C" unicode="C" d="M138 700q45 0 76.5-31.5T246 592V490h-72v108q0 15-10.5 25.5T138 634t-25.5-10.5T102 598V102q0-15 10.5-25.5T138 66t25.5 10.5T174 102v108h72V108q0-45-31.5-76.5T138 0 61.5 31.5 30 108v484q0 45 31.5 76.5T138 700z"/><glyph glyph-name="D" unicode="D" d="M138 700q45 0 76.5-31.5T246 592V108q0-45-31.5-76.5T138 0H30v700h108zm36-598v496q0 15-10.5 25.5T138 634h-36V66h36q15 0 25.5 10.5T174 102z"/><glyph glyph-name="E" unicode="E" d="M138 700q45 0 76.5-31.5T246 592V490h-72v108q0 15-10.5 25.5T138 634t-25.5-10.5T102 598V383h72v-66h-72V102q0-15 10.5-25.5T138 66t25.5 10.5T174 102v108h72V108q0-45-31.5-76.5T138 0 61.5 31.5 30 108v484q0 45 31.5 76.5T138 700z"/><glyph glyph-name="F" unicode="F" d="M138 700q45 0 76.5-31.5T246 592V490h-72v108q0 15-10.5 25.5T138 634t-25.5-10.5T102 598V383h72v-66h-72V0H30v592q0 45 31.5 76.5T138 700z"/><glyph glyph-name="G" unicode="G" d="M138 700q45 0 76.5-31.5T246 592V490h-72v108q0 15-10.5 25.5T138 634t-25.5-10.5T102 598V102q0-15 10.5-25.5T138 66t25.5 10.5T174 102v215h-36v66h108V108q0-45-31.5-76.5T138 0 61.5 31.5 30 108v484q0 45 31.5 76.5T138 700z"/><glyph glyph-name="H" unicode="H" d="M174 383v317h72V0h-72v317h-72V0H30v700h72V383h72z"/><glyph glyph-name="I" unicode="I" horiz-adv-x="132" d="M30 0v700h72V0H30z"/><glyph glyph-name="J" unicode="J" d="M30 700h216V108q0-45-31.5-76.5T138 0 61.5 31.5 30 108v209h72V102q0-15 10.5-25.5T138 66t25.5 10.5T174 102v532H30v66z"/><glyph glyph-name="K" unicode="K" d="M174 419v281h72V425q0-44-31-75 31-31 31-75V0h-72v281q0 15-10.5 25.5T138 317h-36V0H30v700h72V383h36q15 0 25.5 10.5T174 419z"/><glyph glyph-name="L" unicode="L" d="M174 102v108h72V108q0-45-31.5-76.5T138 0 61.5 31.5 30 108v592h72V102q0-15 10.5-25.5T138 66t25.5 10.5T174 102z"/><glyph glyph-name="M" unicode="M" horiz-adv-x="420" d="M282 700q45 0 76.5-31.5T390 592V0h-72v598q0 15-10.5 25.5T282 634t-25.5-10.5T246 598V0h-72v598q0 15-10.5 25.5T138 634t-25.5-10.5T102 598V0H30v592q0 45 31.5 76.5T138 700q41 0 72-28 31 28 72 28z"/><glyph glyph-name="N" unicode="N" d="M138 700q45 0 76.5-31.5T246 592V0h-72v598q0 15-10.5 25.5T138 634t-25.5-10.5T102 598V0H30v592q0 45 31.5 76.5T138 700z"/><glyph glyph-name="O" unicode="O" d="M138 700q45 0 76.5-31.5T246 592V108q0-45-31.5-76.5T138 0 61.5 31.5 30 108v484q0 45 31.5 76.5T138 700zm36-598v496q0 15-10.5 25.5T138 634t-25.5-10.5T102 598V102q0-15 10.5-25.5T138 66t25.5 10.5T174 102z"/><glyph glyph-name="P" unicode="P" d="M138 700q45 0 76.5-31.5T246 592V425q0-45-31.5-76.5T138 317h-36V0H30v700h108zm36-281v179q0 15-10.5 25.5T138 634h-36V383h36q15 0 25.5 10.5T174 419z"/><glyph glyph-name="Q" unicode="Q" d="M138 700q45 0 76.5-31.5T246 592V108q0-35-20-62.5T174 7v-67h-72V7Q70 18 50 45.5T30 108v484q0 45 31.5 76.5T138 700zm36-598v496q0 15-10.5 25.5T138 634t-25.5-10.5T102 598V102q0-15 10.5-25.5T138 66t25.5 10.5T174 102z"/><glyph glyph-name="R" unicode="R" d="M138 700q45 0 76.5-31.5T246 592V425q0-44-31-75 31-31 31-75V0h-72v281q0 15-10.5 25.5T138 317h-36V0H30v700h108zm-36-317h36q15 0 25.5 10.5T174 419v179q0 15-10.5 25.5T138 634h-36V383z"/><glyph glyph-name="S" unicode="S" d="M138 700q45 0 76.5-31.5T246 592V490h-72v108q0 15-10.5 25.5T138 634t-25.5-10.5T102 598V419q0-15 10.5-25.5T138 383q45 0 76.5-31.5T246 275V108q0-45-31.5-76.5T138 0 61.5 31.5 30 108v102h72V102q0-15 10.5-25.5T138 66t25.5 10.5T174 102v179q0 15-10.5 25.5T138 317q-45 0-76.5 31.5T30 425v167q0 45 31.5 76.5T138 700z"/><glyph glyph-name="T" unicode="T" d="M30 634v66h216v-66h-72V0h-72v634H30z"/><glyph glyph-name="U" unicode="U" d="M174 102v598h72V108q0-45-31.5-76.5T138 0 61.5 31.5 30 108v592h72V102q0-15 10.5-25.5T138 66t25.5 10.5T174 102z"/><glyph glyph-name="V" unicode="V" d="m144 233 30 467h72L174 0h-72L30 700h72l30-467q0-4 3-6t6 0 3 6z"/><glyph glyph-name="W" unicode="W" horiz-adv-x="420" d="M318 102v598h72V108q0-45-31.5-76.5T282 0q-41 0-72 28-31-28-72-28-45 0-76.5 31.5T30 108v592h72V102q0-15 10.5-25.5T138 66t25.5 10.5T174 102v598h72V102q0-15 10.5-25.5T282 66t25.5 10.5T318 102z"/><glyph glyph-name="X" unicode="X" d="M174 419v281h72V425q0-44-31-75 31-31 31-75V0h-72v281q0 15-10.5 25.5T138 317t-25.5-10.5T102 281V0H30v275q0 44 31 75-31 31-31 75v275h72V419q0-15 10.5-25.5T138 383t25.5 10.5T174 419z"/><glyph glyph-name="Y" unicode="Y" d="M174 419v281h72V425q0-35-20-62.5T174 324V0h-72v324q-32 11-52 38.5T30 425v275h72V419q0-15 10.5-25.5T138 383t25.5 10.5T174 419z"/><glyph glyph-name="Z" unicode="Z" d="M104 66h142V0H90Q59 0 42 22 30 37 30 58q0 6 2 16l140 560H30v66h156q31 0 48-22 12-15 12-36 0-6-2-16z"/><glyph glyph-name="bracketleft" unicode="[" horiz-adv-x="252" d="M30-66v832h192v-66H102V0h120v-66H30z"/><glyph glyph-name="backslash" unicode="\" horiz-adv-x="322" d="m30 693 46 14L292 7 246-7z"/><glyph glyph-name="bracketright" unicode="]" horiz-adv-x="252" d="M222-66H30V0h120v700H30v66h192V-66z"/><glyph glyph-name="asciicircum" unicode="^" horiz-adv-x="310" d="m155 700 125-125-47-47-78 79-78-79-47 47z"/><glyph glyph-name="underscore" unicode="_" d="M30-66V0h216v-66H30z"/><glyph glyph-name="grave" unicode="`" horiz-adv-x="128" d="m50 620-20 94h52l16-94H50z"/><glyph glyph-name="a" unicode="a" d="M138 590q45 0 76.5-31.5T246 482V0h-72v262h-72V0H30v482q0 45 31.5 76.5T138 590zm-36-262h72v160q0 15-10.5 25.5T138 524t-25.5-10.5T102 488V328z"/><glyph glyph-name="b" unicode="b" d="M138 590q45 0 76.5-31.5T246 482V370q0-44-31-75 31-31 31-75V108q0-45-31.5-76.5T138 0H30v590h108zm-36-66V328h36q15 0 25.5 10.5T174 364v124q0 15-10.5 25.5T138 524h-36zm72-422v124q0 15-10.5 25.5T138 262h-36V66h36q15 0 25.5 10.5T174 102z"/><glyph glyph-name="c" unicode="c" d="M138 590q45 0 76.5-31.5T246 482v-72h-72v78q0 15-10.5 25.5T138 524t-25.5-10.5T102 488V102q0-15 10.5-25.5T138 66t25.5 10.5T174 102v78h72v-72q0-45-31.5-76.5T138 0 61.5 31.5 30 108v374q0 45 31.5 76.5T138 590z"/><glyph glyph-name="d" unicode="d" d="M138 590q45 0 76.5-31.5T246 482V108q0-45-31.5-76.5T138 0H30v590h108zm36-488v386q0 15-10.5 25.5T138 524h-36V66h36q15 0 25.5 10.5T174 102z"/><glyph glyph-name="e" unicode="e" d="M138 590q45 0 76.5-31.5T246 482v-72h-72v78q0 15-10.5 25.5T138 524t-25.5-10.5T102 488V328h72v-66h-72V102q0-15 10.5-25.5T138 66t25.5 10.5T174 102v78h72v-72q0-45-31.5-76.5T138 0 61.5 31.5 30 108v374q0 45 31.5 76.5T138 590z"/><glyph glyph-name="f" unicode="f" d="M138 590q45 0 76.5-31.5T246 482v-72h-72v78q0 15-10.5 25.5T138 524t-25.5-10.5T102 488V328h72v-66h-72V0H30v482q0 45 31.5 76.5T138 590z"/><glyph glyph-name="g" unicode="g" d="M138 590q45 0 76.5-31.5T246 482v-72h-72v78q0 15-10.5 25.5T138 524t-25.5-10.5T102 488V102q0-15 10.5-25.5T138 66t25.5 10.5T174 102v160h-36v66h108V108q0-45-31.5-76.5T138 0 61.5 31.5 30 108v374q0 45 31.5 76.5T138 590z"/><glyph glyph-name="h" unicode="h" d="M174 328v262h72V0h-72v262h-72V0H30v590h72V328h72z"/><glyph glyph-name="i" unicode="i" horiz-adv-x="132" d="M30 0v590h72V0H30z"/><glyph glyph-name="j" unicode="j" d="M30 590h216V108q0-45-31.5-76.5T138 0 61.5 31.5 30 108v157h72V102q0-15 10.5-25.5T138 66t25.5 10.5T174 102v422H30v66z"/><glyph glyph-name="k" unicode="k" d="M174 364v226h72V370q0-44-31-75 31-31 31-75V0h-72v226q0 15-10.5 25.5T138 262h-36V0H30v590h72V328h36q15 0 25.5 10.5T174 364z"/><glyph glyph-name="l" unicode="l" d="M174 102v78h72v-72q0-45-31.5-76.5T138 0 61.5 31.5 30 108v482h72V102q0-15 10.5-25.5T138 66t25.5 10.5T174 102z"/><glyph glyph-name="m" unicode="m" horiz-adv-x="420" d="M282 590q45 0 76.5-31.5T390 482V0h-72v488q0 15-10.5 25.5T282 524t-25.5-10.5T246 488V0h-72v488q0 15-10.5 25.5T138 524t-25.5-10.5T102 488V0H30v482q0 45 31.5 76.5T138 590q41 0 72-28 31 28 72 28z"/><glyph glyph-name="n" unicode="n" d="M138 590q45 0 76.5-31.5T246 482V0h-72v488q0 15-10.5 25.5T138 524t-25.5-10.5T102 488V0H30v482q0 45 31.5 76.5T138 590z"/><glyph glyph-name="o" unicode="o" d="M138 590q45 0 76.5-31.5T246 482V108q0-45-31.5-76.5T138 0 61.5 31.5 30 108v374q0 45 31.5 76.5T138 590zm36-488v386q0 15-10.5 25.5T138 524t-25.5-10.5T102 488V102q0-15 10.5-25.5T138 66t25.5 10.5T174 102z"/><glyph glyph-name="p" unicode="p" d="M138 590q45 0 76.5-31.5T246 482V370q0-45-31.5-76.5T138 262h-36V0H30v590h108zm36-226v124q0 15-10.5 25.5T138 524h-36V328h36q15 0 25.5 10.5T174 364z"/><glyph glyph-name="q" unicode="q" d="M138 590q45 0 76.5-31.5T246 482V108q0-35-20-62.5T174 7v-67h-72V7Q70 18 50 45.5T30 108v374q0 45 31.5 76.5T138 590zm36-488v386q0 15-10.5 25.5T138 524t-25.5-10.5T102 488V102q0-15 10.5-25.5T138 66t25.5 10.5T174 102z"/><glyph glyph-name="r" unicode="r" d="M138 590q45 0 76.5-31.5T246 482V370q0-44-31-75 31-31 31-75V0h-72v226q0 15-10.5 25.5T138 262h-36V0H30v590h108zm-36-262h36q15 0 25.5 10.5T174 364v124q0 15-10.5 25.5T138 524h-36V328z"/><glyph glyph-name="s" unicode="s" d="M138 590q45 0 76.5-31.5T246 482v-72h-72v78q0 15-10.5 25.5T138 524t-25.5-10.5T102 488V364q0-15 10.5-25.5T138 328q45 0 76.5-31.5T246 220V108q0-45-31.5-76.5T138 0 61.5 31.5 30 108v72h72v-78q0-15 10.5-25.5T138 66t25.5 10.5T174 102v124q0 15-10.5 25.5T138 262q-45 0-76.5 31.5T30 370v112q0 45 31.5 76.5T138 590z"/><glyph glyph-name="t" unicode="t" d="M30 524v66h216v-66h-72V0h-72v524H30z"/><glyph glyph-name="u" unicode="u" d="M174 102v488h72V108q0-45-31.5-76.5T138 0 61.5 31.5 30 108v482h72V102q0-15 10.5-25.5T138 66t25.5 10.5T174 102z"/><glyph glyph-name="v" unicode="v" d="m144 196 30 394h72L174 0h-72L30 590h72l30-394q0-6 6-6t6 6z"/><glyph glyph-name="w" unicode="w" horiz-adv-x="420" d="M318 102v488h72V108q0-45-31.5-76.5T282 0q-41 0-72 28-31-28-72-28-45 0-76.5 31.5T30 108v482h72V102q0-15 10.5-25.5T138 66t25.5 10.5T174 102v488h72V102q0-15 10.5-25.5T282 66t25.5 10.5T318 102z"/><glyph glyph-name="x" unicode="x" d="M174 364v226h72V370q0-44-31-75 31-31 31-75V0h-72v226q0 15-10.5 25.5T138 262t-25.5-10.5T102 226V0H30v220q0 44 31 75-31 31-31 75v220h72V364q0-15 10.5-25.5T138 328t25.5 10.5T174 364z"/><glyph glyph-name="y" unicode="y" d="M174 364v226h72V370q0-35-20-62.5T174 269V0h-72v269q-32 11-52 38.5T30 370v220h72V364q0-15 10.5-25.5T138 328t25.5 10.5T174 364z"/><glyph glyph-name="z" unicode="z" d="M104 66h142V0H90Q59 0 42 22 30 37 30 58q0 6 2 16l140 450H30v66h156q31 0 48-22 12-15 12-36 0-6-2-16z"/><glyph glyph-name="braceleft" unicode="{" horiz-adv-x="324" d="M174 664V425q0-45-30-75 30-30 30-75V36q0-15 10.5-25.5T210 0h84v-66h-84q-45 0-76.5 31.5T102 42v239q0 15-10.5 25.5T66 317H30v66h36q15 0 25.5 10.5T102 419v239q0 45 31.5 76.5T210 766h84v-66h-84q-15 0-25.5-10.5T174 664z"/><glyph glyph-name="bar" unicode="|" horiz-adv-x="108" d="M30-66v832h48V-66H30z"/><glyph glyph-name="braceright" unicode="}" horiz-adv-x="324" d="M150 664q0 15-10.5 25.5T114 700H30v66h84q45 0 76.5-31.5T222 658V419q0-15 10.5-25.5T258 383h36v-66h-36q-15 0-25.5-10.5T222 281V42q0-45-31.5-76.5T114-66H30V0h84q15 0 25.5 10.5T150 36v239q0 45 30 75-30 30-30 75v239z"/><glyph glyph-name="asciitilde" unicode="~" horiz-adv-x="308" d="m62 300-32 35 38 34q21 19 50 19t50-19l4-3q8-6 18-6t18 6l38 34 32-35-38-34q-21-19-50-19t-50 19l-4 3q-8 6-18 6t-18-6z"/><glyph glyph-name="uni00A0" horiz-adv-x="208"/><glyph glyph-name="exclamdown" unicode="¡" horiz-adv-x="132" d="M30-66v556h72V-66H30zm0 628v72h72v-72H30z"/><glyph glyph-name="cent" unicode="¢" d="M246 490h-72v108q0 15-10.5 25.5T138 634t-25.5-10.5T102 598V102q0-15 10.5-25.5T138 66t25.5 10.5T174 102v108h72V108q0-35-20-63T174 6v-70h-72V6Q70 17 50 45t-20 63v484q0 35 20 63t52 39v70h72v-70q32-11 52-39t20-63V490z"/><glyph glyph-name="sterling" unicode="£" horiz-adv-x="348" d="M318 490h-72v108q0 15-10.5 25.5T210 634t-25.5-10.5T174 598V383h72v-66h-72V66h144V0H30v66h72v251H30v66h72v209q0 45 31.5 76.5T210 700t76.5-31.5T318 592V490z"/><glyph glyph-name="currency" unicode="¤" horiz-adv-x="320" d="M268 268q0-33-19-60l41-93-44-19-34 78q-26-14-52-14t-52 14L74 96l-44 19 41 93q-19 27-19 60v166q0 34 19 61l-41 92 44 20 34-78q24 13 52 13t52-13l34 78 44-20-41-92q19-27 19-61V268zm-72-6v178q0 15-10.5 25.5T160 476t-25.5-10.5T124 440V262q0-15 10.5-25.5T160 226t25.5 10.5T196 262z"/><glyph glyph-name="yen" unicode="¥" d="M246 425q0-35-20-63t-52-39v-31h72v-66h-72v-50h72v-66h-72V0h-72v110H30v66h72v50H30v66h72v31q-32 11-52 39t-20 63v275h72V419q0-15 10.5-25.5T138 383t25.5 10.5T174 419v281h72V425z"/><glyph glyph-name="brokenbar" unicode="¦" horiz-adv-x="108" d="M30-66v342h48V-66H30zm0 490v342h48V424H30z"/><glyph glyph-name="section" unicode="§" d="M246 590h-72v72q0 15-10.5 25.5T138 698t-25.5-10.5T102 662V535q19 7 36 7 45 0 76.5-31.5T246 434V44q0-45-31.5-76.5T138-64 61.5-32.5 30 44v66h72V38q0-15 10.5-25.5T138 2t25.5 10.5T174 38v128q-19-7-36-7-45 0-76.5 31.5T30 267v389q0 45 31.5 76.5T138 764t76.5-31.5T246 656v-66zM138 476q-15 0-25.5-10.5T102 440V261q0-15 10.5-25.5T138 225t25.5 10.5T174 261v179q0 15-10.5 25.5T138 476z"/><glyph glyph-name="dieresis" unicode="¨" horiz-adv-x="192" d="M30 620v52h52v-52H30zm80 0v52h52v-52h-52z"/><glyph glyph-name="copyright" unicode="©" horiz-adv-x="564" d="M282 0Q178 0 104 74T30 252v86q0 104 74 178t178 74 178-74 74-178v-86q0-104-74-178T282 0zm0 524q-74 0-127-53t-53-127v-98q0-74 53-127t127-53 127 53 53 127v98q0 74-53 127t-127 53zm108-261v-17q0-45-31.5-76.5T282 138t-76.5 31.5T174 246v98q0 45 31.5 76.5T282 452t76.5-31.5T390 344v-17h-72v23q0 15-10.5 25.5T282 386t-25.5-10.5T246 350V240q0-15 10.5-25.5T282 204t25.5 10.5T318 240v23h72z"/><glyph glyph-name="ordfeminine" unicode="ª" horiz-adv-x="216" d="M30 394v48h156v-48H30zm91 306q27 0 46-19t19-46V490h-48v57H78v-57H30v145q0 27 19 46t46 19h26zM78 595h60v40q0 7-5 12t-12 5H95q-7 0-12-5t-5-12v-40z"/><glyph glyph-name="guillemotleft" unicode="«" horiz-adv-x="390" d="M155 225 30 350l125 125 46-47-78-78 78-78zm159 0L189 350l125 125 46-47-78-78 78-78z"/><glyph glyph-name="logicalnot" unicode="¬" d="M30 383h216V242h-72v75H30v66z"/><glyph glyph-name="uni00AD" unicode="­" horiz-adv-x="204" d="M30 317v66h144v-66H30z"/><glyph glyph-name="registered" unicode="®" horiz-adv-x="564" d="M282 0Q178 0 104 74T30 252v86q0 104 74 178t178 74 178-74 74-178v-86q0-104-74-178T282 0zm0 524q-74 0-127-53t-53-127v-98q0-74 53-127t127-53 127 53 53 127v98q0 74-53 127t-127 53zm108-180v-1q0-45-30-75 30-30 30-75v-11h-72v17q0 15-10.5 25.5T282 235h-36v-53h-72v162q0 45 31.5 76.5T282 452t76.5-31.5T390 344zm-144-43h36q15 0 25.5 10.5T318 337v13q0 15-10.5 25.5T282 386t-25.5-10.5T246 350v-49z"/><glyph glyph-name="macron" unicode="¯" horiz-adv-x="192" d="M30 620v52h132v-52H30z"/><glyph glyph-name="degree" unicode="°" horiz-adv-x="216" d="M121 531H95q-27 0-46 19t-19 46v39q0 27 19 46t46 19h26q27 0 46-19t19-46v-39q0-27-19-46t-46-19zM95 652q-7 0-12-5t-5-12v-39q0-7 5-12t12-5h26q7 0 12 5t5 12v39q0 7-5 12t-12 5H95z"/><glyph glyph-name="plusminus" unicode="±" d="M30 110v66h216v-66H30zm141 273h75v-66h-75v-75h-66v75H30v66h75v75h66v-75z"/><glyph glyph-name="uni00B2" unicode="²" horiz-adv-x="216" d="M78 554v-16h108v-48H30v64q0 27 19 46t46 19h26q7 0 12 5t5 12-5 11.5-12 4.5H95q-7 0-12-4.5T78 636v-2H30v2q0 27 19 45.5T95 700h26q27 0 46-18.5t19-45.5-19-46-46-19H95q-7 0-12-5t-5-12z"/><glyph glyph-name="uni00B3" unicode="³" horiz-adv-x="216" d="M186 636q0-24-14-41 14-17 14-41 0-27-19-45.5T121 490H95q-27 0-46 18.5T30 554v2h48v-2q0-7 5-11.5t12-4.5h26q7 0 12 4.5t5 11.5-5 12-12 5H95v48h26q7 0 12 5t5 12-5 11.5-12 4.5H95q-7 0-12-4.5T78 636v-2H30v2q0 27 19 45.5T95 700h26q27 0 46-18.5t19-45.5z"/><glyph glyph-name="acute" unicode="´" horiz-adv-x="128" d="M78 620H30l16 94h52z"/><glyph glyph-name="mu" unicode="µ" d="M174 590h72V108q0-45-31.5-76.5T138 0h-36v-64H30v654h72V66h36q15 0 25.5 10.5T174 102v488z"/><glyph glyph-name="paragraph" unicode="¶" horiz-adv-x="312" d="M138 700h144V0h-72v634h-72q-15 0-25.5-10.5T102 598V419q0-15 10.5-25.5T138 383V0H66v345q-36 33-36 80v167q0 45 31.5 76.5T138 700z"/><glyph glyph-name="periodcentered" unicode="·" horiz-adv-x="132" d="M30 314v72h72v-72H30z"/><glyph glyph-name="cedilla" unicode="¸" horiz-adv-x="166" d="M30-92v48h41q7 0 12 6.5T88-22 83-6.5 71 0v48q27 0 46-20.5T136-22t-19-49.5T71-92H30z"/><glyph glyph-name="uni00B9" unicode="¹" horiz-adv-x="168" d="M138 490H90v145q0 7-5 12t-12 5H30v48h43q27 0 46-19t19-46V490z"/><glyph glyph-name="ordmasculine" unicode="º" horiz-adv-x="216" d="M30 394v48h156v-48H30zm91 96H95q-27 0-46 19t-19 46v80q0 27 19 46t46 19h26q27 0 46-19t19-46v-80q0-27-19-46t-46-19zM95 652q-7 0-12-5t-5-12v-80q0-7 5-12t12-5h26q7 0 12 5t5 12v80q0 7-5 12t-12 5H95z"/><glyph glyph-name="guillemotright" unicode="»" horiz-adv-x="390" d="m235 225-46 47 78 78-78 78 46 47 125-125zm-159 0-46 47 78 78-78 78 46 47 125-125z"/><glyph glyph-name="onequarter" unicode="¼" horiz-adv-x="362" d="M284 210h48V0h-48v81h-43q-27 0-46 19t-19 46v64h48v-64q0-7 5-12t12-5h43v81zM30 7l216 700 45-14L75-7zm114 483H96v145q0 7-5 12t-12 5H36v48h43q27 0 46-19t19-46V490z"/><glyph glyph-name="onehalf" unicode="½" horiz-adv-x="362" d="M144 490H96v145q0 7-5 12t-12 5H36v48h43q27 0 46-19t19-46V490zM30 7l216 700 45-14L75-7zm194 57V48h108V0H176v64q0 27 19 46t46 19h26q7 0 12 5t5 12-5 11.5-12 4.5h-26q-7 0-12-4.5t-5-11.5v-2h-48v2q0 27 19 45.5t46 18.5h26q27 0 46-18.5t19-45.5-19-46-46-19h-26q-7 0-12-5t-5-12z"/><glyph glyph-name="threequarters" unicode="¾" horiz-adv-x="404" d="M326 210h48V0h-48v81h-43q-27 0-46 19t-19 46v64h48v-64q0-7 5-12t12-5h43v81zM71 7l216 700 46-14L117-7zm115 629q0-24-14-41 14-17 14-41 0-27-19-45.5T121 490H95q-27 0-46 18.5T30 554v2h48v-2q0-7 5-11.5t12-4.5h26q7 0 12 4.5t5 11.5-5 12-12 5H95v48h26q7 0 12 5t5 12-5 11.5-12 4.5H95q-7 0-12-4.5T78 636v-2H30v2q0 27 19 45.5T95 700h26q27 0 46-18.5t19-45.5z"/><glyph glyph-name="questiondown" unicode="¿" d="M174 564v72h72v-72h-72zm0-209v137h72V361q0-45-31.5-76.5T138 253q-15 0-25.5-10.5T102 217V38q0-15 10.5-25.5T138 2t25.5 10.5T174 38v108h72V44q0-45-31.5-76.5T138-64 61.5-32.5 30 44v167q0 45 31.5 76.5T138 319q15 0 25.5 10.5T174 355z"/><glyph glyph-name="Agrave" unicode="À" d="m114 730-20 94h52l16-94h-48zm24-30q45 0 76.5-31.5T246 592V0h-72v317h-72V0H30v592q0 45 31.5 76.5T138 700zm-36-317h72v215q0 15-10.5 25.5T138 634t-25.5-10.5T102 598V383z"/><glyph glyph-name="Aacute" unicode="Á" d="M162 730h-48l16 94h52zm-24-30q45 0 76.5-31.5T246 592V0h-72v317h-72V0H30v592q0 45 31.5 76.5T138 700zm-36-317h72v215q0 15-10.5 25.5T138 634t-25.5-10.5T102 598V383z"/><glyph glyph-name="Acircumflex" unicode="Â" d="m152 730-12 73h-4l-12-73H72l20 94h92l20-94h-52zm-14-30q45 0 76.5-31.5T246 592V0h-72v317h-72V0H30v592q0 45 31.5 76.5T138 700zm-36-317h72v215q0 15-10.5 25.5T138 634t-25.5-10.5T102 598V383z"/><glyph glyph-name="Atilde" unicode="Ã" d="m77 715-37 30 26 33q19 22 45 22 27 0 46-22 7-9 15 0l27 32 37-30-26-33q-19-22-45-22-27 0-46 22-7 9-15 0zm61-15q45 0 76.5-31.5T246 592V0h-72v317h-72V0H30v592q0 45 31.5 76.5T138 700zm-36-317h72v215q0 15-10.5 25.5T138 634t-25.5-10.5T102 598V383z"/><glyph glyph-name="Adieresis" unicode="Ä" d="M72 730v52h52v-52H72zm80 0v52h52v-52h-52zm-14-30q45 0 76.5-31.5T246 592V0h-72v317h-72V0H30v592q0 45 31.5 76.5T138 700zm-36-317h72v215q0 15-10.5 25.5T138 634t-25.5-10.5T102 598V383z"/><glyph glyph-name="Aring" unicode="Å" d="M138 894q29 0 49.5-20.5T208 824v-24q0-29-20.5-49.5T138 730t-49.5 20.5T68 800v24q0 29 20.5 49.5T138 894zm22-94v24q0 9-6.5 15.5T138 846t-15.5-6.5T116 824v-24q0-9 6.5-15.5T138 778t15.5 6.5T160 800zm-22-100q45 0 76.5-31.5T246 592V0h-72v317h-72V0H30v592q0 45 31.5 76.5T138 700zm-36-317h72v215q0 15-10.5 25.5T138 634t-25.5-10.5T102 598V383z"/><glyph glyph-name="AE" unicode="Æ" horiz-adv-x="420" d="M390 490h-72v108q0 15-10.5 25.5T282 634t-25.5-10.5T246 598V383h72v-66h-72V102q0-15 10.5-25.5T282 66t25.5 10.5T318 102v108h72V108q0-45-31.5-76.5T282 0t-76.5 31.5T174 108v209h-72V0H30v592q0 45 31.5 76.5T138 700q41 0 72-28 31 28 72 28 45 0 76.5-31.5T390 592V490zM174 383v215q0 15-10.5 25.5T138 634t-25.5-10.5T102 598V383h72z"/><glyph glyph-name="Ccedilla" unicode="Ç" d="M246 490h-72v108q0 15-10.5 25.5T138 634t-25.5-10.5T102 598V102q0-15 10.5-25.5T138 66t25.5 10.5T174 102v108h72V108q0-62-53-93 10-18 10-37 0-29-19-49.5T138-92H97v48h41q7 0 12 6.5t5 15.5-5 15.5T138 0Q93 0 61.5 31.5T30 108v484q0 45 31.5 76.5T138 700t76.5-31.5T246 592V490z"/><glyph glyph-name="Egrave" unicode="È" d="M138 700q45 0 76.5-31.5T246 592V490h-72v108q0 15-10.5 25.5T138 634t-25.5-10.5T102 598V383h72v-66h-72V102q0-15 10.5-25.5T138 66t25.5 10.5T174 102v108h72V108q0-45-31.5-76.5T138 0 61.5 31.5 30 108v484q0 45 31.5 76.5T138 700zm-24 30-20 94h52l16-94h-48z"/><glyph glyph-name="Eacute" unicode="É" d="M138 700q45 0 76.5-31.5T246 592V490h-72v108q0 15-10.5 25.5T138 634t-25.5-10.5T102 598V383h72v-66h-72V102q0-15 10.5-25.5T138 66t25.5 10.5T174 102v108h72V108q0-45-31.5-76.5T138 0 61.5 31.5 30 108v484q0 45 31.5 76.5T138 700zm24 30h-48l16 94h52z"/><glyph glyph-name="Ecircumflex" unicode="Ê" d="M138 700q45 0 76.5-31.5T246 592V490h-72v108q0 15-10.5 25.5T138 634t-25.5-10.5T102 598V383h72v-66h-72V102q0-15 10.5-25.5T138 66t25.5 10.5T174 102v108h72V108q0-45-31.5-76.5T138 0 61.5 31.5 30 108v484q0 45 31.5 76.5T138 700zm14 30-12 73h-4l-12-73H72l20 94h92l20-94h-52z"/><glyph glyph-name="Edieresis" unicode="Ë" d="M138 700q45 0 76.5-31.5T246 592V490h-72v108q0 15-10.5 25.5T138 634t-25.5-10.5T102 598V383h72v-66h-72V102q0-15 10.5-25.5T138 66t25.5 10.5T174 102v108h72V108q0-45-31.5-76.5T138 0 61.5 31.5 30 108v484q0 45 31.5 76.5T138 700zm-66 30v52h52v-52H72zm80 0v52h52v-52h-52z"/><glyph glyph-name="Igrave" unicode="Ì" horiz-adv-x="140" d="M38 0v700h72V0H38zm12 730-20 94h52l16-94H50z"/><glyph glyph-name="Iacute" unicode="Í" horiz-adv-x="140" d="M30 0v700h72V0H30zm60 730H42l16 94h52z"/><glyph glyph-name="Icircumflex" unicode="Î" horiz-adv-x="192" d="M60 0v700h72V0H60zm50 730-12 73h-4l-12-73H30l20 94h92l20-94h-52z"/><glyph glyph-name="Idieresis" unicode="Ï" horiz-adv-x="192" d="M60 0v700h72V0H60zM30 730v52h52v-52H30zm80 0v52h52v-52h-52z"/><glyph glyph-name="Eth" unicode="Ð" horiz-adv-x="300" d="M162 700q45 0 76.5-31.5T270 592V108q0-45-31.5-76.5T162 0H54v317H30v66h24v317h108zm36-598v496q0 15-10.5 25.5T162 634h-36V383h36v-66h-36V66h36q15 0 25.5 10.5T198 102z"/><glyph glyph-name="Ntilde" unicode="Ñ" d="M138 700q45 0 76.5-31.5T246 592V0h-72v598q0 15-10.5 25.5T138 634t-25.5-10.5T102 598V0H30v592q0 45 31.5 76.5T138 700zm-61 15-37 30 26 33q19 22 45 22 27 0 46-22 7-9 15 0l27 32 37-30-26-33q-19-22-45-22-27 0-46 22-7 9-15 0z"/><glyph glyph-name="Ograve" unicode="Ò" d="M138 700q45 0 76.5-31.5T246 592V108q0-45-31.5-76.5T138 0 61.5 31.5 30 108v484q0 45 31.5 76.5T138 700zm36-598v496q0 15-10.5 25.5T138 634t-25.5-10.5T102 598V102q0-15 10.5-25.5T138 66t25.5 10.5T174 102zm-60 628-20 94h52l16-94h-48z"/><glyph glyph-name="Oacute" unicode="Ó" d="M138 700q45 0 76.5-31.5T246 592V108q0-45-31.5-76.5T138 0 61.5 31.5 30 108v484q0 45 31.5 76.5T138 700zm36-598v496q0 15-10.5 25.5T138 634t-25.5-10.5T102 598V102q0-15 10.5-25.5T138 66t25.5 10.5T174 102zm-12 628h-48l16 94h52z"/><glyph glyph-name="Ocircumflex" unicode="Ô" d="M138 700q45 0 76.5-31.5T246 592V108q0-45-31.5-76.5T138 0 61.5 31.5 30 108v484q0 45 31.5 76.5T138 700zm36-598v496q0 15-10.5 25.5T138 634t-25.5-10.5T102 598V102q0-15 10.5-25.5T138 66t25.5 10.5T174 102zm-22 628-12 73h-4l-12-73H72l20 94h92l20-94h-52z"/><glyph glyph-name="Otilde" unicode="Õ" d="M138 700q45 0 76.5-31.5T246 592V108q0-45-31.5-76.5T138 0 61.5 31.5 30 108v484q0 45 31.5 76.5T138 700zm36-598v496q0 15-10.5 25.5T138 634t-25.5-10.5T102 598V102q0-15 10.5-25.5T138 66t25.5 10.5T174 102zM77 715l-37 30 26 33q19 22 45 22 27 0 46-22 7-9 15 0l27 32 37-30-26-33q-19-22-45-22-27 0-46 22-7 9-15 0z"/><glyph glyph-name="Odieresis" unicode="Ö" d="M138 700q45 0 76.5-31.5T246 592V108q0-45-31.5-76.5T138 0 61.5 31.5 30 108v484q0 45 31.5 76.5T138 700zm36-598v496q0 15-10.5 25.5T138 634t-25.5-10.5T102 598V102q0-15 10.5-25.5T138 66t25.5 10.5T174 102zM72 730v52h52v-52H72zm80 0v52h52v-52h-52z"/><glyph glyph-name="multiply" unicode="×" horiz-adv-x="260" d="m230 403-53-53 53-53-47-47-53 53-53-53-47 47 53 53-53 53 47 47 53-53 53 53z"/><glyph glyph-name="Oslash" unicode="Ø" horiz-adv-x="322" d="m292 758-32-123q9-19 9-43V108q0-45-31.5-76.5T161 0q-34 0-61 19L76-70 30-58 62 65q-9 19-9 43v484q0 45 31.5 76.5T161 700q34 0 61-19l24 89zM125 598V307l72 276v15q0 15-10.5 25.5T161 634t-25.5-10.5T125 598zm72-496v291l-72-276v-15q0-15 10.5-25.5T161 66t25.5 10.5T197 102z"/><glyph glyph-name="Ugrave" unicode="Ù" d="M174 102v598h72V108q0-45-31.5-76.5T138 0 61.5 31.5 30 108v592h72V102q0-15 10.5-25.5T138 66t25.5 10.5T174 102zm-60 628-20 94h52l16-94h-48z"/><glyph glyph-name="Uacute" unicode="Ú" d="M174 102v598h72V108q0-45-31.5-76.5T138 0 61.5 31.5 30 108v592h72V102q0-15 10.5-25.5T138 66t25.5 10.5T174 102zm-12 628h-48l16 94h52z"/><glyph glyph-name="Ucircumflex" unicode="Û" d="M174 102v598h72V108q0-45-31.5-76.5T138 0 61.5 31.5 30 108v592h72V102q0-15 10.5-25.5T138 66t25.5 10.5T174 102zm-22 628-12 73h-4l-12-73H72l20 94h92l20-94h-52z"/><glyph glyph-name="Udieresis" unicode="Ü" d="M174 102v598h72V108q0-45-31.5-76.5T138 0 61.5 31.5 30 108v592h72V102q0-15 10.5-25.5T138 66t25.5 10.5T174 102zM72 730v52h52v-52H72zm80 0v52h52v-52h-52z"/><glyph glyph-name="Yacute" unicode="Ý" d="M174 419v281h72V425q0-35-20-62.5T174 324V0h-72v324q-32 11-52 38.5T30 425v275h72V419q0-15 10.5-25.5T138 383t25.5 10.5T174 419zm-12 311h-48l16 94h52z"/><glyph glyph-name="Thorn" unicode="Þ" d="M138 636q45 0 76.5-31.5T246 528V108q0-45-31.5-76.5T138 0h-36v-64H30v764h72v-64h36zm36-534v432q0 15-10.5 25.5T138 570h-36V66h36q15 0 25.5 10.5T174 102z"/><glyph glyph-name="germandbls" unicode="ß" d="M246 482V370q0-45-30-75 30-30 30-75V108q0-42-28-72T149 1V0h-47v-64H30v654h108q45 0 76.5-31.5T246 482zm-108 42h-36V328h36q15 0 25.5 10.5T174 364v124q0 15-10.5 25.5T138 524zm36-422v124q0 15-10.5 25.5T138 262h-36V66h36q15 0 25.5 10.5T174 102z"/><glyph glyph-name="agrave" unicode="à" d="M138 590q45 0 76.5-31.5T246 482V0h-72v262h-72V0H30v482q0 45 31.5 76.5T138 590zm-36-262h72v160q0 15-10.5 25.5T138 524t-25.5-10.5T102 488V328zm12 292-20 94h52l16-94h-48z"/><glyph glyph-name="aacute" unicode="á" d="M138 590q45 0 76.5-31.5T246 482V0h-72v262h-72V0H30v482q0 45 31.5 76.5T138 590zm-36-262h72v160q0 15-10.5 25.5T138 524t-25.5-10.5T102 488V328zm60 292h-48l16 94h52z"/><glyph glyph-name="acircumflex" unicode="â" d="M138 590q45 0 76.5-31.5T246 482V0h-72v262h-72V0H30v482q0 45 31.5 76.5T138 590zm-36-262h72v160q0 15-10.5 25.5T138 524t-25.5-10.5T102 488V328zm50 292-12 73h-4l-12-73H72l20 94h92l20-94h-52z"/><glyph glyph-name="atilde" unicode="ã" d="M138 590q45 0 76.5-31.5T246 482V0h-72v262h-72V0H30v482q0 45 31.5 76.5T138 590zm-36-262h72v160q0 15-10.5 25.5T138 524t-25.5-10.5T102 488V328zM77 605l-37 30 26 33q19 22 45 22 27 0 46-22 7-9 15 0l27 32 37-30-26-33q-19-22-45-22-27 0-46 22-7 9-15 0z"/><glyph glyph-name="adieresis" unicode="ä" d="M138 590q45 0 76.5-31.5T246 482V0h-72v262h-72V0H30v482q0 45 31.5 76.5T138 590zm-36-262h72v160q0 15-10.5 25.5T138 524t-25.5-10.5T102 488V328zM72 620v52h52v-52H72zm80 0v52h52v-52h-52z"/><glyph glyph-name="aring" unicode="å" d="M138 590q45 0 76.5-31.5T246 482V0h-72v262h-72V0H30v482q0 45 31.5 76.5T138 590zm-36-262h72v160q0 15-10.5 25.5T138 524t-25.5-10.5T102 488V328zm36 456q29 0 49.5-20.5T208 714v-24q0-29-20.5-49.5T138 620t-49.5 20.5T68 690v24q0 29 20.5 49.5T138 784zm22-94v24q0 9-6.5 15.5T138 736t-15.5-6.5T116 714v-24q0-9 6.5-15.5T138 668t15.5 6.5T160 690z"/><glyph glyph-name="ae" unicode="æ" horiz-adv-x="420" d="M390 410h-72v78q0 15-10.5 25.5T282 524t-25.5-10.5T246 488V328h72v-66h-72V102q0-15 10.5-25.5T282 66t25.5 10.5T318 102v78h72v-72q0-45-31.5-76.5T282 0t-76.5 31.5T174 108v154h-72V0H30v482q0 45 31.5 76.5T138 590q41 0 72-28 31 28 72 28 45 0 76.5-31.5T390 482v-72zm-216-82v160q0 15-10.5 25.5T138 524t-25.5-10.5T102 488V328h72z"/><glyph glyph-name="ccedilla" unicode="ç" d="M246 410h-72v78q0 15-10.5 25.5T138 524t-25.5-10.5T102 488V102q0-15 10.5-25.5T138 66t25.5 10.5T174 102v78h72v-72q0-62-53-93 10-18 10-37 0-29-19-49.5T138-92H97v48h41q7 0 12 6.5t5 15.5-5 15.5T138 0Q93 0 61.5 31.5T30 108v374q0 45 31.5 76.5T138 590t76.5-31.5T246 482v-72z"/><glyph glyph-name="egrave" unicode="è" d="M138 590q45 0 76.5-31.5T246 482v-72h-72v78q0 15-10.5 25.5T138 524t-25.5-10.5T102 488V328h72v-66h-72V102q0-15 10.5-25.5T138 66t25.5 10.5T174 102v78h72v-72q0-45-31.5-76.5T138 0 61.5 31.5 30 108v374q0 45 31.5 76.5T138 590zm-24 30-20 94h52l16-94h-48z"/><glyph glyph-name="eacute" unicode="é" d="M138 590q45 0 76.5-31.5T246 482v-72h-72v78q0 15-10.5 25.5T138 524t-25.5-10.5T102 488V328h72v-66h-72V102q0-15 10.5-25.5T138 66t25.5 10.5T174 102v78h72v-72q0-45-31.5-76.5T138 0 61.5 31.5 30 108v374q0 45 31.5 76.5T138 590zm24 30h-48l16 94h52z"/><glyph glyph-name="ecircumflex" unicode="ê" d="M138 590q45 0 76.5-31.5T246 482v-72h-72v78q0 15-10.5 25.5T138 524t-25.5-10.5T102 488V328h72v-66h-72V102q0-15 10.5-25.5T138 66t25.5 10.5T174 102v78h72v-72q0-45-31.5-76.5T138 0 61.5 31.5 30 108v374q0 45 31.5 76.5T138 590zm14 30-12 73h-4l-12-73H72l20 94h92l20-94h-52z"/><glyph glyph-name="edieresis" unicode="ë" d="M138 590q45 0 76.5-31.5T246 482v-72h-72v78q0 15-10.5 25.5T138 524t-25.5-10.5T102 488V328h72v-66h-72V102q0-15 10.5-25.5T138 66t25.5 10.5T174 102v78h72v-72q0-45-31.5-76.5T138 0 61.5 31.5 30 108v374q0 45 31.5 76.5T138 590zm-66 30v52h52v-52H72zm80 0v52h52v-52h-52z"/><glyph glyph-name="igrave" unicode="ì" horiz-adv-x="140" d="M38 0v590h72V0H38zm12 620-20 94h52l16-94H50z"/><glyph glyph-name="iacute" unicode="í" horiz-adv-x="140" d="M30 0v590h72V0H30zm60 620H42l16 94h52z"/><glyph glyph-name="icircumflex" unicode="î" horiz-adv-x="192" d="M60 0v590h72V0H60zm50 620-12 73h-4l-12-73H30l20 94h92l20-94h-52z"/><glyph glyph-name="idieresis" unicode="ï" horiz-adv-x="192" d="M60 0v590h72V0H60zM30 620v52h52v-52H30zm80 0v52h52v-52h-52z"/><glyph glyph-name="eth" unicode="ð" horiz-adv-x="300" d="M162 590q45 0 76.5-31.5T270 482V108q0-45-31.5-76.5T162 0H54v262H30v66h24v262h108zm36-488v386q0 15-10.5 25.5T162 524h-36V328h36v-66h-36V66h36q15 0 25.5 10.5T198 102z"/><glyph glyph-name="ntilde" unicode="ñ" d="M138 590q45 0 76.5-31.5T246 482V0h-72v488q0 15-10.5 25.5T138 524t-25.5-10.5T102 488V0H30v482q0 45 31.5 76.5T138 590zm-61 15-37 30 26 33q19 22 45 22 27 0 46-22 7-9 15 0l27 32 37-30-26-33q-19-22-45-22-27 0-46 22-7 9-15 0z"/><glyph glyph-name="ograve" unicode="ò" d="M138 590q45 0 76.5-31.5T246 482V108q0-45-31.5-76.5T138 0 61.5 31.5 30 108v374q0 45 31.5 76.5T138 590zm36-488v386q0 15-10.5 25.5T138 524t-25.5-10.5T102 488V102q0-15 10.5-25.5T138 66t25.5 10.5T174 102zm-60 518-20 94h52l16-94h-48z"/><glyph glyph-name="oacute" unicode="ó" d="M138 590q45 0 76.5-31.5T246 482V108q0-45-31.5-76.5T138 0 61.5 31.5 30 108v374q0 45 31.5 76.5T138 590zm36-488v386q0 15-10.5 25.5T138 524t-25.5-10.5T102 488V102q0-15 10.5-25.5T138 66t25.5 10.5T174 102zm-12 518h-48l16 94h52z"/><glyph glyph-name="ocircumflex" unicode="ô" d="M138 590q45 0 76.5-31.5T246 482V108q0-45-31.5-76.5T138 0 61.5 31.5 30 108v374q0 45 31.5 76.5T138 590zm36-488v386q0 15-10.5 25.5T138 524t-25.5-10.5T102 488V102q0-15 10.5-25.5T138 66t25.5 10.5T174 102zm-22 518-12 73h-4l-12-73H72l20 94h92l20-94h-52z"/><glyph glyph-name="otilde" unicode="õ" d="M138 590q45 0 76.5-31.5T246 482V108q0-45-31.5-76.5T138 0 61.5 31.5 30 108v374q0 45 31.5 76.5T138 590zm36-488v386q0 15-10.5 25.5T138 524t-25.5-10.5T102 488V102q0-15 10.5-25.5T138 66t25.5 10.5T174 102zM77 605l-37 30 26 33q19 22 45 22 27 0 46-22 7-9 15 0l27 32 37-30-26-33q-19-22-45-22-27 0-46 22-7 9-15 0z"/><glyph glyph-name="odieresis" unicode="ö" d="M138 590q45 0 76.5-31.5T246 482V108q0-45-31.5-76.5T138 0 61.5 31.5 30 108v374q0 45 31.5 76.5T138 590zm36-488v386q0 15-10.5 25.5T138 524t-25.5-10.5T102 488V102q0-15 10.5-25.5T138 66t25.5 10.5T174 102zM72 620v52h52v-52H72zm80 0v52h52v-52h-52z"/><glyph glyph-name="divide" unicode="÷" d="M30 317v66h216v-66H30zm72-147v72h72v-72h-72zm0 288v72h72v-72h-72z"/><glyph glyph-name="oslash" unicode="ø" horiz-adv-x="322" d="m292 647-35-116q12-23 12-49V108q0-45-31.5-76.5T161 0q-32 0-58 17L76-71 30-57 65 59q-12 23-12 49v374q0 45 31.5 76.5T161 590q32 0 58-17l27 88zM125 488V259l71 236q-2 12-12 20.5t-23 8.5q-15 0-25.5-10.5T125 488zm72-386v229L126 95q2-12 12-20.5t23-8.5q15 0 25.5 10.5T197 102z"/><glyph glyph-name="ugrave" unicode="ù" d="M174 102v488h72V108q0-45-31.5-76.5T138 0 61.5 31.5 30 108v482h72V102q0-15 10.5-25.5T138 66t25.5 10.5T174 102zm-60 518-20 94h52l16-94h-48z"/><glyph glyph-name="uacute" unicode="ú" d="M174 102v488h72V108q0-45-31.5-76.5T138 0 61.5 31.5 30 108v482h72V102q0-15 10.5-25.5T138 66t25.5 10.5T174 102zm-12 518h-48l16 94h52z"/><glyph glyph-name="ucircumflex" unicode="û" d="M174 102v488h72V108q0-45-31.5-76.5T138 0 61.5 31.5 30 108v482h72V102q0-15 10.5-25.5T138 66t25.5 10.5T174 102zm-22 518-12 73h-4l-12-73H72l20 94h92l20-94h-52z"/><glyph glyph-name="udieresis" unicode="ü" d="M174 102v488h72V108q0-45-31.5-76.5T138 0 61.5 31.5 30 108v482h72V102q0-15 10.5-25.5T138 66t25.5 10.5T174 102zM72 620v52h52v-52H72zm80 0v52h52v-52h-52z"/><glyph glyph-name="yacute" unicode="ý" d="M174 364v226h72V370q0-35-20-62.5T174 269V0h-72v269q-32 11-52 38.5T30 370v220h72V364q0-15 10.5-25.5T138 328t25.5 10.5T174 364zm-12 256h-48l16 94h52z"/><glyph glyph-name="thorn" unicode="þ" d="M138 526q45 0 76.5-31.5T246 418V108q0-45-31.5-76.5T138 0h-36v-64H30v654h72v-64h36zm36-424v322q0 15-10.5 25.5T138 460h-36V66h36q15 0 25.5 10.5T174 102z"/><glyph glyph-name="ydieresis" unicode="ÿ" d="M174 364v226h72V370q0-35-20-62.5T174 269V0h-72v269q-32 11-52 38.5T30 370v220h72V364q0-15 10.5-25.5T138 328t25.5 10.5T174 364zM72 620v52h52v-52H72zm80 0v52h52v-52h-52z"/><glyph glyph-name="Aogonek" unicode="Ą" d="M138 700q45 0 76.5-31.5T246 592V108q0-32-14.5-57t-29-42.5T188-22q0-9 5-15.5t12-6.5h41v-48h-41q-27 0-46 20.5T140-22q0 25 17 61.5t17 62.5v215h-72V0H30v592q0 45 31.5 76.5T138 700zm-36-317h72v215q0 15-10.5 25.5T138 634t-25.5-10.5T102 598V383z"/><glyph glyph-name="aogonek" unicode="ą" d="M138 590q45 0 76.5-31.5T246 482V108q0-32-14.5-57t-29-42.5T188-22q0-9 5-15.5t12-6.5h41v-48h-41q-27 0-46 20.5T140-22q0 25 17 61.5t17 62.5v160h-72V0H30v482q0 45 31.5 76.5T138 590zm-36-262h72v160q0 15-10.5 25.5T138 524t-25.5-10.5T102 488V328z"/><glyph glyph-name="Cacute" unicode="Ć" d="M138 700q45 0 76.5-31.5T246 592V490h-72v108q0 15-10.5 25.5T138 634t-25.5-10.5T102 598V102q0-15 10.5-25.5T138 66t25.5 10.5T174 102v108h72V108q0-45-31.5-76.5T138 0 61.5 31.5 30 108v484q0 45 31.5 76.5T138 700zm24 30h-48l16 94h52z"/><glyph glyph-name="cacute" unicode="ć" d="M138 590q45 0 76.5-31.5T246 482v-72h-72v78q0 15-10.5 25.5T138 524t-25.5-10.5T102 488V102q0-15 10.5-25.5T138 66t25.5 10.5T174 102v78h72v-72q0-45-31.5-76.5T138 0 61.5 31.5 30 108v374q0 45 31.5 76.5T138 590zm24 30h-48l16 94h52z"/><glyph glyph-name="Ccircumflex" unicode="Ĉ" d="M138 700q45 0 76.5-31.5T246 592V490h-72v108q0 15-10.5 25.5T138 634t-25.5-10.5T102 598V102q0-15 10.5-25.5T138 66t25.5 10.5T174 102v108h72V108q0-45-31.5-76.5T138 0 61.5 31.5 30 108v484q0 45 31.5 76.5T138 700zm14 30-12 73h-4l-12-73H72l20 94h92l20-94h-52z"/><glyph glyph-name="ccircumflex" unicode="ĉ" d="M138 590q45 0 76.5-31.5T246 482v-72h-72v78q0 15-10.5 25.5T138 524t-25.5-10.5T102 488V102q0-15 10.5-25.5T138 66t25.5 10.5T174 102v78h72v-72q0-45-31.5-76.5T138 0 61.5 31.5 30 108v374q0 45 31.5 76.5T138 590zm14 30-12 73h-4l-12-73H72l20 94h92l20-94h-52z"/><glyph glyph-name="Ccaron" unicode="Č" d="M138 700q45 0 76.5-31.5T246 592V490h-72v108q0 15-10.5 25.5T138 634t-25.5-10.5T102 598V102q0-15 10.5-25.5T138 66t25.5 10.5T174 102v108h72V108q0-45-31.5-76.5T138 0 61.5 31.5 30 108v484q0 45 31.5 76.5T138 700zm14 124h52l-20-94H92l-20 94h52l12-73h4z"/><glyph glyph-name="ccaron" unicode="č" d="M138 590q45 0 76.5-31.5T246 482v-72h-72v78q0 15-10.5 25.5T138 524t-25.5-10.5T102 488V102q0-15 10.5-25.5T138 66t25.5 10.5T174 102v78h72v-72q0-45-31.5-76.5T138 0 61.5 31.5 30 108v374q0 45 31.5 76.5T138 590zm14 124h52l-20-94H92l-20 94h52l12-73h4z"/><glyph glyph-name="Dcroat" unicode="Đ" horiz-adv-x="300" d="M162 700q45 0 76.5-31.5T270 592V108q0-45-31.5-76.5T162 0H54v317H30v66h24v317h108zm36-598v496q0 15-10.5 25.5T162 634h-36V383h36v-66h-36V66h36q15 0 25.5 10.5T198 102z"/><glyph glyph-name="dcroat" unicode="đ" horiz-adv-x="300" d="M162 590q45 0 76.5-31.5T270 482V108q0-45-31.5-76.5T162 0H54v262H30v66h24v262h108zm36-488v386q0 15-10.5 25.5T162 524h-36V328h36v-66h-36V66h36q15 0 25.5 10.5T198 102z"/><glyph glyph-name="Emacron" unicode="Ē" d="M72 730v52h132v-52H72zm66-30q45 0 76.5-31.5T246 592V490h-72v108q0 15-10.5 25.5T138 634t-25.5-10.5T102 598V383h72v-66h-72V102q0-15 10.5-25.5T138 66t25.5 10.5T174 102v108h72V108q0-45-31.5-76.5T138 0 61.5 31.5 30 108v484q0 45 31.5 76.5T138 700z"/><glyph glyph-name="emacron" unicode="ē" d="M138 590q45 0 76.5-31.5T246 482v-72h-72v78q0 15-10.5 25.5T138 524t-25.5-10.5T102 488V328h72v-66h-72V102q0-15 10.5-25.5T138 66t25.5 10.5T174 102v78h72v-72q0-45-31.5-76.5T138 0 61.5 31.5 30 108v374q0 45 31.5 76.5T138 590zm-66 30v52h132v-52H72z"/><glyph glyph-name="Ebreve" unicode="Ĕ" d="M138 730q-29 0-49.5 20.5T68 800v24h48v-24q0-9 6.5-15.5T138 778t15.5 6.5T160 800v24h48v-24q0-29-20.5-49.5T138 730zm0-30q45 0 76.5-31.5T246 592V490h-72v108q0 15-10.5 25.5T138 634t-25.5-10.5T102 598V383h72v-66h-72V102q0-15 10.5-25.5T138 66t25.5 10.5T174 102v108h72V108q0-45-31.5-76.5T138 0 61.5 31.5 30 108v484q0 45 31.5 76.5T138 700z"/><glyph glyph-name="ebreve" unicode="ĕ" d="M138 590q45 0 76.5-31.5T246 482v-72h-72v78q0 15-10.5 25.5T138 524t-25.5-10.5T102 488V328h72v-66h-72V102q0-15 10.5-25.5T138 66t25.5 10.5T174 102v78h72v-72q0-45-31.5-76.5T138 0 61.5 31.5 30 108v374q0 45 31.5 76.5T138 590zm0 30q-29 0-49.5 20.5T68 690v24h48v-24q0-9 6.5-15.5T138 668t15.5 6.5T160 690v24h48v-24q0-29-20.5-49.5T138 620z"/><glyph glyph-name="Eogonek" unicode="Ę" d="M246 490h-72v108q0 15-10.5 25.5T138 634t-25.5-10.5T102 598V383h72v-66h-72V102q0-15 10.5-25.5T138 66t25.5 10.5T174 102v108h72V108q0-32-14.5-57t-29-42.5T188-22q0-9 5-15.5t12-6.5h41v-48h-41q-27 0-46 20.5T140-22q0 1 3 22h-5Q93 0 61.5 31.5T30 108v484q0 45 31.5 76.5T138 700t76.5-31.5T246 592V490z"/><glyph glyph-name="eogonek" unicode="ę" d="M246 410h-72v78q0 15-10.5 25.5T138 524t-25.5-10.5T102 488V328h72v-66h-72V102q0-15 10.5-25.5T138 66t25.5 10.5T174 102v78h72v-72q0-32-14.5-57t-29-42.5T188-22q0-9 5-15.5t12-6.5h41v-48h-41q-27 0-46 20.5T140-22q0 1 3 22h-5Q93 0 61.5 31.5T30 108v374q0 45 31.5 76.5T138 590t76.5-31.5T246 482v-72z"/><glyph glyph-name="Ecaron" unicode="Ě" d="M138 700q45 0 76.5-31.5T246 592V490h-72v108q0 15-10.5 25.5T138 634t-25.5-10.5T102 598V383h72v-66h-72V102q0-15 10.5-25.5T138 66t25.5 10.5T174 102v108h72V108q0-45-31.5-76.5T138 0 61.5 31.5 30 108v484q0 45 31.5 76.5T138 700zm14 124h52l-20-94H92l-20 94h52l12-73h4z"/><glyph glyph-name="ecaron" unicode="ě" d="M138 590q45 0 76.5-31.5T246 482v-72h-72v78q0 15-10.5 25.5T138 524t-25.5-10.5T102 488V328h72v-66h-72V102q0-15 10.5-25.5T138 66t25.5 10.5T174 102v78h72v-72q0-45-31.5-76.5T138 0 61.5 31.5 30 108v374q0 45 31.5 76.5T138 590zm14 124h52l-20-94H92l-20 94h52l12-73h4z"/><glyph glyph-name="dotlessi" unicode="ı" horiz-adv-x="132" d="M30 0v590h72V0H30z"/><glyph glyph-name="Lslash" unicode="Ł" d="M174 210h72V108q0-45-31.5-76.5T138 0 61.5 31.5 30 108v592h72V383h72v-66h-72V102q0-15 10.5-25.5T138 66t25.5 10.5T174 102v108z"/><glyph glyph-name="lslash" unicode="ł" d="M174 180h72v-72q0-45-31.5-76.5T138 0 61.5 31.5 30 108v482h72V328h72v-66h-72V102q0-15 10.5-25.5T138 66t25.5 10.5T174 102v78z"/><glyph glyph-name="Nacute" unicode="Ń" d="M138 700q45 0 76.5-31.5T246 592V0h-72v598q0 15-10.5 25.5T138 634t-25.5-10.5T102 598V0H30v592q0 45 31.5 76.5T138 700zm24 30h-48l16 94h52z"/><glyph glyph-name="nacute" unicode="ń" d="M138 590q45 0 76.5-31.5T246 482V0h-72v488q0 15-10.5 25.5T138 524t-25.5-10.5T102 488V0H30v482q0 45 31.5 76.5T138 590zm24 30h-48l16 94h52z"/><glyph glyph-name="Ohungarumlaut" unicode="Ő" d="M122 730H74l16 94h52zm80 0h-48l16 94h52zm-64-30q45 0 76.5-31.5T246 592V108q0-45-31.5-76.5T138 0 61.5 31.5 30 108v484q0 45 31.5 76.5T138 700zm36-598v496q0 15-10.5 25.5T138 634t-25.5-10.5T102 598V102q0-15 10.5-25.5T138 66t25.5 10.5T174 102z"/><glyph glyph-name="ohungarumlaut" unicode="ő" d="M138 590q45 0 76.5-31.5T246 482V108q0-45-31.5-76.5T138 0 61.5 31.5 30 108v374q0 45 31.5 76.5T138 590zm36-488v386q0 15-10.5 25.5T138 524t-25.5-10.5T102 488V102q0-15 10.5-25.5T138 66t25.5 10.5T174 102zm-52 518H74l16 94h52zm80 0h-48l16 94h52z"/><glyph glyph-name="OE" unicode="Œ" horiz-adv-x="420" d="M390 490h-72v108q0 15-10.5 25.5T282 634t-25.5-10.5T246 598V383h72v-66h-72V102q0-15 10.5-25.5T282 66t25.5 10.5T318 102v108h72V108q0-45-31.5-76.5T282 0q-41 0-72 28-31-28-72-28-45 0-76.5 31.5T30 108v484q0 45 31.5 76.5T138 700q41 0 72-28 31 28 72 28 45 0 76.5-31.5T390 592V490zM174 102v496q0 15-10.5 25.5T138 634t-25.5-10.5T102 598V102q0-15 10.5-25.5T138 66t25.5 10.5T174 102z"/><glyph glyph-name="oe" unicode="œ" horiz-adv-x="420" d="M390 410h-72v78q0 15-10.5 25.5T282 524t-25.5-10.5T246 488V328h72v-66h-72V102q0-15 10.5-25.5T282 66t25.5 10.5T318 102v78h72v-72q0-45-31.5-76.5T282 0q-41 0-72 28-31-28-72-28-45 0-76.5 31.5T30 108v374q0 45 31.5 76.5T138 590q41 0 72-28 31 28 72 28 45 0 76.5-31.5T390 482v-72zM174 102v386q0 15-10.5 25.5T138 524t-25.5-10.5T102 488V102q0-15 10.5-25.5T138 66t25.5 10.5T174 102z"/><glyph glyph-name="Sacute" unicode="Ś" d="M138 700q45 0 76.5-31.5T246 592V490h-72v108q0 15-10.5 25.5T138 634t-25.5-10.5T102 598V419q0-15 10.5-25.5T138 383q45 0 76.5-31.5T246 275V108q0-45-31.5-76.5T138 0 61.5 31.5 30 108v102h72V102q0-15 10.5-25.5T138 66t25.5 10.5T174 102v179q0 15-10.5 25.5T138 317q-45 0-76.5 31.5T30 425v167q0 45 31.5 76.5T138 700zm24 30h-48l16 94h52z"/><glyph glyph-name="sacute" unicode="ś" d="M138 590q45 0 76.5-31.5T246 482v-72h-72v78q0 15-10.5 25.5T138 524t-25.5-10.5T102 488V364q0-15 10.5-25.5T138 328q45 0 76.5-31.5T246 220V108q0-45-31.5-76.5T138 0 61.5 31.5 30 108v72h72v-78q0-15 10.5-25.5T138 66t25.5 10.5T174 102v124q0 15-10.5 25.5T138 262q-45 0-76.5 31.5T30 370v112q0 45 31.5 76.5T138 590zm24 30h-48l16 94h52z"/><glyph glyph-name="Scircumflex" unicode="Ŝ" d="M138 700q45 0 76.5-31.5T246 592V490h-72v108q0 15-10.5 25.5T138 634t-25.5-10.5T102 598V419q0-15 10.5-25.5T138 383q45 0 76.5-31.5T246 275V108q0-45-31.5-76.5T138 0 61.5 31.5 30 108v102h72V102q0-15 10.5-25.5T138 66t25.5 10.5T174 102v179q0 15-10.5 25.5T138 317q-45 0-76.5 31.5T30 425v167q0 45 31.5 76.5T138 700zm14 30-12 73h-4l-12-73H72l20 94h92l20-94h-52z"/><glyph glyph-name="scircumflex" unicode="ŝ" d="M138 590q45 0 76.5-31.5T246 482v-72h-72v78q0 15-10.5 25.5T138 524t-25.5-10.5T102 488V364q0-15 10.5-25.5T138 328q45 0 76.5-31.5T246 220V108q0-45-31.5-76.5T138 0 61.5 31.5 30 108v72h72v-78q0-15 10.5-25.5T138 66t25.5 10.5T174 102v124q0 15-10.5 25.5T138 262q-45 0-76.5 31.5T30 370v112q0 45 31.5 76.5T138 590zm14 30-12 73h-4l-12-73H72l20 94h92l20-94h-52z"/><glyph glyph-name="Scaron" unicode="Š" d="M138 700q45 0 76.5-31.5T246 592V490h-72v108q0 15-10.5 25.5T138 634t-25.5-10.5T102 598V419q0-15 10.5-25.5T138 383q45 0 76.5-31.5T246 275V108q0-45-31.5-76.5T138 0 61.5 31.5 30 108v102h72V102q0-15 10.5-25.5T138 66t25.5 10.5T174 102v179q0 15-10.5 25.5T138 317q-45 0-76.5 31.5T30 425v167q0 45 31.5 76.5T138 700zm14 124h52l-20-94H92l-20 94h52l12-73h4z"/><glyph glyph-name="scaron" unicode="š" d="M138 590q45 0 76.5-31.5T246 482v-72h-72v78q0 15-10.5 25.5T138 524t-25.5-10.5T102 488V364q0-15 10.5-25.5T138 328q45 0 76.5-31.5T246 220V108q0-45-31.5-76.5T138 0 61.5 31.5 30 108v72h72v-78q0-15 10.5-25.5T138 66t25.5 10.5T174 102v124q0 15-10.5 25.5T138 262q-45 0-76.5 31.5T30 370v112q0 45 31.5 76.5T138 590zm14 124h52l-20-94H92l-20 94h52l12-73h4z"/><glyph glyph-name="Uhungarumlaut" unicode="Ű" d="M174 102v598h72V108q0-45-31.5-76.5T138 0 61.5 31.5 30 108v592h72V102q0-15 10.5-25.5T138 66t25.5 10.5T174 102zm-52 628H74l16 94h52zm80 0h-48l16 94h52z"/><glyph glyph-name="uhungarumlaut" unicode="ű" d="M174 102v488h72V108q0-45-31.5-76.5T138 0 61.5 31.5 30 108v482h72V102q0-15 10.5-25.5T138 66t25.5 10.5T174 102zm-52 518H74l16 94h52zm80 0h-48l16 94h52z"/><glyph glyph-name="Wcircumflex" unicode="Ŵ" horiz-adv-x="420" d="M318 102v598h72V108q0-45-31.5-76.5T282 0q-41 0-72 28-31-28-72-28-45 0-76.5 31.5T30 108v592h72V102q0-15 10.5-25.5T138 66t25.5 10.5T174 102v598h72V102q0-15 10.5-25.5T282 66t25.5 10.5T318 102zm-94 628-12 73h-4l-12-73h-52l20 94h92l20-94h-52z"/><glyph glyph-name="wcircumflex" unicode="ŵ" horiz-adv-x="420" d="M318 102v488h72V108q0-45-31.5-76.5T282 0q-41 0-72 28-31-28-72-28-45 0-76.5 31.5T30 108v482h72V102q0-15 10.5-25.5T138 66t25.5 10.5T174 102v488h72V102q0-15 10.5-25.5T282 66t25.5 10.5T318 102zm-94 518-12 73h-4l-12-73h-52l20 94h92l20-94h-52z"/><glyph glyph-name="Ycircumflex" unicode="Ŷ" d="M174 419v281h72V425q0-35-20-62.5T174 324V0h-72v324q-32 11-52 38.5T30 425v275h72V419q0-15 10.5-25.5T138 383t25.5 10.5T174 419zm-22 311-12 73h-4l-12-73H72l20 94h92l20-94h-52z"/><glyph glyph-name="ycircumflex" unicode="ŷ" d="M174 364v226h72V370q0-35-20-62.5T174 269V0h-72v269q-32 11-52 38.5T30 370v220h72V364q0-15 10.5-25.5T138 328t25.5 10.5T174 364zm-22 256-12 73h-4l-12-73H72l20 94h92l20-94h-52z"/><glyph glyph-name="Ydieresis" unicode="Ÿ" d="M174 419v281h72V425q0-35-20-62.5T174 324V0h-72v324q-32 11-52 38.5T30 425v275h72V419q0-15 10.5-25.5T138 383t25.5 10.5T174 419zM72 730v52h52v-52H72zm80 0v52h52v-52h-52z"/><glyph glyph-name="Zacute" unicode="Ź" d="M104 66h142V0H90Q59 0 42 22 30 37 30 58q0 6 2 16l140 560H30v66h156q31 0 48-22 12-15 12-36 0-6-2-16zm58 664h-48l16 94h52z"/><glyph glyph-name="zacute" unicode="ź" d="M104 66h142V0H90Q59 0 42 22 30 37 30 58q0 6 2 16l140 450H30v66h156q31 0 48-22 12-15 12-36 0-6-2-16zm58 554h-48l16 94h52z"/><glyph glyph-name="Zdotaccent" unicode="Ż" d="M112 730v52h52v-52h-52zm-8-664h142V0H90Q59 0 42 22 30 37 30 58q0 6 2 16l140 560H30v66h156q31 0 48-22 12-15 12-36 0-6-2-16z"/><glyph glyph-name="zdotaccent" unicode="ż" d="M104 66h142V0H90Q59 0 42 22 30 37 30 58q0 6 2 16l140 450H30v66h156q31 0 48-22 12-15 12-36 0-6-2-16zm8 554v52h52v-52h-52z"/><glyph glyph-name="Zcaron" unicode="Ž" d="M104 66h142V0H90Q59 0 42 22 30 37 30 58q0 6 2 16l140 560H30v66h156q31 0 48-22 12-15 12-36 0-6-2-16zm48 758h52l-20-94H92l-20 94h52l12-73h4z"/><glyph glyph-name="zcaron" unicode="ž" d="M104 66h142V0H90Q59 0 42 22 30 37 30 58q0 6 2 16l140 450H30v66h156q31 0 48-22 12-15 12-36 0-6-2-16zm48 648h52l-20-94H92l-20 94h52l12-73h4z"/><glyph glyph-name="uni0191" unicode="Ƒ" horiz-adv-x="348" d="M210 700q45 0 76.5-31.5T318 592V490h-72v108q0 15-10.5 25.5T210 634t-25.5-10.5T174 598V383h72v-66h-72V44q0-45-31.5-76.5T66-64H30V2h36q15 0 25.5 10.5T102 38v554q0 45 31.5 76.5T210 700z"/><glyph glyph-name="florin" unicode="ƒ" horiz-adv-x="348" d="M210 590q45 0 76.5-31.5T318 482v-72h-72v78q0 15-10.5 25.5T210 524t-25.5-10.5T174 488V328h72v-66h-72V44q0-45-31.5-76.5T66-64H30V2h36q15 0 25.5 10.5T102 38v444q0 45 31.5 76.5T210 590z"/><glyph glyph-name="uni01CD" unicode="Ǎ" d="M152 824h52l-20-94H92l-20 94h52l12-73h4zm-14-124q45 0 76.5-31.5T246 592V0h-72v317h-72V0H30v592q0 45 31.5 76.5T138 700zm-36-317h72v215q0 15-10.5 25.5T138 634t-25.5-10.5T102 598V383z"/><glyph glyph-name="uni01CE" unicode="ǎ" d="M138 590q45 0 76.5-31.5T246 482V0h-72v262h-72V0H30v482q0 45 31.5 76.5T138 590zm-36-262h72v160q0 15-10.5 25.5T138 524t-25.5-10.5T102 488V328zm50 386h52l-20-94H92l-20 94h52l12-73h4z"/><glyph glyph-name="circumflex" unicode="ˆ" horiz-adv-x="192" d="m110 620-12 73h-4l-12-73H30l20 94h92l20-94h-52z"/><glyph glyph-name="caron" unicode="ˇ" horiz-adv-x="192" d="M110 714h52l-20-94H50l-20 94h52l12-73h4z"/><glyph glyph-name="uni02C9" unicode="ˉ" horiz-adv-x="192" d="M30 620v52h132v-52H30z"/><glyph glyph-name="uni02CA" unicode="ˊ" horiz-adv-x="128" d="M78 620H30l16 94h52z"/><glyph glyph-name="uni02CB" unicode="ˋ" horiz-adv-x="128" d="m50 620-20 94h52l16-94H50z"/><glyph glyph-name="breve" unicode="˘" horiz-adv-x="200" d="M100 620q-29 0-49.5 20.5T30 690v24h48v-24q0-9 6.5-15.5T100 668t15.5 6.5T122 690v24h48v-24q0-29-20.5-49.5T100 620z"/><glyph glyph-name="dotaccent" unicode="˙" horiz-adv-x="112" d="M30 620v52h52v-52H30z"/><glyph glyph-name="ring" unicode="˚" horiz-adv-x="200" d="M100 784q29 0 49.5-20.5T170 714v-24q0-29-20.5-49.5T100 620t-49.5 20.5T30 690v24q0 29 20.5 49.5T100 784zm22-94v24q0 9-6.5 15.5T100 736t-15.5-6.5T78 714v-24q0-9 6.5-15.5T100 668t15.5 6.5T122 690z"/><glyph glyph-name="ogonek" unicode="˛" horiz-adv-x="166" d="M64 108h72q0-32-14.5-57t-29-42.5T78-22q0-9 5-15.5T95-44h41v-48H95q-27 0-46 20.5T30-22q0 25 17 61.5T64 102v6z"/><glyph glyph-name="tilde" unicode="˜" horiz-adv-x="256" d="m67 605-37 30 26 33q19 22 45 22 27 0 46-22 7-9 15 0l27 32 37-30-26-33q-19-22-45-22-27 0-46 22-7 9-15 0z"/><glyph glyph-name="hungarumlaut" unicode="˝" horiz-adv-x="208" d="M78 620H30l16 94h52zm80 0h-48l16 94h52z"/><glyph glyph-name="Pi" unicode="Π" d="M102 0H30v700h108q45 0 76.5-31.5T246 592V0h-72v598q0 15-10.5 25.5T138 634h-36V0z"/><glyph glyph-name="pi" unicode="π" horiz-adv-x="348" d="M174 0h-72v634H30v66h180q45 0 76.5-31.5T318 592V0h-72v598q0 15-10.5 25.5T210 634h-36V0z"/><glyph glyph-name="uni0400" unicode="Ѐ" d="M138 700q45 0 76.5-31.5T246 592V490h-72v108q0 15-10.5 25.5T138 634t-25.5-10.5T102 598V383h72v-66h-72V102q0-15 10.5-25.5T138 66t25.5 10.5T174 102v108h72V108q0-45-31.5-76.5T138 0 61.5 31.5 30 108v484q0 45 31.5 76.5T138 700zm-24 30-20 94h52l16-94h-48z"/><glyph glyph-name="uni0450" unicode="ѐ" d="M138 590q45 0 76.5-31.5T246 482v-72h-72v78q0 15-10.5 25.5T138 524t-25.5-10.5T102 488V328h72v-66h-72V102q0-15 10.5-25.5T138 66t25.5 10.5T174 102v78h72v-72q0-45-31.5-76.5T138 0 61.5 31.5 30 108v374q0 45 31.5 76.5T138 590zm-24 30-20 94h52l16-94h-48z"/><glyph glyph-name="uni1E9E" unicode="ẞ" d="M246 592V425q0-45-30-75 30-30 30-75V108q0-41-27.5-71.5T151 1V0h-49v-64H30v764h108q45 0 76.5-31.5T246 592zm-108 42h-36V383h36q15 0 25.5 10.5T174 419v179q0 15-10.5 25.5T138 634zm36-532v179q0 15-10.5 25.5T138 317h-36V66h36q15 0 25.5 10.5T174 102z"/><glyph glyph-name="endash" unicode="–" d="M30 317v66h216v-66H30z"/><glyph glyph-name="emdash" unicode="—" horiz-adv-x="348" d="M30 317v66h288v-66H30z"/><glyph glyph-name="quoteleft" unicode="‘" horiz-adv-x="132" d="M60 636h42v-72H30v72l20 64h26z"/><glyph glyph-name="quoteright" unicode="’" horiz-adv-x="132" d="M30 628v72h72v-72l-20-64H56l16 64H30z"/><glyph glyph-name="quotesinglbase" unicode="‚" horiz-adv-x="132" d="M30 72h72V0L82-64H56L72 0H30v72z"/><glyph glyph-name="quotereversed" unicode="‛" horiz-adv-x="132" d="M102 628H60l16-64H50l-20 64v72h72v-72z"/><glyph glyph-name="quotedblleft" unicode="“" horiz-adv-x="234" d="M204 636v-72h-72v72l20 64h26l-16-64h42zm-102-72H30v72l20 64h26l-16-64h42v-72z"/><glyph glyph-name="quotedblright" unicode="”" horiz-adv-x="234" d="M30 628v72h72v-72l-20-64H56l16 64H30zm102 72h72v-72l-20-64h-26l16 64h-42v72z"/><glyph glyph-name="quotedblbase" unicode="„" horiz-adv-x="234" d="M30 0v72h72V0L82-64H56L72 0H30zm102 72h72V0l-20-64h-26l16 64h-42v72z"/><glyph glyph-name="uni201F" unicode="‟" horiz-adv-x="234" d="M204 628h-42l16-64h-26l-20 64v72h72v-72zm-102 72v-72H60l16-64H50l-20 64v72h72z"/><glyph glyph-name="dagger" unicode="†" d="M246 556v-66h-72V-64h-72v554H30v66h72v144h72V556h72z"/><glyph glyph-name="daggerdbl" unicode="‡" d="M246 490h-72V210h72v-66h-72V-64h-72v208H30v66h72v280H30v66h72v144h72V556h72v-66z"/><glyph glyph-name="bullet" unicode="•" horiz-adv-x="168" d="M30 296v108h108V296H30z"/><glyph glyph-name="ellipsis" unicode="…" horiz-adv-x="420" d="M30 0v72h72V0H30zm144 0v72h72V0h-72zm144 0v72h72V0h-72z"/><glyph glyph-name="perthousand" unicode="‰" horiz-adv-x="560" d="M261 0h-26q-27 0-46 19t-19 46v39q0 27 19 46t46 19h26q27 0 46-19t19-46V65q0-27-19-46T261 0zm-26 121q-7 0-12-5t-5-12V65q0-7 5-12t12-5h26q7 0 12 5t5 12v39q0 7-5 12t-12 5h-26zM465 0h-26q-27 0-46 19t-19 46v39q0 27 19 46t46 19h26q27 0 46-19t19-46V65q0-27-19-46T465 0zm-26 121q-7 0-12-5t-5-12V65q0-7 5-12t12-5h26q7 0 12 5t5 12v39q0 7-5 12t-12 5h-26zM121 531H95q-27 0-46 19t-19 46v39q0 27 19 46t46 19h26q27 0 46-19t19-46v-39q0-27-19-46t-46-19zM95 652q-7 0-12-5t-5-12v-39q0-7 5-12t12-5h26q7 0 12 5t5 12v39q0 7-5 12t-12 5H95zM47 7l216 700 46-14L93-7z"/><glyph glyph-name="guilsinglleft" unicode="‹" horiz-adv-x="232" d="M155 225 30 350l125 125 47-47-79-78 79-78z"/><glyph glyph-name="guilsinglright" unicode="›" horiz-adv-x="232" d="m77 225-47 47 79 78-79 78 47 47 125-125z"/><glyph glyph-name="fraction" unicode="⁄" horiz-adv-x="322" d="m30 7 216 700 46-14L76-7z"/><glyph glyph-name="uni2070" unicode="⁰" horiz-adv-x="216" d="M121 490H95q-27 0-46 19t-19 46v80q0 27 19 46t46 19h26q27 0 46-19t19-46v-80q0-27-19-46t-46-19zM95 652q-7 0-12-5t-5-12v-80q0-7 5-12t12-5h26q7 0 12 5t5 12v80q0 7-5 12t-12 5H95z"/><glyph glyph-name="uni2074" unicode="⁴" horiz-adv-x="216" d="M138 700h48V490h-48v81H95q-27 0-46 19t-19 46v64h48v-64q0-7 5-12t12-5h43v81z"/><glyph glyph-name="uni2080" unicode="₀" horiz-adv-x="216" d="M121 0H95Q68 0 49 19T30 65v80q0 27 19 46t46 19h26q27 0 46-19t19-46V65q0-27-19-46T121 0zM95 162q-7 0-12-5t-5-12V65q0-7 5-12t12-5h26q7 0 12 5t5 12v80q0 7-5 12t-12 5H95z"/><glyph glyph-name="uni2081" unicode="₁" horiz-adv-x="168" d="M138 0H90v145q0 7-5 12t-12 5H30v48h43q27 0 46-19t19-46V0z"/><glyph glyph-name="uni2082" unicode="₂" horiz-adv-x="216" d="M78 64V48h108V0H30v64q0 27 19 46t46 19h26q7 0 12 5t5 12-5 11.5-12 4.5H95q-7 0-12-4.5T78 146v-2H30v2q0 27 19 45.5T95 210h26q27 0 46-18.5t19-45.5-19-46-46-19H95q-7 0-12-5t-5-12z"/><glyph glyph-name="uni2083" unicode="₃" horiz-adv-x="216" d="M186 146q0-24-14-41 14-17 14-41 0-27-19-45.5T121 0H95Q68 0 49 18.5T30 64v2h48v-2q0-7 5-11.5T95 48h26q7 0 12 4.5t5 11.5-5 12-12 5H95v48h26q7 0 12 5t5 12-5 11.5-12 4.5H95q-7 0-12-4.5T78 146v-2H30v2q0 27 19 45.5T95 210h26q27 0 46-18.5t19-45.5z"/><glyph glyph-name="uni2084" unicode="₄" horiz-adv-x="216" d="M138 210h48V0h-48v81H95q-27 0-46 19t-19 46v64h48v-64q0-7 5-12t12-5h43v81z"/><glyph glyph-name="Euro" unicode="€" horiz-adv-x="348" d="M318 490h-72v108q0 15-10.5 25.5T210 634t-25.5-10.5T174 598V449h72v-66h-72v-66h72v-66h-72V102q0-15 10.5-25.5T210 66t25.5 10.5T246 102v108h72V108q0-45-31.5-76.5T210 0t-76.5 31.5T102 108v143H30v66h72v66H30v66h72v143q0 45 31.5 76.5T210 700t76.5-31.5T318 592V490z"/><glyph glyph-name="uni2116" unicode="№" horiz-adv-x="504" d="M30 0v592q0 45 31.5 76.5T138 700t76.5-31.5T246 592V0h-72v598q0 15-10.5 25.5T138 634t-25.5-10.5T102 598V0H30zm288 394v48h156v-48H318zm91 96h-26q-27 0-46 19t-19 46v80q0 27 19 46t46 19h26q27 0 46-19t19-46v-80q0-27-19-46t-46-19zm-26 162q-7 0-12-5t-5-12v-80q0-7 5-12t12-5h26q7 0 12 5t5 12v80q0 7-5 12t-12 5h-26z"/><glyph glyph-name="trademark" unicode="™" horiz-adv-x="480" d="M385 700q27 0 46-19t19-46V490h-48v145q0 7-5 12t-12 5h-26q-7 0-12-5t-5-12V490h-48v145q0 7-5 12t-12 5h-26q-7 0-12-5t-5-12V490h-48v145q0 7-5 12t-12 5h-37V490H84v162H30v48h139q23 0 41-15 18 15 41 15h26q23 0 41-15 18 15 41 15h26z"/><glyph glyph-name="onethird" unicode="⅓" horiz-adv-x="362" d="M144 490H96v145q0 7-5 12t-12 5H36v48h43q27 0 46-19t19-46V490zM30 7l216 700 45-14L75-7zm302 139q0-24-14-41 14-17 14-41 0-27-19-45.5T267 0h-26q-27 0-46 18.5T176 64v2h48v-2q0-7 5-11.5t12-4.5h26q7 0 12 4.5t5 11.5-5 12-12 5h-26v48h26q7 0 12 5t5 12-5 11.5-12 4.5h-26q-7 0-12-4.5t-5-11.5v-2h-48v2q0 27 19 45.5t46 18.5h26q27 0 46-18.5t19-45.5z"/><glyph glyph-name="twothirds" unicode="⅔" horiz-adv-x="404" d="m71 7 216 700 46-14L117-7zm7 547v-16h108v-48H30v64q0 27 19 46t46 19h26q7 0 12 5t5 12-5 11.5-12 4.5H95q-7 0-12-4.5T78 636v-2H30v2q0 27 19 45.5T95 700h26q27 0 46-18.5t19-45.5-19-46-46-19H95q-7 0-12-5t-5-12zm296-408q0-24-14-41 14-17 14-41 0-27-19-45.5T309 0h-26q-27 0-46 18.5T218 64v2h48v-2q0-7 5-11.5t12-4.5h26q7 0 12 4.5t5 11.5-5 12-12 5h-26v48h26q7 0 12 5t5 12-5 11.5-12 4.5h-26q-7 0-12-4.5t-5-11.5v-2h-48v2q0 27 19 45.5t46 18.5h26q27 0 46-18.5t19-45.5z"/><glyph glyph-name="minus" unicode="−" d="M30 317v66h216v-66H30z"/></font>
</defs>
</svg>
