<svg xmlns="http://www.w3.org/2000/svg"><defs><font id="MontserratSemiBold" horiz-adv-x="0"><font-face font-family="MontserratSemiBold" font-weight="600" ascent="800" descent="-200" x-height="534" cap-height="700" bbox="-198 -265 1645 1064" underline-thickness="50" underline-position="-125" unicode-range="U+000D-FB02"/><glyph glyph-name="fi" unicode="fi" horiz-adv-x="662" d="M99 0v564q0 84 49.5 134.5T290 749q33 0 62.5-7t49.5-22l-34-94q-14 11-32 16.5t-37 5.5q-39 0-59-21.5T220 562v-60l4-56V0H99zM11 430v100h356V430H11zM455 0v534h125V0H455zm63 622q-35 0-57.5 22T438 697q0 32 22.5 53.5T518 772t57.5-20.5T598 700q0-33-22-55.5T518 622z"/><glyph glyph-name="fl" unicode="fl" horiz-adv-x="662" d="M99 0v564q0 84 49.5 134.5T290 749q33 0 62.5-7t49.5-22l-34-94q-14 11-32 16.5t-37 5.5q-39 0-59-21.5T220 562v-60l4-56V0H99zM11 430v100h356V430H11zM455 0v742h125V0H455z"/><glyph glyph-name=".notdef" horiz-adv-x="587" d="M40 0v700h507V0H40zm80 70h347v560H120V70z"/><glyph glyph-name=".null"/><glyph glyph-name="nonmarkingreturn" horiz-adv-x="333"/><glyph glyph-name="NULL"/><glyph glyph-name="NULL"/><glyph glyph-name="CR" horiz-adv-x="276"/><glyph glyph-name="space" horiz-adv-x="276"/><glyph glyph-name="exclam" unicode="!" horiz-adv-x="278" d="M90 232 66 700h148l-25-468H90zM140-7q-35 0-58 23T59 71t23 54.5 58 22.5 57-22.5T219 71t-22-55-57-23z"/><glyph glyph-name="quotedbl" unicode="&quot;" horiz-adv-x="413" d="m64 423-8 277h108l-9-277H64zm193 0-8 277h108l-9-277h-91z"/><glyph glyph-name="numbersign" unicode="#" horiz-adv-x="711" d="m397 0 86 700h91L488 0h-91zM23 170v91h632v-91H23zM137 0l87 700h91L228 0h-91zM57 439v91h630l1-91H57z"/><glyph glyph-name="dollar" unicode="$" horiz-adv-x="629" d="M280-120v940h82v-940h-82zm31 110q-82 0-157 23.5T35 74l45 101q42-33 104-55t127-22q55 0 89 12t50 32.5 16 46.5q0 32-23 51.5t-59.5 31-81 21.5-89 23.5-81 35T73 409t-23 92q0 57 30.5 104.5t93 76T332 710q63 0 125-16t108-46l-41-101q-47 28-97 41.5T331 602q-54 0-87.5-13t-49-34-15.5-48q0-32 22.5-51.5t59-30.5 81.5-21.5 89.5-23.5 81-34 59-57 22.5-91q0-56-30.5-103.5t-93.5-76T311-10z"/><glyph glyph-name="percent" unicode="%" horiz-adv-x="860" d="m142 0 478 700h98L240 0h-98zm58 323q-49 0-87 24t-59 67-21 101 21 101 59 67 87 24q51 0 88.5-24t58.5-67 21-101-21-101-58.5-67-88.5-24zm1 70q40 0 62.5 31.5T286 515t-22.5 90.5T201 637t-63.5-32-23.5-90 23.5-90 63.5-32zM659-7q-49 0-87 24t-59 67-21 101 21 101 59 67 87 24q51 0 88.5-24t58.5-67 21-101-21-101-58.5-67T659-7zm0 70q40 0 63 32t23 90-23 90-63 32q-39 0-62.5-31.5T573 185t23.5-90.5T659 63z"/><glyph glyph-name="ampersand" unicode="&amp;" horiz-adv-x="706" d="M296-10q-73 0-131 24T74 80t-33 97q0 50 22 90t70 76.5T256 417q59 29 92.5 51t47 42 13.5 42q0 30-21 48.5T328 619q-42 0-65.5-20.5T239 545q0-17 6.5-33t23.5-36 49-51L688 70l-69-81-400 384q-34 33-55 61t-30 54.5-9 54.5q0 49 25 86.5t71 58T328 708q57 0 98.5-18.5t65-53T515 554q0-42-21-77.5T428.5 409 310 342q-55-27-87-51t-46-48-14-53 17.5-51 49.5-34.5T305 92q64 0 116.5 28.5T510 206t52 141l101-33q-21-101-72.5-173.5T464 29 296-10z"/><glyph glyph-name="quotesingle" unicode="'" horiz-adv-x="220" d="m64 423-8 277h108l-9-277H64z"/><glyph glyph-name="parenleft" unicode="(" horiz-adv-x="347" d="M206-194q-59 91-90.5 210.5T84 274t31.5 258.5T206 742h119q-61-110-89.5-224.5T207 274t28.5-243.5T325-194H206z"/><glyph glyph-name="parenright" unicode=")" horiz-adv-x="348" d="M141-194H22Q84-84 112.5 30.5T141 274t-28.5 243.5T22 742h119q60-89 91-209.5T263 274 232 16.5 141-194z"/><glyph glyph-name="asterisk" unicode="*" horiz-adv-x="416" d="m400 613-134-74v22l134-74-39-68-129 75 13 7 1-143h-76l1 143 13-7-128-75-40 68 135 74v-22L16 613l40 69 128-76-13-8-1 144h76l-1-144-13 8 129 76z"/><glyph glyph-name="plus" unicode="+" horiz-adv-x="590" d="M242 125v450h107V125H242zM65 300v100h461V300H65z"/><glyph glyph-name="comma" unicode="," horiz-adv-x="244" d="m49-151 58 221 17-74Q89-4 65.5 17.5T42 76q0 38 23.5 60.5T123 159q35 0 58-23t23-60q0-10-2-21.5T195.5 28 181-10l-51-141H49z"/><glyph glyph-name="hyphen" unicode="-" horiz-adv-x="385" d="M55 226v104h275V226H55z"/><glyph glyph-name="period" unicode="." horiz-adv-x="244" d="M122-7Q88-7 64 16.5T40 76q0 38 24 60.5t58 22.5 58-22.5T204 76q0-36-24-59.5T122-7z"/><glyph glyph-name="slash" unicode="/" horiz-adv-x="371" d="m-30-100 330 942h112L82-100H-30z"/><glyph glyph-name="zero" unicode="0" horiz-adv-x="673" d="M336-10q-83 0-149.5 42T82 154.5 44 350t38 195.5T186.5 668 336 710q84 0 150-42t104.5-122.5T629 350t-38.5-195.5T486 32 336-10zm0 113q49 0 85 26.5t56.5 81.5T498 350q0 85-20.5 139.5t-56.5 81-85 26.5q-47 0-83.5-26.5t-57-81T175 350q0-84 20.5-139t57-81.5T336 103z"/><glyph glyph-name="one" unicode="1" horiz-adv-x="381" d="M156 0v650l57-59H8v109h278V0H156z"/><glyph glyph-name="two" unicode="2" horiz-adv-x="582" d="M35 0v87l278 264q35 33 52 58t22.5 46.5T393 496q0 48-33 74.5T263 597q-51 0-92.5-18T99 524L8 594q41 55 110.5 85.5T274 710q76 0 132.5-24.5t87-69.5T524 509q0-34-9-67.5T481 371t-73-83L169 61l-27 49h409V0H35z"/><glyph glyph-name="three" unicode="3" horiz-adv-x="582" d="M264-10q-74 0-144.5 21.5T1 71l56 101q38-31 92-50t113-19q70 0 109 28.5t39 77.5q0 48-36 76t-116 28h-64v89l200 238 17-49H35v109h477v-87L312 375l-68 40h39q129 0 193.5-57.5T541 210q0-59-30-109t-91.5-80.5T264-10z"/><glyph glyph-name="four" unicode="4" horiz-adv-x="679" d="M34 159v90l345 451h139L178 249l-65 20h555V159H34zM418 0v159l4 110v141h122V0H418z"/><glyph glyph-name="five" unicode="5" horiz-adv-x="584" d="M276-10q-74 0-144.5 21.5T13 71l55 101q38-31 92.5-50T274 103q69 0 108.5 29t39.5 78q0 33-16.5 58t-58 38T234 319H65l36 381h411V591H149l68 62-27-285-68 61h141q104 0 167.5-27.5t93-76T553 215q0-61-30-112t-91.5-82T276-10z"/><glyph glyph-name="six" unicode="6" horiz-adv-x="627" d="M347-10q-95 0-163 40.5T80 148 44 338q0 120 43.5 203t121 126T387 710q53 0 101.5-11t82.5-34l-48-98q-29 19-62.5 26.5T390 601q-99 0-157-61t-58-180q0-19 1-44.5t7-51.5l-40 44q18 41 49.5 68.5t75 41.5 94.5 14q69 0 123-26.5t86-75T603 217q0-69-34-120t-92-79-130-28zm-7 102q40 0 71 14.5t48.5 41.5 17.5 63q0 55-38 87t-102 32q-42 0-73.5-15.5t-50-42.5-18.5-62q0-32 17-59t49.5-43T340 92z"/><glyph glyph-name="seven" unicode="7" horiz-adv-x="608" d="m161 0 289 648 34-58H87l62 63V471H28v229h544v-87L300 0H161z"/><glyph glyph-name="eight" unicode="8" horiz-adv-x="652" d="M325-10q-87 0-151 26T75 89.5 40 201t34 108 98 67 153 23 153.5-23 99-67.5T612 201q0-64-35.5-111.5T476.5 16 325-10zm0 102q72 0 114 30t42 83q0 52-42 82t-114 30-113-30-41-82q0-53 41-83t113-30zm0 239q-81 0-139 21.5t-89.5 63T65 515q0 60 32.5 103.5T189 686t136 24q78 0 137-24t92-67.5T587 515q0-58-31.5-99.5t-90.5-63T325 331zm0 80q62 0 98 26.5t36 71.5q0 47-37 73t-97 26-96-26-36-73q0-45 35.5-71.5T325 411z"/><glyph glyph-name="nine" unicode="9" horiz-adv-x="627" d="M280 710q96 0 163.5-40.5T547 552t36-190q0-120-43.5-203T419 33 240-10q-53 0-101 11T56 35l48 98q29-19 63-26.5t70-7.5q99 0 157 61t58 180q0 19-1 44.5t-7 51.5l40-44q-17-41-49-68.5T360 282t-95-14q-68 0-122.5 26.5t-86.5 75T24 483q0 70 34 120.5t92.5 78.5T280 710zm7-102q-40 0-71-14.5t-48.5-41T150 489q0-55 38-87t102-32q42 0 74 15.5t50 43 18 61.5q0 33-17 59.5T366 592t-79 16z"/><glyph glyph-name="colon" unicode=":" horiz-adv-x="244" d="M122 374q-34 0-58 23.5T40 457q0 38 24 60.5t58 22.5 58-22.5 24-60.5q0-36-24-59.5T122 374zm0-381Q88-7 64 16.5T40 76q0 38 24 60.5t58 22.5 58-22.5T204 76q0-36-24-59.5T122-7z"/><glyph glyph-name="semicolon" unicode=";" horiz-adv-x="244" d="M122 374q-34 0-58 23.5T40 457q0 38 24 60.5t58 22.5 58-22.5 24-60.5q0-36-24-59.5T122 374zM49-151l58 221 17-74Q89-4 65.5 17.5T42 76q0 38 23.5 60.5T123 159q35 0 58-23t23-60q0-10-2-21.5T195.5 28 181-10l-51-141H49z"/><glyph glyph-name="less" unicode="&lt;" horiz-adv-x="590" d="M526 117 65 296v108l461 179V479L104 321v58l422-158V117z"/><glyph glyph-name="equal" unicode="=" horiz-adv-x="590" d="M65 421v100h461V421H65zm0-242v100h461V179H65z"/><glyph glyph-name="greater" unicode="&gt;" horiz-adv-x="590" d="M65 117v104l422 158v-58L65 479v104l461-179V296z"/><glyph glyph-name="question" unicode="?" horiz-adv-x="581" d="M222 232q0 37 12 65t31 50 40.5 41 40.5 37 31 38 12 45q0 42-34 68t-91 26q-55 0-95.5-20T101 525L4 588q42 57 110 89.5T275 710q73 0 128-21.5t86-62 31-98.5q0-40-12.5-70t-32-52.5-41.5-42-41.5-38.5-31.5-41-12-52H222zM286-7q-35 0-57.5 23T206 71t22.5 54.5T286 148t57-22.5T365 71t-22-55-57-23z"/><glyph glyph-name="at" unicode="@" horiz-adv-x="1034" d="M518-204q-106 0-193 34T175-74 78 71.5 44 254t34 182 97.5 144T327 675t195 34q103 0 189-32.5t148.5-91 97-138.5T991 271q0-86-23-148.5T902.5 27 799-6q-62 0-98.5 37T664 138v57l4 57-9 130v114h111V156q0-38 15.5-53.5T822 87q27 0 46 21t28.5 62 9.5 99q0 80-27.5 146t-79 113.5-122 73T522 627q-87 0-158-27.5T242 522t-78.5-118.5T136 254q0-83 27-152t77.5-118.5 120.5-77T518-121q46 0 97 10.5T712-77l27-80q-46-23-106-35t-115-12zM492-6q-69 0-123 32.5t-85.5 90T252 249q0 74 31 131.5t85.5 89.5T492 502q67 0 117-29.5t78-85.5 28-138-27-139-77-86.5T492-6zm21 97q43 0 76 18.5t52.5 54.5 19.5 85q0 50-19.5 84.5t-52.5 53-76 18.5q-44 0-77.5-19t-52-54-18.5-83q0-49 18.5-84t52-54.5T513 91z"/><glyph glyph-name="A" unicode="A" horiz-adv-x="749" d="m-5 0 315 700h128L754 0H618L347 631h52L129 0H-5zm145 162 35 102h378l35-102H140z"/><glyph glyph-name="B" unicode="B" horiz-adv-x="761" d="M94 0v700h328q126 0 192-49.5T680 518q0-56-26-95.5t-69.5-61T490 340l18 36q59 0 106-21.5t74.5-62.5T716 190q0-90-69-140T442 0H94zm130 102h210q73 0 112 24t39 77q0 52-39 76.5T434 304H214v101h194q68 0 104.5 24t36.5 72q0 49-36.5 73T408 598H224V102z"/><glyph glyph-name="C" unicode="C" horiz-adv-x="727" d="M418-10q-80 0-148.5 26.5t-119 75T72 206 44 350t28 144 79 114.5 119 75T419 710q86 0 157-29.5T696 593l-84-79q-38 41-85 61.5T425 596t-100.5-18-79-51-52-78-18.5-99 18.5-99 52-78 79-51T425 104t102 20.5 85 62.5l84-80q-49-57-120-87T418-10z"/><glyph glyph-name="D" unicode="D" horiz-adv-x="826" d="M94 0v700h306q114 0 200-44t134-122 48-184q0-105-48-183.5T600 44 400 0H94zm130 110h170q79 0 136.5 30t89 84T651 350q0 73-31.5 126.5t-89 83.5T394 590H224V110z"/><glyph glyph-name="E" unicode="E" horiz-adv-x="670" d="M214 409h348V302H214v107zm10-300h395V0H94v700h511V591H224V109z"/><glyph glyph-name="F" unicode="F" horiz-adv-x="637" d="M213 378h349V268H213v110zM224 0H94v700h511V591H224V0z"/><glyph glyph-name="G" unicode="G" horiz-adv-x="772" d="M421-10q-82 0-150.5 26.5T151 91.5 72 206 44 350t28 144 79.5 114.5 120.5 75T423 710q89 0 160.5-29T704 596l-82-80q-41 41-88.5 60.5T429 596q-55 0-102-18t-81-51-52.5-78-18.5-99q0-53 18.5-98t52.5-78.5 80-51.5 102-18q52 0 100.5 16.5T621 176l74-97q-55-44-127.5-66.5T421-10zM572 96v262h123V79z"/><glyph glyph-name="H" unicode="H" horiz-adv-x="810" d="M586 700h130V0H586v700zM224 0H94v700h130V0zm372 300H213v111h383V300z"/><glyph glyph-name="I" unicode="I" horiz-adv-x="319" d="M94 0v700h130V0H94z"/><glyph glyph-name="J" unicode="J" horiz-adv-x="527" d="M203-10q-67 0-123.5 26T-13 91l74 89q29-40 63.5-60t75.5-20q109 0 109 129v362H60v109h379V236q0-124-60.5-185T203-10z"/><glyph glyph-name="K" unicode="K" horiz-adv-x="729" d="m210 165-7 154 367 381h146L411 376l-72-79zM94 0v700h130V0H94zm488 0L314 319l86 95L734 0H582z"/><glyph glyph-name="L" unicode="L" horiz-adv-x="599" d="M94 0v700h130V110h366V0H94z"/><glyph glyph-name="M" unicode="M" horiz-adv-x="955" d="M94 0v700h107l306-511h-56l301 511h107l1-700H737l-1 507h26L506 80h-58L188 507h30V0H94z"/><glyph glyph-name="N" unicode="N" horiz-adv-x="810" d="M94 0v700h107l439-539h-53v539h129V0H609L170 539h53V0H94z"/><glyph glyph-name="O" unicode="O" horiz-adv-x="842" d="M422-10q-82 0-151 27T151 92.5t-79 114T44 350t28 143.5 79 114T271 683t150 27q82 0 150.5-27T691 607.5t79-114T798 350t-28-144-79-114-119.5-75T422-10zm-1 114q53 0 98 18t78 51.5 51.5 78T667 350t-18.5 98.5-51.5 78-78 51.5-98 18-97.5-18-78-51.5-52-78T175 350q0-53 18.5-98t51.5-78.5 78-51.5 98-18z"/><glyph glyph-name="P" unicode="P" horiz-adv-x="726" d="M94 0v700h288q93 0 159.5-30T644 584t36-133-36-133-102.5-86T382 202H166l58 61V0H94zm130 249-58 63h210q86 0 129.5 36.5T549 451q0 67-43.5 103T376 590H166l58 64V249z"/><glyph glyph-name="Q" unicode="Q" horiz-adv-x="842" d="M422-10q-82 0-151 27T151 92.5t-79 114T44 350t28 143.5 79 114T271 683t150 27q82 0 150.5-27T691 608t79-114 28-144-28-144-79-114-119.5-75T422-10zm228-143q-37 0-71.5 8.5t-68 28-69.5 51T362 12l138 36q28-37 53.5-59.5T603-44t50-10q69 0 120 56l60-72q-70-83-183-83zM421 104q53 0 98 18t78 51.5 51.5 78.5 18.5 98q0 54-18.5 98.5t-51.5 78-78 51.5-98 18-98-18-78-51.5-51.5-78T175 350q0-53 18.5-98t51.5-78.5 78-51.5 98-18z"/><glyph glyph-name="R" unicode="R" horiz-adv-x="731" d="M94 0v700h288q93 0 159.5-30T644 584t36-133-36-132.5-102.5-85T382 204H166l58 59V0H94zm458 0L375 254h139L692 0H552zM224 249l-58 62h210q86 0 129.5 37T549 451q0 67-43.5 103T376 590H166l58 64V249z"/><glyph glyph-name="S" unicode="S" horiz-adv-x="629" d="M311-10q-82 0-157 23.5T35 74l45 101q42-33 104-55t127-22q55 0 89 12t50 32.5 16 46.5q0 32-23 51.5t-59.5 31-81 21.5-89 23.5-81 35T73 409t-23 92q0 57 30.5 104.5t93 76T332 710q63 0 125-16t108-46l-41-101q-47 28-97 41.5T331 602q-54 0-87.5-13t-49-34-15.5-48q0-32 22.5-51.5t59-30.5 81.5-21.5 89.5-23.5 81-34 59-57 22.5-91q0-56-30.5-103.5t-93.5-76T311-10z"/><glyph glyph-name="T" unicode="T" horiz-adv-x="602" d="M236 0v590H4v110h594V590H366V0H236z"/><glyph glyph-name="U" unicode="U" horiz-adv-x="789" d="M395-10q-144 0-225.5 81T88 305v395h130V310q0-108 46.5-157T396 104t131 49 46 157v390h128V305q0-153-81.5-234T395-10z"/><glyph glyph-name="V" unicode="V" horiz-adv-x="729" d="M301 0-5 700h141L409 67h-81l276 633h130L429 0H301z"/><glyph glyph-name="W" unicode="W" horiz-adv-x="1144" d="M259 0 27 700h135L369 67h-67l215 633h120L846 67h-65l212 633h124L885 0H747L556 571h36L398 0H259z"/><glyph glyph-name="X" unicode="X" horiz-adv-x="693" d="m9 0 295 406v-98L23 700h147l209-290-60-1 207 291h141L388 315v94L685 0H535L315 308h59L157 0H9z"/><glyph glyph-name="Y" unicode="Y" horiz-adv-x="661" d="M266 0v277l29-80L-9 700h139l244-405h-78l246 405h128L366 197l30 80V0H266z"/><glyph glyph-name="Z" unicode="Z" horiz-adv-x="663" d="M41 0v87l452 552 15-49H48v110h577v-87L173 61l-16 49h481V0H41z"/><glyph glyph-name="bracketleft" unicode="[" horiz-adv-x="350" d="M94-194v936h239V642H219V-94h114v-100H94z"/><glyph glyph-name="backslash" unicode="\" horiz-adv-x="371" d="M402-100H290L-40 842H72z"/><glyph glyph-name="bracketright" unicode="]" horiz-adv-x="350" d="M255-194H17v100h113v736H17v100h238v-936z"/><glyph glyph-name="asciicircum" unicode="^" horiz-adv-x="591" d="m66 142 179 416h102l178-416h-98L269 523h53L164 142H66z"/><glyph glyph-name="underscore" unicode="_" horiz-adv-x="500" d="M0-76V0h500v-76H0z"/><glyph glyph-name="grave" unicode="`" horiz-adv-x="600" d="M276 607 102 744h147l135-137H276z"/><glyph glyph-name="a" unicode="a" horiz-adv-x="607" d="M411 0v108l-7 23v189q0 55-33 85.5T271 436q-45 0-88.5-14T109 383l-49 91q43 33 102.5 49.5T286 540q116 0 179.5-55.5T529 313V0H411zM243-7q-60 0-105 20.5t-69.5 57T44 153q0 45 21.5 81t70.5 57 130 21h155v-83H275q-64 0-86-20.5T167 158q0-34 27-54t75-20q46 0 82.5 21t52.5 62l21-75q-18-47-64.5-73T243-7z"/><glyph glyph-name="b" unicode="b" horiz-adv-x="686" d="M378-7q-68 0-121 30t-83.5 90.5T143 267q0 94 31.5 154t85 89.5T378 540q79 0 139.5-34t96-95T649 267t-35.5-144-96-95.5T378-7zM82 0v742h125V410l-10-142 4-142V0H82zm282 100q45 0 80.5 20t56.5 58 21 89q0 52-21 89.5T444.5 414 364 434t-81-20-57-57.5-21-89.5q0-51 21-89t57-58 81-20z"/><glyph glyph-name="c" unicode="c" horiz-adv-x="581" d="M327-7q-84 0-149.5 35.5T75 126 38 267q0 80 37 141.5T177.5 505 327 540q78 0 137.5-31.5T555 416l-96-56q-24 38-58.5 56T326 434q-46 0-83-20t-58-57.5-21-89.5 21-89.5 58-57.5 83-20q40 0 74.5 18t58.5 56l96-56q-31-60-90.5-92.5T327-7z"/><glyph glyph-name="d" unicode="d" horiz-adv-x="687" d="M308-7q-77 0-138.5 34.5T73 123 38 267t35 144 96.5 95T308 540q67 0 120-29.5t84-89.5 31-154q0-93-30-153.5T430 23 308-7zm15 107q45 0 80.5 20t57 58 21.5 89q0 52-21.5 89.5t-57 57.5-80.5 20-80.5-20-57-57.5T164 267q0-51 21.5-89t57-58 80.5-20zM485 0v126l5 142-10 142v332h124V0H485z"/><glyph glyph-name="e" unicode="e" horiz-adv-x="622" d="M333-7q-89 0-155.5 35.5T74.5 126 38 267q0 80 35.5 141.5t98 96.5T314 540q78 0 139-34t96-96 35-146q0-8-.5-18t-1.5-19H137v83h379l-49-26q1 46-19 81t-54.5 55-79.5 20q-46 0-80.5-20t-54-55.5T160 281v-20q0-48 22-85t62-57 92-20q45 0 81 14t64 44l67-77q-36-42-90.5-64.5T333-7z"/><glyph glyph-name="f" unicode="f" horiz-adv-x="369" d="M99 0v564q0 84 49.5 134.5T290 749q33 0 62.5-7t49.5-22l-34-94q-14 11-32 16.5t-37 5.5q-39 0-59-21.5T220 562v-60l4-56V0H99zM11 430v100h356V430H11z"/><glyph glyph-name="g" unicode="g" horiz-adv-x="694" d="M324-201q-74 0-144.5 19.5T64-125l56 94q35-29 88.5-46.5T317-95q88 0 129 40.5T487 67v95l10 121-4 121v130h119V81q0-145-74-213.5T324-201zM308 24q-76 0-137.5 32.5t-97 90.5T38 283q0 77 35.5 135t97 90T308 540q68 0 122-27t86.5-84T549 283t-32.5-146.5-86.5-85T308 24zm19 106q47 0 84 19.5t57.5 54T489 283t-20.5 79.5-57.5 53-84 18.5-84.5-18.5-58-53T164 283t20.5-79.5 58-54T327 130z"/><glyph glyph-name="h" unicode="h" horiz-adv-x="685" d="M385 540q64 0 114.5-25t79.5-76.5T608 306V0H483v290q0 71-33.5 106T356 431q-44 0-78-18t-52.5-53.5T207 270V0H82v742h125V390l-27 44q28 51 81.5 78.5T385 540z"/><glyph glyph-name="i" unicode="i" horiz-adv-x="289" d="M82 0v534h125V0H82zm63 622q-35 0-57.5 22T65 697q0 32 22.5 53.5T145 772t57.5-20.5T225 700q0-33-22-55.5T145 622z"/><glyph glyph-name="j" unicode="j" horiz-adv-x="295" d="M27-201q-35 0-66.5 7.5T-93-170l36 93q29-21 73-21 34 0 53 21.5T88-13v547h125V-10q0-88-48.5-139.5T27-201zm123 823q-35 0-57.5 22T70 697q0 32 22.5 53.5T150 772t57.5-20.5T230 700q0-33-22-55.5T150 622z"/><glyph glyph-name="k" unicode="k" horiz-adv-x="636" d="m184 119 3 157 279 258h150L379 296l-66-55zM82 0v742h125V0H82zm403 0L290 241l79 100L637 0H485z"/><glyph glyph-name="l" unicode="l" horiz-adv-x="289" d="M82 0v742h125V0H82z"/><glyph glyph-name="m" unicode="m" horiz-adv-x="1053" d="M756 540q64 0 113.5-25t77.5-76.5T975 306V0H850v290q0 71-31 106t-89 35q-41 0-72.5-18t-49-53-17.5-89V0H466v290q0 71-31 106t-89 35q-41 0-72.5-18t-49-53-17.5-89V0H82v534h119V392l-21 42q27 52 78.5 79T376 540q75 0 130.5-37T580 391l-49 17q26 60 86 96t139 36z"/><glyph glyph-name="n" unicode="n" horiz-adv-x="685" d="M385 540q64 0 114.5-25t79.5-76.5T608 306V0H483v290q0 71-33.5 106T356 431q-44 0-78-18t-52.5-53.5T207 270V0H82v534h119V390l-21 44q28 51 81.5 78.5T385 540z"/><glyph glyph-name="o" unicode="o" horiz-adv-x="645" d="M322-7q-82 0-146 35.5T75 126 38 267q0 80 37 141.5T176 505t146 35q83 0 147.5-35t101-96T607 267q0-79-36.5-141t-101-97.5T322-7zm0 107q46 0 82 20t56.5 58 20.5 89q0 52-20.5 89.5T404 414t-81 20q-46 0-81.5-20T185 356.5 164 267q0-51 21-89t56.5-58 80.5-20z"/><glyph glyph-name="p" unicode="p" horiz-adv-x="686" d="M378-7q-65 0-118.5 30t-85 90.5T143 267q0 94 30.5 154t83.5 89.5T378 540q79 0 139.5-34t96-95T649 267t-35.5-144.5-96-95.5T378-7zM82-194v728h119V408l-4-142 10-142v-318H82zm282 294q45 0 80.5 20t56.5 58 21 89q0 52-21 89.5T444.5 414 364 434t-81-20-57-57.5-21-89.5q0-51 21-89t57-58 81-20z"/><glyph glyph-name="q" unicode="q" horiz-adv-x="686" d="M308-7q-77 0-138.5 34T73 122.5 38 267t35 144 96.5 95T308 540q69 0 121.5-29.5t83-89.5T543 267q0-93-31.5-153.5T427 23 308-7zm14 107q45 0 81 20t57 58 21 89q0 52-21 89.5T403 414t-81 20-80.5-20-56.5-57.5-21-89.5q0-51 21-89t56.5-58 80.5-20zm157-294v318l10 142-4 142v126h119v-728H479z"/><glyph glyph-name="r" unicode="r" horiz-adv-x="420" d="M82 0v534h119V387l-14 43q24 54 75.5 82T391 540V421q-8 2-15 2.5t-14 .5q-71 0-113-41.5T207 259V0H82z"/><glyph glyph-name="s" unicode="s" horiz-adv-x="515" d="M247-7q-67 0-128.5 17.5T21 53l48 95q36-23 86-38t100-15q59 0 85.5 16t26.5 43q0 22-18 33.5T302 205t-64.5 11-71 13.5-64.5 25T55 299t-18 74q0 51 29 88.5t81.5 58T272 540q54 0 109-12t91-34l-48-95q-38 23-76.5 31.5T271 439q-57 0-84.5-17T159 379q0-24 18-36t47-19 64.5-11.5T359 299t64.5-24.5T471 231t18-73q0-50-29.5-87T376 13.5 247-7z"/><glyph glyph-name="t" unicode="t" horiz-adv-x="424" d="M283-7q-88 0-136 45.5T99 173v479h125V176q0-38 19.5-59T298 96q42 0 70 22l35-89q-22-18-54-27t-66-9zM11 430v100h356V430H11z"/><glyph glyph-name="u" unicode="u" horiz-adv-x="681" d="M308-7q-68 0-120 25.5t-81 78T78 229v305h125V246q0-72 32.5-107.5T328 103q44 0 76.5 18t51 54 18.5 89v270h125V0H480v144l21-44q-27-52-79-79.5T308-7z"/><glyph glyph-name="v" unicode="v" horiz-adv-x="578" d="M224 0-5 534h130L322 63h-64l204 471h120L353 0H224z"/><glyph glyph-name="w" unicode="w" horiz-adv-x="919" d="M200 0 4 534h118L290 63h-56l176 471h105L686 63h-55l173 471h111L718 0H598L442 417h37L320 0H200z"/><glyph glyph-name="x" unicode="x" horiz-adv-x="573" d="m9 0 235 306-2-67L18 534h139l157-210h-53l158 210h135L328 239l1 67L563 0H422L257 223l52-7L147 0H9z"/><glyph glyph-name="y" unicode="y" horiz-adv-x="578" d="M126-201q-39 0-78 13t-65 36l50 92q19-17 43-27t49-10q34 0 55 17t39 57l31 70 10 15 202 472h120L332-43q-25-60-55.5-95t-68-49-82.5-14zM236-19-5 534h130L321 73z"/><glyph glyph-name="z" unicode="z" horiz-adv-x="532" d="M38 0v79l329 398 23-43H44v100h446v-79L161 57l-25 43h363V0H38z"/><glyph glyph-name="braceleft" unicode="{" horiz-adv-x="370" d="M303-194q-84 0-127 42T133-31v206q0 25-12 36.5T88 223H55v102h33q21 0 33 12t12 36v206q0 80 43 121.5T303 742h50V642h-21q-37 0-55.5-20T258 566V376q0-40-10-62t-31.5-32.5T161 266v16q34-4 55.5-15t31.5-33 10-62V-18q0-36 18.5-56T332-94h21v-100h-50z"/><glyph glyph-name="bar" unicode="|" horiz-adv-x="303" d="M94-194v936h115v-936H94z"/><glyph glyph-name="braceright" unicode="}" horiz-adv-x="370" d="M67-194H17v100h21q38 0 56.5 20T113-18v190q0 40 10.5 62t31.5 33 54 15v-16q-33 5-54 15.5T123.5 314 113 376v190q0 36-18.5 56T38 642H17v100h50q85 0 128-41.5T238 579V373q0-24 12-36t32-12h34V223h-34q-20 0-32-11.5T238 175V-31q0-79-43-121T67-194z"/><glyph glyph-name="asciitilde" unicode="~" horiz-adv-x="590" d="M396 258q-36 0-63 14t-49.5 32-42 32-41.5 14q-30 0-47-22.5T134 266H54q2 90 41 134t99 44q36 0 63.5-14.5T307 397t42-32 41-14q31 0 48.5 23t18.5 62h79q-1-90-40-134t-100-44z"/><glyph glyph-name="uni00A0" horiz-adv-x="276"/><glyph glyph-name="exclamdown" unicode="¡" horiz-adv-x="278" d="m189 302 25-456H66l24 456h99zm-49 238q35 0 57-22.5t22-55.5q0-31-22-53.5T140 386t-58 22.5T59 462q0 33 23 55.5t58 22.5z"/><glyph glyph-name="cent" unicode="¢" horiz-adv-x="581" d="M278-120v774h81v-774h-81zM327-7q-84 0-149.5 35.5T75 126 38 267q0 80 37 141.5T177.5 505 327 540q78 0 137.5-31.5T555 416l-96-56q-24 38-58.5 56T326 434q-46 0-83-20t-58-57.5-21-89.5 21-89.5 58-57.5 83-20q40 0 74.5 18t58.5 56l96-56q-31-60-90.5-92.5T327-7z"/><glyph glyph-name="sterling" unicode="£" horiz-adv-x="657" d="M135 16v421q0 83 36.5 144.5t106 95T446 710q61 0 109-11.5t88-35.5l-41-106q-33 22-74.5 30.5T439 596q-86 0-130-40t-44-118V16H135zM30 0v109h596V0H30zm0 309v82h488v-82H30z"/><glyph glyph-name="currency" unicode="¤" horiz-adv-x="700" d="M142 452 28 565l71 75 114-113zM99-5 28 70l114 113 71-75zm501 0L486 108l71 75L671 70zm-43 457-71 75 114 113 71-75zM350 59q-55 0-103.5 20t-85 56-57.5 83.5T83 320t21 101.5 57.5 83.5 85 56.5T350 582q56 0 104.5-20.5t85-56.5 57.5-83.5T618 320t-21-101.5-57.5-83.5-85-56T350 59zm0 101q46 0 84 21.5t61.5 58T519 319q0 45-23.5 82T434 459.5 350 481t-84-21.5-60.5-58.5-22.5-82q0-43 22.5-79.5t60.5-58 84-21.5z"/><glyph glyph-name="yen" unicode="¥" horiz-adv-x="721" d="M296 0v305l29-84L-9 700h138l275-394h-81l276 394h131L396 221l30 84V0H296zM97 104v70h528v-70H97zm0 138v70h528v-70H97z"/><glyph glyph-name="brokenbar" unicode="¦" horiz-adv-x="303" d="M94 392v350h115V392H94zm0-586v350h115v-350H94z"/><glyph glyph-name="section" unicode="§" horiz-adv-x="511" d="m364 147-76 62q36 7 59 28.5t23 54.5q0 26-17 41.5T307.5 358t-62 17-67 18-62 26.5T71 464t-17 72q0 51 28 89t82.5 60T294 707q31 0 67-5.5t69.5-16.5 55.5-27l-37-91q-37 23-78 33.5T286 611q-61 0-91-18.5T165 540q0-23 16.5-37.5t45-23 62-16 67-18 61.5-29 45-48 17-74.5q0-51-31.5-90T364 147zM237-107q-40 0-81 8T80.5-77 24-46l37 93q33-25 82-41.5T240-11q50 0 78.5 19T347 60q0 25-17 39.5T285 123t-61.5 16.5-67.5 17T94.5 183t-45 45.5T32 301q0 57 31.5 95.5T147 453l74-62q-35-7-57.5-28T141 309q0-26 17-41.5t45.5-25 62.5-17 67.5-17.5 62-27 45.5-45.5T458 63q0-49-27-87.5T354-85t-117-22z"/><glyph glyph-name="dieresis" unicode="¨" horiz-adv-x="600" d="M397 618q-25 0-42.5 16.5T337 678t17.5 44 42.5 17 42.5-17 17.5-44-17.5-43.5T397 618zm-194 0q-25 0-42.5 16.5T143 678t17.5 44 42.5 17 42.5-17 17.5-44-17.5-43.5T203 618z"/><glyph glyph-name="copyright" unicode="©" horiz-adv-x="794" d="M396-3q-75 0-139 27T145 99.5 70.5 212 44 350t27 138 75 112.5T258.5 676 398 703t139.5-26.5 112-74.5 74-111.5T750 352t-27-139.5-75.5-113T535 24 396-3zm-1 55q64 0 118 23t94.5 63.5T670 234t22 118-22 117-61.5 94-93 62.5T398 648t-118.5-22.5-94-63.5-62-95T101 350t22-117 62-95 94-63.5T395 52zm12 94q-61 0-109 26t-75 72-27 106 27 106 75 72 109 26q57 0 100.5-23.5T574 467l-73-48q-17 26-41 38t-54 12q-32 0-57.5-14.5t-41-41T292 350t15.5-63.5 41-41T406 231q30 0 54 12t41 38l73-46q-23-41-66.5-65T407 146z"/><glyph glyph-name="ordfeminine" unicode="ª" horiz-adv-x="408" d="M268 426v64l-6 12v113q0 35-20.5 51.5T180 683q-29 0-57-9t-48-24l-32 56q27 20 67.5 31.5T190 749q77 0 118-34t41-104V426h-81zm-108-4q-63 0-95 27.5T33 518q0 42 33 68t108 26h99v-51h-87q-37 0-53.5-10.5T116 521q0-20 17-30.5t47-10.5 51 11 31 31l13-48q-10-22-39.5-37T160 422z"/><glyph glyph-name="guillemotleft" unicode="«" horiz-adv-x="535" d="M184 74 42 267l142 194h113L158 267 297 74H184zm208 0L250 267l142 194h113L366 267 505 74H392z"/><glyph glyph-name="logicalnot" unicode="¬" horiz-adv-x="590" d="M526 401V124H419v177H65v100h461z"/><glyph glyph-name="uni00AD" unicode="­" horiz-adv-x="385" d="M55 226v104h275V226H55z"/><glyph glyph-name="registered" unicode="®" horiz-adv-x="794" d="M396-3q-75 0-139 27T145 99.5 70.5 212 44 350t27 138 75 112.5T258.5 676 398 703t139.5-26.5 112-74.5 74-111.5T750 352t-27-139.5-75.5-113T535 24 396-3zm106 156-98 151h86l98-151h-86zM395 52q64 0 118 23t94.5 63.5T670 234t22 118-22 117-61.5 94-93 62.5T398 648t-118.5-22.5-94-63.5-62-95T101 350t22-117 62-95 94-63.5T395 52zM249 153v394h164q78 0 122-37t44-100q0-65-44-101t-122-36h-78V153h-86zm85 187h74q42 0 65 18.5t23 51.5-23 51-65 18h-74V340z"/><glyph glyph-name="macron" unicode="¯" horiz-adv-x="600" d="M127 638v75h346v-75H127z"/><glyph glyph-name="degree" unicode="°" horiz-adv-x="419" d="M209 373q-48 0-86.5 22.5t-61 60.5T39 540q0 47 22.5 85t61 60.5T209 708q47 0 86-22.5t61.5-60.5 22.5-84q0-47-23-85t-61-60.5-86-22.5zm0 66q29 0 51.5 13.5t35.5 36 13 51.5-13 52.5-35.5 36.5-51.5 13q-28 0-51-13t-36.5-36-13.5-53q0-29 13.5-52t36.5-36 51-13z"/><glyph glyph-name="plusminus" unicode="±" horiz-adv-x="590" d="M65 0v100h461V0H65zm177 197v436h107V197H242zM65 365v99h461v-99H65z"/><glyph glyph-name="uni00B2" unicode="²" horiz-adv-x="430" d="M44 327v56l179 156q33 30 43.5 47.5T277 620q0 23-20.5 38.5T191 674q-34 0-61-11t-43-33l-63 45q25 34 69 54t105 20q81 0 125-35t44-88q0-30-14.5-58T290 498L139 366l-21 32h266v-71H44z"/><glyph glyph-name="uni00B3" unicode="³" horiz-adv-x="430" d="M201 320q-54 0-103 14t-76 35l35 67q26-19 64-30t80-11q50 0 74 15.5t24 41.5q0 27-22.5 42T206 509h-52v58l132 137 13-33H38v71h329v-56L235 550l-41 25h29q81 0 123.5-34t42.5-89q0-35-21-65t-62.5-48.5T201 320z"/><glyph glyph-name="acute" unicode="´" horiz-adv-x="600" d="m216 607 135 137h147L324 607H216z"/><glyph glyph-name="uni00B5" unicode="µ" horiz-adv-x="686" d="M82-194v728h125V246q0-72 33-107.5t93-35.5q44 0 76.5 18t51 54 18.5 89v270h125V0H487v143l20-31q-15-44-43-70T402 4.5 334-7q-53 0-92 21t-61 61l26 43v-312H82z"/><glyph glyph-name="paragraph" unicode="¶" horiz-adv-x="666" d="M227-100v471q-61 1-108.5 24T44 459.5 17 557q0 57 28.5 98.5t80.5 64T247 742h325v-842H469v748H330v-748H227z"/><glyph glyph-name="periodcentered" unicode="·" horiz-adv-x="284" d="M142 195q-34 0-58 23t-24 61q0 37 24 60t58 23q36 0 59-23t23-60q0-38-23-61t-59-23z"/><glyph glyph-name="cedilla" unicode="¸" horiz-adv-x="600" d="M271-228q-27 0-50 5.5T179-207l23 59q16-8 32.5-12t35.5-4q29 0 41 10t12 26q0 15-12.5 24T270-95h-31L266 7h68l-14-56q44-5 65.5-28.5T407-133q0-44-37-69.5T271-228z"/><glyph glyph-name="uni00B9" unicode="¹" horiz-adv-x="430" d="m278 346-48 52h144v-71H77v71h158l-48-52v364l39-39H85v71h193V346z"/><glyph glyph-name="ordmasculine" unicode="º" horiz-adv-x="422" d="M212 422q-54 0-95 21t-65 58-24 84q0 48 24 84.5t65.5 58T211 749q54 0 95-21.5t64.5-58T394 585q0-47-23.5-84T306 443t-94-21zm-1 71q44 0 70.5 25.5T308 586t-26.5 67-70.5 25q-43 0-70-25.5T114 586q0-42 27-67.5t70-25.5z"/><glyph glyph-name="guillemotright" unicode="»" horiz-adv-x="535" d="M143 74H30l139 193L30 461h113l142-194zm208 0H238l139 193-139 194h113l142-194z"/><glyph glyph-name="onequarter" unicode="¼" horiz-adv-x="1039" d="m278 304-48 52h144v-71H77v71h158l-48-52v364l39-39H85v71h193V304zM232 0l478 700h97L329 0h-97zm394 92v58l195 265h99L723 150l-42 13h335V92H626zM854 0v92l8 71v77h80V0h-88z"/><glyph glyph-name="onehalf" unicode="½" horiz-adv-x="1039" d="m278 304-48 52h144v-71H77v71h158l-48-52v364l39-39H85v71h193V304zM232 0l478 700h97L329 0h-97zm421 0v56l179 156q33 30 43.5 47.5T886 293q0 23-20.5 38.5T800 347q-34 0-61-11t-43-33l-63 45q25 34 69 54t105 20q81 0 125-35t44-88q0-30-14.5-58T899 171L748 39l-21 32h266V0H653z"/><glyph glyph-name="threequarters" unicode="¾" horiz-adv-x="1039" d="M201 278q-54 0-103 14t-76 35l35 67q26-19 64-30t80-11q50 0 74 15.5t24 41.5q0 27-22.5 42T206 467h-52v58l132 137 13-33H38v71h329v-56L235 508l-41 25h29q81 0 123.5-34t42.5-89q0-35-21-65t-62.5-48.5T201 278zM232 0l478 700h97L329 0h-97zm394 92v58l195 265h99L723 150l-42 13h335V92H626zM854 0v92l8 71v77h80V0h-88z"/><glyph glyph-name="questiondown" unicode="¿" horiz-adv-x="581" d="M306-164q-74 0-129 21.5T91.5-81 61 14q0 40 12.5 69t32 51 41 41 41 37 32 39.5T232 302h127q0-36-12-63.5t-31-49-40.5-40T235 113t-31-38-12-44q0-37 33.5-62T317-56q55 0 96 20.5T480 21l96-63q-41-57-109-89.5T306-164zm-11 550q-34 0-57 22.5T215 462q0 33 23 55.5t57 22.5q36 0 58-22.5t22-55.5q0-31-22-53.5T295 386z"/><glyph glyph-name="Agrave" unicode="À" horiz-adv-x="749" d="m-5 0 315 700h128L754 0H618L347 631h52L129 0H-5zm145 162 35 102h378l35-102H140zm210 595L176 894h147l135-137H350z"/><glyph glyph-name="Aacute" unicode="Á" horiz-adv-x="749" d="m-5 0 315 700h128L754 0H618L347 631h52L129 0H-5zm145 162 35 102h378l35-102H140zm150 595 135 137h147L398 757H290z"/><glyph glyph-name="Acircumflex" unicode="Â" horiz-adv-x="749" d="m-5 0 315 700h128L754 0H618L347 631h52L129 0H-5zm145 162 35 102h378l35-102H140zm43 595 134 137h114l134-137H462L326 872h96L286 757H183z"/><glyph glyph-name="Atilde" unicode="Ã" horiz-adv-x="749" d="m-5 0 315 700h128L754 0H618L347 631h52L129 0H-5zm145 162 35 102h378l35-102H140zm306 595q-24 0-43.5 9.5t-35 23T338 813t-28 10q-21 0-34-16t-15-44h-67q2 62 30.5 98t77.5 36q24 0 44-10t35.5-23 29.5-23 27-10q21 0 34.5 15t14.5 42h67q-1-58-30-94.5T446 757z"/><glyph glyph-name="Adieresis" unicode="Ä" horiz-adv-x="749" d="m-5 0 315 700h128L754 0H618L347 631h52L129 0H-5zm145 162 35 102h378l35-102H140zm331 606q-25 0-42.5 16.5T411 828t17.5 44 42.5 17 42.5-17 17.5-44-17.5-43.5T471 768zm-194 0q-25 0-42.5 16.5T217 828t17.5 44 42.5 17 42.5-17 17.5-44-17.5-43.5T277 768z"/><glyph glyph-name="Aring" unicode="Å" horiz-adv-x="749" d="m-5 0 315 700h128L754 0H618L347 631h52L129 0H-5zm145 162 35 102h378l35-102H140zm233 597q-33 0-59.5 16T272 816.5 257 873q0 32 15.5 58.5t41.5 42 59 15.5q34 0 60.5-15.5t41.5-42 15-58.5q0-31-15-57t-41.5-41.5T373 759zm0 51q28 0 46 18t18 45q0 28-18 46.5T373 938q-26 0-44.5-18T310 873q0-27 18-45t45-18z"/><glyph glyph-name="AE" unicode="Æ" horiz-adv-x="1063" d="m-5 0 406 700h130V591H418l79 56L129 0H-5zm192 162 4 102h340V162H187zm420 247h348V302H606zm10-300h395V0H487v700h511V591H617V109z"/><glyph glyph-name="Ccedilla" unicode="Ç" horiz-adv-x="727" d="M418-10q-80 0-148.5 26.5t-119 75T72 206 44 350t28 144 79 114.5 119 75T419 710q86 0 157-29.5T696 593l-84-79q-38 41-85 61.5T425 596t-100.5-18-79-51-52-78-18.5-99 18.5-99 52-78 79-51T425 104t102 20.5 85 62.5l84-80q-49-57-120-87T418-10zm-47-218q-27 0-50 5.5T279-207l23 59q16-8 32.5-12t35.5-4q29 0 41 10t12 26q0 15-12.5 24T370-95h-31L366 7h68l-14-56q44-5 65.5-28.5T507-133q0-44-37-69.5T371-228z"/><glyph glyph-name="Egrave" unicode="È" horiz-adv-x="670" d="M214 409h348V302H214v107zm10-300h395V0H94v700h511V591H224V109zm103 648L153 894h147l135-137H327z"/><glyph glyph-name="Eacute" unicode="É" horiz-adv-x="670" d="M214 409h348V302H214v107zm10-300h395V0H94v700h511V591H224V109zm43 648 135 137h147L375 757H267z"/><glyph glyph-name="Ecircumflex" unicode="Ê" horiz-adv-x="670" d="M214 409h348V302H214v107zm10-300h395V0H94v700h511V591H224V109zm-64 648 134 137h114l134-137H439L303 872h96L263 757H160z"/><glyph glyph-name="Edieresis" unicode="Ë" horiz-adv-x="670" d="M214 409h348V302H214v107zm10-300h395V0H94v700h511V591H224V109zm224 659q-25 0-42.5 16.5T388 828t17.5 44 42.5 17 42.5-17 17.5-44-17.5-43.5T448 768zm-194 0q-25 0-42.5 16.5T194 828t17.5 44 42.5 17 42.5-17 17.5-44-17.5-43.5T254 768z"/><glyph glyph-name="Igrave" unicode="Ì" horiz-adv-x="319" d="M94 0v700h130V0H94zm41 757L-39 894h147l135-137H135z"/><glyph glyph-name="Iacute" unicode="Í" horiz-adv-x="319" d="M94 0v700h130V0H94zM75 757l135 137h147L183 757H75z"/><glyph glyph-name="Icircumflex" unicode="Î" horiz-adv-x="319" d="M94 0v700h130V0H94zM-32 757l134 137h114l134-137H247L111 872h96L71 757H-32z"/><glyph glyph-name="Idieresis" unicode="Ï" horiz-adv-x="319" d="M94 0v700h130V0H94zm162 768q-25 0-42.5 16.5T196 828t17.5 44 42.5 17 42.5-17 17.5-44-17.5-43.5T256 768zm-194 0q-25 0-42.5 16.5T2 828t17.5 44T62 889t42.5-17 17.5-44-17.5-43.5T62 768z"/><glyph glyph-name="Eth" unicode="Ð" horiz-adv-x="836" d="M104 0v700h306q114 0 200-44t134-122 48-184q0-105-48-183.5T610 44 410 0H104zm130 110h170q79 0 136.5 30t89 84T661 350q0 73-31.5 126.5t-89 83.5T404 590H234V110zM6 308v96h416v-96H6z"/><glyph glyph-name="Ntilde" unicode="Ñ" horiz-adv-x="810" d="M94 0v700h107l439-539h-53v539h129V0H609L170 539h53V0H94zm383 757q-24 0-43.5 9.5t-35 23T369 813t-28 10q-21 0-34-16t-15-44h-67q2 62 30.5 98t77.5 36q24 0 44-10t35.5-23 29.5-23 27-10q21 0 34.5 15t14.5 42h67q-1-58-30-94.5T477 757z"/><glyph glyph-name="Ograve" unicode="Ò" horiz-adv-x="842" d="M422-10q-82 0-151 27T151 92.5t-79 114T44 350t28 143.5 79 114T271 683t150 27q82 0 150.5-27T691 607.5t79-114T798 350t-28-144-79-114-119.5-75T422-10zm-1 114q53 0 98 18t78 51.5 51.5 78T667 350t-18.5 98.5-51.5 78-78 51.5-98 18-97.5-18-78-51.5-52-78T175 350q0-53 18.5-98t51.5-78.5 78-51.5 98-18zm-24 653L223 894h147l135-137H397z"/><glyph glyph-name="Oacute" unicode="Ó" horiz-adv-x="842" d="M422-10q-82 0-151 27T151 92.5t-79 114T44 350t28 143.5 79 114T271 683t150 27q82 0 150.5-27T691 607.5t79-114T798 350t-28-144-79-114-119.5-75T422-10zm-1 114q53 0 98 18t78 51.5 51.5 78T667 350t-18.5 98.5-51.5 78-78 51.5-98 18-97.5-18-78-51.5-52-78T175 350q0-53 18.5-98t51.5-78.5 78-51.5 98-18zm-84 653 135 137h147L445 757H337z"/><glyph glyph-name="Ocircumflex" unicode="Ô" horiz-adv-x="842" d="M422-10q-82 0-151 27T151 92.5t-79 114T44 350t28 143.5 79 114T271 683t150 27q82 0 150.5-27T691 607.5t79-114T798 350t-28-144-79-114-119.5-75T422-10zm-1 114q53 0 98 18t78 51.5 51.5 78T667 350t-18.5 98.5-51.5 78-78 51.5-98 18-97.5-18-78-51.5-52-78T175 350q0-53 18.5-98t51.5-78.5 78-51.5 98-18zM230 757l134 137h114l134-137H509L373 872h96L333 757H230z"/><glyph glyph-name="Otilde" unicode="Õ" horiz-adv-x="842" d="M422-10q-82 0-151 27T151 92.5t-79 114T44 350t28 143.5 79 114T271 683t150 27q82 0 150.5-27T691 607.5t79-114T798 350t-28-144-79-114-119.5-75T422-10zm-1 114q53 0 98 18t78 51.5 51.5 78T667 350t-18.5 98.5-51.5 78-78 51.5-98 18-97.5-18-78-51.5-52-78T175 350q0-53 18.5-98t51.5-78.5 78-51.5 98-18zm72 653q-24 0-43.5 9.5t-35 23T385 813t-28 10q-21 0-34-16t-15-44h-67q2 62 30.5 98t77.5 36q24 0 44-10t35.5-23 29.5-23 27-10q21 0 34.5 15t14.5 42h67q-1-58-30-94.5T493 757z"/><glyph glyph-name="Odieresis" unicode="Ö" horiz-adv-x="842" d="M422-10q-82 0-151 27T151 92.5t-79 114T44 350t28 143.5 79 114T271 683t150 27q82 0 150.5-27T691 607.5t79-114T798 350t-28-144-79-114-119.5-75T422-10zm-1 114q53 0 98 18t78 51.5 51.5 78T667 350t-18.5 98.5-51.5 78-78 51.5-98 18-97.5-18-78-51.5-52-78T175 350q0-53 18.5-98t51.5-78.5 78-51.5 98-18zm97 664q-25 0-42.5 16.5T458 828t17.5 44 42.5 17 42.5-17 17.5-44-17.5-43.5T518 768zm-194 0q-25 0-42.5 16.5T264 828t17.5 44 42.5 17 42.5-17 17.5-44-17.5-43.5T324 768z"/><glyph glyph-name="multiply" unicode="×" horiz-adv-x="590" d="m99 222 325 329 69-73-327-329zm0 256 67 73 327-329-69-73z"/><glyph glyph-name="Oslash" unicode="Ø" horiz-adv-x="842" d="M422-10q-82 0-151 27T151 92.5t-79 114T44 350t28 143.5 79 114T271 683t150 27q82 0 150.5-27T691 607.5t79-114T798 350t-28-144-79-114-119.5-75T422-10zm-1 114q53 0 98 18t78 51.5 51.5 78T667 350t-18.5 98.5-51.5 78-78 51.5-98 18-97.5-18-78-51.5-52-78T175 350q0-53 18.5-98t51.5-78.5 78-51.5 98-18zM75-70l600 840h93L168-70H75z"/><glyph glyph-name="Ugrave" unicode="Ù" horiz-adv-x="789" d="M395-10q-144 0-225.5 81T88 305v395h130V310q0-108 46.5-157T396 104t131 49 46 157v390h128V305q0-153-81.5-234T395-10zm-23 767L198 894h147l135-137H372z"/><glyph glyph-name="Uacute" unicode="Ú" horiz-adv-x="789" d="M395-10q-144 0-225.5 81T88 305v395h130V310q0-108 46.5-157T396 104t131 49 46 157v390h128V305q0-153-81.5-234T395-10zm-83 767 135 137h147L420 757H312z"/><glyph glyph-name="Ucircumflex" unicode="Û" horiz-adv-x="789" d="M395-10q-144 0-225.5 81T88 305v395h130V310q0-108 46.5-157T396 104t131 49 46 157v390h128V305q0-153-81.5-234T395-10zM205 757l134 137h114l134-137H484L348 872h96L308 757H205z"/><glyph glyph-name="Udieresis" unicode="Ü" horiz-adv-x="789" d="M395-10q-144 0-225.5 81T88 305v395h130V310q0-108 46.5-157T396 104t131 49 46 157v390h128V305q0-153-81.5-234T395-10zm98 778q-25 0-42.5 16.5T433 828t17.5 44 42.5 17 42.5-17 17.5-44-17.5-43.5T493 768zm-194 0q-25 0-42.5 16.5T239 828t17.5 44 42.5 17 42.5-17 17.5-44-17.5-43.5T299 768z"/><glyph glyph-name="Yacute" unicode="Ý" horiz-adv-x="661" d="M266 0v277l29-80L-9 700h139l244-405h-78l246 405h128L366 197l30 80V0H266zm-19 757 135 137h147L355 757H247z"/><glyph glyph-name="Thorn" unicode="Þ" horiz-adv-x="726" d="M195 120v110h181q86 0 129.5 36.5T549 369q0 67-43.5 103T376 508H195v110h187q93 0 159.5-30T644 502.5 680 369q0-77-36-133t-102.5-86T382 120H195zM94 0v700h130V0H94z"/><glyph glyph-name="germandbls" unicode="ß" horiz-adv-x="684" d="M400-7q-30 0-62 4.5T283 9l17 103q20-7 41-10t51-3q40 0 68.5 12.5t44.5 37 16 59.5q0 52-39 79.5T379 315h-55v103q66 1 104 33.5t38 86.5q0 47-32 76t-90 29q-64 0-100.5-36T207 501V0H82v489q0 86 34.5 144t94 87T344 749q76 0 130-27t83-73 29-104q0-46-18-82t-47.5-60.5-64-38T387 351l33 51q64 0 115.5-23t81.5-67 30-108q0-66-31.5-113.5t-87-72.5T400-7z"/><glyph glyph-name="agrave" unicode="à" horiz-adv-x="607" d="M411 0v108l-7 23v189q0 55-33 85.5T271 436q-45 0-88.5-14T109 383l-49 91q43 33 102.5 49.5T286 540q116 0 179.5-55.5T529 313V0H411zM243-7q-60 0-105 20.5t-69.5 57T44 153q0 45 21.5 81t70.5 57 130 21h155v-83H275q-64 0-86-20.5T167 158q0-34 27-54t75-20q46 0 82.5 21t52.5 62l21-75q-18-47-64.5-73T243-7zm30 614L99 744h147l135-137H273z"/><glyph glyph-name="aacute" unicode="á" horiz-adv-x="607" d="M411 0v108l-7 23v189q0 55-33 85.5T271 436q-45 0-88.5-14T109 383l-49 91q43 33 102.5 49.5T286 540q116 0 179.5-55.5T529 313V0H411zM243-7q-60 0-105 20.5t-69.5 57T44 153q0 45 21.5 81t70.5 57 130 21h155v-83H275q-64 0-86-20.5T167 158q0-34 27-54t75-20q46 0 82.5 21t52.5 62l21-75q-18-47-64.5-73T243-7zm-30 614 135 137h147L321 607H213z"/><glyph glyph-name="acircumflex" unicode="â" horiz-adv-x="607" d="M411 0v108l-7 23v189q0 55-33 85.5T271 436q-45 0-88.5-14T109 383l-49 91q43 33 102.5 49.5T286 540q116 0 179.5-55.5T529 313V0H411zM243-7q-60 0-105 20.5t-69.5 57T44 153q0 45 21.5 81t70.5 57 130 21h155v-83H275q-64 0-86-20.5T167 158q0-34 27-54t75-20q46 0 82.5 21t52.5 62l21-75q-18-47-64.5-73T243-7zM106 607l134 137h114l134-137H385L249 722h96L209 607H106z"/><glyph glyph-name="atilde" unicode="ã" horiz-adv-x="607" d="M411 0v108l-7 23v189q0 55-33 85.5T271 436q-45 0-88.5-14T109 383l-49 91q43 33 102.5 49.5T286 540q116 0 179.5-55.5T529 313V0H411zM243-7q-60 0-105 20.5t-69.5 57T44 153q0 45 21.5 81t70.5 57 130 21h155v-83H275q-64 0-86-20.5T167 158q0-34 27-54t75-20q46 0 82.5 21t52.5 62l21-75q-18-47-64.5-73T243-7zm126 614q-24 0-43.5 9.5t-35 23T261 663t-28 10q-21 0-34-16t-15-44h-67q2 62 30.5 98t77.5 36q24 0 44-10t35.5-23 29.5-23 27-10q21 0 34.5 15t14.5 42h67q-1-58-30-94.5T369 607z"/><glyph glyph-name="adieresis" unicode="ä" horiz-adv-x="607" d="M411 0v108l-7 23v189q0 55-33 85.5T271 436q-45 0-88.5-14T109 383l-49 91q43 33 102.5 49.5T286 540q116 0 179.5-55.5T529 313V0H411zM243-7q-60 0-105 20.5t-69.5 57T44 153q0 45 21.5 81t70.5 57 130 21h155v-83H275q-64 0-86-20.5T167 158q0-34 27-54t75-20q46 0 82.5 21t52.5 62l21-75q-18-47-64.5-73T243-7zm151 625q-25 0-42.5 16.5T334 678t17.5 44 42.5 17 42.5-17 17.5-44-17.5-43.5T394 618zm-194 0q-25 0-42.5 16.5T140 678t17.5 44 42.5 17 42.5-17 17.5-44-17.5-43.5T200 618z"/><glyph glyph-name="aring" unicode="å" horiz-adv-x="607" d="M411 0v108l-7 23v189q0 55-33 85.5T271 436q-45 0-88.5-14T109 383l-49 91q43 33 102.5 49.5T286 540q116 0 179.5-55.5T529 313V0H411zM243-7q-60 0-105 20.5t-69.5 57T44 153q0 45 21.5 81t70.5 57 130 21h155v-83H275q-64 0-86-20.5T167 158q0-34 27-54t75-20q46 0 82.5 21t52.5 62l21-75q-18-47-64.5-73T243-7zm53 600q-33 0-59.5 16T195 650.5 180 707q0 32 15.5 58.5t41.5 42 59 15.5q34 0 60.5-15.5t41.5-42 15-58.5q0-31-15-57t-41.5-41.5T296 593zm0 51q28 0 46 18t18 45q0 28-18 46.5T296 772q-26 0-44.5-18T233 707q0-27 18-45t45-18z"/><glyph glyph-name="ae" unicode="æ" horiz-adv-x="993" d="M260-7Q158-7 101 39T44 158q0 42 21.5 76.5T136 290t130 21h154v-82H275q-63 0-85.5-20.5T167 160q0-36 27.5-56T271 84q63 0 98 32.5t35 84.5v119q0 55-33 85.5T272 436q-46 0-89.5-14T109 383l-49 91q43 33 102.5 49.5T285 540q91 0 147-34t76-100l-59 4q33 61 94.5 95.5T683 540q58 0 107.5-19.5T877 465t57.5-86T955 269q0-12-.5-22t-2.5-18H508v82h372l-46-27q1 52-21 86t-57 52-74 18q-38 0-73.5-18t-58-53-22.5-88v-20q0-48 22-85t61.5-57T704 99q45 0 80 14t65 44l68-77q-37-43-92.5-65T701-7q-62 0-116.5 18.5T489 69t-65 101l75-1q-14-68-51.5-106.5t-87-54T260-7z"/><glyph glyph-name="ccedilla" unicode="ç" horiz-adv-x="581" d="M327-7q-84 0-149.5 35.5T75 126 38 267q0 80 37 141.5T177.5 505 327 540q78 0 137.5-31.5T555 416l-96-56q-24 38-58.5 56T326 434q-46 0-83-20t-58-57.5-21-89.5 21-89.5 58-57.5 83-20q40 0 74.5 18t58.5 56l96-56q-31-60-90.5-92.5T327-7zm-52-221q-27 0-50 5.5T183-207l23 59q16-8 32.5-12t35.5-4q29 0 41 10t12 26q0 15-12.5 24T274-95h-31L270 7h68l-14-56q44-5 65.5-28.5T411-133q0-44-37-69.5T275-228z"/><glyph glyph-name="egrave" unicode="è" horiz-adv-x="622" d="M333-7q-89 0-155.5 35.5T74.5 126 38 267q0 80 35.5 141.5t98 96.5T314 540q78 0 139-34t96-96 35-146q0-8-.5-18t-1.5-19H137v83h379l-49-26q1 46-19 81t-54.5 55-79.5 20q-46 0-80.5-20t-54-55.5T160 281v-20q0-48 22-85t62-57 92-20q45 0 81 14t64 44l67-77q-36-42-90.5-64.5T333-7zm-46 614L113 744h147l135-137H287z"/><glyph glyph-name="eacute" unicode="é" horiz-adv-x="622" d="M333-7q-89 0-155.5 35.5T74.5 126 38 267q0 80 35.5 141.5t98 96.5T314 540q78 0 139-34t96-96 35-146q0-8-.5-18t-1.5-19H137v83h379l-49-26q1 46-19 81t-54.5 55-79.5 20q-46 0-80.5-20t-54-55.5T160 281v-20q0-48 22-85t62-57 92-20q45 0 81 14t64 44l67-77q-36-42-90.5-64.5T333-7zM227 607l135 137h147L335 607H227z"/><glyph glyph-name="ecircumflex" unicode="ê" horiz-adv-x="622" d="M333-7q-89 0-155.5 35.5T74.5 126 38 267q0 80 35.5 141.5t98 96.5T314 540q78 0 139-34t96-96 35-146q0-8-.5-18t-1.5-19H137v83h379l-49-26q1 46-19 81t-54.5 55-79.5 20q-46 0-80.5-20t-54-55.5T160 281v-20q0-48 22-85t62-57 92-20q45 0 81 14t64 44l67-77q-36-42-90.5-64.5T333-7zM120 607l134 137h114l134-137H399L263 722h96L223 607H120z"/><glyph glyph-name="edieresis" unicode="ë" horiz-adv-x="622" d="M333-7q-89 0-155.5 35.5T74.5 126 38 267q0 80 35.5 141.5t98 96.5T314 540q78 0 139-34t96-96 35-146q0-8-.5-18t-1.5-19H137v83h379l-49-26q1 46-19 81t-54.5 55-79.5 20q-46 0-80.5-20t-54-55.5T160 281v-20q0-48 22-85t62-57 92-20q45 0 81 14t64 44l67-77q-36-42-90.5-64.5T333-7zm75 625q-25 0-42.5 16.5T348 678t17.5 44 42.5 17 42.5-17 17.5-44-17.5-43.5T408 618zm-194 0q-25 0-42.5 16.5T154 678t17.5 44 42.5 17 42.5-17 17.5-44-17.5-43.5T214 618z"/><glyph glyph-name="igrave" unicode="ì" horiz-adv-x="289" d="M82 0v534h125V0H82zm39 607L-53 744H94l135-137H121z"/><glyph glyph-name="iacute" unicode="í" horiz-adv-x="289" d="M82 0v534h125V0H82zM61 607l135 137h147L169 607H61z"/><glyph glyph-name="icircumflex" unicode="î" horiz-adv-x="289" d="M82 0v534h125V0H82zM-21 607 89 744h112l110-137h-98L102 722h86L77 607h-98z"/><glyph glyph-name="idieresis" unicode="ï" horiz-adv-x="289" d="M82 0v534h125V0H82zm140 619q-25 0-41.5 17T164 678t16.5 42.5T222 738q24 0 40.5-17t16.5-43-16.5-42.5T222 619zm-153 0q-25 0-41.5 17T11 678t16.5 42.5T69 738q24 0 40.5-17t16.5-43-16.5-42.5T69 619z"/><glyph glyph-name="eth" unicode="ð" horiz-adv-x="648" d="M298-10q-73 0-132 28T72.5 97 38 218q0 69 33.5 119t92 78T293 443q56 0 101-19t77-54 47-86l-45-20q7 26 8.5 52.5T483 371q0 88-28.5 145.5t-81.5 87T246 633q-41 0-77-6.5T105 610L86 712q34 10 74.5 16t87.5 6q110 0 191.5-44T566 559t45-216q0-109-37.5-188t-107-122T298-10zm9 102q47 0 81 17.5t52 45.5 18 61q0 36-19 64.5T387 325t-76 16q-67 0-107-34t-40-91q0-37 18.5-65t50.5-43.5T307 92zM154 469l-30 74 428 168 29-74z"/><glyph glyph-name="ntilde" unicode="ñ" horiz-adv-x="685" d="M385 540q64 0 114.5-25t79.5-76.5T608 306V0H483v290q0 71-33.5 106T356 431q-44 0-78-18t-52.5-53.5T207 270V0H82v534h119V390l-21 44q28 51 81.5 78.5T385 540zm32 67q-24 0-43.5 9.5t-35 23T309 663t-28 10q-21 0-34-16t-15-44h-67q2 62 30.5 98t77.5 36q24 0 44-10t35.5-23 29.5-23 27-10q21 0 34.5 15t14.5 42h67q-1-58-30-94.5T417 607z"/><glyph glyph-name="ograve" unicode="ò" horiz-adv-x="645" d="M322-7q-82 0-146 35.5T75 126 38 267q0 80 37 141.5T176 505t146 35q83 0 147.5-35t101-96T607 267q0-79-36.5-141t-101-97.5T322-7zm0 107q46 0 82 20t56.5 58 20.5 89q0 52-20.5 89.5T404 414t-81 20q-46 0-81.5-20T185 356.5 164 267q0-51 21-89t56.5-58 80.5-20zm-25 507L123 744h147l135-137H297z"/><glyph glyph-name="oacute" unicode="ó" horiz-adv-x="645" d="M322-7q-82 0-146 35.5T75 126 38 267q0 80 37 141.5T176 505t146 35q83 0 147.5-35t101-96T607 267q0-79-36.5-141t-101-97.5T322-7zm0 107q46 0 82 20t56.5 58 20.5 89q0 52-20.5 89.5T404 414t-81 20q-46 0-81.5-20T185 356.5 164 267q0-51 21-89t56.5-58 80.5-20zm-85 507 135 137h147L345 607H237z"/><glyph glyph-name="ocircumflex" unicode="ô" horiz-adv-x="645" d="M322-7q-82 0-146 35.5T75 126 38 267q0 80 37 141.5T176 505t146 35q83 0 147.5-35t101-96T607 267q0-79-36.5-141t-101-97.5T322-7zm0 107q46 0 82 20t56.5 58 20.5 89q0 52-20.5 89.5T404 414t-81 20q-46 0-81.5-20T185 356.5 164 267q0-51 21-89t56.5-58 80.5-20zM130 607l134 137h114l134-137H409L273 722h96L233 607H130z"/><glyph glyph-name="otilde" unicode="õ" horiz-adv-x="645" d="M322-7q-82 0-146 35.5T75 126 38 267q0 80 37 141.5T176 505t146 35q83 0 147.5-35t101-96T607 267q0-79-36.5-141t-101-97.5T322-7zm0 107q46 0 82 20t56.5 58 20.5 89q0 52-20.5 89.5T404 414t-81 20q-46 0-81.5-20T185 356.5 164 267q0-51 21-89t56.5-58 80.5-20zm71 507q-24 0-43.5 9.5t-35 23T285 663t-28 10q-21 0-34-16t-15-44h-67q2 62 30.5 98t77.5 36q24 0 44-10t35.5-23 29.5-23 27-10q21 0 34.5 15t14.5 42h67q-1-58-30-94.5T393 607z"/><glyph glyph-name="odieresis" unicode="ö" horiz-adv-x="645" d="M322-7q-82 0-146 35.5T75 126 38 267q0 80 37 141.5T176 505t146 35q83 0 147.5-35t101-96T607 267q0-79-36.5-141t-101-97.5T322-7zm0 107q46 0 82 20t56.5 58 20.5 89q0 52-20.5 89.5T404 414t-81 20q-46 0-81.5-20T185 356.5 164 267q0-51 21-89t56.5-58 80.5-20zm96 518q-25 0-42.5 16.5T358 678t17.5 44 42.5 17 42.5-17 17.5-44-17.5-43.5T418 618zm-194 0q-25 0-42.5 16.5T164 678t17.5 44 42.5 17 42.5-17 17.5-44-17.5-43.5T224 618z"/><glyph glyph-name="divide" unicode="÷" horiz-adv-x="590" d="M65 300v100h461V300H65zM295 76q-29 0-49 20.5T226 148q0 32 20 51.5t49 19.5q30 0 50-19.5t20-51.5q0-31-20-51.5T295 76zm0 405q-29 0-49 20.5T226 553t20 51 49 20q30 0 50-20t20-51-20-51.5-50-20.5z"/><glyph glyph-name="oslash" unicode="ø" horiz-adv-x="645" d="M322-7q-82 0-146 35.5T75 126 38 267q0 80 37 141.5T176 505t146 35q83 0 147.5-35t101-96T607 267q0-79-36.5-141t-101-97.5T322-7zm0 107q46 0 82 20t56.5 58 20.5 89q0 52-20.5 89.5T404 414t-81 20q-46 0-81.5-20T185 356.5 164 267q0-51 21-89t56.5-58 80.5-20zM66-71l440 672h70L136-71H66z"/><glyph glyph-name="ugrave" unicode="ù" horiz-adv-x="681" d="M308-7q-68 0-120 25.5t-81 78T78 229v305h125V246q0-72 32.5-107.5T328 103q44 0 76.5 18t51 54 18.5 89v270h125V0H480v144l21-44q-27-52-79-79.5T308-7zm6 614L140 744h147l135-137H314z"/><glyph glyph-name="uacute" unicode="ú" horiz-adv-x="681" d="M308-7q-68 0-120 25.5t-81 78T78 229v305h125V246q0-72 32.5-107.5T328 103q44 0 76.5 18t51 54 18.5 89v270h125V0H480v144l21-44q-27-52-79-79.5T308-7zm-54 614 135 137h147L362 607H254z"/><glyph glyph-name="ucircumflex" unicode="û" horiz-adv-x="681" d="M308-7q-68 0-120 25.5t-81 78T78 229v305h125V246q0-72 32.5-107.5T328 103q44 0 76.5 18t51 54 18.5 89v270h125V0H480v144l21-44q-27-52-79-79.5T308-7zM147 607l134 137h114l134-137H426L290 722h96L250 607H147z"/><glyph glyph-name="udieresis" unicode="ü" horiz-adv-x="681" d="M308-7q-68 0-120 25.5t-81 78T78 229v305h125V246q0-72 32.5-107.5T328 103q44 0 76.5 18t51 54 18.5 89v270h125V0H480v144l21-44q-27-52-79-79.5T308-7zm127 625q-25 0-42.5 16.5T375 678t17.5 44 42.5 17 42.5-17 17.5-44-17.5-43.5T435 618zm-194 0q-25 0-42.5 16.5T181 678t17.5 44 42.5 17 42.5-17 17.5-44-17.5-43.5T241 618z"/><glyph glyph-name="yacute" unicode="ý" horiz-adv-x="578" d="M126-201q-39 0-78 13t-65 36l50 92q19-17 43-27t49-10q34 0 55 17t39 57l31 70 10 15 202 472h120L332-43q-25-60-55.5-95t-68-49-82.5-14zM236-19-5 534h130L321 73zm-44 626 135 137h147L300 607H192z"/><glyph glyph-name="thorn" unicode="þ" horiz-adv-x="686" d="M378-7q-65 0-118.5 30t-85 90.5T143 267q0 94 30.5 154t83.5 89.5T378 540q79 0 139.5-34t96-95T649 267t-35.5-144.5-96-95.5T378-7zM82-194v936h125V408l-10-142 10-142v-318H82zm282 294q45 0 80.5 20t56.5 58 21 89q0 52-21 89.5T444.5 414 364 434t-81-20-57-57.5-21-89.5q0-51 21-89t57-58 81-20z"/><glyph glyph-name="ydieresis" unicode="ÿ" horiz-adv-x="578" d="M126-201q-39 0-78 13t-65 36l50 92q19-17 43-27t49-10q34 0 55 17t39 57l31 70 10 15 202 472h120L332-43q-25-60-55.5-95t-68-49-82.5-14zM236-19-5 534h130L321 73zm137 637q-25 0-42.5 16.5T313 678t17.5 44 42.5 17 42.5-17 17.5-44-17.5-43.5T373 618zm-194 0q-25 0-42.5 16.5T119 678t17.5 44 42.5 17 42.5-17 17.5-44-17.5-43.5T179 618z"/><glyph glyph-name="Amacron" unicode="Ā" horiz-adv-x="749" d="m-5 0 315 700h128L754 0H618L347 631h52L129 0H-5zm145 162 35 102h378l35-102H140zm61 626v75h346v-75H201z"/><glyph glyph-name="amacron" unicode="ā" horiz-adv-x="607" d="M411 0v108l-7 23v189q0 55-33 85.5T271 436q-45 0-88.5-14T109 383l-49 91q43 33 102.5 49.5T286 540q116 0 179.5-55.5T529 313V0H411zM243-7q-60 0-105 20.5t-69.5 57T44 153q0 45 21.5 81t70.5 57 130 21h155v-83H275q-64 0-86-20.5T167 158q0-34 27-54t75-20q46 0 82.5 21t52.5 62l21-75q-18-47-64.5-73T243-7zM124 638v75h346v-75H124z"/><glyph glyph-name="Abreve" unicode="Ă" horiz-adv-x="749" d="m-5 0 315 700h128L754 0H618L347 631h52L129 0H-5zm145 162 35 102h378l35-102H140zm234 588q-73 0-121.5 39T201 894h82q2-35 28-55t63-20 63.5 20 27.5 55h82q-3-66-51.5-105T374 750z"/><glyph glyph-name="abreve" unicode="ă" horiz-adv-x="607" d="M411 0v108l-7 23v189q0 55-33 85.5T271 436q-45 0-88.5-14T109 383l-49 91q43 33 102.5 49.5T286 540q116 0 179.5-55.5T529 313V0H411zM243-7q-60 0-105 20.5t-69.5 57T44 153q0 45 21.5 81t70.5 57 130 21h155v-83H275q-64 0-86-20.5T167 158q0-34 27-54t75-20q46 0 82.5 21t52.5 62l21-75q-18-47-64.5-73T243-7zm54 607q-73 0-121.5 39T124 744h82q2-35 28-55t63-20 63.5 20 27.5 55h82q-3-66-51.5-105T297 600z"/><glyph glyph-name="Aogonek" unicode="Ą" horiz-adv-x="749" d="m-5 0 315 700h128L754 0H618L347 631h52L129 0H-5zm145 162 35 102h378l35-102H140zm542-390q-62 0-96 29.5T552-121q0 29 15 57.5t47.5 54T699 37l55-37q-42-19-68-37t-38-36-12-38q0-23 16.5-36t42.5-13q17 0 33 4.5t28 11.5l21-61q-19-10-44-16.5t-51-6.5z"/><glyph glyph-name="aogonek" unicode="ą" horiz-adv-x="607" d="M411 0v108l-7 23v189q0 55-33 85.5T271 436q-45 0-88.5-14T109 383l-49 91q43 33 102.5 49.5T286 540q116 0 179.5-55.5T529 313V0H411zM243-7q-60 0-105 20.5t-69.5 57T44 153q0 45 21.5 81t70.5 57 130 21h155v-83H275q-64 0-86-20.5T167 158q0-34 27-54t75-20q46 0 82.5 21t52.5 62l21-75q-18-47-64.5-73T243-7zm214-221q-62 0-96 29.5T327-121q0 29 15 57.5t47.5 54T474 37l55-37q-42-19-68-37t-38-36-12-38q0-23 16.5-36t42.5-13q17 0 33 4.5t28 11.5l21-61q-19-10-44-16.5t-51-6.5z"/><glyph glyph-name="Cacute" unicode="Ć" horiz-adv-x="727" d="M418-10q-80 0-148.5 26.5t-119 75T72 206 44 350t28 144 79 114.5 119 75T419 710q86 0 157-29.5T696 593l-84-79q-38 41-85 61.5T425 596t-100.5-18-79-51-52-78-18.5-99 18.5-99 52-78 79-51T425 104t102 20.5 85 62.5l84-80q-49-57-120-87T418-10zm-89 767 135 137h147L437 757H329z"/><glyph glyph-name="cacute" unicode="ć" horiz-adv-x="581" d="M327-7q-84 0-149.5 35.5T75 126 38 267q0 80 37 141.5T177.5 505 327 540q78 0 137.5-31.5T555 416l-96-56q-24 38-58.5 56T326 434q-46 0-83-20t-58-57.5-21-89.5 21-89.5 58-57.5 83-20q40 0 74.5 18t58.5 56l96-56q-31-60-90.5-92.5T327-7zM223 607l135 137h147L331 607H223z"/><glyph glyph-name="Ccircumflex" unicode="Ĉ" horiz-adv-x="727" d="M418-10q-80 0-148.5 26.5t-119 75T72 206 44 350t28 144 79 114.5 119 75T419 710q86 0 157-29.5T696 593l-84-79q-38 41-85 61.5T425 596t-100.5-18-79-51-52-78-18.5-99 18.5-99 52-78 79-51T425 104t102 20.5 85 62.5l84-80q-49-57-120-87T418-10zM222 757l134 137h114l134-137H501L365 872h96L325 757H222z"/><glyph glyph-name="ccircumflex" unicode="ĉ" horiz-adv-x="581" d="M327-7q-84 0-149.5 35.5T75 126 38 267q0 80 37 141.5T177.5 505 327 540q78 0 137.5-31.5T555 416l-96-56q-24 38-58.5 56T326 434q-46 0-83-20t-58-57.5-21-89.5 21-89.5 58-57.5 83-20q40 0 74.5 18t58.5 56l96-56q-31-60-90.5-92.5T327-7zM116 607l134 137h114l134-137H395L259 722h96L219 607H116z"/><glyph glyph-name="Cdotaccent" unicode="Ċ" horiz-adv-x="727" d="M418-10q-80 0-148.5 26.5t-119 75T72 206 44 350t28 144 79 114.5 119 75T419 710q86 0 157-29.5T696 593l-84-79q-38 41-85 61.5T425 596t-100.5-18-79-51-52-78-18.5-99 18.5-99 52-78 79-51T425 104t102 20.5 85 62.5l84-80q-49-57-120-87T418-10zm-5 779q-31 0-51 20t-20 51 20 51 51 20q30 0 50.5-20t20.5-51-20.5-51-50.5-20z"/><glyph glyph-name="cdotaccent" unicode="ċ" horiz-adv-x="581" d="M327-7q-84 0-149.5 35.5T75 126 38 267q0 80 37 141.5T177.5 505 327 540q78 0 137.5-31.5T555 416l-96-56q-24 38-58.5 56T326 434q-46 0-83-20t-58-57.5-21-89.5 21-89.5 58-57.5 83-20q40 0 74.5 18t58.5 56l96-56q-31-60-90.5-92.5T327-7zm-20 626q-31 0-51 20t-20 51 20 51 51 20q30 0 50.5-20t20.5-51-20.5-51-50.5-20z"/><glyph glyph-name="Ccaron" unicode="Č" horiz-adv-x="727" d="M418-10q-80 0-148.5 26.5t-119 75T72 206 44 350t28 144 79 114.5 119 75T419 710q86 0 157-29.5T696 593l-84-79q-38 41-85 61.5T425 596t-100.5-18-79-51-52-78-18.5-99 18.5-99 52-78 79-51T425 104t102 20.5 85 62.5l84-80q-49-57-120-87T418-10zm-62 767L222 894h103l136-114h-96l136 114h103L470 757H356z"/><glyph glyph-name="ccaron" unicode="č" horiz-adv-x="581" d="M327-7q-84 0-149.5 35.5T75 126 38 267q0 80 37 141.5T177.5 505 327 540q78 0 137.5-31.5T555 416l-96-56q-24 38-58.5 56T326 434q-46 0-83-20t-58-57.5-21-89.5 21-89.5 58-57.5 83-20q40 0 74.5 18t58.5 56l96-56q-31-60-90.5-92.5T327-7zm-77 614L116 744h103l136-114h-96l136 114h103L364 607H250z"/><glyph glyph-name="Dcaron" unicode="Ď" horiz-adv-x="826" d="M94 0v700h306q114 0 200-44t134-122 48-184q0-105-48-183.5T600 44 400 0H94zm130 110h170q79 0 136.5 30t89 84T651 350q0 73-31.5 126.5t-89 83.5T394 590H224V110zm94 646L184 893h103l136-114h-96l136 114h103L432 756H318z"/><glyph glyph-name="dcaron" unicode="ď" horiz-adv-x="687" d="M308-7q-77 0-138.5 34.5T73 123 38 267t35 144 96.5 95T308 540q67 0 120-29.5t84-89.5 31-154q0-93-30-153.5T430 23 308-7zm15 107q45 0 80.5 20t57 58 21.5 89q0 52-21.5 89.5t-57 57.5-80.5 20-80.5-20-57-57.5T164 267q0-51 21.5-89t57-58 80.5-20zM485 0v126l5 142-10 142v332h124V0H485zm206 582v197h99l-16-197h-83z"/><glyph glyph-name="Dcroat" unicode="Đ" horiz-adv-x="836" d="M104 0v700h306q114 0 200-44t134-122 48-184q0-105-48-183.5T610 44 410 0H104zm130 110h170q79 0 136.5 30t89 84T661 350q0 73-31.5 126.5t-89 83.5T404 590H234V110zM6 308v96h416v-96H6z"/><glyph glyph-name="dcroat" unicode="đ" horiz-adv-x="687" d="M308-7q-77 0-138.5 34.5T73 123 38 267t35 144 96.5 95T308 540q67 0 120-29.5t84-89.5 31-154q0-93-30-153.5T430 23 308-7zm15 107q45 0 80.5 20t57 58 21.5 89q0 52-21.5 89.5t-57 57.5-80.5 20-80.5-20-57-57.5T164 267q0-51 21.5-89t57-58 80.5-20zM485 0v126l5 142-10 142v332h124V0H485zM283 595v82h404v-82H283z"/><glyph glyph-name="Emacron" unicode="Ē" horiz-adv-x="670" d="M214 409h348V302H214v107zm10-300h395V0H94v700h511V591H224V109zm-46 679v75h346v-75H178z"/><glyph glyph-name="emacron" unicode="ē" horiz-adv-x="622" d="M333-7q-89 0-155.5 35.5T74.5 126 38 267q0 80 35.5 141.5t98 96.5T314 540q78 0 139-34t96-96 35-146q0-8-.5-18t-1.5-19H137v83h379l-49-26q1 46-19 81t-54.5 55-79.5 20q-46 0-80.5-20t-54-55.5T160 281v-20q0-48 22-85t62-57 92-20q45 0 81 14t64 44l67-77q-36-42-90.5-64.5T333-7zM138 638v75h346v-75H138z"/><glyph glyph-name="Ebreve" unicode="Ĕ" horiz-adv-x="670" d="M214 409h348V302H214v107zm10-300h395V0H94v700h511V591H224V109zm127 641q-73 0-121.5 39T178 894h82q2-35 28-55t63-20 63.5 20 27.5 55h82q-3-66-51.5-105T351 750z"/><glyph glyph-name="ebreve" unicode="ĕ" horiz-adv-x="622" d="M333-7q-89 0-155.5 35.5T74.5 126 38 267q0 80 35.5 141.5t98 96.5T314 540q78 0 139-34t96-96 35-146q0-8-.5-18t-1.5-19H137v83h379l-49-26q1 46-19 81t-54.5 55-79.5 20q-46 0-80.5-20t-54-55.5T160 281v-20q0-48 22-85t62-57 92-20q45 0 81 14t64 44l67-77q-36-42-90.5-64.5T333-7zm-22 607q-73 0-121.5 39T138 744h82q2-35 28-55t63-20 63.5 20 27.5 55h82q-3-66-51.5-105T311 600z"/><glyph glyph-name="Edotaccent" unicode="Ė" horiz-adv-x="670" d="M214 409h348V302H214v107zm10-300h395V0H94v700h511V591H224V109zm127 660q-31 0-51 20t-20 51 20 51 51 20q30 0 50.5-20t20.5-51-20.5-51-50.5-20z"/><glyph glyph-name="edotaccent" unicode="ė" horiz-adv-x="622" d="M333-7q-89 0-155.5 35.5T74.5 126 38 267q0 80 35.5 141.5t98 96.5T314 540q78 0 139-34t96-96 35-146q0-8-.5-18t-1.5-19H137v83h379l-49-26q1 46-19 81t-54.5 55-79.5 20q-46 0-80.5-20t-54-55.5T160 281v-20q0-48 22-85t62-57 92-20q45 0 81 14t64 44l67-77q-36-42-90.5-64.5T333-7zm-22 626q-31 0-51 20t-20 51 20 51 51 20q30 0 50.5-20t20.5-51-20.5-51-50.5-20z"/><glyph glyph-name="Eogonek" unicode="Ę" horiz-adv-x="670" d="M214 409h348V302H214v107zm10-300h395V0H94v700h511V591H224V109zm323-337q-62 0-96 29.5T417-121q0 29 15 57.5t47.5 54T564 37l55-37q-42-19-68-37t-38-36-12-38q0-23 16.5-36t42.5-13q17 0 33 4.5t28 11.5l21-61q-19-10-44-16.5t-51-6.5z"/><glyph glyph-name="eogonek" unicode="ę" horiz-adv-x="622" d="M442-228q-60 0-94.5 30.5T313-117q0 37 20.5 75.5T396 25l38-17q-23-7-48.5-11T333-7q-89 0-155.5 35.5T74.5 126 38 267q0 80 35.5 141.5t98 96.5T314 540q78 0 139-34t96-96 35-146q0-8-.5-18t-1.5-19H137v83h379l-49-26q1 46-19 81t-54.5 55-79.5 20q-46 0-80.5-20t-54-55.5T160 281v-20q0-48 22-85t62-57 92-20q45 0 81 14t64 44l67-77q-8-10-18-19t-21-17q-44-35-68-61.5T407-66t-10-41q0-27 16.5-40t42.5-13q16 0 32.5 4.5T517-144l21-61q-19-10-44-16.5t-52-6.5z"/><glyph glyph-name="Ecaron" unicode="Ě" horiz-adv-x="670" d="M214 409h348V302H214v107zm10-300h395V0H94v700h511V591H224V109zm70 648L160 894h103l136-114h-96l136 114h103L408 757H294z"/><glyph glyph-name="ecaron" unicode="ě" horiz-adv-x="622" d="M333-7q-89 0-155.5 35.5T74.5 126 38 267q0 80 35.5 141.5t98 96.5T314 540q78 0 139-34t96-96 35-146q0-8-.5-18t-1.5-19H137v83h379l-49-26q1 46-19 81t-54.5 55-79.5 20q-46 0-80.5-20t-54-55.5T160 281v-20q0-48 22-85t62-57 92-20q45 0 81 14t64 44l67-77q-36-42-90.5-64.5T333-7zm-79 614L120 744h103l136-114h-96l136 114h103L368 607H254z"/><glyph glyph-name="Gcircumflex" unicode="Ĝ" horiz-adv-x="772" d="M421-10q-82 0-150.5 26.5T151 91.5 72 206 44 350t28 144 79.5 114.5 120.5 75T423 710q89 0 160.5-29T704 596l-82-80q-41 41-88.5 60.5T429 596q-55 0-102-18t-81-51-52.5-78-18.5-99q0-53 18.5-98t52.5-78.5 80-51.5 102-18q52 0 100.5 16.5T621 176l74-97q-55-44-127.5-66.5T421-10zM572 96v262h123V79zM223 757l134 137h114l134-137H502L366 872h96L326 757H223z"/><glyph glyph-name="gcircumflex" unicode="ĝ" horiz-adv-x="694" d="M324-201q-74 0-144.5 19.5T64-125l56 94q35-29 88.5-46.5T317-95q88 0 129 40.5T487 67v95l10 121-4 121v130h119V81q0-145-74-213.5T324-201zM308 24q-76 0-137.5 32.5t-97 90.5T38 283q0 77 35.5 135t97 90T308 540q68 0 122-27t86.5-84T549 283t-32.5-146.5-86.5-85T308 24zm19 106q47 0 84 19.5t57.5 54T489 283t-20.5 79.5-57.5 53-84 18.5-84.5-18.5-58-53T164 283t20.5-79.5 58-54T327 130zM144 607l134 137h114l134-137H423L287 722h96L247 607H144z"/><glyph glyph-name="Gbreve" unicode="Ğ" horiz-adv-x="772" d="M421-10q-82 0-150.5 26.5T151 91.5 72 206 44 350t28 144 79.5 114.5 120.5 75T423 710q89 0 160.5-29T704 596l-82-80q-41 41-88.5 60.5T429 596q-55 0-102-18t-81-51-52.5-78-18.5-99q0-53 18.5-98t52.5-78.5 80-51.5 102-18q52 0 100.5 16.5T621 176l74-97q-55-44-127.5-66.5T421-10zM572 96v262h123V79zM414 750q-73 0-121.5 39T241 894h82q2-35 28-55t63-20 63.5 20 27.5 55h82q-3-66-51.5-105T414 750z"/><glyph glyph-name="gbreve" unicode="ğ" horiz-adv-x="694" d="M324-201q-74 0-144.5 19.5T64-125l56 94q35-29 88.5-46.5T317-95q88 0 129 40.5T487 67v95l10 121-4 121v130h119V81q0-145-74-213.5T324-201zM308 24q-76 0-137.5 32.5t-97 90.5T38 283q0 77 35.5 135t97 90T308 540q68 0 122-27t86.5-84T549 283t-32.5-146.5-86.5-85T308 24zm19 106q47 0 84 19.5t57.5 54T489 283t-20.5 79.5-57.5 53-84 18.5-84.5-18.5-58-53T164 283t20.5-79.5 58-54T327 130zm8 470q-73 0-121.5 39T162 744h82q2-35 28-55t63-20 63.5 20 27.5 55h82q-3-66-51.5-105T335 600z"/><glyph glyph-name="Gdotaccent" unicode="Ġ" horiz-adv-x="772" d="M421-10q-82 0-150.5 26.5T151 91.5 72 206 44 350t28 144 79.5 114.5 120.5 75T423 710q89 0 160.5-29T704 596l-82-80q-41 41-88.5 60.5T429 596q-55 0-102-18t-81-51-52.5-78-18.5-99q0-53 18.5-98t52.5-78.5 80-51.5 102-18q52 0 100.5 16.5T621 176l74-97q-55-44-127.5-66.5T421-10zM572 96v262h123V79zM414 769q-31 0-51 20t-20 51 20 51 51 20q30 0 50.5-20t20.5-51-20.5-51-50.5-20z"/><glyph glyph-name="gdotaccent" unicode="ġ" horiz-adv-x="694" d="M324-201q-74 0-144.5 19.5T64-125l56 94q35-29 88.5-46.5T317-95q88 0 129 40.5T487 67v95l10 121-4 121v130h119V81q0-145-74-213.5T324-201zM308 24q-76 0-137.5 32.5t-97 90.5T38 283q0 77 35.5 135t97 90T308 540q68 0 122-27t86.5-84T549 283t-32.5-146.5-86.5-85T308 24zm19 106q47 0 84 19.5t57.5 54T489 283t-20.5 79.5-57.5 53-84 18.5-84.5-18.5-58-53T164 283t20.5-79.5 58-54T327 130zm8 489q-31 0-51 20t-20 51 20 51 51 20q30 0 50.5-20t20.5-51-20.5-51-50.5-20z"/><glyph glyph-name="uni0122" unicode="Ģ" horiz-adv-x="772" d="M421-10q-82 0-150.5 26.5T151 91.5 72 206 44 350t28 144 79.5 114.5 120.5 75T423 710q89 0 160.5-29T704 596l-82-80q-41 41-88.5 60.5T429 596q-55 0-102-18t-81-51-52.5-78-18.5-99q0-53 18.5-98t52.5-78.5 80-51.5 102-18q52 0 100.5 16.5T621 176l74-97q-55-44-127.5-66.5T421-10zM572 96v262h123V79zM357-265l36 122 13-45q-28 0-44 14t-16 38q0 23 16.5 38T406-83q28 0 44-15.5t16-37.5q0-12-3-26t-13-33l-32-70h-61z"/><glyph glyph-name="uni0123" unicode="ģ" horiz-adv-x="694" d="M324-201q-74 0-144.5 19.5T64-125l56 94q35-29 88.5-46.5T317-95q88 0 129 40.5T487 67v95l10 121-4 121v130h119V81q0-145-74-213.5T324-201zM308 24q-76 0-137.5 32.5t-97 90.5T38 283q0 77 35.5 135t97 90T308 540q68 0 122-27t86.5-84T549 283t-32.5-146.5-86.5-85T308 24zm19 106q47 0 84 19.5t57.5 54T489 283t-20.5 79.5-57.5 53-84 18.5-84.5-18.5-58-53T164 283t20.5-79.5 58-54T327 130zm8 470q-33 0-50 15t-17 38q0 11 4 24.5t14 32.5l41 92h69l-45-142-16 45q32 0 49.5-14t17.5-38-17-38.5-50-14.5z"/><glyph glyph-name="Hcircumflex" unicode="Ĥ" horiz-adv-x="810" d="M586 700h130V0H586v700zM224 0H94v700h130V0zm372 300H213v111h383V300zM214 757l134 137h114l134-137H493L357 872h96L317 757H214z"/><glyph glyph-name="hcircumflex" unicode="ĥ" horiz-adv-x="685" d="M385 540q64 0 114.5-25t79.5-76.5T608 306V0H483v290q0 71-33.5 106T356 431q-44 0-78-18t-52.5-53.5T207 270V0H82v742h125V390l-27 44q28 51 81.5 78.5T385 540zM-46 799 88 936h114l134-137H233L97 914h96L57 799H-46z"/><glyph glyph-name="Hbar" unicode="Ħ" horiz-adv-x="831" d="M596 700h130V0H596v700zM234 0H104v700h130V0zm372 300H223v111h383V300zM5 510v96h819v-96H5z"/><glyph glyph-name="hbar" unicode="ħ" horiz-adv-x="685" d="M385 540q64 0 114.5-25t79.5-76.5T608 306V0H483v290q0 71-33.5 106T356 431q-44 0-78-18t-52.5-53.5T207 270V0H82v742h125V390l-27 44q28 51 81.5 78.5T385 540zM0 595v82h404v-82H0z"/><glyph glyph-name="Itilde" unicode="Ĩ" horiz-adv-x="319" d="M94 0v700h130V0H94zm137 757q-24 0-43.5 9.5t-35 23T123 813t-28 10q-21 0-34-16t-15-44h-67q2 62 30.5 98T87 897q24 0 44-10t35.5-23 29.5-23 27-10q21 0 34.5 15t14.5 42h67q-1-58-30-94.5T231 757z"/><glyph glyph-name="itilde" unicode="ĩ" horiz-adv-x="289" d="M82 0v534h125V0H82zm126 607q-23 0-40.5 9.5t-31 23T112 663t-23 10q-16 0-24-15.5T57 613H-9q0 65 24 99.5T82 747q24 0 41-10t30.5-23 24.5-23 23-10q16 0 24 15.5t8 41.5h66q0-63-24-97t-67-34z"/><glyph glyph-name="Imacron" unicode="Ī" horiz-adv-x="319" d="M94 0v700h130V0H94zM18 788v75h282v-75H18z"/><glyph glyph-name="imacron" unicode="ī" horiz-adv-x="289" d="M82 0v534h125V0H82zM4 638v75h282v-75H4z"/><glyph glyph-name="Ibreve" unicode="Ĭ" horiz-adv-x="319" d="M94 0v700h130V0H94zm65 750q-73 0-121.5 39T-14 894h82q2-35 28-55t63-20 63.5 20 27.5 55h82q-3-66-51.5-105T159 750z"/><glyph glyph-name="ibreve" unicode="ĭ" horiz-adv-x="289" d="M82 0v534h125V0H82zm63 600q-63 0-105 39T-3 744h77q0-35 19-55.5t52-20.5 52 20.5 19 55.5h77q-1-66-43-105t-105-39z"/><glyph glyph-name="Iogonek" unicode="Į" horiz-adv-x="319" d="M94 0v700h130V0H94zm95-228q-49 0-79.5 28.5T79-124q0 43 24.5 84T181 36l43-36q-38-33-50-60t-12-51q0-22 13-35.5t31-13.5q8 0 16.5 2.5T239-150l19-58q-27-20-69-20z"/><glyph glyph-name="iogonek" unicode="į" horiz-adv-x="289" d="M82 0v534h125V0H82zm63 622q-35 0-57.5 22T65 697q0 32 22.5 53.5T145 772t57.5-20.5T225 700q0-33-22-55.5T145 622zm27-850q-49 0-79.5 28.5T62-124q0 43 24.5 84T164 36l43-36q-38-33-50-60t-12-51q0-22 13-35.5t31-13.5q8 0 16.5 2.5T222-150l19-58q-27-20-69-20z"/><glyph glyph-name="Idotaccent" unicode="İ" horiz-adv-x="319" d="M94 0v700h130V0H94zm65 769q-31 0-51 20t-20 51 20 51 51 20q30 0 50.5-20t20.5-51-20.5-51-50.5-20z"/><glyph glyph-name="dotlessi" unicode="ı" horiz-adv-x="289" d="M82 0v534h125V0H82z"/><glyph glyph-name="IJ" unicode="Ĳ" horiz-adv-x="722" d="M327-10q-75 0-139.5 20.5T75 64l49 101q45-30 97.5-46T327 103q86 0 131.5 49.5T504 304v396h130V311q0-105-38.5-176.5t-107-108T327-10zM88 315v385h130V315H88z"/><glyph glyph-name="ij" unicode="ĳ" horiz-adv-x="584" d="M82 0v534h125V0H82zm63 622q-35 0-57.5 22T65 697q0 32 22.5 53.5T145 772t57.5-20.5T225 700q0-33-22-55.5T145 622zm171-823q-35 0-66.5 7.5T196-170l36 93q29-21 73-21 34 0 53 21.5T377-13v547h125V-10q0-88-48.5-139.5T316-201zm123 823q-35 0-57.5 22T359 697q0 32 22.5 53.5T439 772t57.5-20.5T519 700q0-33-22-55.5T439 622z"/><glyph glyph-name="Jcircumflex" unicode="Ĵ" horiz-adv-x="527" d="M203-10q-67 0-123.5 26T-13 91l74 89q29-40 63.5-60t75.5-20q109 0 109 129v362H60v109h379V236q0-124-60.5-185T203-10zM59 757l134 137h114l134-137H338L202 872h96L162 757H59z"/><glyph glyph-name="jcircumflex" unicode="ĵ" horiz-adv-x="295" d="M27-201q-35 0-66.5 7.5T-93-170l36 93q29-21 73-21 34 0 53 21.5T88-13v547h125V-10q0-88-48.5-139.5T27-201zm-43 808L94 744h112l110-137h-98L107 722h86L82 607h-98z"/><glyph glyph-name="uni0136" unicode="Ķ" horiz-adv-x="729" d="m210 165-7 154 367 381h146L411 376l-72-79zM94 0v700h130V0H94zm488 0L314 319l86 95L734 0H582zM328-265l36 122 13-45q-28 0-44 14t-16 38q0 23 16.5 38T377-83q28 0 44-15.5t16-37.5q0-12-3-26t-13-33l-32-70h-61z"/><glyph glyph-name="uni0137" unicode="ķ" horiz-adv-x="636" d="m184 119 3 157 279 258h150L379 296l-66-55zM82 0v742h125V0H82zm403 0L290 241l79 100L637 0H485zM266-265l36 122 13-45q-28 0-44 14t-16 38q0 23 16.5 38T315-83q28 0 44-15.5t16-37.5q0-12-3-26t-13-33l-32-70h-61z"/><glyph glyph-name="kgreenlandic" unicode="ĸ" horiz-adv-x="625" d="m184 119 3 157 279 258h150L379 296l-66-55zM82 0v534h125V0H82zm403 0L290 241l79 100L637 0H485z"/><glyph glyph-name="Lacute" unicode="Ĺ" horiz-adv-x="599" d="M94 0v700h130V110h366V0H94zM75 757l135 137h147L183 757H75z"/><glyph glyph-name="lacute" unicode="ĺ" horiz-adv-x="289" d="M82 0v742h125V0H82zM61 815l135 137h147L169 815H61z"/><glyph glyph-name="uni013B" unicode="Ļ" horiz-adv-x="599" d="M94 0v700h130V110h366V0H94zm211-265 36 122 13-45q-28 0-44 14t-16 38q0 23 16.5 38T354-83q28 0 44-15.5t16-37.5q0-12-3-26t-13-33l-32-70h-61z"/><glyph glyph-name="uni013C" unicode="ļ" horiz-adv-x="289" d="M82 0v742h125V0H82zm14-265 36 122 13-45q-28 0-44 14t-16 38q0 23 16.5 38T145-83q28 0 44-15.5t16-37.5q0-12-3-26t-13-33l-32-70H96z"/><glyph glyph-name="Lcaron" unicode="Ľ" horiz-adv-x="599" d="M94 0v700h130V110h366V0H94zm340 540v197h99l-16-197h-83z"/><glyph glyph-name="lcaron" unicode="ľ" horiz-adv-x="289" d="M82 0v742h125V0H82zm209 582v197h99l-16-197h-83z"/><glyph glyph-name="Ldot" unicode="Ŀ" horiz-adv-x="599" d="M94 0v700h130V110h366V0H94zm365 330q-31 0-52 21t-21 54q0 32 21 53.5t52 21.5 51.5-21.5T531 405q0-33-20.5-54T459 330z"/><glyph glyph-name="ldot" unicode="ŀ" horiz-adv-x="381" d="M82 0v742h125V0H82zm253 292q-29 0-48.5 19.5T267 360q0 28 19.5 48t48.5 20q30 0 49.5-20t19.5-48q0-29-19.5-48.5T335 292z"/><glyph glyph-name="Lslash" unicode="Ł" horiz-adv-x="609" d="M104 0v700h130V110h366V0H104zM50 235l-53 69 345 261 53-68z"/><glyph glyph-name="lslash" unicode="ł" horiz-adv-x="310" d="M92 0v742h125V0H92zM34 215l-52 70 294 223 51-71z"/><glyph glyph-name="Nacute" unicode="Ń" horiz-adv-x="810" d="M94 0v700h107l439-539h-53v539h129V0H609L170 539h53V0H94zm227 757 135 137h147L429 757H321z"/><glyph glyph-name="nacute" unicode="ń" horiz-adv-x="685" d="M385 540q64 0 114.5-25t79.5-76.5T608 306V0H483v290q0 71-33.5 106T356 431q-44 0-78-18t-52.5-53.5T207 270V0H82v534h119V390l-21 44q28 51 81.5 78.5T385 540zm-124 67 135 137h147L369 607H261z"/><glyph glyph-name="uni0145" unicode="Ņ" horiz-adv-x="810" d="M94 0v700h107l439-539h-53v539h129V0H609L170 539h53V0H94zm262-265 36 122 13-45q-28 0-44 14t-16 38q0 23 16.5 38T405-83q28 0 44-15.5t16-37.5q0-12-3-26t-13-33l-32-70h-61z"/><glyph glyph-name="uni0146" unicode="ņ" horiz-adv-x="685" d="M385 540q64 0 114.5-25t79.5-76.5T608 306V0H483v290q0 71-33.5 106T356 431q-44 0-78-18t-52.5-53.5T207 270V0H82v534h119V390l-21 44q28 51 81.5 78.5T385 540zm-89-805 36 122 13-45q-28 0-44 14t-16 38q0 23 16.5 38T345-83q28 0 44-15.5t16-37.5q0-12-3-26t-13-33l-32-70h-61z"/><glyph glyph-name="Ncaron" unicode="Ň" horiz-adv-x="810" d="M94 0v700h107l439-539h-53v539h129V0H609L170 539h53V0H94zm254 757L214 894h103l136-114h-96l136 114h103L462 757H348z"/><glyph glyph-name="ncaron" unicode="ň" horiz-adv-x="685" d="M385 540q64 0 114.5-25t79.5-76.5T608 306V0H483v290q0 71-33.5 106T356 431q-44 0-78-18t-52.5-53.5T207 270V0H82v534h119V390l-21 44q28 51 81.5 78.5T385 540zm-97 67L154 744h103l136-114h-96l136 114h103L402 607H288z"/><glyph glyph-name="napostrophe" unicode="ŉ" horiz-adv-x="752" d="m-5 439 58 222 17-75q-35 0-58.5 22T-12 667t23.5 59.5T69 749q35 0 58-23t23-59q0-11-1.5-22.5t-6-26T128 581L76 439H-5zm456 101q64 0 114.5-25t79.5-76.5T674 306V0H549v290q0 71-33.5 106T422 431q-44 0-78-18t-52.5-53.5T273 270V0H148v534h119V390l-21 44q28 51 81.5 78.5T451 540z"/><glyph glyph-name="Eng" unicode="Ŋ" horiz-adv-x="810" d="M94 0v700h107l439-539L609 0 170 539h53V0H94zm389-201q-54 0-101 18.5T300-129l62 93q23-26 52.5-40.5T480-91q107 0 107 129v662h129V57q0-132-59-195t-174-63z"/><glyph glyph-name="eng" unicode="ŋ" horiz-adv-x="685" d="M385 540q64 0 114.5-25t79.5-76.5T608 306V-10q0-88-48.5-139.5T422-201q-35 0-66.5 7.5T302-170l37 93q28-21 72-21 34 0 53 21.5T483-13v303q0 71-33.5 106T356 431q-44 0-78-18t-52.5-53.5T207 270V0H82v534h119V390l-21 44q28 51 81.5 78.5T385 540z"/><glyph glyph-name="Omacron" unicode="Ō" horiz-adv-x="842" d="M422-10q-82 0-151 27T151 92.5t-79 114T44 350t28 143.5 79 114T271 683t150 27q82 0 150.5-27T691 607.5t79-114T798 350t-28-144-79-114-119.5-75T422-10zm-1 114q53 0 98 18t78 51.5 51.5 78T667 350t-18.5 98.5-51.5 78-78 51.5-98 18-97.5-18-78-51.5-52-78T175 350q0-53 18.5-98t51.5-78.5 78-51.5 98-18zM248 788v75h346v-75H248z"/><glyph glyph-name="omacron" unicode="ō" horiz-adv-x="645" d="M322-7q-82 0-146 35.5T75 126 38 267q0 80 37 141.5T176 505t146 35q83 0 147.5-35t101-96T607 267q0-79-36.5-141t-101-97.5T322-7zm0 107q46 0 82 20t56.5 58 20.5 89q0 52-20.5 89.5T404 414t-81 20q-46 0-81.5-20T185 356.5 164 267q0-51 21-89t56.5-58 80.5-20zM148 638v75h346v-75H148z"/><glyph glyph-name="Obreve" unicode="Ŏ" horiz-adv-x="842" d="M422-10q-82 0-151 27T151 92.5t-79 114T44 350t28 143.5 79 114T271 683t150 27q82 0 150.5-27T691 607.5t79-114T798 350t-28-144-79-114-119.5-75T422-10zm-1 114q53 0 98 18t78 51.5 51.5 78T667 350t-18.5 98.5-51.5 78-78 51.5-98 18-97.5-18-78-51.5-52-78T175 350q0-53 18.5-98t51.5-78.5 78-51.5 98-18zm0 646q-73 0-121.5 39T248 894h82q2-35 28-55t63-20 63.5 20 27.5 55h82q-3-66-51.5-105T421 750z"/><glyph glyph-name="obreve" unicode="ŏ" horiz-adv-x="645" d="M322-7q-82 0-146 35.5T75 126 38 267q0 80 37 141.5T176 505t146 35q83 0 147.5-35t101-96T607 267q0-79-36.5-141t-101-97.5T322-7zm0 107q46 0 82 20t56.5 58 20.5 89q0 52-20.5 89.5T404 414t-81 20q-46 0-81.5-20T185 356.5 164 267q0-51 21-89t56.5-58 80.5-20zm-1 500q-73 0-121.5 39T148 744h82q2-35 28-55t63-20 63.5 20 27.5 55h82q-3-66-51.5-105T321 600z"/><glyph glyph-name="Ohungarumlaut" unicode="Ő" horiz-adv-x="842" d="M422-10q-82 0-151 27T151 92.5t-79 114T44 350t28 143.5 79 114T271 683t150 27q82 0 150.5-27T691 607.5t79-114T798 350t-28-144-79-114-119.5-75T422-10zm-1 114q53 0 98 18t78 51.5 51.5 78T667 350t-18.5 98.5-51.5 78-78 51.5-98 18-97.5-18-78-51.5-52-78T175 350q0-53 18.5-98t51.5-78.5 78-51.5 98-18zm45 653 80 137h125L564 757h-98zm-188 0 81 137h125L376 757h-98z"/><glyph glyph-name="ohungarumlaut" unicode="ő" horiz-adv-x="645" d="M322-7q-82 0-146 35.5T75 126 38 267q0 80 37 141.5T176 505t146 35q83 0 147.5-35t101-96T607 267q0-79-36.5-141t-101-97.5T322-7zm0 107q46 0 82 20t56.5 58 20.5 89q0 52-20.5 89.5T404 414t-81 20q-46 0-81.5-20T185 356.5 164 267q0-51 21-89t56.5-58 80.5-20zm44 507 80 137h125L464 607h-98zm-188 0 81 137h125L276 607h-98z"/><glyph glyph-name="OE" unicode="Œ" horiz-adv-x="1131" d="M426 0Q312 0 226 44T92 166.5 44 349q0 106 48 184.5T226 656t200 44h162V590H432q-77 0-135.5-30t-90-84T175 350q0-73 31.5-126.5t90-83.5T432 110h156V0H426zm248 409h349V302H674v107zm10-300h395V0H555v700h510V591H684V109z"/><glyph glyph-name="oe" unicode="œ" horiz-adv-x="1065" d="M322-7q-82 0-146 35.5T75 126 38 267q0 80 37 141.5T176 505t146 35 143-35 95-96.5T594 267q0-79-34-141t-95-97.5T322-7zm0 107q46 0 82 20t56.5 58 20.5 89q0 52-20.5 89.5T404 414t-82 20q-45 0-80.5-20T185 356.5 164 267q0-51 21-89t56.5-58 80.5-20zM777-7q-89 0-153.5 35.5t-99 97.5T490 267q0 80 34 141.5t94 96.5 139 35 140-34 96-96 35-146q0-8-.5-18t-1.5-19H584v83h369l-43-26q1 46-18.5 81t-54 55-80.5 20q-45 0-79.5-20T623 364.5 603 281v-20q0-48 22-85t62-57 93-20q44 0 80 14t64 44l68-77q-37-42-92-64.5T777-7z"/><glyph glyph-name="Racute" unicode="Ŕ" horiz-adv-x="731" d="M94 0v700h288q93 0 159.5-30T644 584t36-133-36-132.5-102.5-85T382 204H166l58 59V0H94zm458 0L375 254h139L692 0H552zM224 249l-58 62h210q86 0 129.5 37T549 451q0 67-43.5 103T376 590H166l58 64V249zm65 508 135 137h147L397 757H289z"/><glyph glyph-name="racute" unicode="ŕ" horiz-adv-x="420" d="M82 0v534h119V387l-14 43q24 54 75.5 82T391 540V421q-8 2-15 2.5t-14 .5q-71 0-113-41.5T207 259V0H82zm70 607 135 137h147L260 607H152z"/><glyph glyph-name="uni0156" unicode="Ŗ" horiz-adv-x="731" d="M94 0v700h288q93 0 159.5-30T644 584t36-133-36-132.5-102.5-85T382 204H166l58 59V0H94zm458 0L375 254h139L692 0H552zM224 249l-58 62h210q86 0 129.5 37T549 451q0 67-43.5 103T376 590H166l58 64V249zm100-514 36 122 13-45q-28 0-44 14t-16 38q0 23 16.5 38T373-83q28 0 44-15.5t16-37.5q0-12-3-26t-13-33l-32-70h-61z"/><glyph glyph-name="uni0157" unicode="ŗ" horiz-adv-x="420" d="M82 0v534h119V387l-14 43q24 54 75.5 82T391 540V421q-8 2-15 2.5t-14 .5q-71 0-113-41.5T207 259V0H82zm14-265 36 122 13-45q-28 0-44 14t-16 38q0 23 16.5 38T145-83q28 0 44-15.5t16-37.5q0-12-3-26t-13-33l-32-70H96z"/><glyph glyph-name="Rcaron" unicode="Ř" horiz-adv-x="731" d="M94 0v700h288q93 0 159.5-30T644 584t36-133-36-132.5-102.5-85T382 204H166l58 59V0H94zm458 0L375 254h139L692 0H552zM224 249l-58 62h210q86 0 129.5 37T549 451q0 67-43.5 103T376 590H166l58 64V249zm92 508L182 894h103l136-114h-96l136 114h103L430 757H316z"/><glyph glyph-name="rcaron" unicode="ř" horiz-adv-x="420" d="M82 0v534h119V387l-14 43q24 54 75.5 82T391 540V421q-8 2-15 2.5t-14 .5q-71 0-113-41.5T207 259V0H82zm97 607L45 744h103l136-114h-96l136 114h103L293 607H179z"/><glyph glyph-name="Sacute" unicode="Ś" horiz-adv-x="629" d="M311-10q-82 0-157 23.5T35 74l45 101q42-33 104-55t127-22q55 0 89 12t50 32.5 16 46.5q0 32-23 51.5t-59.5 31-81 21.5-89 23.5-81 35T73 409t-23 92q0 57 30.5 104.5t93 76T332 710q63 0 125-16t108-46l-41-101q-47 28-97 41.5T331 602q-54 0-87.5-13t-49-34-15.5-48q0-32 22.5-51.5t59-30.5 81.5-21.5 89.5-23.5 81-34 59-57 22.5-91q0-56-30.5-103.5t-93.5-76T311-10zm-71 767 135 137h147L348 757H240z"/><glyph glyph-name="sacute" unicode="ś" horiz-adv-x="515" d="M247-7q-67 0-128.5 17.5T21 53l48 95q36-23 86-38t100-15q59 0 85.5 16t26.5 43q0 22-18 33.5T302 205t-64.5 11-71 13.5-64.5 25T55 299t-18 74q0 51 29 88.5t81.5 58T272 540q54 0 109-12t91-34l-48-95q-38 23-76.5 31.5T271 439q-57 0-84.5-17T159 379q0-24 18-36t47-19 64.5-11.5T359 299t64.5-24.5T471 231t18-73q0-50-29.5-87T376 13.5 247-7zm-77 614 135 137h147L278 607H170z"/><glyph glyph-name="Scircumflex" unicode="Ŝ" horiz-adv-x="629" d="M311-10q-82 0-157 23.5T35 74l45 101q42-33 104-55t127-22q55 0 89 12t50 32.5 16 46.5q0 32-23 51.5t-59.5 31-81 21.5-89 23.5-81 35T73 409t-23 92q0 57 30.5 104.5t93 76T332 710q63 0 125-16t108-46l-41-101q-47 28-97 41.5T331 602q-54 0-87.5-13t-49-34-15.5-48q0-32 22.5-51.5t59-30.5 81.5-21.5 89.5-23.5 81-34 59-57 22.5-91q0-56-30.5-103.5t-93.5-76T311-10zM133 757l134 137h114l134-137H412L276 872h96L236 757H133z"/><glyph glyph-name="scircumflex" unicode="ŝ" horiz-adv-x="515" d="M247-7q-67 0-128.5 17.5T21 53l48 95q36-23 86-38t100-15q59 0 85.5 16t26.5 43q0 22-18 33.5T302 205t-64.5 11-71 13.5-64.5 25T55 299t-18 74q0 51 29 88.5t81.5 58T272 540q54 0 109-12t91-34l-48-95q-38 23-76.5 31.5T271 439q-57 0-84.5-17T159 379q0-24 18-36t47-19 64.5-11.5T359 299t64.5-24.5T471 231t18-73q0-50-29.5-87T376 13.5 247-7zM63 607l134 137h114l134-137H342L206 722h96L166 607H63z"/><glyph glyph-name="Scedilla" unicode="Ş" horiz-adv-x="629" d="M311-10q-82 0-157 23.5T35 74l45 101q42-33 104-55t127-22q55 0 89 12t50 32.5 16 46.5q0 32-23 51.5t-59.5 31-81 21.5-89 23.5-81 35T73 409t-23 92q0 57 30.5 104.5t93 76T332 710q63 0 125-16t108-46l-41-101q-47 28-97 41.5T331 602q-54 0-87.5-13t-49-34-15.5-48q0-32 22.5-51.5t59-30.5 81.5-21.5 89.5-23.5 81-34 59-57 22.5-91q0-56-30.5-103.5t-93.5-76T311-10zm-16-218q-27 0-50 5.5T203-207l23 59q16-8 32.5-12t35.5-4q29 0 41 10t12 26q0 15-12.5 24T294-95h-31L290 7h68l-14-56q44-5 65.5-28.5T431-133q0-44-37-69.5T295-228z"/><glyph glyph-name="scedilla" unicode="ş" horiz-adv-x="515" d="M247-7q-67 0-128.5 17.5T21 53l48 95q36-23 86-38t100-15q59 0 85.5 16t26.5 43q0 22-18 33.5T302 205t-64.5 11-71 13.5-64.5 25T55 299t-18 74q0 51 29 88.5t81.5 58T272 540q54 0 109-12t91-34l-48-95q-38 23-76.5 31.5T271 439q-57 0-84.5-17T159 379q0-24 18-36t47-19 64.5-11.5T359 299t64.5-24.5T471 231t18-73q0-50-29.5-87T376 13.5 247-7zm-22-221q-27 0-50 5.5T133-207l23 59q16-8 32.5-12t35.5-4q29 0 41 10t12 26q0 15-12.5 24T224-95h-31L220 7h68l-14-56q44-5 65.5-28.5T361-133q0-44-37-69.5T225-228z"/><glyph glyph-name="Scaron" unicode="Š" horiz-adv-x="629" d="M311-10q-82 0-157 23.5T35 74l45 101q42-33 104-55t127-22q55 0 89 12t50 32.5 16 46.5q0 32-23 51.5t-59.5 31-81 21.5-89 23.5-81 35T73 409t-23 92q0 57 30.5 104.5t93 76T332 710q63 0 125-16t108-46l-41-101q-47 28-97 41.5T331 602q-54 0-87.5-13t-49-34-15.5-48q0-32 22.5-51.5t59-30.5 81.5-21.5 89.5-23.5 81-34 59-57 22.5-91q0-56-30.5-103.5t-93.5-76T311-10zm-44 767L133 894h103l136-114h-96l136 114h103L381 757H267z"/><glyph glyph-name="scaron" unicode="š" horiz-adv-x="515" d="M247-7q-67 0-128.5 17.5T21 53l48 95q36-23 86-38t100-15q59 0 85.5 16t26.5 43q0 22-18 33.5T302 205t-64.5 11-71 13.5-64.5 25T55 299t-18 74q0 51 29 88.5t81.5 58T272 540q54 0 109-12t91-34l-48-95q-38 23-76.5 31.5T271 439q-57 0-84.5-17T159 379q0-24 18-36t47-19 64.5-11.5T359 299t64.5-24.5T471 231t18-73q0-50-29.5-87T376 13.5 247-7zm-50 614L63 744h103l136-114h-96l136 114h103L311 607H197z"/><glyph glyph-name="uni0162" unicode="Ţ" horiz-adv-x="602" d="M236 0v590H4v110h594V590H366V0H236zm36-228q-27 0-50 5.5T180-207l23 59q16-8 32.5-12t35.5-4q29 0 41 10t12 26q0 15-12.5 24T271-95h-31L267 7h68l-14-56q44-5 65.5-28.5T408-133q0-44-37-69.5T272-228z"/><glyph glyph-name="uni0163" unicode="ţ" horiz-adv-x="424" d="M283-7q-88 0-136 45.5T99 173v479h125V176q0-38 19.5-59T298 96q42 0 70 22l35-89q-22-18-54-27t-66-9zM11 430v100h356V430H11zm217-658q-27 0-50 5.5T136-207l23 59q16-8 32.5-12t35.5-4q29 0 41 10t12 26q0 15-12.5 24T227-95h-31L223 7h68l-14-56q44-5 65.5-28.5T364-133q0-44-37-69.5T228-228z"/><glyph glyph-name="Tcaron" unicode="Ť" horiz-adv-x="602" d="M236 0v590H4v110h594V590H366V0H236zm8 757L110 894h103l136-114h-96l136 114h103L358 757H244z"/><glyph glyph-name="tcaron" unicode="ť" horiz-adv-x="424" d="M283-7q-88 0-136 45.5T99 173v479h125V176q0-38 19.5-59T298 96q42 0 70 22l35-89q-22-18-54-27t-66-9zM11 430v100h356V430H11zm288 161v176h94l-13-176h-81z"/><glyph glyph-name="Tbar" unicode="Ŧ" horiz-adv-x="602" d="M236 0v590H4v110h594V590H366V0H236zM93 285v96h416v-96H93z"/><glyph glyph-name="tbar" unicode="ŧ" horiz-adv-x="434" d="M288-7q-88 0-136 45.5T104 173v479h125V176q0-38 19.5-59T303 96q42 0 70 22l35-89q-22-18-54-27t-66-9zM16 430v100h356V430H16zm13-189v81h331v-81H29z"/><glyph glyph-name="Utilde" unicode="Ũ" horiz-adv-x="789" d="M395-10q-144 0-225.5 81T88 305v395h130V310q0-108 46.5-157T396 104t131 49 46 157v390h128V305q0-153-81.5-234T395-10zm73 767q-24 0-43.5 9.5t-35 23T360 813t-28 10q-21 0-34-16t-15-44h-67q2 62 30.5 98t77.5 36q24 0 44-10t35.5-23 29.5-23 27-10q21 0 34.5 15t14.5 42h67q-1-58-30-94.5T468 757z"/><glyph glyph-name="utilde" unicode="ũ" horiz-adv-x="681" d="M308-7q-68 0-120 25.5t-81 78T78 229v305h125V246q0-72 32.5-107.5T328 103q44 0 76.5 18t51 54 18.5 89v270h125V0H480v144l21-44q-27-52-79-79.5T308-7zm102 614q-24 0-43.5 9.5t-35 23T302 663t-28 10q-21 0-34-16t-15-44h-67q2 62 30.5 98t77.5 36q24 0 44-10t35.5-23 29.5-23 27-10q21 0 34.5 15t14.5 42h67q-1-58-30-94.5T410 607z"/><glyph glyph-name="Umacron" unicode="Ū" horiz-adv-x="789" d="M395-10q-144 0-225.5 81T88 305v395h130V310q0-108 46.5-157T396 104t131 49 46 157v390h128V305q0-153-81.5-234T395-10zM223 788v75h346v-75H223z"/><glyph glyph-name="umacron" unicode="ū" horiz-adv-x="681" d="M308-7q-68 0-120 25.5t-81 78T78 229v305h125V246q0-72 32.5-107.5T328 103q44 0 76.5 18t51 54 18.5 89v270h125V0H480v144l21-44q-27-52-79-79.5T308-7zM165 638v75h346v-75H165z"/><glyph glyph-name="Ubreve" unicode="Ŭ" horiz-adv-x="789" d="M395-10q-144 0-225.5 81T88 305v395h130V310q0-108 46.5-157T396 104t131 49 46 157v390h128V305q0-153-81.5-234T395-10zm1 760q-73 0-121.5 39T223 894h82q2-35 28-55t63-20 63.5 20 27.5 55h82q-3-66-51.5-105T396 750z"/><glyph glyph-name="ubreve" unicode="ŭ" horiz-adv-x="681" d="M308-7q-68 0-120 25.5t-81 78T78 229v305h125V246q0-72 32.5-107.5T328 103q44 0 76.5 18t51 54 18.5 89v270h125V0H480v144l21-44q-27-52-79-79.5T308-7zm30 607q-73 0-121.5 39T165 744h82q2-35 28-55t63-20 63.5 20 27.5 55h82q-3-66-51.5-105T338 600z"/><glyph glyph-name="Uring" unicode="Ů" horiz-adv-x="789" d="M395-10q-144 0-225.5 81T88 305v395h130V310q0-108 46.5-157T396 104t131 49 46 157v390h128V305q0-153-81.5-234T395-10zm0 769q-33 0-59.5 16T294 816.5 279 873q0 32 15.5 58.5t41.5 42 59 15.5q34 0 60.5-15.5t41.5-42 15-58.5q0-31-15-57t-41.5-41.5T395 759zm0 51q28 0 46 18t18 45q0 28-18 46.5T395 938q-26 0-44.5-18T332 873q0-27 18-45t45-18z"/><glyph glyph-name="uring" unicode="ů" horiz-adv-x="681" d="M308-7q-68 0-120 25.5t-81 78T78 229v305h125V246q0-72 32.5-107.5T328 103q44 0 76.5 18t51 54 18.5 89v270h125V0H480v144l21-44q-27-52-79-79.5T308-7zm29 600q-33 0-59.5 16T236 650.5 221 707q0 32 15.5 58.5t41.5 42 59 15.5q34 0 60.5-15.5t41.5-42 15-58.5q0-31-15-57t-41.5-41.5T337 593zm0 51q28 0 46 18t18 45q0 28-18 46.5T337 772q-26 0-44.5-18T274 707q0-27 18-45t45-18z"/><glyph glyph-name="Uhungarumlaut" unicode="Ű" horiz-adv-x="789" d="M395-10q-144 0-225.5 81T88 305v395h130V310q0-108 46.5-157T396 104t131 49 46 157v390h128V305q0-153-81.5-234T395-10zm46 767 80 137h125L539 757h-98zm-188 0 81 137h125L351 757h-98z"/><glyph glyph-name="uhungarumlaut" unicode="ű" horiz-adv-x="681" d="M308-7q-68 0-120 25.5t-81 78T78 229v305h125V246q0-72 32.5-107.5T328 103q44 0 76.5 18t51 54 18.5 89v270h125V0H480v144l21-44q-27-52-79-79.5T308-7zm75 614 80 137h125L481 607h-98zm-188 0 81 137h125L293 607h-98z"/><glyph glyph-name="Uogonek" unicode="Ų" horiz-adv-x="789" d="M573 700h128V305q0-123-50-195T517 8q-57-21-87.5-41.5t-42-40T376-111q0-23 16.5-36t42.5-13q16 0 32.5 4.5T496-144l21-61q-19-10-44-16.5t-52-6.5q-61 0-95 29.5T292-121q0 29 14.5 57.5t47 54T439 37V-8q-11-1-22-1.5t-22-.5q-144 0-225.5 81T88 305v395h130V310q0-108 46.5-157T396 104t131 49 46 157v390z"/><glyph glyph-name="uogonek" unicode="ų" horiz-adv-x="681" d="M308-7q-68 0-120 25.5t-81 78T78 229v305h125V246q0-72 32.5-107.5T328 103q44 0 76.5 18t51 54 18.5 89v270h125V0H480v144l21-44q-27-52-79-79.5T308-7zm219-221q-62 0-96 29.5T397-121q0 29 15 57.5t47.5 54T544 37l55-37q-42-19-68-37t-38-36-12-38q0-23 16.5-36t42.5-13q17 0 33 4.5t28 11.5l21-61q-19-10-44-16.5t-51-6.5z"/><glyph glyph-name="Wcircumflex" unicode="Ŵ" horiz-adv-x="1144" d="M259 0 27 700h135L369 67h-67l215 633h120L846 67h-65l212 633h124L885 0H747L556 571h36L398 0H259zm123 757 134 137h114l134-137H661L525 872h96L485 757H382z"/><glyph glyph-name="wcircumflex" unicode="ŵ" horiz-adv-x="919" d="M200 0 4 534h118L290 63h-56l176 471h105L686 63h-55l173 471h111L718 0H598L442 417h37L320 0H200zm66 605 134 137h114l134-137H545L409 720h96L369 605H266z"/><glyph glyph-name="Ycircumflex" unicode="Ŷ" horiz-adv-x="661" d="M266 0v277l29-80L-9 700h139l244-405h-78l246 405h128L366 197l30 80V0H266zM140 757l134 137h114l134-137H419L283 872h96L243 757H140z"/><glyph glyph-name="ycircumflex" unicode="ŷ" horiz-adv-x="578" d="M126-201q-39 0-78 13t-65 36l50 92q19-17 43-27t49-10q34 0 55 17t39 57l31 70 10 15 202 472h120L332-43q-25-60-55.5-95t-68-49-82.5-14zM236-19-5 534h130L321 73zM85 607l134 137h114l134-137H364L228 722h96L188 607H85z"/><glyph glyph-name="Ydieresis" unicode="Ÿ" horiz-adv-x="661" d="M266 0v277l29-80L-9 700h139l244-405h-78l246 405h128L366 197l30 80V0H266zm162 768q-25 0-42.5 16.5T368 828t17.5 44 42.5 17 42.5-17 17.5-44-17.5-43.5T428 768zm-194 0q-25 0-42.5 16.5T174 828t17.5 44 42.5 17 42.5-17 17.5-44-17.5-43.5T234 768z"/><glyph glyph-name="Zacute" unicode="Ź" horiz-adv-x="663" d="M41 0v87l452 552 15-49H48v110h577v-87L173 61l-16 49h481V0H41zm215 757 135 137h147L364 757H256z"/><glyph glyph-name="zacute" unicode="ź" horiz-adv-x="532" d="M38 0v79l329 398 23-43H44v100h446v-79L161 57l-25 43h363V0H38zm146 607 135 137h147L292 607H184z"/><glyph glyph-name="Zdotaccent" unicode="Ż" horiz-adv-x="663" d="M41 0v87l452 552 15-49H48v110h577v-87L173 61l-16 49h481V0H41zm299 769q-31 0-51 20t-20 51 20 51 51 20q30 0 50.5-20t20.5-51-20.5-51-50.5-20z"/><glyph glyph-name="zdotaccent" unicode="ż" horiz-adv-x="532" d="M38 0v79l329 398 23-43H44v100h446v-79L161 57l-25 43h363V0H38zm230 619q-31 0-51 20t-20 51 20 51 51 20q30 0 50.5-20t20.5-51-20.5-51-50.5-20z"/><glyph glyph-name="Zcaron" unicode="Ž" horiz-adv-x="663" d="M41 0v87l452 552 15-49H48v110h577v-87L173 61l-16 49h481V0H41zm242 757L149 894h103l136-114h-96l136 114h103L397 757H283z"/><glyph glyph-name="zcaron" unicode="ž" horiz-adv-x="532" d="M38 0v79l329 398 23-43H44v100h446v-79L161 57l-25 43h363V0H38zm173 607L77 744h103l136-114h-96l136 114h103L325 607H211z"/><glyph glyph-name="longs" unicode="ſ" horiz-adv-x="319" d="M109 0v564q0 84 49.5 134.5T301 749q32 0 61.5-7t50.5-22l-35-94q-14 11-31.5 16.5T310 648q-37 0-56.5-21.5T234 562V0H109zM22 430v100h150V430H22z"/><glyph glyph-name="uni018F" unicode="Ə" horiz-adv-x="817" d="M409-10q-79 0-146 27T147 93 71 209 44 356v32h613V286H132l42 59q0-56 17-101.5t48-77.5 74-49.5T409 99t96 17 74 49 47 76 16 99v16q0 51-18.5 95t-51 76.5T496 578t-95 18q-39 0-78-9t-73.5-27-61.5-46l-78 88q33 33 78.5 57.5t100 37.5T402 710q81 0 149-26.5t118-75T746 494t27-143q0-79-27-144.5t-76.5-114T554 17 409-10z"/><glyph glyph-name="florin" unicode="ƒ" horiz-adv-x="464" d="M25-201q-35 0-66 8t-52 24l44 92q28-21 68-21 34 0 56.5 21.5T103-13l72 577q10 84 64.5 134.5T383 749q32 0 63.5-7.5T497 717l-45-92q-13 10-29.5 15.5T387 646q-38 0-61.5-21.5T296 561l-8-59-2-56-58-462q-10-84-63.5-134.5T25-201zm45 618 12 100h355l-12-100H70z"/><glyph glyph-name="Ohorn" unicode="Ơ" horiz-adv-x="842" d="M422-10q-82 0-151 27T151 92.5 72 207 44 350q0 78 28 144t79.5 114.5 121.5 75T426 710q58 0 103-7t84-7q42 0 65.5 17.5T702 765q0 19-6 34t-14 28l76 28q14-19 22-43t8-51q0-68-47.5-105.5T608 618q-33 0-68 4t-66 8l159 19q49-28 86-73t58-102.5T798 350q0-78-28-144T691 92 571.5 17 422-10zm-1 114q53 0 98 18t78 51.5 51.5 78.5 18.5 98-18.5 98-51.5 78.5-78 51.5-98 18-98-18-78-51.5-51.5-78T175 350q0-53 18.5-98t51.5-78.5 78-51.5 98-18z"/><glyph glyph-name="ohorn" unicode="ơ" horiz-adv-x="645" d="M322-7q-82 0-146 35.5T75 126 38 267q0 80 37 141.5T176.5 505 324 540q26 0 45-1.5t36.5-3.5 37.5-2q37 0 53.5 19t16.5 47q0 18-6 33.5T492 661l76 28q13-19 22-43t9-51q0-43-20-75t-57-49-89-17q-19 0-37.5 2t-38.5 5l78 59q78-30 125-96.5T607 267q0-79-36.5-141t-101-97.5T322-7zm0 107q45 0 81 20t57 58 21 89q0 52-20.5 89.5T404 414t-82 20q-45 0-80.5-20T185 356.5 164 267q0-51 21-89t56.5-58 80.5-20z"/><glyph glyph-name="Uhorn" unicode="Ư" horiz-adv-x="800" d="M395-10q-144 0-225.5 81T88 305v395h130V310q0-108 46.5-157T396 104t131 49 46 157v390h128V305q0-153-81.5-234T395-10zm241 621v89h21q31 0 46.5 18t15.5 46q0 18-5.5 34T699 826l77 28q14-18 22-42t8-52q0-69-40-109t-110-40h-20z"/><glyph glyph-name="uhorn" unicode="ư" horiz-adv-x="693" d="M308-7q-68 0-120 25.5t-81 78T78 229v305h125V246q0-72 32.5-107.5T328 103q44 0 76.5 18t51 54 18.5 89v270h125V0H480v144l21-44q-27-52-79-79.5T308-7zm210 452v89h21q31 0 46.5 18t15.5 46q0 18-5.5 34T581 660l77 28q14-18 22-42t8-52q0-69-40-109t-110-40h-20z"/><glyph glyph-name="uni01B7" unicode="Ʒ" horiz-adv-x="631" d="M299-10q-79 0-151.5 21.5T29 69l46 102q39-32 97.5-51T295 101q77 0 119.5 29t42.5 80q0 48-40 76.5T292 315h-66v87l218 238 12-47H57v107h497v-87L336 375l-58 38h39q90 0 150-25.5t90.5-71.5T588 210q0-59-31-109t-95-80.5T299-10z"/><glyph glyph-name="uni01C4" unicode="Ǆ" horiz-adv-x="1452" d="M94 0v700h306q114 0 200-44t134-122 48-184q0-105-48-183.5T600 44 400 0H94zm130 110h170q79 0 136.5 30t89 84T651 350q0 73-31.5 126.5t-89 83.5T394 590H224V110zM825 0v87l452 552 15-49H832v110h577v-87L957 61l-16 49h481V0H825zm242 757L933 894h103l136-114h-96l136 114h103l-134-137h-114z"/><glyph glyph-name="uni01C5" unicode="ǅ" horiz-adv-x="1358" d="M94 0v700h306q114 0 200-44t134-122 48-184q0-105-48-183.5T600 44 400 0H94zm130 110h170q79 0 136.5 30t89 84T651 350q0 73-31.5 126.5t-89 83.5T394 590H224V110zM864 0v79l329 398 23-43H870v100h446v-79L987 57l-25 43h363V0H864zm173 607L903 744h103l136-114h-96l136 114h103l-134-137h-114z"/><glyph glyph-name="uni01C6" unicode="ǆ" horiz-adv-x="1221" d="M308-7q-77 0-138.5 34.5T73 123 38 267t35 144 96.5 95T308 540q67 0 120-29.5t84-89.5 31-154q0-93-30-153.5T430 23 308-7zm15 107q45 0 80.5 20t57 58 21.5 89q0 52-21.5 89.5t-57 57.5-80.5 20-80.5-20-57-57.5T164 267q0-51 21.5-89t57-58 80.5-20zM485 0v126l5 142-10 142v332h124V0H485zm234 0v79l329 398 23-43H725v100h446v-79L842 57l-25 43h363V0H719zm173 607L758 744h103l136-114h-96l136 114h103l-134-137H892z"/><glyph glyph-name="uni01C7" unicode="Ǉ" horiz-adv-x="1126" d="M94 0v700h130V110h366V0H94zm708-10q-67 0-123.5 26T586 91l74 89q29-40 63.5-60t75.5-20q109 0 109 129v362H659v109h379V236q0-124-60.5-185T802-10z"/><glyph glyph-name="uni01C8" unicode="ǈ" horiz-adv-x="894" d="M94 0v700h130V110h366V0H94zm532-201q-35 0-66.5 7.5T506-170l36 93q29-21 73-21 34 0 53 21.5T687-13v547h125V-10q0-88-48.5-139.5T626-201zm123 823q-35 0-57.5 22T669 697q0 32 22.5 53.5T749 772t57.5-20.5T829 700q0-33-22-55.5T749 622z"/><glyph glyph-name="uni01C9" unicode="ǉ" horiz-adv-x="584" d="M82 0v742h125V0H82zm234-201q-35 0-66.5 7.5T196-170l36 93q29-21 73-21 34 0 53 21.5T377-13v547h125V-10q0-88-48.5-139.5T316-201zm123 823q-35 0-57.5 22T359 697q0 32 22.5 53.5T439 772t57.5-20.5T519 700q0-33-22-55.5T439 622z"/><glyph glyph-name="uni01CA" unicode="Ǌ" horiz-adv-x="1337" d="M94 0v700h107l439-539h-53v539h129V0H609L170 539h53V0H94zm919-10q-67 0-123.5 26T797 91l74 89q29-40 63.5-60t75.5-20q109 0 109 129v362H870v109h379V236q0-124-60.5-185T1013-10z"/><glyph glyph-name="uni01CB" unicode="ǋ" horiz-adv-x="1105" d="M94 0v700h107l439-539h-53v539h129V0H609L170 539h53V0H94zm743-201q-35 0-66.5 7.5T717-170l36 93q29-21 73-21 34 0 53 21.5T898-13v547h125V-10q0-88-48.5-139.5T837-201zm123 823q-35 0-57.5 22T880 697q0 32 22.5 53.5T960 772t57.5-20.5T1040 700q0-33-22-55.5T960 622z"/><glyph glyph-name="uni01CC" unicode="ǌ" horiz-adv-x="980" d="M385 540q64 0 114.5-25t79.5-76.5T608 306V0H483v290q0 71-33.5 106T356 431q-44 0-78-18t-52.5-53.5T207 270V0H82v534h119V390l-21 44q28 51 81.5 78.5T385 540zm327-741q-35 0-66.5 7.5T592-170l36 93q29-21 73-21 34 0 53 21.5T773-13v547h125V-10q0-88-48.5-139.5T712-201zm123 823q-35 0-57.5 22T755 697q0 32 22.5 53.5T835 772t57.5-20.5T915 700q0-33-22-55.5T835 622z"/><glyph glyph-name="uni01CD" unicode="Ǎ" horiz-adv-x="749" d="m-5 0 315 700h128L754 0H618L347 631h52L129 0H-5zm145 162 35 102h378l35-102H140zm177 595L183 894h103l136-114h-96l136 114h103L431 757H317z"/><glyph glyph-name="uni01CE" unicode="ǎ" horiz-adv-x="607" d="M411 0v108l-7 23v189q0 55-33 85.5T271 436q-45 0-88.5-14T109 383l-49 91q43 33 102.5 49.5T286 540q116 0 179.5-55.5T529 313V0H411zM243-7q-60 0-105 20.5t-69.5 57T44 153q0 45 21.5 81t70.5 57 130 21h155v-83H275q-64 0-86-20.5T167 158q0-34 27-54t75-20q46 0 82.5 21t52.5 62l21-75q-18-47-64.5-73T243-7zm-3 614L106 744h103l136-114h-96l136 114h103L354 607H240z"/><glyph glyph-name="uni01D3" unicode="Ǔ" horiz-adv-x="789" d="M395-10q-144 0-225.5 81T88 305v395h130V310q0-108 46.5-157T396 104t131 49 46 157v390h128V305q0-153-81.5-234T395-10zm-56 767L205 894h103l136-114h-96l136 114h103L453 757H339z"/><glyph glyph-name="uni01D4" unicode="ǔ" horiz-adv-x="681" d="M308-7q-68 0-120 25.5t-81 78T78 229v305h125V246q0-72 32.5-107.5T328 103q44 0 76.5 18t51 54 18.5 89v270h125V0H480v144l21-44q-27-52-79-79.5T308-7zm-27 614L147 744h103l136-114h-96l136 114h103L395 607H281z"/><glyph glyph-name="uni01E4" unicode="Ǥ" horiz-adv-x="809" d="M396 195v95h391v-95H396zm25-205q-82 0-150.5 26.5T151 91.5 72 206 44 350t28 144 79.5 114.5 120.5 75T423 710q89 0 160.5-29T704 596l-82-80q-41 41-88.5 60.5T429 596q-55 0-102-18t-81-51-52.5-78-18.5-99q0-53 18.5-98t52.5-78.5 80-51.5 102-18q52 0 100.5 16.5T621 176l74-97q-55-44-127.5-66.5T421-10zM572 96v262h123V79z"/><glyph glyph-name="uni01E5" unicode="ǥ" horiz-adv-x="704" d="M323-201q-74 0-144 19.5T64-125l56 93q35-29 88-47t109-18q88 0 129 40.5T487 65v96l10 122-4 121v130h119V81q0-144-73.5-213T323-201zM279-50v75l397 1v-76H279zm28 104q-78 0-139 30.5t-95.5 86T38 298t34.5 126.5 95.5 85T307 540q67 0 121.5-26t87.5-79 33-137-33-138.5-87.5-80T307 54zm20 99q48 0 84.5 18.5t57 51T489 298t-20.5 75-57 50.5T327 442t-85-18.5-57.5-50.5-20.5-75 20.5-75.5 57.5-51 85-18.5z"/><glyph glyph-name="Gcaron" unicode="Ǧ" horiz-adv-x="772" d="M421-10q-82 0-150.5 26.5T151 91.5 72 206 44 350t28 144 79.5 114.5 120.5 75T423 710q89 0 160.5-29T704 596l-82-80q-41 41-88.5 60.5T429 596q-55 0-102-18t-81-51-52.5-78-18.5-99q0-53 18.5-98t52.5-78.5 80-51.5 102-18q52 0 100.5 16.5T621 176l74-97q-55-44-127.5-66.5T421-10zM572 96v262h123V79zM357 757 223 894h103l136-114h-96l136 114h103L471 757H357z"/><glyph glyph-name="gcaron" unicode="ǧ" horiz-adv-x="694" d="M324-201q-74 0-144.5 19.5T64-125l56 94q35-29 88.5-46.5T317-95q88 0 129 40.5T487 67v95l10 121-4 121v130h119V81q0-145-74-213.5T324-201zM308 24q-76 0-137.5 32.5t-97 90.5T38 283q0 77 35.5 135t97 90T308 540q68 0 122-27t86.5-84T549 283t-32.5-146.5-86.5-85T308 24zm19 106q47 0 84 19.5t57.5 54T489 283t-20.5 79.5-57.5 53-84 18.5-84.5-18.5-58-53T164 283t20.5-79.5 58-54T327 130zm-49 477L144 744h103l136-114h-96l136 114h103L392 607H278z"/><glyph glyph-name="uni01E8" unicode="Ǩ" horiz-adv-x="729" d="m210 165-7 154 367 381h146L411 376l-72-79zM94 0v700h130V0H94zm488 0L314 319l86 95L734 0H582zM320 757 186 894h103l136-114h-96l136 114h103L434 757H320z"/><glyph glyph-name="uni01E9" unicode="ǩ" horiz-adv-x="636" d="m184 119 3 157 279 258h150L379 296l-66-55zM82 0v742h125V0H82zm403 0L290 241l79 100L637 0H485zM88 815-46 952H57l136-114H97l136 114h103L202 815H88z"/><glyph glyph-name="uni01EA" unicode="Ǫ" horiz-adv-x="842" d="M435-228q-61 0-95 29.5T306-121q0 29 14.5 58t47 54.5T453 37l8-45q-12-1-21.5-1.5T421-10q-81 0-149.5 26.5t-120 75T72 206 44 350t28 144 79.5 114.5 120 75T421 710q82 0 150.5-26.5t119.5-75T770 494t28-144q0-89-35-159T667.5 74 533 6q-46-13-78-31t-48.5-40-16.5-46q0-23 16.5-36t42.5-13q17 0 33 4.5t28 11.5l21-61q-19-10-44-16.5t-52-6.5zm-14 332q53 0 98 18t78 51.5 51.5 78.5 18.5 98q0 54-18.5 98.5t-51.5 78-78 51.5-98 18-98-18-78-51.5-51.5-78T175 350q0-53 18.5-98t51.5-78.5 78-51.5 98-18z"/><glyph glyph-name="uni01EB" unicode="ǫ" horiz-adv-x="645" d="M352-228q-61 0-95 29.5T223-123q0 30 14 59t46 55 83 45l9-39q-16-1-28.5-2.5T322-7q-82 0-146 35.5T75 126 38 267q0 80 37 141.5T176 505t146 35q83 0 147.5-35t101-96.5T607 267q0-88-45.5-154T440 14q-53-22-82-43.5T318-71t-11-39q0-24 16.5-37t42.5-13q16 0 32.5 4.5T427-144l20-61q-18-10-43-16.5t-52-6.5zm-30 328q46 0 82 20t56.5 58 20.5 89q0 52-20.5 89.5T404 414t-82 20q-45 0-80.5-20T185 356.5 164 267q0-51 21-89t56.5-58 80.5-20z"/><glyph glyph-name="uni01EE" unicode="Ǯ" horiz-adv-x="631" d="M299-10q-79 0-151.5 21.5T29 69l46 102q39-32 97.5-51T295 101q77 0 119.5 29t42.5 80q0 48-40 76.5T292 315h-66v87l218 238 12-47H57v107h497v-87L336 375l-58 38h39q90 0 150-25.5t90.5-71.5T588 210q0-59-31-109t-95-80.5T299-10zm-49 767L116 894h103l136-114h-96l136 114h103L364 757H250z"/><glyph glyph-name="uni01EF" unicode="ǯ" horiz-adv-x="541" d="M238-201q-76 0-144.5 22T-19-119L27-16q37-33 91.5-53T233-89q72 0 111 30t39 84q0 51-36.5 81.5T231 137h-65v87l204 249 12-47H8v108h472v-88L276 197l-59 39h39q128 0 192-58.5T512 25q0-61-30-112.5T391.5-170 238-201zm-61 808L43 744h103l136-114h-96l136 114h103L291 607H177z"/><glyph glyph-name="Aringacute" unicode="Ǻ" horiz-adv-x="749" d="m-5 0 315 700h128L754 0H618L347 631h52L129 0H-5zm145 162 35 102h378l35-102H140zm233 597q-33 0-59.5 16T272 816.5 257 873q0 32 15.5 58.5t41.5 42 59 15.5q34 0 60.5-15.5t41.5-42 15-58.5q0-31-15-57t-41.5-41.5T373 759zm0 51q28 0 46 18t18 45q0 28-18 46.5T373 938q-26 0-44.5-18T310 873q0-27 18-45t45-18zm88 117-63 21 113 116 64-50z"/><glyph glyph-name="aringacute" unicode="ǻ" horiz-adv-x="607" d="M411 0v108l-7 23v189q0 55-33 85.5T271 436q-45 0-88.5-14T109 383l-49 91q43 33 102.5 49.5T286 540q116 0 179.5-55.5T529 313V0H411zM243-7q-60 0-105 20.5t-69.5 57T44 153q0 45 21.5 81t70.5 57 130 21h155v-83H275q-64 0-86-20.5T167 158q0-34 27-54t75-20q46 0 82.5 21t52.5 62l21-75q-18-47-64.5-73T243-7zm53 600q-33 0-59.5 16T195 650.5 180 707q0 32 15.5 58.5t41.5 42 59 15.5q34 0 60.5-15.5t41.5-42 15-58.5q0-31-15-57t-41.5-41.5T296 593zm0 51q28 0 46 18t18 45q0 28-18 46.5T296 772q-26 0-44.5-18T233 707q0-27 18-45t45-18zm88 117-63 21 113 116 64-50z"/><glyph glyph-name="AEacute" unicode="Ǽ" horiz-adv-x="1063" d="m-5 0 406 700h130V591H418l79 56L129 0H-5zm192 162 4 102h340V162H187zm420 247h348V302H606zm10-300h395V0H487v700h511V591H617V109zM467 757l135 137h147L575 757H467z"/><glyph glyph-name="aeacute" unicode="ǽ" horiz-adv-x="993" d="M260-7Q158-7 101 39T44 158q0 42 21.5 76.5T136 290t130 21h154v-82H275q-63 0-85.5-20.5T167 160q0-36 27.5-56T271 84q63 0 98 32.5t35 84.5v119q0 55-33 85.5T272 436q-46 0-89.5-14T109 383l-49 91q43 33 102.5 49.5T285 540q91 0 147-34t76-100l-59 4q33 61 94.5 95.5T683 540q58 0 107.5-19.5T877 465t57.5-86T955 269q0-12-.5-22t-2.5-18H508v82h372l-46-27q1 52-21 86t-57 52-74 18q-38 0-73.5-18t-58-53-22.5-88v-20q0-48 22-85t61.5-57T704 99q45 0 80 14t65 44l68-77q-37-43-92.5-65T701-7q-62 0-116.5 18.5T489 69t-65 101l75-1q-14-68-51.5-106.5t-87-54T260-7zm123 614 135 137h147L491 607H383z"/><glyph glyph-name="Oslashacute" unicode="Ǿ" horiz-adv-x="842" d="M422-10q-82 0-151 27T151 92.5t-79 114T44 350t28 143.5 79 114T271 683t150 27q82 0 150.5-27T691 607.5t79-114T798 350t-28-144-79-114-119.5-75T422-10zm-1 114q53 0 98 18t78 51.5 51.5 78T667 350t-18.5 98.5-51.5 78-78 51.5-98 18-97.5-18-78-51.5-52-78T175 350q0-53 18.5-98t51.5-78.5 78-51.5 98-18zM75-70l600 840h93L168-70H75zm262 827 135 137h147L445 757H337z"/><glyph glyph-name="oslashacute" unicode="ǿ" horiz-adv-x="645" d="M322-7q-82 0-146 35.5T75 126 38 267q0 80 37 141.5T176 505t146 35q83 0 147.5-35t101-96T607 267q0-79-36.5-141t-101-97.5T322-7zm0 107q46 0 82 20t56.5 58 20.5 89q0 52-20.5 89.5T404 414t-81 20q-46 0-81.5-20T185 356.5 164 267q0-51 21-89t56.5-58 80.5-20zM66-71l440 672h70L136-71H66zm169 678 135 137h147L343 607H235z"/><glyph glyph-name="uni0200" unicode="Ȁ" horiz-adv-x="749" d="m-5 0 315 700h128L754 0H618L347 631h52L129 0H-5zm145 162 35 102h378l35-102H140zm279 595L311 894h125l81-137h-98zm-188 0L124 894h125l80-137h-98z"/><glyph glyph-name="uni0201" unicode="ȁ" horiz-adv-x="607" d="M411 0v108l-7 23v189q0 55-33 85.5T271 436q-45 0-88.5-14T109 383l-49 91q43 33 102.5 49.5T286 540q116 0 179.5-55.5T529 313V0H411zM243-7q-60 0-105 20.5t-69.5 57T44 153q0 45 21.5 81t70.5 57 130 21h155v-83H275q-64 0-86-20.5T167 158q0-34 27-54t75-20q46 0 82.5 21t52.5 62l21-75q-18-47-64.5-73T243-7zm99 614L234 744h125l81-137h-98zm-188 0L47 744h125l80-137h-98z"/><glyph glyph-name="uni0202" unicode="Ȃ" horiz-adv-x="749" d="m-5 0 315 700h128L754 0H618L347 631h52L129 0H-5zm145 162 35 102h378l35-102H140zm61 595q3 67 51.5 105.5T374 901t121.5-38.5T547 757h-82q-1 35-27.5 55.5T374 833t-63-20.5-28-55.5h-82z"/><glyph glyph-name="uni0203" unicode="ȃ" horiz-adv-x="607" d="M411 0v108l-7 23v189q0 55-33 85.5T271 436q-45 0-88.5-14T109 383l-49 91q43 33 102.5 49.5T286 540q116 0 179.5-55.5T529 313V0H411zM243-7q-60 0-105 20.5t-69.5 57T44 153q0 45 21.5 81t70.5 57 130 21h155v-83H275q-64 0-86-20.5T167 158q0-34 27-54t75-20q46 0 82.5 21t52.5 62l21-75q-18-47-64.5-73T243-7zM124 607q3 67 51.5 105.5T297 751t121.5-38.5T470 607h-82q-1 35-27.5 55.5T297 683t-63-20.5-28-55.5h-82z"/><glyph glyph-name="uni0204" unicode="Ȅ" horiz-adv-x="670" d="M214 409h348V302H214v107zm10-300h395V0H94v700h511V591H224V109zm172 648L288 894h125l81-137h-98zm-188 0L101 894h125l80-137h-98z"/><glyph glyph-name="uni0205" unicode="ȅ" horiz-adv-x="622" d="M333-7q-89 0-155.5 35.5T74.5 126 38 267q0 80 35.5 141.5t98 96.5T314 540q78 0 139-34t96-96 35-146q0-8-.5-18t-1.5-19H137v83h379l-49-26q1 46-19 81t-54.5 55-79.5 20q-46 0-80.5-20t-54-55.5T160 281v-20q0-48 22-85t62-57 92-20q45 0 81 14t64 44l67-77q-36-42-90.5-64.5T333-7zm23 614L248 744h125l81-137h-98zm-188 0L61 744h125l80-137h-98z"/><glyph glyph-name="uni0206" unicode="Ȇ" horiz-adv-x="670" d="M214 409h348V302H214v107zm10-300h395V0H94v700h511V591H224V109zm-46 648q3 67 51.5 105.5T351 901t121.5-38.5T524 757h-82q-1 35-27.5 55.5T351 833t-63-20.5-28-55.5h-82z"/><glyph glyph-name="uni0207" unicode="ȇ" horiz-adv-x="622" d="M333-7q-89 0-155.5 35.5T74.5 126 38 267q0 80 35.5 141.5t98 96.5T314 540q78 0 139-34t96-96 35-146q0-8-.5-18t-1.5-19H137v83h379l-49-26q1 46-19 81t-54.5 55-79.5 20q-46 0-80.5-20t-54-55.5T160 281v-20q0-48 22-85t62-57 92-20q45 0 81 14t64 44l67-77q-36-42-90.5-64.5T333-7zM138 607q3 67 51.5 105.5T311 751t121.5-38.5T484 607h-82q-1 35-27.5 55.5T311 683t-63-20.5-28-55.5h-82z"/><glyph glyph-name="uni0208" unicode="Ȉ" horiz-adv-x="319" d="M94 0v700h130V0H94zm110 757L96 894h125l81-137h-98zm-188 0L-91 894H34l80-137H16z"/><glyph glyph-name="uni0209" unicode="ȉ" horiz-adv-x="289" d="M82 0v534h125V0H82zm108 607L82 744h125l81-137h-98zM2 607l-107 137H20l80-137H2z"/><glyph glyph-name="uni020A" unicode="Ȋ" horiz-adv-x="319" d="M94 0v700h130V0H94zM-14 757q3 67 51.5 105.5T159 901t121.5-38.5T332 757h-82q-1 35-27.5 55.5T159 833t-63-20.5T68 757h-82z"/><glyph glyph-name="uni020B" unicode="ȋ" horiz-adv-x="289" d="M82 0v534h125V0H82zM-3 607q1 67 43 105.5T145 751t105-38.5T293 607h-77q0 35-19 55.5T145 683t-52-20.5T74 607H-3z"/><glyph glyph-name="uni020C" unicode="Ȍ" horiz-adv-x="842" d="M422-10q-82 0-151 27T151 92.5t-79 114T44 350t28 143.5 79 114T271 683t150 27q82 0 150.5-27T691 607.5t79-114T798 350t-28-144-79-114-119.5-75T422-10zm-1 114q53 0 98 18t78 51.5 51.5 78T667 350t-18.5 98.5-51.5 78-78 51.5-98 18-97.5-18-78-51.5-52-78T175 350q0-53 18.5-98t51.5-78.5 78-51.5 98-18zm45 653L358 894h125l81-137h-98zm-188 0L171 894h125l80-137h-98z"/><glyph glyph-name="uni020D" unicode="ȍ" horiz-adv-x="645" d="M322-7q-82 0-146 35.5T75 126 38 267q0 80 37 141.5T176 505t146 35q83 0 147.5-35t101-96T607 267q0-79-36.5-141t-101-97.5T322-7zm0 107q46 0 82 20t56.5 58 20.5 89q0 52-20.5 89.5T404 414t-81 20q-46 0-81.5-20T185 356.5 164 267q0-51 21-89t56.5-58 80.5-20zm44 507L258 744h125l81-137h-98zm-188 0L71 744h125l80-137h-98z"/><glyph glyph-name="uni020E" unicode="Ȏ" horiz-adv-x="842" d="M422-10q-82 0-151 27T151 92.5t-79 114T44 350t28 143.5 79 114T271 683t150 27q82 0 150.5-27T691 607.5t79-114T798 350t-28-144-79-114-119.5-75T422-10zm-1 114q53 0 98 18t78 51.5 51.5 78T667 350t-18.5 98.5-51.5 78-78 51.5-98 18-97.5-18-78-51.5-52-78T175 350q0-53 18.5-98t51.5-78.5 78-51.5 98-18zM248 757q3 67 51.5 105.5T421 901t121.5-38.5T594 757h-82q-1 35-27.5 55.5T421 833t-63-20.5-28-55.5h-82z"/><glyph glyph-name="uni020F" unicode="ȏ" horiz-adv-x="645" d="M322-7q-82 0-146 35.5T75 126 38 267q0 80 37 141.5T176 505t146 35q83 0 147.5-35t101-96T607 267q0-79-36.5-141t-101-97.5T322-7zm0 107q46 0 82 20t56.5 58 20.5 89q0 52-20.5 89.5T404 414t-81 20q-46 0-81.5-20T185 356.5 164 267q0-51 21-89t56.5-58 80.5-20zM148 607q3 67 51.5 105.5T321 751t121.5-38.5T494 607h-82q-1 35-27.5 55.5T321 683t-63-20.5-28-55.5h-82z"/><glyph glyph-name="uni0210" unicode="Ȑ" horiz-adv-x="731" d="M94 0v700h288q93 0 159.5-30T644 584t36-133-36-132.5-102.5-85T382 204H166l58 59V0H94zm458 0L375 254h139L692 0H552zM224 249l-58 62h210q86 0 129.5 37T549 451q0 67-43.5 103T376 590H166l58 64V249zm194 508L310 894h125l81-137h-98zm-188 0L123 894h125l80-137h-98z"/><glyph glyph-name="uni0211" unicode="ȑ" horiz-adv-x="420" d="M82 0v534h119V387l-14 43q24 54 75.5 82T391 540V421q-8 2-15 2.5t-14 .5q-71 0-113-41.5T207 259V0H82zm199 607L173 744h125l81-137h-98zm-188 0L-14 744h125l80-137H93z"/><glyph glyph-name="uni0212" unicode="Ȓ" horiz-adv-x="731" d="M94 0v700h288q93 0 159.5-30T644 584t36-133-36-132.5-102.5-85T382 204H166l58 59V0H94zm458 0L375 254h139L692 0H552zM224 249l-58 62h210q86 0 129.5 37T549 451q0 67-43.5 103T376 590H166l58 64V249zm-24 508q3 67 51.5 105.5T373 901t121.5-38.5T546 757h-82q-1 35-27.5 55.5T373 833t-63-20.5-28-55.5h-82z"/><glyph glyph-name="uni0213" unicode="ȓ" horiz-adv-x="420" d="M82 0v534h119V387l-14 43q24 54 75.5 82T391 540V421q-8 2-15 2.5t-14 .5q-71 0-113-41.5T207 259V0H82zM63 607q3 67 51.5 105.5T236 751t121.5-38.5T409 607h-82q-1 35-27.5 55.5T236 683t-63-20.5-28-55.5H63z"/><glyph glyph-name="uni0214" unicode="Ȕ" horiz-adv-x="789" d="M395-10q-144 0-225.5 81T88 305v395h130V310q0-108 46.5-157T396 104t131 49 46 157v390h128V305q0-153-81.5-234T395-10zm46 767L333 894h125l81-137h-98zm-188 0L146 894h125l80-137h-98z"/><glyph glyph-name="uni0215" unicode="ȕ" horiz-adv-x="681" d="M308-7q-68 0-120 25.5t-81 78T78 229v305h125V246q0-72 32.5-107.5T328 103q44 0 76.5 18t51 54 18.5 89v270h125V0H480v144l21-44q-27-52-79-79.5T308-7zm75 614L275 744h125l81-137h-98zm-188 0L88 744h125l80-137h-98z"/><glyph glyph-name="uni0216" unicode="Ȗ" horiz-adv-x="789" d="M395-10q-144 0-225.5 81T88 305v395h130V310q0-108 46.5-157T396 104t131 49 46 157v390h128V305q0-153-81.5-234T395-10zM223 757q3 67 51.5 105.5T396 901t121.5-38.5T569 757h-82q-1 35-27.5 55.5T396 833t-63-20.5-28-55.5h-82z"/><glyph glyph-name="uni0217" unicode="ȗ" horiz-adv-x="681" d="M308-7q-68 0-120 25.5t-81 78T78 229v305h125V246q0-72 32.5-107.5T328 103q44 0 76.5 18t51 54 18.5 89v270h125V0H480v144l21-44q-27-52-79-79.5T308-7zM165 607q3 67 51.5 105.5T338 751t121.5-38.5T511 607h-82q-1 35-27.5 55.5T338 683t-63-20.5-28-55.5h-82z"/><glyph glyph-name="uni0218" unicode="Ș" horiz-adv-x="629" d="M311-10q-82 0-157 23.5T35 74l45 101q42-33 104-55t127-22q55 0 89 12t50 32.5 16 46.5q0 32-23 51.5t-59.5 31-81 21.5-89 23.5-81 35T73 409t-23 92q0 57 30.5 104.5t93 76T332 710q63 0 125-16t108-46l-41-101q-47 28-97 41.5T331 602q-54 0-87.5-13t-49-34-15.5-48q0-32 22.5-51.5t59-30.5 81.5-21.5 89.5-23.5 81-34 59-57 22.5-91q0-56-30.5-103.5t-93.5-76T311-10zm-36-255 36 122 13-45q-28 0-44 14t-16 38q0 23 16.5 38T324-83q28 0 44-15.5t16-37.5q0-12-3-26t-13-33l-32-70h-61z"/><glyph glyph-name="uni0219" unicode="ș" horiz-adv-x="515" d="M247-7q-67 0-128.5 17.5T21 53l48 95q36-23 86-38t100-15q59 0 85.5 16t26.5 43q0 22-18 33.5T302 205t-64.5 11-71 13.5-64.5 25T55 299t-18 74q0 51 29 88.5t81.5 58T272 540q54 0 109-12t91-34l-48-95q-38 23-76.5 31.5T271 439q-57 0-84.5-17T159 379q0-24 18-36t47-19 64.5-11.5T359 299t64.5-24.5T471 231t18-73q0-50-29.5-87T376 13.5 247-7zm-42-258 36 122 13-45q-28 0-44 14t-16 38q0 23 16.5 38T254-83q28 0 44-15.5t16-37.5q0-12-3-26t-13-33l-32-70h-61z"/><glyph glyph-name="uni021A" unicode="Ț" horiz-adv-x="602" d="M236 0v590H4v110h594V590H366V0H236zm16-265 36 122 13-45q-28 0-44 14t-16 38q0 23 16.5 38T301-83q28 0 44-15.5t16-37.5q0-12-3-26t-13-33l-32-70h-61z"/><glyph glyph-name="uni021B" unicode="ț" horiz-adv-x="424" d="M283-7q-88 0-136 45.5T99 173v479h125V176q0-38 19.5-59T298 96q42 0 70 22l35-89q-22-18-54-27t-66-9zM11 430v100h356V430H11zm197-695 36 122 13-45q-28 0-44 14t-16 38q0 23 16.5 38T257-83q28 0 44-15.5t16-37.5q0-12-3-26t-13-33l-32-70h-61z"/><glyph glyph-name="uni021E" unicode="Ȟ" horiz-adv-x="810" d="M586 700h130V0H586v700zM224 0H94v700h130V0zm372 300H213v111h383V300zM348 757 214 894h103l136-114h-96l136 114h103L462 757H348z"/><glyph glyph-name="uni021F" unicode="ȟ" horiz-adv-x="685" d="M385 540q64 0 114.5-25t79.5-76.5T608 306V0H483v290q0 71-33.5 106T356 431q-44 0-78-18t-52.5-53.5T207 270V0H82v742h125V390l-27 44q28 51 81.5 78.5T385 540zM88 815-46 952H57l136-114H97l136 114h103L202 815H88z"/><glyph glyph-name="uni022A" unicode="Ȫ" horiz-adv-x="842" d="M422-10q-82 0-151 27T151 92.5t-79 114T44 350t28 143.5 79 114T271 683t150 27q82 0 150.5-27T691 607.5t79-114T798 350t-28-144-79-114-119.5-75T422-10zm-1 114q53 0 98 18t78 51.5 51.5 78T667 350t-18.5 98.5-51.5 78-78 51.5-98 18-97.5-18-78-51.5-52-78T175 350q0-53 18.5-98t51.5-78.5 78-51.5 98-18zm95 664q-24 0-41 16.5T458 826t17 41.5 41 16.5q23 0 40.5-16.5T574 826t-17.5-41.5T516 768zm-189 0q-24 0-41 16.5T269 826t17 41.5 41 16.5q25 0 41.5-16.5T385 826t-16.5-41.5T327 768zm-79 160v70h346v-70H248z"/><glyph glyph-name="uni022B" unicode="ȫ" horiz-adv-x="645" d="M322-7q-82 0-146 35.5T75 126 38 267q0 80 37 141.5T176 505t146 35q83 0 147.5-35t101-96T607 267q0-79-36.5-141t-101-97.5T322-7zm0 107q46 0 82 20t56.5 58 20.5 89q0 52-20.5 89.5T404 414t-81 20q-46 0-81.5-20T185 356.5 164 267q0-51 21-89t56.5-58 80.5-20zm94 518q-24 0-41 16.5T358 676t17 41.5 41 16.5q23 0 40.5-16.5T474 676t-17.5-41.5T416 618zm-189 0q-24 0-41 16.5T169 676t17 41.5 41 16.5q25 0 41.5-16.5T285 676t-16.5-41.5T227 618zm-79 160v70h346v-70H148z"/><glyph glyph-name="uni022C" unicode="Ȭ" horiz-adv-x="842" d="M422-10q-82 0-151 27T151 92.5t-79 114T44 350t28 143.5 79 114T271 683t150 27q82 0 150.5-27T691 607.5t79-114T798 350t-28-144-79-114-119.5-75T422-10zm-1 114q53 0 98 18t78 51.5 51.5 78T667 350t-18.5 98.5-51.5 78-78 51.5-98 18-97.5-18-78-51.5-52-78T175 350q0-53 18.5-98t51.5-78.5 78-51.5 98-18zm73 654q-34 0-58 13.5t-43 27-37 13.5q-22 0-32.5-13T312 764h-68q1 54 29.5 84t76.5 30q33 0 56.5-13.5t43-26.5 38.5-13q21 0 32 12.5t12 34.5h66q-1-53-29-83.5T494 758zM248 928v70h346v-70H248z"/><glyph glyph-name="uni022D" unicode="ȭ" horiz-adv-x="645" d="M322-7q-82 0-146 35.5T75 126 38 267q0 80 37 141.5T176 505t146 35q83 0 147.5-35t101-96T607 267q0-79-36.5-141t-101-97.5T322-7zm0 107q46 0 82 20t56.5 58 20.5 89q0 52-20.5 89.5T404 414t-81 20q-46 0-81.5-20T185 356.5 164 267q0-51 21-89t56.5-58 80.5-20zm72 508q-34 0-58 13.5t-43 27-37 13.5q-22 0-32.5-13T212 614h-68q1 54 29.5 84t76.5 30q33 0 56.5-13.5t43-26.5 38.5-13q21 0 32 12.5t12 34.5h66q-1-53-29-83.5T394 608zM148 778v70h346v-70H148z"/><glyph glyph-name="uni0230" unicode="Ȱ" horiz-adv-x="842" d="M422-10q-82 0-151 27T151 92.5t-79 114T44 350t28 143.5 79 114T271 683t150 27q82 0 150.5-27T691 607.5t79-114T798 350t-28-144-79-114-119.5-75T422-10zm-1 114q53 0 98 18t78 51.5 51.5 78T667 350t-18.5 98.5-51.5 78-78 51.5-98 18-97.5-18-78-51.5-52-78T175 350q0-53 18.5-98t51.5-78.5 78-51.5 98-18zm0 663q-25 0-42.5 16.5T361 827t17.5 43.5T421 887t42.5-16.5T481 827t-17.5-43.5T421 767zM248 932v70h346v-70H248z"/><glyph glyph-name="uni0231" unicode="ȱ" horiz-adv-x="645" d="M322-7q-82 0-146 35.5T75 126 38 267q0 80 37 141.5T176 505t146 35q83 0 147.5-35t101-96T607 267q0-79-36.5-141t-101-97.5T322-7zm0 107q46 0 82 20t56.5 58 20.5 89q0 52-20.5 89.5T404 414t-81 20q-46 0-81.5-20T185 356.5 164 267q0-51 21-89t56.5-58 80.5-20zm-1 517q-25 0-42.5 16.5T261 677t17.5 43.5T321 737t42.5-16.5T381 677t-17.5-43.5T321 617zM148 782v70h346v-70H148z"/><glyph glyph-name="uni0232" unicode="Ȳ" horiz-adv-x="661" d="M266 0v277l29-80L-9 700h139l244-405h-78l246 405h128L366 197l30 80V0H266zM158 788v75h346v-75H158z"/><glyph glyph-name="uni0233" unicode="ȳ" horiz-adv-x="578" d="M126-201q-39 0-78 13t-65 36l50 92q19-17 43-27t49-10q34 0 55 17t39 57l31 70 10 15 202 472h120L332-43q-25-60-55.5-95t-68-49-82.5-14zM236-19-5 534h130L321 73zM103 638v75h346v-75H103z"/><glyph glyph-name="uni0237" unicode="ȷ" horiz-adv-x="295" d="M27-201q-35 0-66.5 7.5T-93-170l36 93q29-21 73-21 34 0 53 21.5T88-13v547h125V-10q0-88-48.5-139.5T27-201z"/><glyph glyph-name="uni0259" unicode="ə" horiz-adv-x="622" d="M289 540q89 0 155.5-35t103-96.5T584 267t-35.5-141.5-98.5-97T308-7q-78 0-139.5 34.5t-96 97T38 270q0 8 .5 18t1.5 19h444v-83H106l49 26q0-45 19.5-80.5t54-55.5T308 94t80 20 54.5 56 19.5 83v20q0 49-22 85.5T378.5 415 285 435q-45 0-80-14t-64-44l-68 77q37 42 92 64t124 22z"/><glyph glyph-name="uni0292" unicode="ʒ" horiz-adv-x="541" d="M238-201q-76 0-144.5 22T-19-119L27-16q37-33 91.5-53T233-89q72 0 111 30t39 84q0 51-36.5 81.5T231 137h-65v87l204 249 12-47H8v108h472v-88L276 197l-59 39h39q128 0 192-58.5T512 25q0-61-30-112.5T391.5-170 238-201z"/><glyph glyph-name="uni02B9" unicode="ʹ" horiz-adv-x="220" d="m64 423-8 277h108l-9-277H64z"/><glyph glyph-name="uni02BA" unicode="ʺ" horiz-adv-x="413" d="m64 423-8 277h108l-9-277H64zm193 0-8 277h108l-9-277h-91z"/><glyph glyph-name="uni02BB" unicode="ʻ" horiz-adv-x="280" d="m210 886-58-222-16 75q35 0 58-22t23-59-23-59.5-57-22.5q-36 0-59 23t-23 59q0 12 1.5 22.5T63 706t14 38l53 142h80z"/><glyph glyph-name="uni02BC" unicode="ʼ" horiz-adv-x="257" d="m55 439 58 222 17-75q-35 0-58.5 22T48 667t23.5 59.5T129 749q35 0 58-23t23-59q0-11-1.5-22.5t-6-26T188 581l-52-142H55z"/><glyph glyph-name="uni02BE" unicode="ʾ" horiz-adv-x="600" d="M299 593v53q28 0 46 17.5t18 43.5q0 28-18.5 45.5T299 770v53q35 0 61.5-16t42-42 15.5-58q0-31-15.5-57t-42-41.5T299 593z"/><glyph glyph-name="uni02BF" unicode="ʿ" horiz-adv-x="600" d="M299 593q-34 0-61 15.5T195.5 650 180 707q0 32 15.5 58.5t42.5 42 61 15.5v-53q-26 0-44.5-17.5T236 707q0-26 18-43.5t45-17.5v-53z"/><glyph glyph-name="circumflex" unicode="ˆ" horiz-adv-x="600" d="m109 607 134 137h114l134-137H388L252 722h96L212 607H109z"/><glyph glyph-name="caron" unicode="ˇ" horiz-adv-x="600" d="M243 607 109 744h103l136-114h-96l136 114h103L357 607H243z"/><glyph glyph-name="uni02C8" unicode="ˈ" horiz-adv-x="178" d="M47 507v193h84V507H47z"/><glyph glyph-name="uni02C9" unicode="ˉ" horiz-adv-x="600" d="M127 638v75h346v-75H127z"/><glyph glyph-name="uni02CA" unicode="ˊ" horiz-adv-x="600" d="m216 607 135 137h147L324 607H216z"/><glyph glyph-name="uni02CB" unicode="ˋ" horiz-adv-x="600" d="M276 607 102 744h147l135-137H276z"/><glyph glyph-name="uni02CC" unicode="ˌ" horiz-adv-x="180" d="M47-224v194h86v-194H47z"/><glyph glyph-name="breve" unicode="˘" horiz-adv-x="600" d="M300 600q-73 0-121.5 39T127 744h82q2-35 28-55t63-20 63.5 20 27.5 55h82q-3-66-51.5-105T300 600z"/><glyph glyph-name="dotaccent" unicode="˙" horiz-adv-x="600" d="M300 619q-31 0-51 20t-20 51 20 51 51 20q30 0 50.5-20t20.5-51-20.5-51-50.5-20z"/><glyph glyph-name="ring" unicode="˚" horiz-adv-x="600" d="M299 593q-33 0-59.5 16T198 650.5 183 707q0 32 15.5 58.5t41.5 42 59 15.5q34 0 60.5-15.5t41.5-42 15-58.5q0-31-15-57t-41.5-41.5T299 593zm0 51q28 0 46 18t18 45q0 28-18 46.5T299 772q-26 0-44.5-18T236 707q0-27 18-45t45-18z"/><glyph glyph-name="ogonek" unicode="˛" horiz-adv-x="600" d="M229-228q-62 0-96 29.5T99-121q0 29 15 57.5t47.5 54T246 37l55-37q-42-19-68-37t-38-36-12-38q0-23 16.5-36t42.5-13q17 0 33 4.5t28 11.5l21-61q-19-10-44-16.5t-51-6.5z"/><glyph glyph-name="tilde" unicode="˜" horiz-adv-x="600" d="M372 607q-24 0-43.5 9.5t-35 23T264 663t-28 10q-21 0-34-16t-15-44h-67q2 62 30.5 98t77.5 36q24 0 44-10t35.5-23 29.5-23 27-10q21 0 34.5 15t14.5 42h67q-1-58-30-94.5T372 607z"/><glyph glyph-name="hungarumlaut" unicode="˝" horiz-adv-x="600" d="m345 607 80 137h125L443 607h-98zm-188 0 81 137h125L255 607h-98z"/><glyph glyph-name="gravecomb" unicode="̀" d="M276 607 102 744h147l135-137H276z"/><glyph glyph-name="acutecomb" unicode="́" d="m216 607 135 137h147L324 607H216z"/><glyph glyph-name="uni0302" unicode="̂" d="m109 607 134 137h114l134-137H388L252 722h96L212 607H109z"/><glyph glyph-name="tildecomb" unicode="̃" d="M372 607q-24 0-43.5 9.5t-35 23T264 663t-28 10q-21 0-34-16t-15-44h-67q2 62 30.5 98t77.5 36q24 0 44-10t35.5-23 29.5-23 27-10q21 0 34.5 15t14.5 42h67q-1-58-30-94.5T372 607z"/><glyph glyph-name="uni0304" unicode="̄" d="M127 638v75h346v-75H127z"/><glyph glyph-name="uni0306" unicode="̆" d="M300 600q-73 0-121.5 39T127 744h82q2-35 28-55t63-20 63.5 20 27.5 55h82q-3-66-51.5-105T300 600z"/><glyph glyph-name="uni0307" unicode="̇" d="M300 619q-31 0-51 20t-20 51 20 51 51 20q30 0 50.5-20t20.5-51-20.5-51-50.5-20z"/><glyph glyph-name="uni0308" unicode="̈" d="M397 618q-25 0-42.5 16.5T337 678t17.5 44 42.5 17 42.5-17 17.5-44-17.5-43.5T397 618zm-194 0q-25 0-42.5 16.5T143 678t17.5 44 42.5 17 42.5-17 17.5-44-17.5-43.5T203 618z"/><glyph glyph-name="hookabovecomb" unicode="̉" d="m325 597-41 46q29 14 41.5 29.5T338 707q0 20-14 32t-36 12q-31 0-60-19l-27 55q21 15 47 23t53 8q49 0 79.5-27.5T411 718q0-41-21-71t-65-50z"/><glyph glyph-name="uni030A" unicode="̊" d="M299 593q-33 0-59.5 16T198 650.5 183 707q0 32 15.5 58.5t41.5 42 59 15.5q34 0 60.5-15.5t41.5-42 15-58.5q0-31-15-57t-41.5-41.5T299 593zm0 51q28 0 46 18t18 45q0 28-18 46.5T299 772q-26 0-44.5-18T236 707q0-27 18-45t45-18z"/><glyph glyph-name="uni030B" unicode="̋" d="m345 607 80 137h125L443 607h-98zm-188 0 81 137h125L255 607h-98z"/><glyph glyph-name="uni030C" unicode="̌" d="M243 607 109 744h103l136-114h-96l136 114h103L357 607H243z"/><glyph glyph-name="uni030F" unicode="̏" d="M345 607 237 744h125l81-137h-98zm-188 0L50 744h125l80-137h-98z"/><glyph glyph-name="uni0311" unicode="̑" d="M127 607q3 67 51.5 105.5T300 751t121.5-38.5T473 607h-82q-1 35-27.5 55.5T300 683t-63-20.5-28-55.5h-82z"/><glyph glyph-name="uni0312" unicode="̒" d="M300 600q-33 0-50 15t-17 38q0 11 4 24.5t14 32.5l41 92h69l-45-142-16 45q32 0 49.5-14t17.5-38-17-38.5-50-14.5z"/><glyph glyph-name="uni031B" unicode="̛" d="M280 445v89h21q31 0 46.5 18t15.5 46q0 18-5.5 34T343 660l77 28q14-18 22-42t8-52q0-69-40-109t-110-40h-20z"/><glyph glyph-name="dotbelowcomb" unicode="̣" d="M300-203q-25 0-42.5 16T240-144t17.5 44T300-83t42.5-17 17.5-44-17.5-43-42.5-16z"/><glyph glyph-name="uni0324" unicode="̤" d="M391-199q-24 0-41 16t-17 42q0 25 17 41.5T391-83t41-16.5 17-41.5q0-26-17-42t-41-16zm-182 0q-24 0-40.5 16T152-141q0 25 16.5 41.5T209-83t41.5-16.5T268-141q0-26-17.5-42T209-199z"/><glyph glyph-name="uni0326" unicode="̦" d="m251-265 36 122 13-45q-28 0-44 14t-16 38q0 23 16.5 38T300-83q28 0 44-15.5t16-37.5q0-12-3-26t-13-33l-32-70h-61z"/><glyph glyph-name="uni0327" unicode="̧" d="M271-228q-27 0-50 5.5T179-207l23 59q16-8 32.5-12t35.5-4q29 0 41 10t12 26q0 15-12.5 24T270-95h-31L266 7h68l-14-56q44-5 65.5-28.5T407-133q0-44-37-69.5T271-228z"/><glyph glyph-name="uni0328" unicode="̨" d="M229-228q-62 0-96 29.5T99-121q0 29 15 57.5t47.5 54T246 37l55-37q-42-19-68-37t-38-36-12-38q0-23 16.5-36t42.5-13q17 0 33 4.5t28 11.5l21-61q-19-10-44-16.5t-51-6.5z"/><glyph glyph-name="uni032E" unicode="̮" d="M300-213q-73 0-121.5 37T127-77h78q0-33 27.5-52t67.5-19 67.5 19T395-77h78q-3-62-51.5-99T300-213z"/><glyph glyph-name="uni0331" unicode="̱" d="M127-178v74h346v-74H127z"/><glyph glyph-name="uni0335" unicode="̵" d="M98 396v82h404v-82H98z"/><glyph glyph-name="uni0336" unicode="̶" d="M41 388v96h819v-96H41z"/><glyph glyph-name="uni0337" unicode="̷" d="m107 243-52 70 294 223 51-71z"/><glyph glyph-name="uni0338" unicode="̸" d="m60-70 440 672h70L130-70H60z"/><glyph glyph-name="uni0394" unicode="Δ" horiz-adv-x="749" d="M438 700 754 0H-5l315 700h128zM146 47l-37 63h527l-37-63-252 585h52z"/><glyph glyph-name="uni03A9" unicode="Ω" horiz-adv-x="894" d="M9 0v110h173q-52 46-81 110.5T72 365q0 76 28 139.5T179 614t119.5 71T447 710t148-25 119.5-71T794 504.5 822 365q0-80-29.5-144.5T712 110h173V0H529v102q79 40 121 107t42 147q0 54-18 98.5t-50.5 76T546 579t-99 17-99-17-77.5-48.5-50.5-76-18-98.5q0-80 42-147.5T365 102V0H9z"/><glyph glyph-name="uni03BC" unicode="μ" horiz-adv-x="686" d="M82-194v728h125V246q0-72 33-107.5t93-35.5q44 0 76.5 18t51 54 18.5 89v270h125V0H487v143l20-31q-15-44-43-70T402 4.5 334-7q-53 0-92 21t-61 61l26 43v-312H82z"/><glyph glyph-name="pi" unicode="π" horiz-adv-x="726" d="M30 256q-20 25-31 60t-11 64q0 44 23.5 79T76 514t96 20h544v-99H187q-42 0-66.5-17.5T96 360q0-18 8-38t19-37zM170 0l52 457h120L290 0H170zm289 0v457h120V0H459z"/><glyph glyph-name="uni0400" unicode="Ѐ" horiz-adv-x="670" d="M218 409h348V302H218v107zm10-300h395V0H98v700h511V591H228V109zm103 648L157 894h147l135-137H331z"/><glyph glyph-name="uni0401" unicode="Ё" horiz-adv-x="670" d="M218 409h348V302H218v107zm10-300h395V0H98v700h511V591H228V109zm224 659q-25 0-42.5 16.5T392 828t17.5 44 42.5 17 42.5-17 17.5-44-17.5-43.5T452 768zm-194 0q-25 0-42.5 16.5T198 828t17.5 44 42.5 17 42.5-17 17.5-44-17.5-43.5T258 768z"/><glyph glyph-name="uni0402" unicode="Ђ" horiz-adv-x="841" d="M247 0v622l30-32H15v110h618V590H345l31 32V0H247zm239 2 14 106q30-8 60.5-7t58 12.5 44 34.5 16.5 60q0 46-27 73.5T580 318t-102.5-1T358 279l-2 114q97 33 179.5 36.5t144-19.5 95-73T808 211q0-70-27-115.5t-73.5-70-104-30T486 2z"/><glyph glyph-name="uni0403" unicode="Ѓ" horiz-adv-x="585" d="M99 0v700h475l-1-110H196l30 31 1-621H99zm145 757 135 137h147L352 757H244z"/><glyph glyph-name="uni0404" unicode="Є" horiz-adv-x="711" d="M495 396V293H134v103h361zM404-10q-76 0-141.5 26.5t-114 75-75 114.5T47 350t26.5 144 75 114.5 114 75T404 710q89 0 161.5-30T686 593l-82-80q-39 42-87 62.5T411 596q-51 0-93.5-18.5t-74-51-48-77.5-16.5-99 16.5-99 48-77.5 74-51T411 104q58 0 106 20.5t87 62.5l82-80q-48-57-120.5-87T404-10z"/><glyph glyph-name="uni0405" unicode="Ѕ" horiz-adv-x="645" d="M320-10q-82 0-157 23.5T44 74l45 101q42-33 104-55t127-22q55 0 89 12t50 32.5 16 46.5q0 32-23 51.5t-59.5 31-81 21.5-89 23.5-81 35T82 409t-23 92q0 57 30.5 104.5t93 76T341 710q63 0 125-16t108-46l-41-101q-47 28-97 41.5T340 602q-54 0-87.5-13t-49-34-15.5-48q0-32 22.5-51.5t59-30.5 81.5-21.5 89.5-23.5 81-34 59-57 22.5-91q0-56-30.5-103.5t-93.5-76T320-10z"/><glyph glyph-name="uni0406" unicode="І" horiz-adv-x="326" d="M99 0v700h128V0H99z"/><glyph glyph-name="uni0407" unicode="Ї" horiz-adv-x="319" d="M94 0v700h130V0H94zm162 768q-25 0-42.5 16.5T196 828t17.5 44 42.5 17 43-17 18-44-18-43.5-43-16.5zm-194 0q-25 0-42.5 16.5T2 828t17.5 44T62 889t43-17 18-44-18-43.5T62 768z"/><glyph glyph-name="uni0408" unicode="Ј" horiz-adv-x="554" d="M231-10q-67 0-123.5 26T15 91l74 89q29-40 63.5-60t75.5-20q109 0 109 129v362H88v109h379V236q0-124-60.5-185T231-10z"/><glyph glyph-name="uni0409" unicode="Љ" horiz-adv-x="1186" d="M85-10q-17 0-34 3T14 0l9 113q14-4 30-4 42 0 67 34.5T156 245t15 165l10 290h515V0H568v622l30-32H265l28 33-7-208q-3-104-14-183T238.5 99.5 179 18 85-10zm805 473q125 0 193-56t68-168q0-118-74.5-178.5T869 0H568v700h128V463h194zm-27-363q75 0 116.5 35t41.5 102q0 66-41 96.5T863 364H696V100h167z"/><glyph glyph-name="uni040A" unicode="Њ" horiz-adv-x="1176" d="M99 0v700h128V429h350v271h128V0H577v319H227V0H99zm606 68-30 32h193q69 0 106.5 31t37.5 87-37.5 85.5T868 333H675l30 33V68zM577 0v700h128V396l-30 37h222q117 0 182-55t65-155q0-106-70-164.5T881 0H577z"/><glyph glyph-name="uni040B" unicode="Ћ" horiz-adv-x="849" d="M245 0v622l31-32H14v110h612V590H344l30 32V0H245zm110 383q56 21 106.5 31t96.5 10q113 0 180.5-59.5T806 182V0H678v165q0 73-40 109.5T529 311q-74 0-172-46z"/><glyph glyph-name="uni040C" unicode="Ќ" horiz-adv-x="722" d="M561 0 324 341l105 65L708 0H561zM98 0v700h128V0H98zm89 295v112h236V295H187zm254 40-119 16 239 349h138zM283 757l135 137h147L391 757H283z"/><glyph glyph-name="uni040D" unicode="Ѝ" horiz-adv-x="822" d="M99 0v700h128V203l376 497h121V0H596v496L220 0H99zm287 757L212 894h147l135-137H386z"/><glyph glyph-name="uni040E" unicode="Ў" horiz-adv-x="706" d="M108 110q55-19 97-10t75 61l34 53 13 14 244 472h128L395 135q-37-71-88-108T197.5-14.5 76 8zm216 6L12 700h139l244-484zm25 631q-90 0-135.5 38T167 892h91q1-37 24.5-57t66.5-20 67.5 20 25.5 57h90q-1-69-47-107t-136-38z"/><glyph glyph-name="uni040F" unicode="Џ" horiz-adv-x="807" d="M709 700V0H463v-154H343V0H99v700h128V110h353v590h129z"/><glyph glyph-name="uni0410" unicode="А" horiz-adv-x="777" d="m9 0 315 700h128L768 0H632L361 631h52L143 0H9zm145 162 35 102h378l35-102H154z"/><glyph glyph-name="uni0411" unicode="Б" horiz-adv-x="735" d="M99 0v700h545V593H227V421h207q126 0 191.5-52.5T691 216q0-103-72.5-159.5T414 0H99zm128 100h180q75 0 114 29t39 84q0 108-153 108H227V100z"/><glyph glyph-name="uni0412" unicode="В" horiz-adv-x="746" d="M99 0v700h313q118 0 184-46.5T662 520q0-86-63-132.5T433 341l18 36q117 0 181-47t64-136q0-91-67-142.5T431 0H99zm128 100h200q68 0 103 25.5t35 78.5-35 77.5T427 306H227V100zm0 301h174q63 0 96 25.5t33 73.5q0 50-33 75t-96 25H227V401z"/><glyph glyph-name="uni0413" unicode="Г" horiz-adv-x="585" d="M99 0v700h475l-1-110H196l30 31 1-621H99z"/><glyph glyph-name="uni0414" unicode="Д" horiz-adv-x="816" d="M563 60v530H289l-5-124q-3-70-8.5-132.5t-17-113.5-31.5-85-49-45L38 110q38-2 62.5 26t38.5 78 21 117.5T170 478l8 222h513V60H563zM14-149l1 259h777v-259H672V0H135v-149H14z"/><glyph glyph-name="uni0415" unicode="Е" horiz-adv-x="670" d="M218 409h348V302H218v107zm10-300h395V0H98v700h511V591H228V109z"/><glyph glyph-name="uni0416" unicode="Ж" horiz-adv-x="1052" d="M886 0 682 341l110 65L1036 0H886zM552 295v112h211V295H552zm247 40-121 16 205 349h138zM166 0H16l244 406 111-65zm424 0H463v700h127V0zm-89 295H289v112h212V295zm-247 40L31 700h138l204-349z"/><glyph glyph-name="uni0417" unicode="З" horiz-adv-x="649" d="m29 69 42 95q45-31 98.5-47.5T276 99t96.5 12 69.5 39 26 65q0 47-38.5 70.5T325 309H162v102h153q59 0 91.5 24t32.5 65q0 34-21.5 56t-58 33-82 10.5-94.5-14T90 546L49 651q66 35 138.5 49t140.5 8 122.5-31 87.5-65.5 33-95.5q0-50-26.5-88.5T472 368t-107-21l5 32q69 0 120.5-23.5t80-64.5 28.5-95q0-51-26-90.5t-71-66-103-39T277-9 149.5 13 29 69z"/><glyph glyph-name="uni0418" unicode="И" horiz-adv-x="822" d="M99 0v700h128V203l376 497h121V0H596v496L220 0H99z"/><glyph glyph-name="uni0419" unicode="Й" horiz-adv-x="822" d="M99 0v700h128V203l376 497h121V0H596v496L220 0H99zm311 747q-90 0-135.5 38T228 892h91q1-37 24.5-57t66.5-20 67.5 20 25.5 57h90q-1-69-47-107t-136-38z"/><glyph glyph-name="uni041A" unicode="К" horiz-adv-x="722" d="M561 0 324 341l105 65L708 0H561zM98 0v700h128V0H98zm89 295v112h236V295H187zm254 40-119 16 239 349h138z"/><glyph glyph-name="uni041B" unicode="Л" horiz-adv-x="795" d="M85-10q-17 0-34 3T14 0l9 113q14-4 30-4 42 0 67 34.5T156 245t15 165l10 290h515V0H568v622l30-32H265l28 33-7-208q-3-104-14-183T238.5 99.5 179 18 85-10z"/><glyph glyph-name="uni041C" unicode="М" horiz-adv-x="963" d="M99 0v700h106l307-511h-57l302 511h106l2-700H741l-1 507h26L510 80h-58L192 507h30V0H99z"/><glyph glyph-name="uni041D" unicode="Н" horiz-adv-x="818" d="M590 700h130V0H590v700zM228 0H98v700h130V0zm372 300H217v111h383V300z"/><glyph glyph-name="uni041E" unicode="О" horiz-adv-x="845" d="M423-10q-82 0-151 27T152 92.5t-79 114T45 350t28 143.5 79 114T272 683t150 27q82 0 150.5-27T692 607.5t79-114T799 350t-28-144-79-114-119.5-75T423-10zm-1 114q53 0 98 18t78 51.5 51.5 78T668 350t-18.5 98.5-51.5 78-78 51.5-98 18-97.5-18-78-51.5-52-78T176 350q0-53 18.5-98t51.5-78.5 78-51.5 98-18z"/><glyph glyph-name="uni041F" unicode="П" horiz-adv-x="817" d="M99 0v700h619V0H590v622l30-32H197l30 32V0H99z"/><glyph glyph-name="uni0420" unicode="Р" horiz-adv-x="719" d="M98 0v700h288q93 0 159.5-30T648 584t36-133-36-133-102.5-86T386 202H170l58 61V0H98zm130 249-58 63h210q86 0 129.5 36.5T553 451q0 67-43.5 103T380 590H170l58 64V249z"/><glyph glyph-name="uni0421" unicode="С" horiz-adv-x="721" d="M420-10q-80 0-148.5 26.5t-119 75T74 206 46 350t28 144 79 114.5 119 75T421 710q86 0 157-29.5T698 593l-84-79q-38 41-85 61.5T427 596t-100.5-18-79-51-52-78-18.5-99 18.5-99 52-78 79-51T427 104t102 20.5 85 62.5l84-80q-49-57-120-87T420-10z"/><glyph glyph-name="uni0422" unicode="Т" horiz-adv-x="620" d="M245 0v622l31-32H14v110h592V590H344l30 32V0H245z"/><glyph glyph-name="uni0423" unicode="У" horiz-adv-x="706" d="M108 110q55-19 97-10t75 61l34 53 13 14 244 472h128L395 135q-37-71-88-108T197.5-14.5 76 8zm216 6L12 700h139l244-484z"/><glyph glyph-name="uni0424" unicode="Ф" horiz-adv-x="937" d="M454 45q-132 0-224.5 36T88 185.5 39 351q0 99 49 167t141.5 104T454 658h33q131 0 223-36t140-104.5T898 351q0-96-47.5-165t-138-105T492 45h-38zm13 101h11q97 1 162.5 24t99 68.5T773 352t-34 113-99 68-160 23h-13q-99 0-166.5-22.5t-101-68T166 351t35.5-114.5 102.5-68T467 146zM409-28v756h120V-28H409z"/><glyph glyph-name="uni0425" unicode="Х" horiz-adv-x="692" d="M29 700h150l165-234 165 234h152L426 364 680 0H526L344 255 163 0H13l253 359z"/><glyph glyph-name="uni0426" unicode="Ц" horiz-adv-x="834" d="M99 0v700h128V110h353v590h129V0H99zm594-154V32l29-32H580v110h233v-264H693z"/><glyph glyph-name="uni0427" unicode="Ч" horiz-adv-x="742" d="M535 272q-55-23-107-34t-101-11q-134 0-206.5 64.5T48 477v223h129V491q0-74 43-113t123-39q48 0 96.5 11t93.5 34zM515 0v700h129V0H515z"/><glyph glyph-name="uni0428" unicode="Ш" horiz-adv-x="1097" d="m514 110-29-32v622h128V78l-31 32h319l-31-32v622h128V0H99v700h128V78l-30 32h317z"/><glyph glyph-name="uni0429" unicode="Щ" horiz-adv-x="1125" d="m514 110-29-32v622h128V78l-31 32h319l-31-32v622h128V0H99v700h128V78l-30 32h317zm465-259V32l31-32H867v110h232v-259H979z"/><glyph glyph-name="uni042A" unicode="Ъ" horiz-adv-x="836" d="M541 463q125 0 193-56t68-168q0-118-74.5-178.5T519 0H219v590H14v110h333V463h194zm-27-363q75 0 116 35t41 102q0 66-40.5 96.5T514 364H347V100h167z"/><glyph glyph-name="uni042B" unicode="Ы" horiz-adv-x="1010" d="M421 463q125 0 193-56t68-168q0-118-74.5-178.5T400 0H99v700h128V463h194zm-27-363q75 0 116.5 35T552 237q0 66-41 96.5T394 364H227V100h167zM783 0v700h128V0H783z"/><glyph glyph-name="uni042C" unicode="Ь" horiz-adv-x="717" d="M421 463q125 0 193-56t68-168q0-118-74.5-178.5T400 0H99v700h128V463h194zm-27-363q75 0 116.5 35T552 237q0 66-41 96.5T394 364H227V100h167z"/><glyph glyph-name="uni042D" unicode="Э" horiz-adv-x="710" d="M215 304v103h361V304H215zm91 406q77 0 142-26.5t113.5-75 75-114.5T663 350t-26.5-144-75-114.5-113.5-75T306-10q-89 0-161.5 30T24 107l82 80q39-42 87.5-62.5T299 104q50 0 93 18.5t74 51 48 77.5 17 99-17 99-48 77.5-74 51-93 18.5q-57 0-105.5-20.5T106 513l-82 80q48 57 120.5 87T306 710z"/><glyph glyph-name="uni042E" unicode="Ю" horiz-adv-x="1106" d="M99 0v700h128V413h181V297H227V0H99zm598-10q-78 0-144 27T438 92t-76.5 114T334 350t27.5 144T438 608t115 75 144 27q77 0 143.5-27T956 608t76-114 27-144-27-144-76-114-115.5-75T697-10zm0 114q49 0 91.5 18t73.5 51 48.5 77.5T928 350t-17.5 99.5T862 527t-73.5 51-91.5 18-91-18-73.5-51-49-77.5T466 350t17.5-99.5 49-77.5 73.5-51 91-18z"/><glyph glyph-name="uni042F" unicode="Я" horiz-adv-x="732" d="M505 0v224l32-29H332q-88 0-151.5 29.5t-97.5 85T49 443q0 81 36 138.5t102 88T342 700h291V0H505zM51 0l173 250h131L188 0H51zm454 266v360l32-36H346q-80 0-122.5-36.5T181 445q0-69 40.5-106.5T341 301h196z"/><glyph glyph-name="uni0430" unicode="а" horiz-adv-x="597" d="M408 0v108l-7 23v189q0 55-33 85.5T268 436q-45 0-88.5-14T106 383l-49 91q43 33 102.5 49.5T283 540q116 0 179.5-55.5T526 313V0H408zM240-7q-60 0-105 20.5t-69.5 57T41 153q0 45 21.5 81t70.5 57 130 21h155v-83H272q-64 0-86-20.5T164 158q0-34 27-54t75-20q46 0 82.5 21t52.5 62l21-75q-18-47-64.5-73T240-7z"/><glyph glyph-name="uni0431" unicode="б" horiz-adv-x="667" d="M339-10q-66 0-118 20t-89.5 61.5T74 177 54 329q0 64 11 117t33 95.5 55.5 75.5 78.5 55 102 34l248 53 18-112-225-46q-19-4-45.5-11.5t-54-22-51-41-38-68T172 355q0-19 1.5-28.5t3-20T178 276l-47 49q20 51 55.5 87.5t83 56T373 488q75 0 133-31t91-87 33-127q0-74-36-131T492.5 22.5 339-10zm10 101q45 0 79.5 19.5t54 53.5 19.5 76-19.5 73.5-54 50.5-81.5 19q-45 0-80.5-18t-55-49.5T192 243q0-42 20-77t55.5-55T349 91z"/><glyph glyph-name="uni0432" unicode="в" horiz-adv-x="619" d="M84 0v534h261q97 0 152.5-36T553 396q0-65-52-101.5T363 258l15 31q97 0 144.5-35.5T570 150q0-71-53-110.5T356 0H84zm119 91h143q51 0 77 16.5t26 50.5q0 36-24 53t-75 17H203V91zm0 220h131q48 0 72.5 17.5T431 378q0 33-24.5 49T334 443H203V311z"/><glyph glyph-name="uni0433" unicode="г" horiz-adv-x="501" d="M84 0v534h410V428H180l29 28V0H84z"/><glyph glyph-name="uni0434" unicode="д" horiz-adv-x="682" d="M450 58v370H245l-3-86q-2-46-6-88.5t-13-78-26-58.5-45-30L28 106q30 0 48.5 19.5t29 54 15.5 79 7 92.5l7 183h440V58H450zM9-119v225h645v-225H537V0H125v-119H9z"/><glyph glyph-name="uni0435" unicode="е" horiz-adv-x="637" d="M333-7q-89 0-155.5 35.5T74.5 126 38 267q0 80 35.5 141.5t98 96.5T314 540q78 0 139-34t96-96 35-146q0-8-.5-18t-1.5-19H137v83h379l-49-26q1 46-19 81t-54.5 55-79.5 20q-46 0-80.5-20t-54-55.5T160 281v-20q0-48 22-85t62-57 92-20q45 0 81 14t64 44l67-77q-36-42-90.5-64.5T333-7z"/><glyph glyph-name="uni0436" unicode="ж" horiz-adv-x="879" d="M721 0 565 256l102 63L870 0H721zM464 214v104h179V214H464zm215 38-118 14 162 268h133zM157 0H9l202 319 102-63zm344 0H377v534h124V0zm-87 214H236v104h178V214zm-215 38L22 534h133l161-268z"/><glyph glyph-name="uni0437" unicode="з" horiz-adv-x="553" d="M253-9q74 0 131.5 21T475 70.5t33 86.5q0 61-51 96.5T317 289l-4-27q52 0 92.5 17t64 47.5T493 395q0 46-33 80t-90 52-130 15q-48-1-96.5-13.5T44 493l32-92q44 19 86.5 29t82.5 10q38 0 65-7.5t41.5-22T366 377t-12-33-34.5-21-54.5-7h-93v-84h103q51 0 78.5-16.5T381 167q0-22-16.5-39T318 102.5 246 94q-49 0-98 12t-88 34L25 47Q73 20 132.5 5.5T253-9z"/><glyph glyph-name="uni0438" unicode="и" horiz-adv-x="702" d="M84 0v534h125V182l295 352h114V0H493v352L199 0H84z"/><glyph glyph-name="uni0439" unicode="й" horiz-adv-x="702" d="M84 0v534h125V182l295 352h114V0H493v352L199 0H84zm259 597q-80 0-123 37.5T176 744h83q1-36 22.5-57t60.5-21q38 0 60.5 21t23.5 57h85q-1-72-44.5-109.5T343 597z"/><glyph glyph-name="uni043A" unicode="к" horiz-adv-x="618" d="M467 0 274 256l102 63L614 0H467zM84 0v534h125V0H84zm88 214v104h181V214H172zm216 38-117 14 196 268h134z"/><glyph glyph-name="uni043B" unicode="л" horiz-adv-x="652" d="m6 1 6 105q7-1 13-2t11-1q31 0 48 19t25.5 51.5 12 73T127 328l9 206h432V0H443v462l29-34H218l27 35-7-141q-3-71-11.5-131.5T200.5 85t-48-70T75-10q-15 0-32.5 3T6 1z"/><glyph glyph-name="uni043C" unicode="м" horiz-adv-x="806" d="M84 0v534h131l215-379h-52l226 379h117l1-534H609v400l20-13L429 56h-54L174 396l24 6V0H84z"/><glyph glyph-name="uni043D" unicode="н" horiz-adv-x="687" d="M84 0v534h125V317h269v217h125V0H478v211H209V0H84z"/><glyph glyph-name="uni043E" unicode="о" horiz-adv-x="646" d="M322-7q-82 0-146 35.5T75 126 38 267q0 80 37 141.5T176 505t146 35q83 0 147.5-35t101-96T607 267q0-79-36.5-141t-101-97.5T322-7zm0 107q46 0 82 20t56.5 58 20.5 89q0 52-20.5 89.5T404 414t-81 20q-46 0-81.5-20T185 356.5 164 267q0-51 21-89t56.5-58 80.5-20z"/><glyph glyph-name="uni043F" unicode="п" horiz-adv-x="681" d="M84 0v534h512V0H472v457l29-29H180l29 29V0H84z"/><glyph glyph-name="uni0440" unicode="р" horiz-adv-x="691" d="M380-7q-65 0-118.5 30t-85 90.5T145 267q0 94 30.5 154t83.5 89.5T380 540q79 0 139.5-34t96-95T651 267t-35.5-144.5-96-95.5T380-7zM84-194v728h119V408l-4-142 10-142v-318H84zm282 294q45 0 80.5 20t56.5 58 21 89q0 52-21 89.5T446.5 414 366 434t-81-20-57-57.5-21-89.5q0-51 21-89t57-58 81-20z"/><glyph glyph-name="uni0441" unicode="с" horiz-adv-x="581" d="M327-7q-84 0-149.5 35.5T75 126 38 267q0 80 37 141.5T177.5 505 327 540q78 0 137.5-31.5T555 416l-96-56q-24 38-58.5 56T326 434q-46 0-83-20t-58-57.5-21-89.5 21-89.5 58-57.5 83-20q40 0 74.5 18t58.5 56l96-56q-31-60-90.5-92.5T327-7z"/><glyph glyph-name="uni0442" unicode="т" horiz-adv-x="514" d="M195 0v458l29-30H7v106h500V428H291l29 30V0H195z"/><glyph glyph-name="uni0443" unicode="у" horiz-adv-x="591" d="M132-201q-39 0-78 13t-65 36l50 92q19-17 43-27t49-10q34 0 55 17t39 57l31 70 10 15 202 472h120L338-43q-25-60-55.5-95t-68-49-82.5-14zM242-19 1 534h130L327 73z"/><glyph glyph-name="uni0444" unicode="ф" horiz-adv-x="827" d="M423-10h-31Q223-8 130 63.5T37 268q0 132 93 202t265 72h29q173 0 269.5-70.5T790 268q0-134-96.5-206T423-10zm-4 104q85 0 140 19.5t82 58 27 96.5q0 57-27 94.5t-82 56T419 437h-19q-83 0-136-19.5T185.5 361 160 268q0-57 25.5-95t79-58T400 94h19zm-65-288v936h118v-936H354z"/><glyph glyph-name="uni0445" unicode="х" horiz-adv-x="564" d="m5 0 235 306-2-67L14 534h139l157-210h-53l158 210h135L324 239l1 67L559 0H418L253 223l52-7L143 0H5z"/><glyph glyph-name="uni0446" unicode="ц" horiz-adv-x="697" d="M84 0v534h125V106h255v428h125V0H84zm469-119V3l29-3H464v106h206v-225H553z"/><glyph glyph-name="uni0447" unicode="ч" horiz-adv-x="621" d="M421 211q-38-18-80.5-29.5T251 170q-101 0-157 47T38 363v171h125V371q0-53 30.5-77t84.5-24q36 0 72 9t71 25v-93zM412 0v534h125V0H412z"/><glyph glyph-name="uni0448" unicode="ш" horiz-adv-x="955" d="m443 106-27-30v458h125V76l-30 30h264l-29-30v458h125V0H84v534h125V76l-29 30h263z"/><glyph glyph-name="uni0449" unicode="щ" horiz-adv-x="955" d="m443 106-27-30v458h125V76l-30 30h264l-29-30v458h125V0H84v534h125V76l-29 30h263zm388-216V31l29-31H742v106h206v-216H831z"/><glyph glyph-name="uni044A" unicode="ъ" horiz-adv-x="660" d="M426 359q102 0 155-46.5T634 183q0-88-59.5-135.5T406 0H165v428H7v106h283V359h136zM400 92q53 0 80 24t27 70q0 86-107 86H290V92h110z"/><glyph glyph-name="uni044B" unicode="ы" horiz-adv-x="832" d="M623 0v534h125V0H623zM344 358q103 0 156.5-46T554 182q0-87-59.5-135.5T326-1L84 0v534h125V359zM315 91q55-1 84 23t29 70-28.5 66.5T315 272l-106 1V92z"/><glyph glyph-name="uni044C" unicode="ь" horiz-adv-x="589" d="M352 358q103 0 157-46t54-130q0-87-60-135.5T334-1L84 0v534h125V359zM323 91q55-1 84 23t29 70-28.5 66.5T323 272l-114 1V92z"/><glyph glyph-name="uni044D" unicode="э" horiz-adv-x="581" d="M177 225v90h290v-90H177zm73 317q86 0 152-35.5t104-97T544 267q0-80-38-142.5t-104-98T250-9q-72 0-132 24T18 84l72 70q32-31 70.5-47T245 91q54 0 95 22.5t65 62.5 24 91q0 52-24 91.5t-65 62-95 22.5q-46 0-84.5-16T90 379l-72 70q40 45 100 69t132 24z"/><glyph glyph-name="uni044E" unicode="ю" horiz-adv-x="889" d="M84 0v534h125V327h159V214H209V0H84zm488-7q-80 0-142.5 35.5T331 126t-36 141q0 80 36 142t98.5 96.5T572 540q81 0 143.5-34.5T814 409t36-142q0-79-36-141.5T715.5 28 572-7zm0 106q45 0 79.5 21t54.5 58 20 89-20 89.5-54.5 57.5-78.5 20-79-20-55-57.5-20-89.5 20-89 55-58 78-21z"/><glyph glyph-name="uni044F" unicode="я" horiz-adv-x="619" d="M423 0v182l18-21H281q-110 0-172.5 46.5T46 342q0 94 66.5 143T290 534h245V0H423zM39 0l144 204h128L173 0H39zm384 222v240l18-33H294q-58 0-89.5-21.5T173 338q0-90 117-90h151z"/><glyph glyph-name="uni0450" unicode="ѐ" horiz-adv-x="637" d="M333-7q-89 0-155.5 35.5T74.5 126 38 267q0 80 35.5 141.5t98 96.5T314 540q78 0 139-34t96-96 35-146q0-8-.5-18t-1.5-19H137v83h379l-49-26q1 46-19 81t-54.5 55-79.5 20q-46 0-80.5-20t-54-55.5T160 281v-20q0-48 22-85t62-57 92-20q45 0 81 14t64 44l67-77q-36-42-90.5-64.5T333-7zm-45 614L114 744h147l135-137H288z"/><glyph glyph-name="uni0451" unicode="ё" horiz-adv-x="637" d="M333-7q-89 0-155.5 35.5T74.5 126 38 267q0 80 35.5 141.5t98 96.5T314 540q78 0 139-34t96-96 35-146q0-8-.5-18t-1.5-19H137v83h379l-49-26q1 46-19 81t-54.5 55-79.5 20q-46 0-80.5-20t-54-55.5T160 281v-20q0-48 22-85t62-57 92-20q45 0 81 14t64 44l67-77q-36-42-90.5-64.5T333-7zm76 625q-25 0-42.5 16.5T349 678t17.5 44 42.5 17 42.5-17 17.5-44-17.5-43.5T409 618zm-194 0q-25 0-42.5 16.5T155 678t17.5 44 42.5 17 42.5-17 17.5-44-17.5-43.5T215 618z"/><glyph glyph-name="uni0452" unicode="ђ" horiz-adv-x="680" d="M424-201q-35 0-66.5 7.5T304-170l37 93q28-21 73-21 34 0 52.5 21.5T485-13v303q0 71-33 106t-94 35q-44 0-78-18t-52.5-53.5T209 270V0H84v742h120V390l-22 44q28 51 81.5 78.5T387 540q65 0 115-25t79-76.5T610 306V-10q0-88-48-139.5T424-201zM-14 595v81h450v-81H-14z"/><glyph glyph-name="uni0453" unicode="ѓ" horiz-adv-x="501" d="M84 0v534h410V428H180l29 28V0H84zm123 605 135 137h147L315 605H207z"/><glyph glyph-name="uni0454" unicode="є" horiz-adv-x="584" d="M405 309v-90H115v90h290zM332-8q-85 0-151.5 35T76 124.5 38 267q0 81 38 142.5T180.5 507 332 543q73 0 132.5-24t99.5-69l-72-70q-31 32-70 47.5T337 443q-53 0-94.5-22.5t-65-62T154 267t23.5-91.5 65-62T337 91q46 0 85 16t70 48l72-70q-40-45-99.5-69T332-8z"/><glyph glyph-name="uni0455" unicode="ѕ" horiz-adv-x="544" d="M263-7q-67 0-128.5 17.5T37 53l48 95q36-23 86-38t100-15q59 0 85.5 16t26.5 43q0 22-18 33.5T318 205t-64.5 11-71 13.5-64.5 25T71 299t-18 74q0 51 29 88.5t81.5 58T288 540q54 0 109-12t91-34l-48-95q-38 23-76.5 31.5T287 439q-57 0-84.5-17T175 379q0-24 18-36t47-19 64.5-11.5T375 299t64.5-24.5T487 231t18-73q0-50-29.5-87T392 13.5 263-7z"/><glyph glyph-name="uni0456" unicode="і" horiz-adv-x="294" d="M84 0v534h125V0H84zm63 622q-35 0-57.5 22T67 697q0 32 22.5 53.5T147 772t57.5-20.5T227 700q0-33-22-55.5T147 622z"/><glyph glyph-name="uni0457" unicode="ї" horiz-adv-x="289" d="M82 0v534h125V0H82zm140 619q-25 0-41.5 17T164 678t16.5 42.5T222 738q24 0 40.5-17t16.5-43-16.5-42.5T222 619zm-153 0q-25 0-41.5 17T11 678t16.5 42.5T69 738q24 0 40.5-17t16.5-43-16.5-42.5T69 619z"/><glyph glyph-name="uni0458" unicode="ј" horiz-adv-x="295" d="M25-201q-35 0-66.5 7.5T-95-170l36 93q29-21 73-21 34 0 53 21.5T86-13v547h125V-10q0-88-48.5-139.5T25-201zm123 823q-35 0-57.5 22T68 697q0 32 22.5 53.5T148 772t57.5-20.5T228 700q0-33-22-55.5T148 622z"/><glyph glyph-name="uni0459" unicode="љ" horiz-adv-x="948" d="m6 1 6 105q7-1 13-2t11-1q31 0 48 19t25.5 51.5 12 73T127 328l9 206h432V0H443v462l29-34H218l27 35-7-141q-3-71-11.5-131.5T200.5 85t-48-70T75-10q-15 0-32.5 3T6 1zm705 357q103 0 157-46t54-130q0-87-60-135.5T693-1L443 0v534h125V359zM682 91q55-1 84 23t29 70-28.5 66.5T682 272l-114 1V92z"/><glyph glyph-name="uni045A" unicode="њ" horiz-adv-x="962" d="M735 335q98 0 151-41.5T939 174q0-82-59-128T717 0H468v229H209V0H84v534h125V335h259v199h125V335h142zM709 90q50 0 76 20.5t26 56.5-26 54-76 18H593V90h116z"/><glyph glyph-name="uni045B" unicode="ћ" horiz-adv-x="679" d="M-40 600v69h474v-69H-40zm427-60q65 0 115-25t79-76.5T610 306V0H485v290q0 71-33 106t-94 35q-44 0-78-18t-52.5-53.5T209 270V0H84v742h125V390l-27 44q28 51 81.5 78.5T387 540z"/><glyph glyph-name="uni045C" unicode="ќ" horiz-adv-x="618" d="M467 0 274 256l102 63L614 0H467zM84 0v534h125V0H84zm88 214v104h181V214H172zm216 38-117 14 196 268h134zM234 607l135 137h147L342 607H234z"/><glyph glyph-name="uni045D" unicode="ѝ" horiz-adv-x="702" d="M84 0v534h125V182l295 352h114V0H493v352L199 0H84zm235 607L145 744h147l135-137H319z"/><glyph glyph-name="uni045E" unicode="ў" horiz-adv-x="591" d="M132-201q-39 0-78 13t-65 36l50 92q19-17 43-27t49-10q34 0 55 17t39 57l31 70 10 15 202 472h120L338-43q-25-60-55.5-95t-68-49-82.5-14zM242-19 1 534h130L327 73zm41 616q-80 0-123 37.5T116 744h83q1-36 22.5-57t60.5-21q38 0 60.5 21t23.5 57h85q-1-72-44.5-109.5T283 597z"/><glyph glyph-name="uni045F" unicode="џ" horiz-adv-x="653" d="M568 534V0H386v-119H268V0H84v534h125V106h235v428h124z"/><glyph glyph-name="uni0462" unicode="Ѣ" horiz-adv-x="820" d="M201 0v742h128V458h199q126 0 192-57t66-166q0-113-72.5-174T507 0H201zm128 100h173q75 0 113.5 33.5T654 231q0 127-152 127H329V100zM18 548v91h522v-91H18z"/><glyph glyph-name="uni0463" unicode="ѣ" horiz-adv-x="630" d="M-1 477v86h445v-86H-1zm394-119q103 0 157-46t54-130q0-87-60-135.5T375-1L125 0v742h125V359zM364 91q55-1 84 23t29 70-28.5 66.5T364 272l-114 1V92z"/><glyph glyph-name="uni046A" unicode="Ѫ" horiz-adv-x="921" d="m15 0 63 152q30 80 67.5 129.5T228 354t97 24h1L102 617v83h717v-80L593 378h1q54-1 100-24.5t83.5-72.5T844 152L906 0H772l-47 122q-30 88-73 125.5T554 285h-34V0H400v285h-31q-57 0-100.5-37T195 122L149 0H15zm231 603 215-225h1l213 225H246z"/><glyph glyph-name="uni046B" unicode="ѫ" horiz-adv-x="735" d="m11 0 45 112q25 66 54.5 105.5t66.5 57 83 17.5h215q48 0 85-17.5t66.5-57T679 112L724 0H602l-32 85q-20 67-49 95t-74 28h-28V0H312v208h-24q-44 0-74-28t-50-95L133 0H11zm354 291 158 160H209zm-99-24L79 458v76h573v-76L464 267H266z"/><glyph glyph-name="uni0472" unicode="Ѳ" horiz-adv-x="845" d="M422 710q82 0 150.5-26.5t119.5-75T771 494t28-144-28-144-79-114.5-119.5-75T422-10q-81 0-150 27T152 92.5 73 207 45 350t28 143 79 114.5T272 683t150 27zm0-114q-46 0-87-14.5T262 541t-53-62.5-29-80.5h483q-7 44-28 80.5T582 541t-72.5 40.5T422 596zm0-492q47 0 87.5 14t72.5 40.5 53 63 28 80.5H181q7-44 28-80.5t53-63 73-40.5 87-14z"/><glyph glyph-name="uni0473" unicode="ѳ" horiz-adv-x="655" d="M327 540q85 0 150-34.5T579.5 409 617 267q0-79-37.5-141.5T477 28 328-7 178.5 28t-103 97.5T38 267q0 80 37.5 142t103 96.5T327 540zm0-95q-43 0-78-16.5t-57.5-47T161 309h333q-7 42-30.5 72.5t-58 47T327 445zm1-356q43 0 77.5 16.5t58 47T494 225H161q8-42 31-72.5t58-47T328 89z"/><glyph glyph-name="uni0474" unicode="Ѵ" horiz-adv-x="776" d="M297 0 11 700h141l210-515 134 366q38 102 99.5 138T762 699l-13-124q-60 14-92.5-9T598 472L426 0H297z"/><glyph glyph-name="uni0475" unicode="ѵ" horiz-adv-x="621" d="M235 0 2 534h137L339 64h-77l137 362q20 54 48 82.5t69.5 34.5 98.5-9l-13-121q-30 8-48.5 5t-31-21-27.5-57L360 0H235z"/><glyph glyph-name="uni048A" unicode="Ҋ" horiz-adv-x="856" d="M99 0v700h128V203l376 497h121V0H596v496L220 0H99zm311 747q-90 0-135.5 38T228 892h91q1-37 24.5-57t66.5-20 67.5 20 25.5 57h90q-1-69-47-107t-136-38zm238-896 40 181 48-32H596v110h230l-75-259H648z"/><glyph glyph-name="uni048B" unicode="ҋ" horiz-adv-x="726" d="M84 0v534h125V182l295 352h114V0H493v352L199 0H84zm259 600q-73 0-121.5 39T170 744h82q2-35 28-55t63-20 63.5 20 27.5 55h82q-3-66-51.5-105T343 600zm195-710 33 141 76-31H493v106h208l-63-216H538z"/><glyph glyph-name="uni048C" unicode="Ҍ" horiz-adv-x="745" d="M125 0v742h128V458h200q126 0 191.5-57T710 235q0-113-72.5-174T431 0H125zm128 100h173q75 0 113.5 33.5T578 231q0 127-152 127H253V100zM28 548v91h435v-91H28z"/><glyph glyph-name="uni048D" unicode="ҍ" horiz-adv-x="622" d="M118 0v534h125V343l143-1q103-1 157-42t54-124q0-87-60-132.5T367-1zm239 89q55 0 84 21.5t29 66.5q0 46-28.5 62T357 256l-114 1V90zM19 394v85h418v-85H19z"/><glyph glyph-name="uni048E" unicode="Ҏ" horiz-adv-x="734" d="M99 0v700h288q92 0 158.5-30.5t102.5-87T684 446t-36-137-102.5-87.5T387 191H197l32 33V0H99zm130 266-32 35h184q84 0 128 37.5T553 446t-44 107-128 37H197l32 36V266zm434-136-63-51-261 341 62 51z"/><glyph glyph-name="uni048F" unicode="ҏ" horiz-adv-x="702" d="M395-7q-72 0-123 31.5t-78.5 93T166 266q0 89 26.5 150t77.5 92.5T395 540q73 0 131-34t93-95 35-145q0-83-35-144t-93-95T395-7zM84-194v728h120V408l-4-142 10-142v-318H84zM369 99q46 0 82.5 20t57.5 57.5 21 89.5-21 89.5-57.5 58T369 434t-82.5-20.5-57.5-58-21-89.5 21-89.5 57.5-57.5T369 99zM638-15l-61-48-209 260 64 50z"/><glyph glyph-name="uni0490" unicode="Ґ" horiz-adv-x="588" d="M99 0v700h355v144h120V590H227V0H99z"/><glyph glyph-name="uni0491" unicode="ґ" horiz-adv-x="484" d="M84 0v534h275v109h117V428H209V0H84z"/><glyph glyph-name="uni0492" unicode="Ғ" horiz-adv-x="629" d="M25 277v90h516v-90H25zM130 0v700h475l-1-110H227l30 31 1-621H130z"/><glyph glyph-name="uni0493" unicode="ғ" horiz-adv-x="532" d="M38 186v82h406v-82H38zM104 0v534h410V428H200l29 28V0H104z"/><glyph glyph-name="uni0494" unicode="Ҕ" horiz-adv-x="705" d="M99 0v700h495V590H197l30 32V0H99zm220-141 22 104q54-11 98 6.5t70.5 59T536 129q0 47-18.5 82T468 266.5 396 292t-87-7-92-41l-4 109q71 32 137 40t123-5 100-46 67-84.5T664 138q0-72-27-130.5t-74.5-97T453-142t-134 1z"/><glyph glyph-name="uni0495" unicode="ҕ" horiz-adv-x="613" d="M84 0v534h401V428H180l29 30V0H84zm165-192 26 105q60-10 103 4.5t65.5 49T466 50q0 46-18 76t-48.5 44.5-67.5 16-75-10-72-32.5l-3 108q64 28 124.5 35.5t113-5T511 240t61-77 22-108q0-65-25.5-117.5T497-149t-109-46.5-139 3.5z"/><glyph glyph-name="uni0496" unicode="Җ" horiz-adv-x="1088" d="M886 0 682 341l110 65L1036 0H886zM552 295v112h211V295H552zm247 40-121 16 205 349h138zM166 0H16l244 406 111-65zm424 0H463v700h127V0zm-89 295H289v112h212V295zm-247 40L31 700h138l204-349zm700-484V32l31-32h-99v110h188v-259H954z"/><glyph glyph-name="uni0497" unicode="җ" horiz-adv-x="909" d="M721 0 565 256l102 63L870 0H721zM464 214v104h179V214H464zm215 38-118 14 162 268h133zM157 0H9l202 319 102-63zm344 0H377v534h124V0zm-87 214H236v104h178V214zm-215 38L22 534h133l161-268zm590-363V30l28-30h-95v104h180v-215H789z"/><glyph glyph-name="uni0498" unicode="Ҙ" horiz-adv-x="649" d="m29 69 42 95q45-31 98.5-47.5T276 99t96.5 12 69.5 39 26 65q0 47-38.5 70.5T325 309H162v102h153q59 0 91.5 24t32.5 65q0 34-21.5 56t-58 33-82 10.5-94.5-14T90 546L49 651q66 35 138.5 49t140.5 8 122.5-31 87.5-65.5 33-95.5q0-50-26.5-88.5T472 368t-107-21l5 32q69 0 120.5-23.5t80-64.5 28.5-95q0-51-26-90.5t-71-66-103-39T277-9 149.5 13 29 69zm337-42v-176H245V27h121z"/><glyph glyph-name="uni0499" unicode="ҙ" horiz-adv-x="553" d="M253-9q74 0 131.5 21T475 70.5t33 86.5q0 61-51 96.5T317 289l-4-27q52 0 92.5 17t64 47.5T493 395q0 46-33 80t-90 52-130 15q-48-1-96.5-13.5T44 493l32-92q44 19 86.5 29t82.5 10q38 0 65-7.5t41.5-22T366 377t-12-33-34.5-21-54.5-7h-93v-84h103q51 0 78.5-16.5T381 167q0-22-16.5-39T318 102.5 246 94q-49 0-98 12t-88 34L25 47Q73 20 132.5 5.5T253-9zm64 34H199v-135h118V25z"/><glyph glyph-name="uni049A" unicode="Қ" horiz-adv-x="763" d="M561 0 324 341l105 65L708 0H561zM98 0v700h128V0H98zm89 295v112h236V295H187zm254 40-119 16 239 349h138zm188-484V32l31-32h-99v110h188v-259H629z"/><glyph glyph-name="uni049B" unicode="қ" horiz-adv-x="618" d="M467 0 274 256l102 63L614 0H467zM84 0v534h125V0H84zm88 214v104h181V214H172zm216 38-117 14 196 268h134zm146-363V30l28-30h-95v104h180v-215H534z"/><glyph glyph-name="uni049C" unicode="Ҝ" horiz-adv-x="756" d="M589 0 378 341l106 65L741 0H589zM98 0v700h128V0H98zm89 295v112h269V295H187zm96-129v371h86V166h-86zm212 169-120 16 211 349h138z"/><glyph glyph-name="uni049D" unicode="ҝ" horiz-adv-x="634" d="M480 0 320 256l100 62L626 0H480zM81 0v534h125V0H81zm89 214v104h217V214H170zm261 39-114 14 165 267h130zM246 125v284h79V125h-79z"/><glyph glyph-name="uni049E" unicode="Ҟ" horiz-adv-x="745" d="M31 536v82h370v-82H31zM583 0 346 341l106 65L731 0H583zM120 0v700h128V0H120zm90 295v112h235V295H210zm253 40-119 16 239 349h138z"/><glyph glyph-name="uni049F" unicode="ҟ" horiz-adv-x="617" d="M-5 595v83l359-2v-81H-5zM465 0 273 256l102 63L613 0H465zM84 0v742h125V0H84zm88 214v104h180V214H172zm214 38-117 14 198 268h133z"/><glyph glyph-name="uni04A0" unicode="Ҡ" horiz-adv-x="844" d="M14 590v110h333V590H14zM682 0 445 341l106 65L830 0H682zM219 0v700h128V0H219zm90 295v112h235V295H309zm253 40-119 16 239 349h138z"/><glyph glyph-name="uni04A1" unicode="ҡ" horiz-adv-x="698" d="M7 430v104h282V430H7zM547 0 354 256l102 63L694 0H547zM164 0v534h125V0H164zm88 214v104h182V214H252zm216 38-117 14 196 268h134z"/><glyph glyph-name="uni04A2" unicode="Ң" horiz-adv-x="849" d="M590 700h130V0H590v700zM228 0H98v700h130V0zm372 300H217v111h383V300zm105-449V32l31-32H593v110h232v-259H705z"/><glyph glyph-name="uni04A3" unicode="ң" horiz-adv-x="711" d="M84 0v534h125V317h269v217h125V0H478v211H209V0H84zm483-110V31l29-31H478v106h206v-216H567z"/><glyph glyph-name="uni04A4" unicode="Ҥ" horiz-adv-x="1083" d="M590 700h130V0H590v700zM228 0H98v700h130V0zm372 300H217v111h383V300zM594 0v700h475l-1-110H691l30 31 1-621H594z"/><glyph glyph-name="uni04A5" unicode="ҥ" horiz-adv-x="895" d="M84 0v534h125V317h269v217h125V0H478v211H209V0H84zm394 0v534h410V428H574l29 28V0H478z"/><glyph glyph-name="uni04A6" unicode="Ҧ" horiz-adv-x="1187" d="m808-141 21 104q42-8 77 0t62 30.5 41.5 57.5 14.5 78q0 47-17 81t-47.5 54.5-71 25.5-87-6-96.5-40l-3 109q70 32 136.5 40t123.5-5 100-46.5 67-85 24-118.5q0-72-27-130.5t-74.5-97T942-142t-134 1zM99 0v700h619V0H590v622l30-32H197l30 32V0H99z"/><glyph glyph-name="uni04A7" unicode="ҧ" horiz-adv-x="985" d="M84 0v534h501V0H460v457l29-29H180l29 29V0H84zm538-192 26 105q61-10 103.5 4.5t65.5 49T840 50q0 46-18 76t-48.5 44.5-67.5 16-75.5-10T559 144l-3 108q64 28 124.5 35.5t112.5-5 91.5-42.5 61.5-77 22-108q0-65-25.5-117.5T871-149t-109-46.5-140 3.5z"/><glyph glyph-name="uni04A8" unicode="Ҩ" horiz-adv-x="976" d="M447-10q-86 0-158.5 27.5t-126 78-82.5 121T51 374q0 100 43.5 188.5T218 708l103-55q-66-51-103-126.5T181 368q0-85 37-149.5T320 119t151-35q69 0 125.5 22.5t97.5 65 63 102T779 406q0 60-17.5 103.5t-50.5 67-79 23.5q-48 0-82-25t-52-69.5T480 399q0-89 33-156t91-107.5T739 85t165 16l11-93Q826-16 743-9.5t-154 38T465 114t-82.5 126.5T353 399q0 93 35 162.5t98.5 109T634 710q82 0 143.5-37t95-102.5T906 419q0-73-23-138t-65.5-118-100-92-126-60T447-10z"/><glyph glyph-name="uni04A9" unicode="ҩ" horiz-adv-x="819" d="M373-10q-99 0-173.5 37.5T83 132 41 289q0 77 35 144.5T174 544l99-52q-51-40-79-94t-28-114q0-61 28-107t79-71 120-25q75 0 130.5 29t86 81.5T640 315q0 39-13.5 67.5t-38 44T530 442q-35 0-61-16.5T429 379t-14-71q0-66 27-113.5t73.5-76T624 83t133 10l6-88Q692-14 623.5-9.5T496 19 392 84t-70 97.5T297 306q0 72 29 125t81.5 83T532 544q69 0 120-27.5t78.5-77T758 322q0-71-29.5-131t-82-105T524 15.5 373-10z"/><glyph glyph-name="uni04AA" unicode="Ҫ" horiz-adv-x="721" d="M420-10q-80 0-148.5 26.5t-119 75T74 206 46 350t28 144 79 114.5 119 75T421 710q86 0 157-29.5T698 593l-84-79q-38 41-85 61.5T427 596t-100.5-18-79-51-52-78-18.5-99 18.5-99 52-78 79-51T427 104t102 20.5 85 62.5l84-80q-49-57-120-87T420-10zm43 37v-176H342V27h121z"/><glyph glyph-name="uni04AB" unicode="ҫ" horiz-adv-x="581" d="M327-7q-84 0-149.5 35.5T75 126 38 267q0 80 37 141.5T177.5 505 327 540q78 0 137.5-31.5T555 416l-96-56q-24 38-58.5 56T326 434q-46 0-83-20t-58-57.5-21-89.5 21-89.5 58-57.5 83-20q40 0 74.5 18t58.5 56l96-56q-31-60-90.5-92.5T327-7zm47 32v-135H256V25h118z"/><glyph glyph-name="uni04AC" unicode="Ҭ" horiz-adv-x="620" d="M245 0v622l31-32H14v110h592V590H344l30 32V0H245zm112-149V32l31-32H245v110h232v-259H357z"/><glyph glyph-name="uni04AD" unicode="ҭ" horiz-adv-x="514" d="M195 0v458l29-30H7v106h500V428H291l29 30V0H195zm89-110V31l29-31H195v106h206v-216H284z"/><glyph glyph-name="Ustraitcy" unicode="Ү" horiz-adv-x="688" d="M279 0v277l30-80L4 700h139l245-405h-78l245 405h128L379 197l30 80V0H279z"/><glyph glyph-name="ustraitcy" unicode="ү" horiz-adv-x="593" d="M257-61 3 534h130L331 63h-64l203 471h120L334-61h-77zM359 60v-254H233V60h126z"/><glyph glyph-name="Ustraitstrokecy" unicode="Ұ" horiz-adv-x="688" d="M122 213v81h436v-81H122zM279 0v277l30-80L4 700h139l245-405h-78l245 405h128L379 197l30 80V0H279z"/><glyph glyph-name="ustraitstrokecy" unicode="ұ" horiz-adv-x="593" d="M69-35v81h452v-81H69zm188-26L3 534h130L331 63h-64l203 471h120L334-61h-77zM359 60v-254H233V60h126z"/><glyph glyph-name="uni04B2" unicode="Ҳ" horiz-adv-x="725" d="M29 700h150l165-234 165 234h152L426 364 680 0H526L344 255 163 0H13l253 359zm566-849V32l31-32h-99v110h188v-259H595z"/><glyph glyph-name="uni04B3" unicode="ҳ" horiz-adv-x="564" d="m5 0 235 306-2-67L14 534h139l157-210h-53l158 210h135L324 239l1 67L559 0H418L253 223l52-7L143 0H5zm480-111V30l28-30h-95v104h180v-215H485z"/><glyph glyph-name="uni04B4" unicode="Ҵ" horiz-adv-x="983" d="M247 0v622l30-32H15v110h557V590H345l31 32V0H247zm0-1v700h129V109h352v590h129V-1H247zm594-153V31l29-32H728v110h234v-263H841z"/><glyph glyph-name="uni04B5" unicode="ҵ" horiz-adv-x="786" d="M196 0v534h124V106h236v428h124V0H196zm442-110V31l28-31H556v106h198v-216H638zM459 534V428H8v106h451z"/><glyph glyph-name="uni04B6" unicode="Ҷ" horiz-adv-x="773" d="M535 272q-55-23-107-34t-101-11q-134 0-206.5 64.5T48 477v223h129V491q0-74 43-113t123-39q48 0 96.5 11t93.5 34zM515 0v700h129V0H515zm112-149V32l31-32H515v110h232v-259H627z"/><glyph glyph-name="uni04B7" unicode="ҷ" horiz-adv-x="650" d="M421 211q-38-18-80.5-29.5T251 170q-101 0-157 47T38 363v171h125V371q0-53 30.5-77t84.5-24q36 0 72 9t71 25v-93zM412 0v534h125V0H412zm89-110V31l29-31H412v106h206v-216H501z"/><glyph glyph-name="uni04B8" unicode="Ҹ" horiz-adv-x="742" d="M296 98v372h86V98h-86zm238 174q-55-23-107-34t-100-11q-134 0-207 64.5T47 477v223h129V491q0-74 43-113t123-39q48 0 96.5 11t93.5 34zM515 0v700h128V0H515z"/><glyph glyph-name="uni04B9" unicode="ҹ" horiz-adv-x="621" d="m242 77 1 291h79V77h-80zm178 134q-38-18-80-29.5T250 170q-101 0-157 47T37 363v171h125V371q0-53 30.5-77t84.5-24q36 0 72.5 9t70.5 25v-93zM411 0v534h125V0H411z"/><glyph glyph-name="uni04BA" unicode="Һ" horiz-adv-x="742" d="M566 0v209q0 75-43.5 113.5T400 361q-48 0-97-11t-93-34l-3 112q56 23 108.5 34t99.5 11q134 0 206.5-64.5T694 223V0H566zM99 0v700h128V0H99z"/><glyph glyph-name="uni04BB" unicode="һ" horiz-adv-x="679" d="M387 540q64 0 114.5-25t79.5-76.5T610 306V0H485v290q0 71-33.5 106T358 431q-44 0-78-18t-52.5-53.5T209 270V0H84v742h125V390l-27 44q28 51 81.5 78.5T387 540z"/><glyph glyph-name="uni04BC" unicode="Ҽ" horiz-adv-x="1004" d="M610-10q-72 0-139 24T351.5 83.5t-83 112T238 348q0 85 30 152.5T349.5 614 467 685t138 25 137-24.5T857.5 615 937 503t29-150q0-14-1.5-30.5T961 292H214q-61 0-103 23.5T47.5 379 28 471t28 107l118-21q-19-30-24.5-58.5T151 447t27.5-37.5T231 395h634l-31-45q2 57-16 102.5t-50 78-73.5 50T605 598t-91-17.5-75.5-50-51-78.5T369 350q0-58 19.5-103.5T442 169t77.5-49 91.5-17q51 0 102.5 20.5T809 186l95-82q-63-58-140-86T610-10z"/><glyph glyph-name="uni04BD" unicode="ҽ" horiz-adv-x="793" d="M255 227h-80q-70 0-109 27t-46 74.5T41 438l101-19q-17-31-17-56t16-39 50-14h64v-83zM498-7q-92 0-160 35.5T232 126t-38 141q0 80 36.5 141.5T332 505t146 35 144-34 99-96 36-146q0-8-.5-18t-2.5-19H297v83h390l-51-26q0 46-20 81t-55.5 55-82.5 20q-46 0-82-20t-56-55.5-20-83.5v-20q0-48 22.5-85t63.5-57 96-20q45 0 82 14t67 44l69-77q-38-42-94-64.5T498-7z"/><glyph glyph-name="uni04BE" unicode="Ҿ" horiz-adv-x="1004" d="M610-10q-72 0-139 24T351.5 83.5t-83 112T238 348q0 85 30 152.5T349.5 614 467 685t138 25 137-24.5T857.5 615 937 503t29-150q0-14-1.5-30.5T961 292H214q-61 0-103 23.5T47.5 379 28 471t28 107l118-21q-19-30-24.5-58.5T151 447t27.5-37.5T231 395h634l-31-45q2 57-16 102.5t-50 78-73.5 50T605 598t-91-17.5-75.5-50-51-78.5T369 350q0-58 19.5-103.5T442 169t77.5-49 91.5-17q51 0 102.5 20.5T809 186l95-82q-63-58-140-86T610-10zm63 37v-176H552V27h121z"/><glyph glyph-name="uni04BF" unicode="ҿ" horiz-adv-x="793" d="M255 227h-80q-70 0-109 27t-46 74.5T41 438l101-19q-17-31-17-56t16-39 50-14h64v-83zM498-7q-92 0-160 35.5T232 126t-38 141q0 80 36.5 141.5T332 505t146 35 144-34 99-96 36-146q0-8-.5-18t-2.5-19H297v83h390l-51-26q0 46-20 81t-55.5 55-82.5 20q-46 0-82-20t-56-55.5-20-83.5v-20q0-48 22.5-85t63.5-57 96-20q45 0 82 14t67 44l69-77q-38-42-94-64.5T498-7zm43 32v-135H423V25h118z"/><glyph glyph-name="uni04C0" unicode="Ӏ" horiz-adv-x="327" d="M99 0v700h129V0H99z"/><glyph glyph-name="uni04C1" unicode="Ӂ" horiz-adv-x="1052" d="M886 0 682 341l110 65L1036 0H886zM552 295v112h211V295H552zm247 40-121 16 205 349h138zM166 0H16l244 406 111-65zm424 0H463v700h127V0zm-89 295H289v112h212V295zm-247 40L31 700h138l204-349zm273 412q-90 0-135.5 38T345 892h91q1-37 24.5-57t66.5-20 67.5 20 25.5 57h90q-1-69-47-107t-136-38z"/><glyph glyph-name="uni04C2" unicode="ӂ" horiz-adv-x="879" d="M721 0 565 256l102 63L870 0H721zM464 214v104h179V214H464zm215 38-118 14 162 268h133zM157 0H9l202 319 102-63zm344 0H377v534h124V0zm-87 214H236v104h178V214zm-215 38L22 534h133l161-268zm241 345q-80 0-123 37.5T273 744h83q1-36 22.5-57t60.5-21q38 0 60.5 21t23.5 57h85q-1-72-44.5-109.5T440 597z"/><glyph glyph-name="uni04C3" unicode="Ӄ" horiz-adv-x="728" d="M99 0v700h128V0H99zm89 295v112h222V295H188zm256 44-122 12 239 349h138zm82-543q-64 0-124 30l32 97q36-18 65-18 31 0 50 19.5T568-19q0 32-20.5 74t-55 88.5-78 93.5-89.5 88l104 69q81-83 144-156.5T672.5 99 709-23q0-85-49-133t-134-48z"/><glyph glyph-name="uni04C4" unicode="ӄ" horiz-adv-x="618" d="M418-202q-59 0-121 29l33 92q37-18 68-18 33 0 53 20t20 55q0 39-24 85.5T379 158t-102 97l99 65q70-62 119.5-122.5t75.5-117T597-29q0-54-22.5-92.5T512-181t-94-21zM84 0v534h125V0H84zm88 214v104h181V214H172zm216 39-117 13 196 268h134z"/><glyph glyph-name="uni04C6" unicode="ӆ" horiz-adv-x="677" d="m6 1 6 105q7-1 13-2t11-1q31 0 48 19t25.5 51.5 12 73T127 328l9 206h432V0H443v462l29-34H218l27 35-7-141q-3-71-11.5-131.5T200.5 85t-48-70T75-10q-15 0-32.5 3T6 1zm482-111 33 141 76-31H443v106h208l-63-216H488z"/><glyph glyph-name="uni04C7" unicode="Ӈ" horiz-adv-x="815" d="m409-169 35 92q24-15 49.5-18.5t46.5 3 34.5 25T588-21v314H227V0H99v700h128V404h361v296h128V-24q0-66-30-106.5t-76.5-58-100-12.5T409-169z"/><glyph glyph-name="uni04C8" unicode="ӈ" horiz-adv-x="692" d="M426-201q-35 0-67 8t-55 24l35 92q29-21 70-21 34 0 54 21.5T483-13v224H209V0H84v534h125V317h274v217h124V-16q0-84-47-134.5T426-201z"/><glyph glyph-name="uni04C9" unicode="Ӊ" horiz-adv-x="852" d="M590 700h130V0H590v700zM228 0H98v700h130V0zm372 300H217v111h383V300zm45-449 40 181 48-32H593v110h230l-75-259H645z"/><glyph glyph-name="uni04CA" unicode="ӊ" horiz-adv-x="712" d="M84 0v534h125V317h269v217h125V0H478v211H209V0H84zm439-110 33 141 76-31H478v106h208l-63-216H523z"/><glyph glyph-name="uni04CB" unicode="Ӌ" horiz-adv-x="737" d="M324 254q-134 0-206.5 62T45 493v207h129V507q0-68 43-105t122-37q48 0 96.5 12t94.5 34l1-111q-54-23-106-34.5T324 254zm63-403v259h252V0H497l11 32v-181H387zM510 0v700h129V0H510z"/><glyph glyph-name="uni04CC" unicode="ӌ" horiz-adv-x="617" d="M247 193q-102 0-157.5 46T34 385v149h125V393q0-52 30.5-76.5T275 292q72 0 142 35v-94q-38-18-80.5-29T247 193zm69-303v211h206V0H404l29 31v-141H316zM408 0v534h125V0H408z"/><glyph glyph-name="uni04CD" unicode="Ӎ" horiz-adv-x="1008" d="M99 0v700h106l307-511h-57l302 511h106l2-700H741l-1 507h26L510 80h-58L192 507h30V0H99zm702-149 40 181 48-32H749v110h230l-75-259H801z"/><glyph glyph-name="uni04CE" unicode="ӎ" horiz-adv-x="843" d="M84 0v534h131l215-379h-52l226 379h117l1-534H609v400l20-13L429 56h-54L174 396l24 6V0H84zm570-110 33 141 76-31H609v106h208l-63-216H654z"/><glyph glyph-name="uni04CF" unicode="ӏ" horiz-adv-x="294" d="M84 0v742h125V0H84z"/><glyph glyph-name="uni04D0" unicode="Ӑ" horiz-adv-x="777" d="m9 0 315 700h128L768 0H632L361 631h52L143 0H9zm145 162 35 102h378l35-102H154zm234 585q-90 0-135.5 38T206 892h91q1-37 24.5-57t66.5-20 67.5 20 25.5 57h90q-1-69-47-107t-136-38z"/><glyph glyph-name="uni04D1" unicode="ӑ" horiz-adv-x="597" d="M408 0v108l-7 23v189q0 55-33 85.5T268 436q-45 0-88.5-14T106 383l-49 91q43 33 102.5 49.5T283 540q116 0 179.5-55.5T526 313V0H408zM240-7q-60 0-105 20.5t-69.5 57T41 153q0 45 21.5 81t70.5 57 130 21h155v-83H272q-64 0-86-20.5T164 158q0-34 27-54t75-20q46 0 82.5 21t52.5 62l21-75q-18-47-64.5-73T240-7zm55 604q-80 0-123 37.5T128 744h83q1-36 22.5-57t60.5-21q38 0 60.5 21t23.5 57h85q-1-72-44.5-109.5T295 597z"/><glyph glyph-name="uni04D2" unicode="Ӓ" horiz-adv-x="777" d="m9 0 315 700h128L768 0H632L361 631h52L143 0H9zm145 162 35 102h378l35-102H154zm331 606q-25 0-42.5 16.5T425 828t17.5 44 42.5 17 42.5-17 17.5-44-17.5-43.5T485 768zm-194 0q-25 0-42.5 16.5T231 828t17.5 44 42.5 17 42.5-17 17.5-44-17.5-43.5T291 768z"/><glyph glyph-name="uni04D3" unicode="ӓ" horiz-adv-x="597" d="M408 0v108l-7 23v189q0 55-33 85.5T268 436q-45 0-88.5-14T106 383l-49 91q43 33 102.5 49.5T283 540q116 0 179.5-55.5T526 313V0H408zM240-7q-60 0-105 20.5t-69.5 57T41 153q0 45 21.5 81t70.5 57 130 21h155v-83H272q-64 0-86-20.5T164 158q0-34 27-54t75-20q46 0 82.5 21t52.5 62l21-75q-18-47-64.5-73T240-7zm152 625q-25 0-42.5 16.5T332 678t17.5 44 42.5 17 42.5-17 17.5-44-17.5-43.5T392 618zm-194 0q-25 0-42.5 16.5T138 678t17.5 44 42.5 17 42.5-17 17.5-44-17.5-43.5T198 618z"/><glyph glyph-name="uni04D4" unicode="Ӕ" horiz-adv-x="1069" d="m5 0 406 700h130V591H428l79 56L139 0H5zm192 162 4 102h340V162H197zm420 247h348V302H616zm10-300h395V0H497v700h511V591H627V109z"/><glyph glyph-name="uni04D5" unicode="ӕ" horiz-adv-x="997" d="M257-7Q155-7 98 39T41 158q0 42 21.5 76.5T133 290t130 21h154v-82H272q-63 0-85.5-20.5T164 160q0-36 27.5-56T268 84q63 0 98 32.5t35 84.5v119q0 55-33 85.5T269 436q-46 0-89.5-14T106 383l-49 91q43 33 102.5 49.5T282 540q91 0 147-34t76-100l-59 4q33 61 94.5 95.5T680 540q58 0 107.5-19.5T874 465t57.5-86T952 269q0-12-.5-22t-2.5-18H505v82h372l-46-27q1 52-21 86t-57 52-74 18q-38 0-73.5-18t-58-53-22.5-88v-20q0-48 22-85t61.5-57T701 99q45 0 80 14t65 44l68-77q-37-43-92.5-65T698-7q-62 0-116.5 18.5T486 69t-65 101l75-1q-14-68-51.5-106.5t-87-54T257-7z"/><glyph glyph-name="uni04D6" unicode="Ӗ" horiz-adv-x="670" d="M218 409h348V302H218v107zm10-300h395V0H98v700h511V591H228V109zm127 638q-90 0-135.5 38T173 892h91q1-37 24.5-57t66.5-20 67.5 20 25.5 57h90q-1-69-47-107t-136-38z"/><glyph glyph-name="uni04D7" unicode="ӗ" horiz-adv-x="637" d="M333-7q-89 0-155.5 35.5T74.5 126 38 267q0 80 35.5 141.5t98 96.5T314 540q78 0 139-34t96-96 35-146q0-8-.5-18t-1.5-19H137v83h379l-49-26q1 46-19 81t-54.5 55-79.5 20q-46 0-80.5-20t-54-55.5T160 281v-20q0-48 22-85t62-57 92-20q45 0 81 14t64 44l67-77q-36-42-90.5-64.5T333-7zm-21 604q-80 0-123 37.5T145 744h83q1-36 22.5-57t60.5-21q38 0 60.5 21t23.5 57h85q-1-72-44.5-109.5T312 597z"/><glyph glyph-name="uni04D8" unicode="Ә" horiz-adv-x="822" d="M403-10q-73 0-139.5 24.5T146 85 66 197.5 37 347q0 14 1 27.5t3 27.5h694v-91H137l31 39q-2-56 16.5-102t51-78.5 75.5-50 92-17.5 93 17.5 77.5 50 53 78.5T646 350q0 58-20 103.5T570.5 531t-80 49-94.5 17q-51 0-103-20.5T195 514l-95 82q64 58 142.5 86T398 710q75 0 142.5-24t121-69.5 84-112T776 352q0-85-30-152.5T663 86 543.5 15 403-10z"/><glyph glyph-name="uni04D9" unicode="ә" horiz-adv-x="636" d="M304 540q89 0 155.5-35t103-96.5T599 267t-35.5-141.5-98.5-97T323-7q-78 0-139.5 34.5t-96 97T53 270q0 8 .5 18t1.5 19h444v-83H121l49 26q0-45 19.5-80.5T243 114t80-20q45 0 80 20t54 56 19 83v20q0 49-21.5 85.5t-61 56.5-93.5 20q-45 0-80-14t-64-44l-68 77q37 42 92 64t124 22z"/><glyph glyph-name="uni04DA" unicode="Ӛ" horiz-adv-x="822" d="M403-10q-73 0-139.5 24.5T146 85 66 197.5 37 347q0 14 1 27.5t3 27.5h694v-91H137l31 39q-2-56 16.5-102t51-78.5 75.5-50 92-17.5 93 17.5 77.5 50 53 78.5T646 350q0 58-20 103.5T570.5 531t-80 49-94.5 17q-51 0-103-20.5T195 514l-95 82q64 58 142.5 86T398 710q75 0 142.5-24t121-69.5 84-112T776 352q0-85-30-152.5T663 86 543.5 15 403-10zm106 778q-25 0-42.5 16.5T449 828t17.5 44 42.5 17 42.5-17 17.5-44-17.5-43.5T509 768zm-194 0q-25 0-42.5 16.5T255 828t17.5 44 42.5 17 42.5-17 17.5-44-17.5-43.5T315 768z"/><glyph glyph-name="uni04DB" unicode="ӛ" horiz-adv-x="636" d="M304 540q89 0 155.5-35t103-96.5T599 267t-35.5-141.5-98.5-97T323-7q-78 0-139.5 34.5t-96 97T53 270q0 8 .5 18t1.5 19h444v-83H121l49 26q0-45 19.5-80.5T243 114t80-20q45 0 80 20t54 56 19 83v20q0 49-21.5 85.5t-61 56.5-93.5 20q-45 0-80-14t-64-44l-68 77q37 42 92 64t124 22zm118 78q-25 0-42.5 16.5T362 678t17.5 44 42.5 17 42.5-17 17.5-44-17.5-43.5T422 618zm-194 0q-25 0-42.5 16.5T168 678t17.5 44 42.5 17 42.5-17 17.5-44-17.5-43.5T228 618z"/><glyph glyph-name="uni04DC" unicode="Ӝ" horiz-adv-x="1052" d="M886 0 682 341l110 65L1036 0H886zM552 295v112h211V295H552zm247 40-121 16 205 349h138zM166 0H16l244 406 111-65zm424 0H463v700h127V0zm-89 295H289v112h212V295zm-247 40L31 700h138l204-349zm371 433q-25 0-42.5 16.5T565 828t17.5 44 42.5 17 42.5-17 17.5-44-17.5-43.5T625 768zm-194 0q-25 0-42.5 16.5T371 828t17.5 44 42.5 17 42.5-17 17.5-44-17.5-43.5T431 768z"/><glyph glyph-name="uni04DD" unicode="ӝ" horiz-adv-x="879" d="M721 0 565 256l102 63L870 0H721zM464 214v104h179V214H464zm215 38-118 14 162 268h133zM157 0H9l202 319 102-63zm344 0H377v534h124V0zm-87 214H236v104h178V214zm-215 38L22 534h133l161-268zm337 366q-25 0-42.5 16.5T476 678t17.5 44 42.5 17 42.5-17 17.5-44-17.5-43.5T536 618zm-194 0q-25 0-42.5 16.5T282 678t17.5 44 42.5 17 42.5-17 17.5-44-17.5-43.5T342 618z"/><glyph glyph-name="uni04DE" unicode="Ӟ" horiz-adv-x="649" d="m29 69 42 95q45-31 98.5-47.5T276 99t96.5 12 69.5 39 26 65q0 47-38.5 70.5T325 309H162v102h153q59 0 91.5 24t32.5 65q0 34-21.5 56t-58 33-82 10.5-94.5-14T90 546L49 651q66 35 138.5 49t140.5 8 122.5-31 87.5-65.5 33-95.5q0-50-26.5-88.5T472 368t-107-21l5 32q69 0 120.5-23.5t80-64.5 28.5-95q0-51-26-90.5t-71-66-103-39T277-9 149.5 13 29 69zm390 699q-25 0-42.5 16.5T359 828t17.5 44 42.5 17 42.5-17 17.5-44-17.5-43.5T419 768zm-194 0q-25 0-42.5 16.5T165 828t17.5 44 42.5 17 42.5-17 17.5-44-17.5-43.5T225 768z"/><glyph glyph-name="uni04DF" unicode="ӟ" horiz-adv-x="553" d="M253-9q74 0 131.5 21T475 70.5t33 86.5q0 61-51 96.5T317 289l-4-27q52 0 92.5 17t64 47.5T493 395q0 46-33 80t-90 52-130 15q-48-1-96.5-13.5T44 493l32-92q44 19 86.5 29t82.5 10q38 0 65-7.5t41.5-22T366 377t-12-33-34.5-21-54.5-7h-93v-84h103q51 0 78.5-16.5T381 167q0-22-16.5-39T318 102.5 246 94q-49 0-98 12t-88 34L25 47Q73 20 132.5 5.5T253-9zm114 627q-25 0-42.5 16.5T307 678t17.5 44 42.5 17 42.5-17 17.5-44-17.5-43.5T367 618zm-194 0q-25 0-42.5 16.5T113 678t17.5 44 42.5 17 42.5-17 17.5-44-17.5-43.5T173 618z"/><glyph glyph-name="uni04E0" unicode="Ӡ" horiz-adv-x="631" d="M299-10q-79 0-151.5 21.5T29 69l46 102q39-32 97.5-51T295 101q77 0 119.5 29t42.5 80q0 48-40 76.5T292 315h-66v87l218 238 12-47H57v107h497v-87L336 375l-58 38h39q90 0 150-25.5t90.5-71.5T588 210q0-59-31-109t-95-80.5T299-10z"/><glyph glyph-name="uni04E1" unicode="ӡ" horiz-adv-x="541" d="M238-201q-76 0-144.5 22T-19-119L27-16q37-33 91.5-53T233-89q72 0 111 30t39 84q0 51-36.5 81.5T231 137h-65v87l204 249 12-47H8v108h472v-88L276 197l-59 39h39q128 0 192-58.5T512 25q0-61-30-112.5T391.5-170 238-201z"/><glyph glyph-name="uni04E2" unicode="Ӣ" horiz-adv-x="822" d="M99 0v700h128V203l376 497h121V0H596v496L220 0H99zm138 788v75h346v-75H237z"/><glyph glyph-name="uni04E3" unicode="ӣ" horiz-adv-x="702" d="M84 0v534h125V182l295 352h114V0H493v352L199 0H84zm86 638v75h346v-75H170z"/><glyph glyph-name="uni04E4" unicode="Ӥ" horiz-adv-x="822" d="M99 0v700h128V203l376 497h121V0H596v496L220 0H99zm408 768q-25 0-42.5 16.5T447 828t17.5 44 42.5 17 42.5-17 17.5-44-17.5-43.5T507 768zm-194 0q-25 0-42.5 16.5T253 828t17.5 44 42.5 17 42.5-17 17.5-44-17.5-43.5T313 768z"/><glyph glyph-name="uni04E5" unicode="ӥ" horiz-adv-x="702" d="M84 0v534h125V182l295 352h114V0H493v352L199 0H84zm356 618q-25 0-42.5 16.5T380 678t17.5 44 42.5 17 42.5-17 17.5-44-17.5-43.5T440 618zm-194 0q-25 0-42.5 16.5T186 678t17.5 44 42.5 17 42.5-17 17.5-44-17.5-43.5T246 618z"/><glyph glyph-name="uni04E6" unicode="Ӧ" horiz-adv-x="845" d="M423-10q-82 0-151 27T152 92.5t-79 114T45 350t28 143.5 79 114T272 683t150 27q82 0 150.5-27T692 607.5t79-114T799 350t-28-144-79-114-119.5-75T423-10zm-1 114q53 0 98 18t78 51.5 51.5 78T668 350t-18.5 98.5-51.5 78-78 51.5-98 18-97.5-18-78-51.5-52-78T176 350q0-53 18.5-98t51.5-78.5 78-51.5 98-18zm97 664q-25 0-42.5 16.5T459 828t17.5 44 42.5 17 42.5-17 17.5-44-17.5-43.5T519 768zm-194 0q-25 0-42.5 16.5T265 828t17.5 44 42.5 17 42.5-17 17.5-44-17.5-43.5T325 768z"/><glyph glyph-name="uni04E7" unicode="ӧ" horiz-adv-x="646" d="M322-7q-82 0-146 35.5T75 126 38 267q0 80 37 141.5T176 505t146 35q83 0 147.5-35t101-96T607 267q0-79-36.5-141t-101-97.5T322-7zm0 107q46 0 82 20t56.5 58 20.5 89q0 52-20.5 89.5T404 414t-81 20q-46 0-81.5-20T185 356.5 164 267q0-51 21-89t56.5-58 80.5-20zm97 518q-25 0-42.5 16.5T359 678t17.5 44 42.5 17 42.5-17 17.5-44-17.5-43.5T419 618zm-194 0q-25 0-42.5 16.5T165 678t17.5 44 42.5 17 42.5-17 17.5-44-17.5-43.5T225 618z"/><glyph glyph-name="uni04E8" unicode="Ө" horiz-adv-x="845" d="M422 710q82 0 150.5-26.5t119.5-75T771 494t28-144-28-144-79-114.5-119.5-75T422-10q-81 0-150 27T152 92.5 73 207 45 350t28 143 79 114.5T272 683t150 27zm0-114q-46 0-87-14.5T262 541t-53-62.5-29-80.5h483q-7 44-28 80.5T582 541t-72.5 40.5T422 596zm0-492q47 0 87.5 14t72.5 40.5 53 63 28 80.5H181q7-44 28-80.5t53-63 73-40.5 87-14z"/><glyph glyph-name="uni04E9" unicode="ө" horiz-adv-x="655" d="M327 540q85 0 150-34.5T579.5 409 617 267q0-79-37.5-141.5T477 28 328-7 178.5 28t-103 97.5T38 267q0 80 37.5 142t103 96.5T327 540zm0-95q-43 0-78-16.5t-57.5-47T161 309h333q-7 42-30.5 72.5t-58 47T327 445zm1-356q43 0 77.5 16.5t58 47T494 225H161q8-42 31-72.5t58-47T328 89z"/><glyph glyph-name="uni04EA" unicode="Ӫ" horiz-adv-x="845" d="M422 710q82 0 150.5-26.5t119.5-75T771 494t28-144-28-144-79-114.5-119.5-75T422-10q-81 0-150 27T152 92.5 73 207 45 350t28 143 79 114.5T272 683t150 27zm0-114q-46 0-87-14.5T262 541t-53-62.5-29-80.5h483q-7 44-28 80.5T582 541t-72.5 40.5T422 596zm0-492q47 0 87.5 14t72.5 40.5 53 63 28 80.5H181q7-44 28-80.5t53-63 73-40.5 87-14zm97 664q-25 0-42.5 16.5T459 828t17.5 44 42.5 17 42.5-17 17.5-44-17.5-43.5T519 768zm-194 0q-25 0-42.5 16.5T265 828t17.5 44 42.5 17 42.5-17 17.5-44-17.5-43.5T325 768z"/><glyph glyph-name="uni04EB" unicode="ӫ" horiz-adv-x="655" d="M327 540q85 0 150-34.5T579.5 409 617 267q0-79-37.5-141.5T477 28 328-7 178.5 28t-103 97.5T38 267q0 80 37.5 142t103 96.5T327 540zm0-95q-43 0-78-16.5t-57.5-47T161 309h333q-7 42-30.5 72.5t-58 47T327 445zm1-356q43 0 77.5 16.5t58 47T494 225H161q8-42 31-72.5t58-47T328 89zm97 529q-25 0-42.5 16.5T365 678t17.5 44 42.5 17 42.5-17 17.5-44-17.5-43.5T425 618zm-194 0q-25 0-42.5 16.5T171 678t17.5 44 42.5 17 42.5-17 17.5-44-17.5-43.5T231 618z"/><glyph glyph-name="uni04EC" unicode="Ӭ" horiz-adv-x="710" d="M215 304v103h361V304H215zm91 406q77 0 142-26.5t113.5-75 75-114.5T663 350t-26.5-144-75-114.5-113.5-75T306-10q-89 0-161.5 30T24 107l82 80q39-42 87.5-62.5T299 104q50 0 93 18.5t74 51 48 77.5 17 99-17 99-48 77.5-74 51-93 18.5q-57 0-105.5-20.5T106 513l-82 80q48 57 120.5 87T306 710zm115 58q-25 0-42.5 16.5T361 828t17.5 44 42.5 17 42.5-17 17.5-44-17.5-43.5T421 768zm-194 0q-25 0-42.5 16.5T167 828t17.5 44 42.5 17 42.5-17 17.5-44-17.5-43.5T227 768z"/><glyph glyph-name="uni04ED" unicode="ӭ" horiz-adv-x="581" d="M177 225v90h290v-90H177zm73 317q86 0 152-35.5t104-97T544 267q0-80-38-142.5t-104-98T250-9q-72 0-132 24T18 84l72 70q32-31 70.5-47T245 91q54 0 95 22.5t65 62.5 24 91q0 52-24 91.5t-65 62-95 22.5q-46 0-84.5-16T90 379l-72 70q40 45 100 69t132 24zm116 76q-25 0-42.5 16.5T306 678t17.5 44 42.5 17 42.5-17 17.5-44-17.5-43.5T366 618zm-194 0q-25 0-42.5 16.5T112 678t17.5 44 42.5 17 42.5-17 17.5-44-17.5-43.5T172 618z"/><glyph glyph-name="uni04EE" unicode="Ӯ" horiz-adv-x="706" d="M108 110q55-19 97-10t75 61l34 53 13 14 244 472h128L395 135q-37-71-88-108T197.5-14.5 76 8zm216 6L12 700h139l244-484zM176 788v75h346v-75H176z"/><glyph glyph-name="uni04EF" unicode="ӯ" horiz-adv-x="591" d="M132-201q-39 0-78 13t-65 36l50 92q19-17 43-27t49-10q34 0 55 17t39 57l31 70 10 15 202 472h120L338-43q-25-60-55.5-95t-68-49-82.5-14zM242-19 1 534h130L327 73zM109 638v75h346v-75H109z"/><glyph glyph-name="uni04F0" unicode="Ӱ" horiz-adv-x="706" d="M108 110q55-19 97-10t75 61l34 53 13 14 244 472h128L395 135q-37-71-88-108T197.5-14.5 76 8zm216 6L12 700h139l244-484zm122 652q-25 0-42.5 16.5T386 828t17.5 44 42.5 17 42.5-17 17.5-44-17.5-43.5T446 768zm-194 0q-25 0-42.5 16.5T192 828t17.5 44 42.5 17 42.5-17 17.5-44-17.5-43.5T252 768z"/><glyph glyph-name="uni04F1" unicode="ӱ" horiz-adv-x="591" d="M132-201q-39 0-78 13t-65 36l50 92q19-17 43-27t49-10q34 0 55 17t39 57l31 70 10 15 202 472h120L338-43q-25-60-55.5-95t-68-49-82.5-14zM242-19 1 534h130L327 73zm137 637q-25 0-42.5 16.5T319 678t17.5 44 42.5 17 42.5-17 17.5-44-17.5-43.5T379 618zm-194 0q-25 0-42.5 16.5T125 678t17.5 44 42.5 17 42.5-17 17.5-44-17.5-43.5T185 618z"/><glyph glyph-name="uni04F2" unicode="Ӳ" horiz-adv-x="706" d="M108 110q55-19 97-10t75 61l34 53 13 14 244 472h128L395 135q-37-71-88-108T197.5-14.5 76 8zm216 6L12 700h139l244-484zm70 641 80 137h125L492 757h-98zm-188 0 81 137h125L304 757h-98z"/><glyph glyph-name="uni04F3" unicode="ӳ" horiz-adv-x="591" d="M132-201q-39 0-78 13t-65 36l50 92q19-17 43-27t49-10q34 0 55 17t39 57l31 70 10 15 202 472h120L338-43q-25-60-55.5-95t-68-49-82.5-14zM242-19 1 534h130L327 73zm85 626 80 137h125L425 607h-98zm-188 0 81 137h125L237 607h-98z"/><glyph glyph-name="uni04F4" unicode="Ӵ" horiz-adv-x="742" d="M535 272q-55-23-107-34t-101-11q-134 0-206.5 64.5T48 477v223h129V491q0-74 43-113t123-39q48 0 96.5 11t93.5 34zM515 0v700h129V0H515zm-71 768q-25 0-42.5 16.5T384 828t17.5 44 42.5 17 42.5-17 17.5-44-17.5-43.5T444 768zm-194 0q-25 0-42.5 16.5T190 828t17.5 44 42.5 17 42.5-17 17.5-44-17.5-43.5T250 768z"/><glyph glyph-name="uni04F5" unicode="ӵ" horiz-adv-x="621" d="M421 211q-38-18-80.5-29.5T251 170q-101 0-157 47T38 363v171h125V371q0-53 30.5-77t84.5-24q36 0 72 9t71 25v-93zM412 0v534h125V0H412zm-31 618q-25 0-42.5 16.5T321 678t17.5 44 42.5 17 42.5-17 17.5-44-17.5-43.5T381 618zm-194 0q-25 0-42.5 16.5T127 678t17.5 44 42.5 17 42.5-17 17.5-44-17.5-43.5T187 618z"/><glyph glyph-name="uni04F6" unicode="Ӷ" horiz-adv-x="585" d="M99 0v700h475l-1-110H196l30 31 1-621H99zm111-149V32l31-32H98v110h232v-259H210z"/><glyph glyph-name="uni04F7" unicode="ӷ" horiz-adv-x="501" d="M84 0v534h410V428H180l29 28V0H84zm89-110V31l29-31H84v106h206v-216H173z"/><glyph glyph-name="uni04F8" unicode="Ӹ" horiz-adv-x="1010" d="M421 463q125 0 193-56t68-168q0-118-74.5-178.5T400 0H99v700h128V463h194zm-27-363q75 0 116.5 35T552 237q0 66-41 96.5T394 364H227V100h167zM783 0v700h128V0H783zM605 768q-25 0-42.5 16.5T545 828t17.5 44 42.5 17 42.5-17 17.5-44-17.5-43.5T605 768zm-194 0q-25 0-42.5 16.5T351 828t17.5 44 42.5 17 42.5-17 17.5-44-17.5-43.5T411 768z"/><glyph glyph-name="uni04F9" unicode="ӹ" horiz-adv-x="832" d="M623 0v534h125V0H623zM344 358q103 0 156.5-46T554 182q0-87-59.5-135.5T326-1L84 0v534h125V359zM315 91q55-1 84 23t29 70-28.5 66.5T315 272l-106 1V92zm208 527q-25 0-42.5 16.5T463 678t17.5 44 42.5 17 42.5-17 17.5-44-17.5-43.5T523 618zm-194 0q-25 0-42.5 16.5T269 678t17.5 44 42.5 17 42.5-17 17.5-44-17.5-43.5T329 618z"/><glyph glyph-name="uni04FA" unicode="Ӻ" horiz-adv-x="629" d="M129 0v700h477V590H258V0H129zm42-202q-31 0-63 8.5T44-168l34 88q34-20 69-20 33 0 55.5 21T225-15v40l38-25H129v103h221V-27q0-56-24.5-95.5t-65-59.5-89.5-20zM24 277v90h517v-90H24z"/><glyph glyph-name="uni04FB" unicode="ӻ" horiz-adv-x="506" d="M112 0v534h371V428H237V0H112zm24-201q-34 0-66 8.5T14-168l33 88q14-9 33-15.5t39-6.5q35 0 54 22t19 67v39l37-26H112v100h205V-20q0-55-21.5-95.5t-62-63T136-201zM27 213v82h410v-82H27z"/><glyph glyph-name="uni04FC" unicode="Ӽ" horiz-adv-x="695" d="m9 0 261 358L23 700h149l179-247 176 247h141L424 363l-68-82L159 0H9zm475-204q-30 0-61.5 7.5T361-174l31 91q34-18 65-18t50.5 19.5T527-26q0 28-16.5 63.5T466 114t-64.5 85.5T326 291l81 95q56-68 103.5-126.5t83-109.5 55-96T668-32q0-55-25-93.5T576.5-184 484-204z"/><glyph glyph-name="uni04FD" unicode="ӽ" horiz-adv-x="565" d="m7 0 207 272L15 534h140l131-173 130 173h136L146 0H7zm373-202q-61 0-123 31l34 93q16-10 34-15.5t35-5.5q32 0 51.5 18.5T431-34t-19.5 63.5-61 85.5T245 237l86 76q56-65 97.5-116t70.5-92 43-77 14-72q0-49-23.5-84.5t-63-54.5-89.5-19z"/><glyph glyph-name="uni04FE" unicode="Ӿ" horiz-adv-x="705" d="M90 311v91h519v-91H90zM36 700h150l165-234 165 234h151L433 364 688 0H533L351 255 170 0H20l253 359z"/><glyph glyph-name="uni04FF" unicode="ӿ" horiz-adv-x="587" d="m15 0 236 308-4-75L25 534h142l154-208-53-4 160 212h133L337 238v75L570 0H425L265 221l51-7L153 0H15zm66 225v83h426v-83H81z"/><glyph glyph-name="uni0510" unicode="Ԑ" horiz-adv-x="648" d="M620 69q-56-37-120-56T371.5-9.5 249.5 0t-103 39.5-71.5 66T49 196q0 54 28.5 95t80 64.5T279 379l4-33q-61 0-107 21.5t-72 60T78 516q0 55 32.5 96t87 65.5 122.5 31 140.5-7T599 652l-40-105q-45 26-93.5 39.5t-94.5 14-82.5-10.5-57.5-34-21-56q0-41 32.5-65t90.5-24h154V309H324q-67 0-105-24t-38-70q0-39 26-65.5t69.5-39 96-11.5 106 17 99.5 47z"/><glyph glyph-name="uni0511" unicode="ԑ" horiz-adv-x="553" d="M301-9q-74 0-132 21T78 70.5 45 157q0 61 51.5 96.5T236 289l4-27q-51 0-92 17t-64.5 47.5T60 395q0 46 33 80t90.5 52T314 542q48-1 96.5-13.5T509 493l-32-92q-44 19-86 29t-83 10q-37 0-64-7.5t-41.5-22T188 377t12-33 34-21 54-7h94v-84H278q-50 0-77.5-16.5T173 167q0-22 16-39t46.5-25.5T307 94q50 0 98.5 12t87.5 34l36-93Q481 20 422 5.5T301-9z"/><glyph glyph-name="uni0512" unicode="Ԓ" horiz-adv-x="795" d="m389-169 35 92q24-15 49.5-18.5t46.5 3 34.5 25T568-21v611H292l-6-175q-4-104-15-183T237.5 99.5 178 18 84-10q-16 0-33 3T13 0l9 113q15-4 30-4 42 0 67 34.5T155.5 245 170 410l11 290h515V-24q0-66-29.5-106.5t-76.5-58T489.5-201 389-169z"/><glyph glyph-name="uni0513" unicode="ԓ" horiz-adv-x="653" d="M385-201q-33 0-65 8t-55 24l35 92q28-21 68-21 36 0 55.5 21.5T443-13v475l29-34H218l27 35-7-141q-3-71-11.5-131.5T200.5 85t-48-70T75-10q-15 0-32.5 3T6 1l6 105q7-1 13-2t11-1q31 0 48 19t26 51.5 12 73 5 81.5l9 206h432V-14q0-85-47-136t-136-51z"/><glyph glyph-name="uni051A" unicode="Ԛ" horiz-adv-x="852" d="M423-10q-82 0-151 27T152 92.5t-79 114T45 350t28 143.5 79 114T272 683t150 27q82 0 150.5-27T692 608t79-114 28-144-28-144-79-114-119.5-75T423-10zm228-143q-37 0-71.5 8.5t-68 28-69.5 51T363 12l138 36q28-37 53.5-59.5T604-44t50-10q69 0 120 56l60-72q-70-83-183-83zM422 104q53 0 98 18t78 51.5 51.5 78.5 18.5 98q0 54-18.5 98.5t-51.5 78-78 51.5-98 18-98-18-78-51.5-51.5-78T176 350q0-53 18.5-98t51.5-78.5 78-51.5 98-18z"/><glyph glyph-name="uni051B" unicode="ԛ" horiz-adv-x="691" d="M310-7q-77 0-138.5 34T75 122.5 40 267t35 144 96.5 95T310 540q69 0 121.5-29.5t83-89.5T545 267q0-93-31.5-153.5T429 23 310-7zm14 107q45 0 81 20t57 58 21 89q0 52-21 89.5T405 414t-81 20-80.5-20-56.5-57.5-21-89.5q0-51 21-89t56.5-58 80.5-20zm157-294v318l10 142-4 142v126h119v-728H481z"/><glyph glyph-name="uni051C" unicode="Ԝ" horiz-adv-x="1104" d="M247 0 16 700h135L357 67h-71l211 633h120L822 67h-68l209 633h125L858 0H722L536 570h37L383 0H247z"/><glyph glyph-name="uni051D" unicode="ԝ" horiz-adv-x="952" d="M208 0 6 534h128L305 63h-62l179 471h115L710 63h-61l177 471h119L744 0H615L460 417h34L337 0H208z"/><glyph glyph-name="uni0524" unicode="Ԥ" horiz-adv-x="848" d="M99 0v700h619V0H590v622l30-32H197l30 32V0H99zm602-149V32l31-32H589v110h232v-259H701z"/><glyph glyph-name="uni0525" unicode="ԥ" horiz-adv-x="681" d="M84 0v534h512V0H472v457l29-29H180l29 29V0H84zm476-110V31l29-31H471v106h206v-216H560z"/><glyph glyph-name="uni0526" unicode="Ԧ" horiz-adv-x="813" d="M566 0v209q0 75-43.5 113.5T400 361q-48 0-97-11t-93-34l-3 112q56 23 108.5 34t99.5 11q134 0 206.5-64.5T694 223V0H566zM99 0v700h128V0H99zm579-149V32l31-32H566v110h232v-259H678z"/><glyph glyph-name="uni0527" unicode="ԧ" horiz-adv-x="710" d="M485 0v287q0 71-33 105.5T360 427q-45 0-79-18.5T228 355t-19-88l-50 46q6 73 36.5 123.5t82 77T395 540q63 0 111.5-25t76-76T610 309V0H485zM84 0v742h125V0H84zm489-110V31l60-31H485v106h204v-216H573z"/><glyph glyph-name="uni0528" unicode="Ԩ" horiz-adv-x="814" d="m-80-169 35 92q24-15 49-18.5t46.5 3 34.5 25T98-21v721h129V404h361v296h128V0H588v293H227V-24q0-66-30-106.5t-76.5-58T21-201t-101 32z"/><glyph glyph-name="uni0529" unicode="ԩ" horiz-adv-x="688" d="M479 534h125V0H479v213H210V-16q0-84-47-134.5T30-201q-35 0-67.5 8T-93-169l35 92q28-21 69-21 35 0 54.5 21.5T85-13v547h125V320h269v214z"/><glyph glyph-name="uni052E" unicode="Ԯ" horiz-adv-x="826" d="M85-10q-17 0-34 3T14 0l9 113q14-4 30-4 42 0 67 34.5T156 245t15 165l10 290h515V0H568v622l30-32H265l28 33-7-208q-3-104-14-183T238.5 99.5 179 18 85-10zm594-139V32l31-32H568v110h231v-259H679z"/><glyph glyph-name="uni052F" unicode="ԯ" horiz-adv-x="676" d="m6 1 6 105q7-1 13-2t11-1q31 0 48 19t25.5 51.5 12 73T127 328l9 206h432V0H443v462l29-34H218l27 35-7-141q-3-71-11.5-131.5T200.5 85t-48-70T75-10q-15 0-32.5 3T6 1zm526-111V31l29-31H443v106h206v-216H532z"/><glyph glyph-name="uni1E08" unicode="Ḉ" horiz-adv-x="727" d="M418-10q-80 0-148.5 26.5t-119 75T72 206 44 350t28 144 79 114.5 119 75T419 710q86 0 157-29.5T696 593l-84-79q-38 41-85 61.5T425 596t-100.5-18-79-51-52-78-18.5-99 18.5-99 52-78 79-51T425 104t102 20.5 85 62.5l84-80q-49-57-120-87T418-10zm-47-218q-27 0-50 5.5T279-207l23 59q16-8 32.5-12t35.5-4q29 0 41 10t12 26q0 15-12.5 24T370-95h-31L366 7h68l-14-56q44-5 65.5-28.5T507-133q0-44-37-69.5T371-228zm-42 985 135 137h147L437 757H329z"/><glyph glyph-name="uni1E09" unicode="ḉ" horiz-adv-x="581" d="M327-7q-84 0-149.5 35.5T75 126 38 267q0 80 37 141.5T177.5 505 327 540q78 0 137.5-31.5T555 416l-96-56q-24 38-58.5 56T326 434q-46 0-83-20t-58-57.5-21-89.5 21-89.5 58-57.5 83-20q40 0 74.5 18t58.5 56l96-56q-31-60-90.5-92.5T327-7zm-52-221q-27 0-50 5.5T183-207l23 59q16-8 32.5-12t35.5-4q29 0 41 10t12 26q0 15-12.5 24T274-95h-31L270 7h68l-14-56q44-5 65.5-28.5T411-133q0-44-37-69.5T275-228zm-52 835 135 137h147L331 607H223z"/><glyph glyph-name="uni1E0C" unicode="Ḍ" horiz-adv-x="826" d="M94 0v700h306q114 0 200-44t134-122 48-184q0-105-48-183.5T600 44 400 0H94zm130 110h170q79 0 136.5 30t89 84T651 350q0 73-31.5 126.5t-89 83.5T394 590H224V110zm154-313q-25 0-42.5 16T318-144t17.5 44T378-83t42.5-17 17.5-44-17.5-43-42.5-16z"/><glyph glyph-name="uni1E0D" unicode="ḍ" horiz-adv-x="687" d="M308-7q-77 0-138.5 34.5T73 123 38 267t35 144 96.5 95T308 540q67 0 120-29.5t84-89.5 31-154q0-93-30-153.5T430 23 308-7zm15 107q45 0 80.5 20t57 58 21.5 89q0 52-21.5 89.5t-57 57.5-80.5 20-80.5-20-57-57.5T164 267q0-51 21.5-89t57-58 80.5-20zM485 0v126l5 142-10 142v332h124V0H485zM354-203q-25 0-42.5 16T294-144t17.5 44T354-83t42.5-17 17.5-44-17.5-43-42.5-16z"/><glyph glyph-name="uni1E0E" unicode="Ḏ" horiz-adv-x="826" d="M94 0v700h306q114 0 200-44t134-122 48-184q0-105-48-183.5T600 44 400 0H94zm130 110h170q79 0 136.5 30t89 84T651 350q0 73-31.5 126.5t-89 83.5T394 590H224V110zm-19-288v74h346v-74H205z"/><glyph glyph-name="uni1E0F" unicode="ḏ" horiz-adv-x="687" d="M308-7q-77 0-138.5 34.5T73 123 38 267t35 144 96.5 95T308 540q67 0 120-29.5t84-89.5 31-154q0-93-30-153.5T430 23 308-7zm15 107q45 0 80.5 20t57 58 21.5 89q0 52-21.5 89.5t-57 57.5-80.5 20-80.5-20-57-57.5T164 267q0-51 21.5-89t57-58 80.5-20zM485 0v126l5 142-10 142v332h124V0H485zM181-178v74h346v-74H181z"/><glyph glyph-name="uni1E14" unicode="Ḕ" horiz-adv-x="670" d="M214 409h348V302H214v107zm10-300h395V0H94v700h511V591H224V109zm-46 667v70h346v-70H178zm155 133-152 117h134l114-117h-96z"/><glyph glyph-name="uni1E15" unicode="ḕ" horiz-adv-x="622" d="M333-7q-89 0-155.5 35.5T74.5 126 38 267q0 80 35.5 141.5t98 96.5T314 540q78 0 139-34t96-96 35-146q0-8-.5-18t-1.5-19H137v83h379l-49-26q1 46-19 81t-54.5 55-79.5 20q-46 0-80.5-20t-54-55.5T160 281v-20q0-48 22-85t62-57 92-20q45 0 81 14t64 44l67-77q-36-42-90.5-64.5T333-7zM138 626v70h346v-70H138zm155 133L141 876h134l114-117h-96z"/><glyph glyph-name="uni1E16" unicode="Ḗ" horiz-adv-x="670" d="M214 409h348V302H214v107zm10-300h395V0H94v700h511V591H224V109zm-46 667v70h346v-70H178zm96 133 114 117h134L370 909h-96z"/><glyph glyph-name="uni1E17" unicode="ḗ" horiz-adv-x="622" d="M333-7q-89 0-155.5 35.5T74.5 126 38 267q0 80 35.5 141.5t98 96.5T314 540q78 0 139-34t96-96 35-146q0-8-.5-18t-1.5-19H137v83h379l-49-26q1 46-19 81t-54.5 55-79.5 20q-46 0-80.5-20t-54-55.5T160 281v-20q0-48 22-85t62-57 92-20q45 0 81 14t64 44l67-77q-36-42-90.5-64.5T333-7zM138 626v70h346v-70H138zm96 133 114 117h134L330 759h-96z"/><glyph glyph-name="uni1E1C" unicode="Ḝ" horiz-adv-x="670" d="M214 409h348V302H214v107zm10-300h395V0H94v700h511V591H224V109zm106-337q-27 0-50 5.5T238-207l23 59q16-8 32.5-12t35.5-4q29 0 41 10t12 26q0 15-12.5 24T329-95h-31L325 7h68l-14-56q44-5 65.5-28.5T466-133q0-44-37-69.5T330-228zm21 978q-73 0-121.5 39T178 894h82q2-35 28-55t63-20 63.5 20 27.5 55h82q-3-66-51.5-105T351 750z"/><glyph glyph-name="uni1E1D" unicode="ḝ" horiz-adv-x="622" d="M333-7q-89 0-155.5 35.5T74.5 126 38 267q0 80 35.5 141.5t98 96.5T314 540q78 0 139-34t96-96 35-146q0-8-.5-18t-1.5-19H137v83h379l-49-26q1 46-19 81t-54.5 55-79.5 20q-46 0-80.5-20t-54-55.5T160 281v-20q0-48 22-85t62-57 92-20q45 0 81 14t64 44l67-77q-36-42-90.5-64.5T333-7zm-51-221q-27 0-50 5.5T190-207l23 59q16-8 32.5-12t35.5-4q29 0 41 10t12 26q0 15-12.5 24T281-95h-31L277 7h68l-14-56q44-5 65.5-28.5T418-133q0-44-37-69.5T282-228zm29 828q-73 0-121.5 39T138 744h82q2-35 28-55t63-20 63.5 20 27.5 55h82q-3-66-51.5-105T311 600z"/><glyph glyph-name="uni1E20" unicode="Ḡ" horiz-adv-x="772" d="M421-10q-82 0-150.5 26.5T151 91.5 72 206 44 350t28 144 79.5 114.5 120.5 75T423 710q89 0 160.5-29T704 596l-82-80q-41 41-88.5 60.5T429 596q-55 0-102-18t-81-51-52.5-78-18.5-99q0-53 18.5-98t52.5-78.5 80-51.5 102-18q52 0 100.5 16.5T621 176l74-97q-55-44-127.5-66.5T421-10zM572 96v262h123V79zM241 788v75h346v-75H241z"/><glyph glyph-name="uni1E21" unicode="ḡ" horiz-adv-x="694" d="M324-201q-74 0-144.5 19.5T64-125l56 94q35-29 88.5-46.5T317-95q88 0 129 40.5T487 67v95l10 121-4 121v130h119V81q0-145-74-213.5T324-201zM308 24q-76 0-137.5 32.5t-97 90.5T38 283q0 77 35.5 135t97 90T308 540q68 0 122-27t86.5-84T549 283t-32.5-146.5-86.5-85T308 24zm19 106q47 0 84 19.5t57.5 54T489 283t-20.5 79.5-57.5 53-84 18.5-84.5-18.5-58-53T164 283t20.5-79.5 58-54T327 130zM162 638v75h346v-75H162z"/><glyph glyph-name="uni1E24" unicode="Ḥ" horiz-adv-x="810" d="M586 700h130V0H586v700zM224 0H94v700h130V0zm372 300H213v111h383V300zM405-203q-25 0-42.5 16T345-144t17.5 44T405-83t42.5-17 17.5-44-17.5-43-42.5-16z"/><glyph glyph-name="uni1E25" unicode="ḥ" horiz-adv-x="685" d="M385 540q64 0 114.5-25t79.5-76.5T608 306V0H483v290q0 71-33.5 106T356 431q-44 0-78-18t-52.5-53.5T207 270V0H82v742h125V390l-27 44q28 51 81.5 78.5T385 540zm-40-743q-25 0-42.5 16T285-144t17.5 44T345-83t42.5-17 17.5-44-17.5-43-42.5-16z"/><glyph glyph-name="uni1E2A" unicode="Ḫ" horiz-adv-x="810" d="M586 700h130V0H586v700zM224 0H94v700h130V0zm372 300H213v111h383V300zM405-213q-73 0-121.5 37T232-77h78q0-33 27.5-52t67.5-19 67.5 19T500-77h78q-3-62-51.5-99T405-213z"/><glyph glyph-name="uni1E2B" unicode="ḫ" horiz-adv-x="685" d="M385 540q64 0 114.5-25t79.5-76.5T608 306V0H483v290q0 71-33.5 106T356 431q-44 0-78-18t-52.5-53.5T207 270V0H82v742h125V390l-27 44q28 51 81.5 78.5T385 540zm-40-753q-73 0-121.5 37T172-77h78q0-33 27.5-52t67.5-19 67.5 19T440-77h78q-3-62-51.5-99T345-213z"/><glyph glyph-name="uni1E2E" unicode="Ḯ" horiz-adv-x="319" d="M94 0v700h130V0H94zm160 768q-24 0-41 16.5T196 826t17 41.5 41 16.5q23 0 40.5-16.5T312 826t-17.5-41.5T254 768zm-189 0q-24 0-41 16.5T7 826t17 41.5T65 884q25 0 41.5-16.5T123 826t-16.5-41.5T65 768zm17 141 114 117h134L178 909H82z"/><glyph glyph-name="uni1E2F" unicode="ḯ" horiz-adv-x="289" d="M82 0v534h125V0H82zm158 618q-24 0-41 16.5T182 676t17 41.5 41 16.5q23 0 40.5-16.5T298 676t-17.5-41.5T240 618zm-189 0q-24 0-41 16.5T-7 676t17 41.5T51 734q25 0 41.5-16.5T109 676t-16.5-41.5T51 618zm17 141 114 117h134L164 759H68z"/><glyph glyph-name="uni1E36" unicode="Ḷ" horiz-adv-x="599" d="M94 0v700h130V110h366V0H94zm260-203q-25 0-42.5 16T294-144t17.5 44T354-83t42.5-17 17.5-44-17.5-43-42.5-16z"/><glyph glyph-name="uni1E37" unicode="ḷ" horiz-adv-x="289" d="M82 0v742h125V0H82zm63-203q-25 0-42.5 16T85-144t17.5 44T145-83t42.5-17 17.5-44-17.5-43-42.5-16z"/><glyph glyph-name="uni1E3A" unicode="Ḻ" horiz-adv-x="599" d="M94 0v700h130V110h366V0H94zm87-178v74h346v-74H181z"/><glyph glyph-name="uni1E3B" unicode="ḻ" horiz-adv-x="289" d="M82 0v742h125V0H82zM-28-178v74h346v-74H-28z"/><glyph glyph-name="uni1E42" unicode="Ṃ" horiz-adv-x="955" d="M94 0v700h107l306-511h-56l301 511h107l1-700H737l-1 507h26L506 80h-58L188 507h30V0H94zm383-203q-25 0-42.5 16T417-144t17.5 44T477-83t42.5-17 17.5-44-17.5-43-42.5-16z"/><glyph glyph-name="uni1E43" unicode="ṃ" horiz-adv-x="1053" d="M756 540q64 0 113.5-25t77.5-76.5T975 306V0H850v290q0 71-31 106t-89 35q-41 0-72.5-18t-49-53-17.5-89V0H466v290q0 71-31 106t-89 35q-41 0-72.5-18t-49-53-17.5-89V0H82v534h119V392l-21 42q27 52 78.5 79T376 540q75 0 130.5-37T580 391l-49 17q26 60 86 96t139 36zM528-203q-25 0-42.5 16T468-144t17.5 44T528-83t42.5-17 17.5-44-17.5-43-42.5-16z"/><glyph glyph-name="uni1E44" unicode="Ṅ" horiz-adv-x="810" d="M94 0v700h107l439-539h-53v539h129V0H609L170 539h53V0H94zm311 769q-31 0-51 20t-20 51 20 51 51 20q30 0 50.5-20t20.5-51-20.5-51-50.5-20z"/><glyph glyph-name="uni1E45" unicode="ṅ" horiz-adv-x="685" d="M385 540q64 0 114.5-25t79.5-76.5T608 306V0H483v290q0 71-33.5 106T356 431q-44 0-78-18t-52.5-53.5T207 270V0H82v534h119V390l-21 44q28 51 81.5 78.5T385 540zm-40 79q-31 0-51 20t-20 51 20 51 51 20q30 0 50.5-20t20.5-51-20.5-51-50.5-20z"/><glyph glyph-name="uni1E46" unicode="Ṇ" horiz-adv-x="810" d="M94 0v700h107l439-539h-53v539h129V0H609L170 539h53V0H94zm311-203q-25 0-42.5 16T345-144t17.5 44T405-83t42.5-17 17.5-44-17.5-43-42.5-16z"/><glyph glyph-name="uni1E47" unicode="ṇ" horiz-adv-x="685" d="M385 540q64 0 114.5-25t79.5-76.5T608 306V0H483v290q0 71-33.5 106T356 431q-44 0-78-18t-52.5-53.5T207 270V0H82v534h119V390l-21 44q28 51 81.5 78.5T385 540zm-40-743q-25 0-42.5 16T285-144t17.5 44T345-83t42.5-17 17.5-44-17.5-43-42.5-16z"/><glyph glyph-name="uni1E48" unicode="Ṉ" horiz-adv-x="810" d="M94 0v700h107l439-539h-53v539h129V0H609L170 539h53V0H94zm138-178v74h346v-74H232z"/><glyph glyph-name="uni1E49" unicode="ṉ" horiz-adv-x="685" d="M385 540q64 0 114.5-25t79.5-76.5T608 306V0H483v290q0 71-33.5 106T356 431q-44 0-78-18t-52.5-53.5T207 270V0H82v534h119V390l-21 44q28 51 81.5 78.5T385 540zM172-178v74h346v-74H172z"/><glyph glyph-name="uni1E4C" unicode="Ṍ" horiz-adv-x="842" d="M422-10q-82 0-151 27T151 92.5t-79 114T44 350t28 143.5 79 114T271 683t150 27q82 0 150.5-27T691 607.5t79-114T798 350t-28-144-79-114-119.5-75T422-10zm-1 114q53 0 98 18t78 51.5 51.5 78T667 350t-18.5 98.5-51.5 78-78 51.5-98 18-97.5-18-78-51.5-52-78T175 350q0-53 18.5-98t51.5-78.5 78-51.5 98-18zm73 654q-34 0-58 13.5t-43 27-37 13.5q-22 0-32.5-13T312 764h-68q1 54 29.5 84t76.5 30q33 0 56.5-13.5t43-26.5 38.5-13q21 0 32 12.5t12 34.5h66q-1-53-29-83.5T494 758zM344 909l114 117h134L440 909h-96z"/><glyph glyph-name="uni1E4D" unicode="ṍ" horiz-adv-x="645" d="M322-7q-82 0-146 35.5T75 126 38 267q0 80 37 141.5T176 505t146 35q83 0 147.5-35t101-96T607 267q0-79-36.5-141t-101-97.5T322-7zm0 107q46 0 82 20t56.5 58 20.5 89q0 52-20.5 89.5T404 414t-81 20q-46 0-81.5-20T185 356.5 164 267q0-51 21-89t56.5-58 80.5-20zm72 508q-34 0-58 13.5t-43 27-37 13.5q-22 0-32.5-13T212 614h-68q1 54 29.5 84t76.5 30q33 0 56.5-13.5t43-26.5 38.5-13q21 0 32 12.5t12 34.5h66q-1-53-29-83.5T394 608zM244 759l114 117h134L340 759h-96z"/><glyph glyph-name="uni1E4E" unicode="Ṏ" horiz-adv-x="842" d="M422-10q-82 0-151 27T151 92.5t-79 114T44 350t28 143.5 79 114T271 683t150 27q82 0 150.5-27T691 607.5t79-114T798 350t-28-144-79-114-119.5-75T422-10zm-1 114q53 0 98 18t78 51.5 51.5 78T667 350t-18.5 98.5-51.5 78-78 51.5-98 18-97.5-18-78-51.5-52-78T175 350q0-53 18.5-98t51.5-78.5 78-51.5 98-18zm73 654q-34 0-58 13.5t-43 27-37 13.5q-22 0-32.5-13T312 764h-68q1 54 29.5 84t76.5 30q33 0 56.5-13.5t43-26.5 38.5-13q21 0 32 12.5t12 34.5h66q-1-53-29-83.5T494 758zm22 162q-24 0-41 16.5T458 978t17 41.5 41 16.5q23 0 40.5-16.5T574 978t-17.5-41.5T516 920zm-189 0q-24 0-41 16.5T269 978t17 41.5 41 16.5q25 0 41.5-16.5T385 978t-16.5-41.5T327 920z"/><glyph glyph-name="uni1E4F" unicode="ṏ" horiz-adv-x="645" d="M322-7q-82 0-146 35.5T75 126 38 267q0 80 37 141.5T176 505t146 35q83 0 147.5-35t101-96T607 267q0-79-36.5-141t-101-97.5T322-7zm0 107q46 0 82 20t56.5 58 20.5 89q0 52-20.5 89.5T404 414t-81 20q-46 0-81.5-20T185 356.5 164 267q0-51 21-89t56.5-58 80.5-20zm72 508q-34 0-58 13.5t-43 27-37 13.5q-22 0-32.5-13T212 614h-68q1 54 29.5 84t76.5 30q33 0 56.5-13.5t43-26.5 38.5-13q21 0 32 12.5t12 34.5h66q-1-53-29-83.5T394 608zm22 162q-24 0-41 16.5T358 828t17 41.5 41 16.5q23 0 40.5-16.5T474 828t-17.5-41.5T416 770zm-189 0q-24 0-41 16.5T169 828t17 41.5 41 16.5q25 0 41.5-16.5T285 828t-16.5-41.5T227 770z"/><glyph glyph-name="uni1E50" unicode="Ṑ" horiz-adv-x="842" d="M422-10q-82 0-151 27T151 92.5t-79 114T44 350t28 143.5 79 114T271 683t150 27q82 0 150.5-27T691 607.5t79-114T798 350t-28-144-79-114-119.5-75T422-10zm-1 114q53 0 98 18t78 51.5 51.5 78T667 350t-18.5 98.5-51.5 78-78 51.5-98 18-97.5-18-78-51.5-52-78T175 350q0-53 18.5-98t51.5-78.5 78-51.5 98-18zM248 776v70h346v-70H248zm155 133-152 117h134l114-117h-96z"/><glyph glyph-name="uni1E51" unicode="ṑ" horiz-adv-x="645" d="M322-7q-82 0-146 35.5T75 126 38 267q0 80 37 141.5T176 505t146 35q83 0 147.5-35t101-96T607 267q0-79-36.5-141t-101-97.5T322-7zm0 107q46 0 82 20t56.5 58 20.5 89q0 52-20.5 89.5T404 414t-81 20q-46 0-81.5-20T185 356.5 164 267q0-51 21-89t56.5-58 80.5-20zM148 626v70h346v-70H148zm155 133L151 876h134l114-117h-96z"/><glyph glyph-name="uni1E52" unicode="Ṓ" horiz-adv-x="842" d="M422-10q-82 0-151 27T151 92.5t-79 114T44 350t28 143.5 79 114T271 683t150 27q82 0 150.5-27T691 607.5t79-114T798 350t-28-144-79-114-119.5-75T422-10zm-1 114q53 0 98 18t78 51.5 51.5 78T667 350t-18.5 98.5-51.5 78-78 51.5-98 18-97.5-18-78-51.5-52-78T175 350q0-53 18.5-98t51.5-78.5 78-51.5 98-18zM248 776v70h346v-70H248zm96 133 114 117h134L440 909h-96z"/><glyph glyph-name="uni1E53" unicode="ṓ" horiz-adv-x="645" d="M322-7q-82 0-146 35.5T75 126 38 267q0 80 37 141.5T176 505t146 35q83 0 147.5-35t101-96T607 267q0-79-36.5-141t-101-97.5T322-7zm0 107q46 0 82 20t56.5 58 20.5 89q0 52-20.5 89.5T404 414t-81 20q-46 0-81.5-20T185 356.5 164 267q0-51 21-89t56.5-58 80.5-20zM148 626v70h346v-70H148zm96 133 114 117h134L340 759h-96z"/><glyph glyph-name="uni1E5A" unicode="Ṛ" horiz-adv-x="731" d="M94 0v700h288q93 0 159.5-30T644 584t36-133-36-132.5-102.5-85T382 204H166l58 59V0H94zm458 0L375 254h139L692 0H552zM224 249l-58 62h210q86 0 129.5 37T549 451q0 67-43.5 103T376 590H166l58 64V249zm149-452q-25 0-42.5 16T313-144t17.5 44T373-83t42.5-17 17.5-44-17.5-43-42.5-16z"/><glyph glyph-name="uni1E5B" unicode="ṛ" horiz-adv-x="420" d="M82 0v534h119V387l-14 43q24 54 75.5 82T391 540V421q-8 2-15 2.5t-14 .5q-71 0-113-41.5T207 259V0H82zm63-203q-25 0-42.5 16T85-144t17.5 44T145-83t42.5-17 17.5-44-17.5-43-42.5-16z"/><glyph glyph-name="uni1E5E" unicode="Ṟ" horiz-adv-x="731" d="M94 0v700h288q93 0 159.5-30T644 584t36-133-36-132.5-102.5-85T382 204H166l58 59V0H94zm458 0L375 254h139L692 0H552zM224 249l-58 62h210q86 0 129.5 37T549 451q0 67-43.5 103T376 590H166l58 64V249zm-24-427v74h346v-74H200z"/><glyph glyph-name="uni1E5F" unicode="ṟ" horiz-adv-x="420" d="M82 0v534h119V387l-14 43q24 54 75.5 82T391 540V421q-8 2-15 2.5t-14 .5q-71 0-113-41.5T207 259V0H82zM-28-178v74h346v-74H-28z"/><glyph glyph-name="uni1E60" unicode="Ṡ" horiz-adv-x="629" d="M311-10q-82 0-157 23.5T35 74l45 101q42-33 104-55t127-22q55 0 89 12t50 32.5 16 46.5q0 32-23 51.5t-59.5 31-81 21.5-89 23.5-81 35T73 409t-23 92q0 57 30.5 104.5t93 76T332 710q63 0 125-16t108-46l-41-101q-47 28-97 41.5T331 602q-54 0-87.5-13t-49-34-15.5-48q0-32 22.5-51.5t59-30.5 81.5-21.5 89.5-23.5 81-34 59-57 22.5-91q0-56-30.5-103.5t-93.5-76T311-10zm13 779q-31 0-51 20t-20 51 20 51 51 20q30 0 50.5-20t20.5-51-20.5-51-50.5-20z"/><glyph glyph-name="uni1E61" unicode="ṡ" horiz-adv-x="515" d="M247-7q-67 0-128.5 17.5T21 53l48 95q36-23 86-38t100-15q59 0 85.5 16t26.5 43q0 22-18 33.5T302 205t-64.5 11-71 13.5-64.5 25T55 299t-18 74q0 51 29 88.5t81.5 58T272 540q54 0 109-12t91-34l-48-95q-38 23-76.5 31.5T271 439q-57 0-84.5-17T159 379q0-24 18-36t47-19 64.5-11.5T359 299t64.5-24.5T471 231t18-73q0-50-29.5-87T376 13.5 247-7zm7 626q-31 0-51 20t-20 51 20 51 51 20q30 0 50.5-20t20.5-51-20.5-51-50.5-20z"/><glyph glyph-name="uni1E62" unicode="Ṣ" horiz-adv-x="629" d="M311-10q-82 0-157 23.5T35 74l45 101q42-33 104-55t127-22q55 0 89 12t50 32.5 16 46.5q0 32-23 51.5t-59.5 31-81 21.5-89 23.5-81 35T73 409t-23 92q0 57 30.5 104.5t93 76T332 710q63 0 125-16t108-46l-41-101q-47 28-97 41.5T331 602q-54 0-87.5-13t-49-34-15.5-48q0-32 22.5-51.5t59-30.5 81.5-21.5 89.5-23.5 81-34 59-57 22.5-91q0-56-30.5-103.5t-93.5-76T311-10zm13-193q-25 0-42.5 16T264-144t17.5 44T324-83t42.5-17 17.5-44-17.5-43-42.5-16z"/><glyph glyph-name="uni1E63" unicode="ṣ" horiz-adv-x="515" d="M247-7q-67 0-128.5 17.5T21 53l48 95q36-23 86-38t100-15q59 0 85.5 16t26.5 43q0 22-18 33.5T302 205t-64.5 11-71 13.5-64.5 25T55 299t-18 74q0 51 29 88.5t81.5 58T272 540q54 0 109-12t91-34l-48-95q-38 23-76.5 31.5T271 439q-57 0-84.5-17T159 379q0-24 18-36t47-19 64.5-11.5T359 299t64.5-24.5T471 231t18-73q0-50-29.5-87T376 13.5 247-7zm7-196q-25 0-42.5 16T194-144t17.5 44T254-83t42.5-17 17.5-44-17.5-43-42.5-16z"/><glyph glyph-name="uni1E64" unicode="Ṥ" horiz-adv-x="629" d="M311-10q-82 0-157 23.5T35 74l45 101q42-33 104-55t127-22q55 0 89 12t50 32.5 16 46.5q0 32-23 51.5t-59.5 31-81 21.5-89 23.5-81 35T73 409t-23 92q0 57 30.5 104.5t93 76T332 710q63 0 125-16t108-46l-41-101q-47 28-97 41.5T331 602q-54 0-87.5-13t-49-34-15.5-48q0-32 22.5-51.5t59-30.5 81.5-21.5 89.5-23.5 81-34 59-57 22.5-91q0-56-30.5-103.5t-93.5-76T311-10zm-64 767 114 117h134L343 757h-96zm77 162q-25 0-42.5 16.5T264 979t17.5 43.5T324 1039t42.5-16.5T384 979t-17.5-43.5T324 919z"/><glyph glyph-name="uni1E65" unicode="ṥ" horiz-adv-x="515" d="M247-7q-67 0-128.5 17.5T21 53l48 95q36-23 86-38t100-15q59 0 85.5 16t26.5 43q0 22-18 33.5T302 205t-64.5 11-71 13.5-64.5 25T55 299t-18 74q0 51 29 88.5t81.5 58T272 540q54 0 109-12t91-34l-48-95q-38 23-76.5 31.5T271 439q-57 0-84.5-17T159 379q0-24 18-36t47-19 64.5-11.5T359 299t64.5-24.5T471 231t18-73q0-50-29.5-87T376 13.5 247-7zm-70 614 114 117h134L273 607h-96zm77 162q-25 0-42.5 16.5T194 829t17.5 43.5T254 889t42.5-16.5T314 829t-17.5-43.5T254 769z"/><glyph glyph-name="uni1E66" unicode="Ṧ" horiz-adv-x="629" d="M311-10q-82 0-157 23.5T35 74l45 101q42-33 104-55t127-22q55 0 89 12t50 32.5 16 46.5q0 32-23 51.5t-59.5 31-81 21.5-89 23.5-81 35T73 409t-23 92q0 57 30.5 104.5t93 76T332 710q63 0 125-16t108-46l-41-101q-47 28-97 41.5T331 602q-54 0-87.5-13t-49-34-15.5-48q0-32 22.5-51.5t59-30.5 81.5-21.5 89.5-23.5 81-34 59-57 22.5-91q0-56-30.5-103.5t-93.5-76T311-10zm-43 767L133 864h104l134-85h-94l134 85h104L380 757H268zm56 139q-25 0-42.5 16.5T264 956t17.5 43.5T324 1016t42.5-16.5T384 956t-17.5-43.5T324 896z"/></font>
</defs>
</svg>
