<svg xmlns="http://www.w3.org/2000/svg"><defs><font id="MontserratMedium" horiz-adv-x="0"><font-face font-family="MontserratMedium" font-weight="500" ascent="800" descent="-200" x-height="530" cap-height="700" bbox="-190 -263 1613 1053" underline-thickness="50" underline-position="-125" unicode-range="U+000D-FB02"/><glyph glyph-name="fi" unicode="fi" horiz-adv-x="632" d="M105 0v577q0 78 45.5 124.5T280 748q31 0 59.5-7.5T388 717l-29-73q-15 12-34 18.5t-40 6.5q-42 0-64-23.5T199 576v-71l2-44V0h-96zM15 451v79h338v-79H15zM444 0v530h96V0h-96zm48 632q-28 0-46.5 18T427 694q0 27 18.5 45t46.5 18 46.5-17.5T557 696q0-27-18-45.5T492 632z"/><glyph glyph-name="fl" unicode="fl" horiz-adv-x="632" d="M105 0v577q0 78 45.5 124.5T280 748q31 0 59.5-7.5T388 717l-29-73q-15 12-34 18.5t-40 6.5q-42 0-64-23.5T199 576v-71l2-44V0h-96zM15 451v79h338v-79H15zM444 0v742h96V0h-96z"/><glyph glyph-name=".notdef" horiz-adv-x="587" d="M40 0v700h507V0H40zm80 70h347v560H120V70z"/><glyph glyph-name=".null"/><glyph glyph-name="nonmarkingreturn" horiz-adv-x="333"/><glyph glyph-name="NULL"/><glyph glyph-name="NULL"/><glyph glyph-name="CR" horiz-adv-x="269"/><glyph glyph-name="space" horiz-adv-x="269"/><glyph glyph-name="exclam" unicode="!" horiz-adv-x="268" d="M96 221 78 700h113l-19-479H96zM135-6q-28 0-47 19T69 58q0 28 19 46t47 18 46-18 18-46q0-26-18-45T135-6z"/><glyph glyph-name="quotedbl" unicode="&quot;" horiz-adv-x="391" d="m69 430-6 270h84l-7-270H69zm181 0-6 270h84l-7-270h-71z"/><glyph glyph-name="numbersign" unicode="#" horiz-adv-x="703" d="m403 0 86 700h71L474 0h-71zM27 180v73h617v-73H27zM143 0l87 700h71L214 0h-71zM59 447v73h617v-73H59z"/><glyph glyph-name="dollar" unicode="$" horiz-adv-x="621" d="M284-120v940h64v-940h-64zM309-8q-80 0-153 24.5T41 80l37 78q40-35 102-58t129-23q61 0 99 14t56 38.5 18 55.5q0 36-23.5 58t-61 35.5T315 302t-90.5 23.5-83 34.5T81 416.5 58 508q0 54 28.5 99.5t88 73T326 708q61 0 121-16t104-46l-33-80q-45 30-95 43.5T326 623q-59 0-97-15t-55.5-40-17.5-56q0-37 23.5-59t61-35 82.5-23.5 90.5-23.5 83-34 60.5-56 23-90q0-53-29-98.5t-89.5-73T309-8z"/><glyph glyph-name="percent" unicode="%" horiz-adv-x="843" d="m144 0 478 700h77L221 0h-77zm56 324q-48 0-85 24t-57.5 67T37 515t20.5 100 57.5 67 85 24q49 0 85.5-24t56.5-67 20-100-20-100-56.5-67-85.5-24zm0 57q46 0 72 35.5t26 98.5-26 98.5-72 35.5q-45 0-71.5-35.5T102 515q0-62 26.5-98t71.5-36zM643-6q-48 0-85 24t-57 67-20 100 20 100 57 67 85 24q49 0 85.5-24t57-67T806 185 785.5 85t-57-67T643-6zm0 57q45 0 71.5 35.5T741 185q0 62-26.5 98T643 319t-71.5-35.5T545 185t26.5-98.5T643 51z"/><glyph glyph-name="ampersand" unicode="&amp;" horiz-adv-x="686" d="M290-8q-71 0-126 23T77 79t-32 95q0 47 21 86t67 75.5T254 411q61 32 95.5 56t49 45.5T413 559q0 34-24 55.5T320 636q-47 0-73.5-23.5T220 551q0-19 6.5-36.5t24-39T301 421L671 53l-54-64-393 391q-35 35-55 62.5T140 496t-9 53q0 47 23.5 82.5t66 55T320 706q53 0 92-17.5t60.5-50T494 560q0-40-19.5-74T412 420t-116-69q-60-31-94-57.5T153.5 241 139 184q0-33 19.5-58.5t55-39.5T296 72q67 0 121 29t90.5 87T561 332l77-25q-20-101-68.5-171T450 29 290-8z"/><glyph glyph-name="quotesingle" unicode="'" horiz-adv-x="210" d="m69 430-6 270h84l-7-270H69z"/><glyph glyph-name="parenleft" unicode="(" horiz-adv-x="337" d="M214-194q-57 91-88 210.5T95 274t31 258.5T214 742h91q-60-106-88-221.5T189 274t28-246.5T305-194h-91z"/><glyph glyph-name="parenright" unicode=")" horiz-adv-x="338" d="M123-194H32Q93-88 121 27.5T149 274t-28 246.5T32 742h91q59-89 89.5-209.5T243 274 212.5 16.5 123-194z"/><glyph glyph-name="asterisk" unicode="*" horiz-adv-x="400" d="m381 622-136-76v19l136-76-31-55-132 77 11 7 1-149h-60l1 149 11-7-132-77-31 55 137 76v-19L19 622l31 56 132-78-11-7-1 149h60l-1-149-11 7 132 78z"/><glyph glyph-name="plus" unicode="+" horiz-adv-x="582" d="M249 131v438h84V131h-84zM67 310v79h448v-79H67z"/><glyph glyph-name="comma" unicode="," horiz-adv-x="227" d="m53-148 50 202 13-58Q87-4 67.5 14T48 63q0 30 19.5 49t47.5 19q29 0 47-19.5T180 63q0-10-1.5-19.5t-5-22T163-9l-47-139H53z"/><glyph glyph-name="hyphen" unicode="-" horiz-adv-x="383" d="M57 233v83h269v-83H57z"/><glyph glyph-name="period" unicode="." horiz-adv-x="227" d="M114-6Q86-6 66 13.5T46 63t20 49 48 19q27 0 46.5-19T180 63t-19.5-49.5T114-6z"/><glyph glyph-name="slash" unicode="/" horiz-adv-x="352" d="m-28-100 330 942h87L59-100h-87z"/><glyph glyph-name="zero" unicode="0" horiz-adv-x="667" d="M334-8q-82 0-146.5 42t-102 122T48 350t37.5 194 102 122T334 708q81 0 146-42t102-122 37-194-37-194T480 34 334-8zm0 89q55 0 96.5 30t65 90T519 350t-23.5 149-65 90-96.5 30-97-30-65.5-90T148 350t23.5-149 65.5-90 97-30z"/><glyph glyph-name="one" unicode="1" horiz-adv-x="370" d="M166 0v660l43-47H8v87h257V0h-99z"/><glyph glyph-name="two" unicode="2" horiz-adv-x="574" d="M37 0v68l285 275q38 36 56.5 63.5t25 51T410 503q0 54-38 85t-111 31q-56 0-101-18.5T82 543l-68 59q40 51 107.5 78.5T270 708q73 0 127-23.5t83.5-67.5T510 513q0-34-9-67t-34-70-72-83L141 48l-24 39h423V0H37z"/><glyph glyph-name="three" unicode="3" horiz-adv-x="572" d="M262-8q-74 0-143.5 23T5 77l46 79q35-33 91-54t120-21q78 0 121.5 33.5T427 205q0 55-41.5 88.5T254 327h-56v70l208 256 14-40H37v87h462v-68L292 377l-52 31h33q127 0 190.5-57T527 206q0-59-29-108t-87.5-77.5T262-8z"/><glyph glyph-name="four" unicode="4" horiz-adv-x="669" d="M38 172v70l358 458h108L149 242l-51 16h559v-86H38zM427 0v172l3 86v152h94V0h-97z"/><glyph glyph-name="five" unicode="5" horiz-adv-x="574" d="M274-8q-74 0-143.5 23T17 77l46 79q35-33 91-54t119-21q80 0 123 34t43 91q0 39-19 68t-65.5 44.5T227 334H68l37 366h395v-87H142l52 49-29-289-52 48h135q105 0 169-27t93-74.5T539 210q0-60-29-109.5t-87.5-79T274-8z"/><glyph glyph-name="six" unicode="6" horiz-adv-x="617" d="M342-8q-93 0-159 41T82.5 151.5 48 341q0 119 42 201t117 124 172 42q50 0 95.5-10t78.5-31l-38-78q-27 19-61.5 26t-72.5 7q-107 0-170-66.5T148 358q0-21 2-50t10-57l-34 34q15 46 47.5 77.5t78 47T350 425q70 0 124-26t85-73.5T590 213q0-67-33-117t-89-77T342-8zm-4 81q46 0 80.5 17t54.5 47.5 20 71.5q0 62-43 98.5T333 344q-48 0-84-18t-56.5-48.5T172 208q0-36 19-66.5T247 92t91-19z"/><glyph glyph-name="seven" unicode="7" horiz-adv-x="598" d="m169 0 297 658 26-45H76l50 49V488H30v212h528v-68L275 0H169z"/><glyph glyph-name="eight" unicode="8" horiz-adv-x="644" d="M321-8q-85 0-147 25T78 88.5 44 198q0 62 32.5 105.5t94.5 66T321 392t150.5-22.5T567 303t33-105q0-63-34-109.5T469 17 321-8zm0 81q84 0 131.5 34.5T500 201q0 58-47.5 91.5T321 326q-83 0-130-33.5T144 201q0-59 47-93.5T321 73zm0 265q-80 0-136 21.5t-86 62T69 518q0 59 31.5 101.5T189 685t132 23q76 0 133-23t89-65.5T575 518q0-56-30-96.5t-87-62T321 338zm0 64q73 0 114.5 30t41.5 82q0 53-43 83t-113 30-111.5-30-41.5-83q0-52 40.5-82T321 402z"/><glyph glyph-name="nine" unicode="9" horiz-adv-x="617" d="M275 708q95 0 160.5-41T535 548.5 569 359q0-119-42-201T411 34 238-8q-49 0-94.5 10T64 33l38 78q28-18 62.5-25.5T237 78q106 0 169 66.5T469 342q0 21-2 50t-9 57l33-34q-14-46-46.5-77.5t-78-47T267 275q-69 0-123 26t-85 73.5T28 487q0 68 32.5 117.5t89 76.5T275 708zm4-81q-45 0-80-17t-54.5-47-19.5-72q0-62 43-98.5T284 356q48 0 84.5 18t57 49 20.5 69q0 37-19 67t-56 49-92 19z"/><glyph glyph-name="colon" unicode=":" horiz-adv-x="227" d="M114 398q-28 0-48 19.5T46 467t20 49 48 19q27 0 46.5-19t19.5-49-19.5-49.5T114 398zm0-404Q86-6 66 13.5T46 63t20 49 48 19q27 0 46.5-19T180 63t-19.5-49.5T114-6z"/><glyph glyph-name="semicolon" unicode=";" horiz-adv-x="227" d="M114 398q-28 0-48 19.5T46 467t20 49 48 19q27 0 46.5-19t19.5-49-19.5-49.5T114 398zM53-148l50 202 13-58Q87-4 67.5 14T48 63q0 30 19.5 49t47.5 19q29 0 47-19.5T180 63q0-10-1.5-19.5t-5-22T163-9l-47-139H53z"/><glyph glyph-name="less" unicode="&lt;" horiz-adv-x="582" d="M515 130 67 307v86l448 177v-83L100 327v46l415-160v-83z"/><glyph glyph-name="equal" unicode="=" horiz-adv-x="582" d="M67 429v79h448v-79H67zm0-237v79h448v-79H67z"/><glyph glyph-name="greater" unicode="&gt;" horiz-adv-x="582" d="M67 130v83l416 160v-46L67 487v83l448-177v-86z"/><glyph glyph-name="question" unicode="?" horiz-adv-x="573" d="M228 221q0 39 13 68t32.5 52 42.5 42.5 43 39 32.5 41.5 12.5 51q0 48-38 78t-105 30q-60 0-104-20t-75-59L9 596q42 53 107 82.5T268 708q72 0 125-21.5t82.5-61T505 530q0-42-13-72t-33-53-42.5-43-42.5-40-33-44-13-57H228zM279-6q-28 0-46.5 19T214 58q0 28 18.5 46t46.5 18 46-18 18-46q0-26-18-45T279-6z"/><glyph glyph-name="at" unicode="@" horiz-adv-x="1034" d="M516-202q-104 0-190 34T178-73 82 71.5 48 254t34 182 96.5 144T328 674t192 33q103 0 188-32t147.5-90.5 96.5-139T986 268q0-85-21-146t-60.5-94.5T808-6q-56 0-89.5 34T685 125v68l5 61-9 115v133h87V142q0-40 16.5-56T825 70q29 0 50.5 23t32 67.5T918 267q0 84-28.5 152.5t-82 118.5-126 76.5T520 641t-162.5-28.5-126.5-80T149.5 410 121 254q0-86 28-157.5t80.5-123 125-80T516-135q46 0 97 10.5T709-91l22-64q-46-23-104-35t-111-12zM498-6q-71 0-126 33.5T285 119t-32 132q0 75 32 132.5t87 90T498 506q69 0 121-29.5t81.5-86.5T730 251t-29-139-81-87.5T498-6zm14 78q49 0 87.5 21.5t61 62T683 251q0 56-22.5 96t-61 61-87.5 21q-50 0-88.5-21.5t-60-61.5-21.5-95q0-54 21.5-94t60-62.5T512 72z"/><glyph glyph-name="A" unicode="A" horiz-adv-x="732" d="m-1 0 317 700h99L733 0H628L345 644h40L102 0H-1zm135 175 27 80h394l29-80H134z"/><glyph glyph-name="B" unicode="B" horiz-adv-x="757" d="M105 0v700h314q121 0 186-48.5T670 519q0-57-25.5-96T576 363t-93-21l18 30q60 0 106-21t73-61.5T707 189q0-90-67.5-139.5T439 0H105zm100 81h230q83 0 127 28t44 88q0 61-44 89t-127 28H196v81h214q76 0 118 28t42 84-42 84-118 28H205V81z"/><glyph glyph-name="C" unicode="C" horiz-adv-x="723" d="M418-8q-80 0-147.5 26.5t-117 75T76 207 48 350t28 143 78 113.5 117.5 75T419 708q81 0 149.5-27.5T685 599l-65-63q-40 42-90 62.5T423 619q-59 0-109.5-20T226 543t-57.5-85.5T148 350t20.5-107.5T226 157t87.5-56T423 81q57 0 107 20.5t90 63.5l65-63q-48-54-116.5-82T418-8z"/><glyph glyph-name="D" unicode="D" horiz-adv-x="826" d="M105 0v700h295q112 0 197.5-44t133-123T778 350t-47.5-183-133-123T400 0H105zm100 87h189q87 0 150.5 33t98.5 92.5T678 350q0 79-35 138t-98.5 92T394 613H205V87z"/><glyph glyph-name="E" unicode="E" horiz-adv-x="670" d="M196 398h360v-85H196v85zm9-311h408V0H105v700h494v-87H205V87z"/><glyph glyph-name="F" unicode="F" horiz-adv-x="635" d="M195 369h361v-86H195v86zM205 0H105v700h494v-87H205V0z"/><glyph glyph-name="G" unicode="G" horiz-adv-x="772" d="M421-8q-81 0-149 26.5t-118 75T76 207 48 350t28 143 78.5 113.5 118.5 75T423 708q83 0 152-27t117-81l-62-62q-43 42-93.5 61.5T427 619q-60 0-111.5-20t-89-56-58-85.5T148 350q0-57 20.5-106.5t58-86T315 101t111-20q56 0 107.5 17.5T629 157l57-76q-52-44-121.5-66.5T421-8zM590 94v260h96V81z"/><glyph glyph-name="H" unicode="H" horiz-adv-x="812" d="M607 700h100V0H607v700zM205 0H105v700h100V0zm411 312H195v87h421v-87z"/><glyph glyph-name="I" unicode="I" horiz-adv-x="310" d="M105 0v700h100V0H105z"/><glyph glyph-name="J" unicode="J" horiz-adv-x="513" d="M195-8Q133-8 79 18T-9 93l58 68q29-40 65.5-61.5T195 78q120 0 120 142v393H62v87h352V225q0-117-55.5-175T195-8z"/><glyph glyph-name="K" unicode="K" horiz-adv-x="719" d="m193 169-5 122 397 409h114L392 376l-56-62zM105 0v700h100V0H105zm496 0L314 334l67 74L718 0H601z"/><glyph glyph-name="L" unicode="L" horiz-adv-x="594" d="M105 0v700h100V87h379V0H105z"/><glyph glyph-name="M" unicode="M" horiz-adv-x="955" d="M105 0v700h82l314-529h-44l310 529h82l1-700h-96l-1 549h23L500 85h-46L176 549h25V0h-96z"/><glyph glyph-name="N" unicode="N" horiz-adv-x="812" d="M105 0v700h82l463-575h-43v575h100V0h-82L162 575h43V0H105z"/><glyph glyph-name="O" unicode="O" horiz-adv-x="840" d="M421-8q-80 0-148.5 27T154 94.5 76 208 48 350t28 142 78 113.5T272 681t149 27q80 0 147.5-26.5t118-75 78-113.5T792 350t-27.5-143-78-113.5-118-75T421-8zm0 89q58 0 107.5 20t86 56.5 57 85.5T692 350t-20.5 107-57 85.5-86 56.5T421 619q-59 0-108.5-20T226 542.5 168.5 457 148 350t20.5-107 57.5-85.5 86.5-56.5T421 81z"/><glyph glyph-name="P" unicode="P" horiz-adv-x="722" d="M105 0v700h273q92 0 157-29t100-84 35-131-35-130.5-100-84T378 212H160l45 47V0H105zm100 249-45 50h215q96 0 145.5 41T570 456t-49.5 116T375 613H160l45 50V249z"/><glyph glyph-name="Q" unicode="Q" horiz-adv-x="840" d="M421-8q-80 0-148.5 27T154 94.5 76 208 48 350t28 142 78 113.5T272 681t149 27q80 0 147.5-26.5t118-75 78-113.5T792 350t-27.5-143-78-113.5-118-75T421-8zm229-138q-35 0-67 8.5t-64 27-66 48T379 10l107 28q30-37 57.5-60.5t54.5-34T651-67q75 0 128 60l47-57q-68-82-176-82zM421 81q58 0 107.5 20t86 57 57 86T692 350q0 58-20.5 107t-57 85.5-86 56.5T421 619q-59 0-108.5-20T226 542.5 168.5 457 148 350q0-57 20.5-106t57.5-86 86.5-57T421 81z"/><glyph glyph-name="R" unicode="R" horiz-adv-x="727" d="M105 0v700h273q92 0 157-29t100-84 35-131-35-130.5T535 242t-157-29H160l45 46V0H105zm468 0L395 254h107L682 0H573zM205 249l-45 49h215q96 0 145.5 41.5T570 456t-49.5 116T375 613H160l45 50V249z"/><glyph glyph-name="S" unicode="S" horiz-adv-x="621" d="M309-8q-80 0-153 24.5T41 80l37 78q40-35 102-58t129-23q61 0 99 14t56 38.5 18 55.5q0 36-23.5 58t-61 35.5T315 302t-90.5 23.5-83 34.5T81 416.5 58 508q0 54 28.5 99.5t88 73T326 708q61 0 121-16t104-46l-33-80q-45 30-95 43.5T326 623q-59 0-97-15t-55.5-40-17.5-56q0-37 23.5-59t61-35 82.5-23.5 90.5-23.5 83-34 60.5-56 23-90q0-53-29-98.5t-89.5-73T309-8z"/><glyph glyph-name="T" unicode="T" horiz-adv-x="587" d="M244 0v613H4v87h579v-87H343V0h-99z"/><glyph glyph-name="U" unicode="U" horiz-adv-x="791" d="M395-8Q257-8 178 71T99 302v398h100V306q0-117 51.5-171T396 81q95 0 146.5 54T594 306v394h97V302q0-152-78.5-231T395-8z"/><glyph glyph-name="V" unicode="V" horiz-adv-x="712" d="M307 0-1 700h108L390 54h-62l285 646h100L406 0h-99z"/><glyph glyph-name="W" unicode="W" horiz-adv-x="1126" d="M266 0 32 700h103L350 54h-52l223 646h92L831 54h-50l218 646h95L860 0H755L551 599h27L373 0H266z"/><glyph glyph-name="X" unicode="X" horiz-adv-x="673" d="m13 0 291 397v-77L29 700h114l218-299-45-1 217 300h109L369 326v72L660 0H545L313 319h44L128 0H13z"/><glyph glyph-name="Y" unicode="Y" horiz-adv-x="647" d="M274 0v268l23-62L-4 700h107l253-417h-58l254 417h99L351 206l22 62V0h-99z"/><glyph glyph-name="Z" unicode="Z" horiz-adv-x="657" d="M43 0v68l471 584 11-39H50v87h565v-68L146 48l-12 39h494V0H43z"/><glyph glyph-name="bracketleft" unicode="[" horiz-adv-x="333" d="M105-194v936h209v-79H201v-778h113v-79H105z"/><glyph glyph-name="backslash" unicode="\" horiz-adv-x="352" d="M379-100h-87L-38 842h87z"/><glyph glyph-name="bracketright" unicode="]" horiz-adv-x="333" d="M228-194H19v79h113v778H19v79h209v-936z"/><glyph glyph-name="asciicircum" unicode="^" horiz-adv-x="583" d="m75 142 177 416h80l176-416h-77L271 528h41L152 142H75z"/><glyph glyph-name="underscore" unicode="_" horiz-adv-x="500" d="M0-62V0h500v-62H0z"/><glyph glyph-name="grave" unicode="`" horiz-adv-x="600" d="M285 607 117 737h122l136-130h-90z"/><glyph glyph-name="a" unicode="a" horiz-adv-x="598" d="M420 0v112l-5 21v191q0 61-35.5 94.5T273 452q-47 0-92-15.5T105 395l-40 72q41 33 98.5 50.5T284 535q109 0 168-53t59-162V0h-91zM246-6q-59 0-103.5 20T74 69.5 50 150q0 43 20.5 78t67 56T263 305h168v-69H267q-72 0-97-24t-25-58q0-39 31-62.5T262 68q54 0 94.5 24t58.5 70l19-66q-19-47-67-74.5T246-6z"/><glyph glyph-name="b" unicode="b" horiz-adv-x="682" d="M372-6q-68 0-122.5 30.5t-86 90.5T132 265t32.5 150 87 90T372 535q78 0 138-34t95-94.5T640 265t-35-142-95-95T372-6zM91 0v742h96V389l-10-123 6-123V0H91zm273 78q51 0 91.5 23t64 65.5T543 265q0 57-23.5 98.5t-64 64.5-91.5 23q-50 0-90.5-23t-64-64.5T186 265q0-56 23.5-98.5t64-65.5T364 78z"/><glyph glyph-name="c" unicode="c" horiz-adv-x="571" d="M322-6q-81 0-144.5 35T78 125 42 265t36 140 99.5 95.5T322 535q72 0 128.5-28.5T538 422l-73-47q-26 39-63.5 57.5T321 451q-52 0-93-23t-65-64.5-24-98.5 24-99 65-65 93-23q43 0 80.5 18.5T465 154l73-46q-31-55-87.5-84.5T322-6z"/><glyph glyph-name="d" unicode="d" horiz-adv-x="682" d="M310-6q-77 0-137.5 34T77 123 42 265t35 141.5 95.5 94.5T310 535q67 0 121-30t86.5-90T550 265t-31.5-150T433 24.5 310-6zm8 84q50 0 90.5 23t64 65.5T496 265q0 57-23.5 98.5t-64 64.5-90.5 23q-51 0-91-23t-64-64.5-24-98.5q0-56 24-98.5t64-65.5 91-23zM499 0v143l6 123-10 123v353h96V0h-92z"/><glyph glyph-name="e" unicode="e" horiz-adv-x="612" d="M327-6q-85 0-149.5 35t-100 96T42 265t34.5 140 95 95.5T308 535q77 0 136-34t92.5-95.5T570 262q0-6-.5-14t-1.5-15H117v69h401l-39-24q1 51-21 91t-60.5 62.5T308 454q-50 0-89-22.5t-61-63-22-92.5v-16q0-53 24.5-94.5T229 101t101-23q47 0 85.5 16t67.5 48l53-62q-36-42-89.5-64T327-6z"/><glyph glyph-name="f" unicode="f" horiz-adv-x="353" d="M105 0v577q0 78 45.5 124.5T280 748q31 0 59.5-7.5T388 717l-29-73q-15 12-34 18.5t-40 6.5q-42 0-64-23.5T199 576v-71l2-44V0h-96zM15 451v79h338v-79H15z"/><glyph glyph-name="g" unicode="g" horiz-adv-x="690" d="M323-200q-73 0-141.5 20.5T70-121l46 74q37-32 91-50.5T320-116q94 0 138 44t44 134v112l10 105-5 106v145h91V72q0-140-70-206t-205-66zM311 22q-77 0-137.5 32.5t-96 90.5T42 279q0 77 35.5 134.5t96 89.5T311 535q68 0 124-27.5t89.5-84.5T558 279q0-86-33.5-143T435 50.5 311 22zm11 84q53 0 94 22t64.5 61 23.5 90-23.5 90-64.5 60.5-94 21.5-94.5-21.5-65-60.5-23.5-90 23.5-90 65-61 94.5-22z"/><glyph glyph-name="h" unicode="h" horiz-adv-x="681" d="M374 535q65 0 114.5-25t77.5-76 28-129V0h-96v294q0 77-37.5 116T355 449q-51 0-89-20t-58.5-59-20.5-97V0H91v742h96V387l-19 38q26 52 80 81t126 29z"/><glyph glyph-name="i" unicode="i" horiz-adv-x="279" d="M91 0v530h96V0H91zm48 632q-28 0-46.5 18T74 694q0 27 18.5 45t46.5 18 46.5-17.5T204 696q0-27-18-45.5T139 632z"/><glyph glyph-name="j" unicode="j" horiz-adv-x="284" d="M23-200q-33 0-63.5 8T-92-168l31 74q30-25 78-25 38 0 58.5 23.5T96-26v556h96V-24q0-81-43.5-128.5T23-200zm121 832q-28 0-46.5 18T79 694q0 27 18.5 45t46.5 18 46.5-17.5T209 696q0-27-18-45.5T144 632z"/><glyph glyph-name="k" unicode="k" horiz-adv-x="616" d="m169 128 2 123 305 279h116L358 300l-52-44zM91 0v742h96V0H91zm405 0L288 258l62 77L614 0H496z"/><glyph glyph-name="l" unicode="l" horiz-adv-x="279" d="M91 0v742h96V0H91z"/><glyph glyph-name="m" unicode="m" horiz-adv-x="1057" d="M754 535q64 0 113-25t76.5-76T971 305V0h-96v294q0 77-36 116t-101 39q-48 0-84-20t-55.5-59-19.5-97V0h-96v294q0 77-35.5 116T346 449q-47 0-83-20t-56-59-20-97V0H91v530h92V389l-15 36q25 52 77 81t121 29q76 0 131-37.5T569 384l-39 16q24 61 84 98t140 37z"/><glyph glyph-name="n" unicode="n" horiz-adv-x="681" d="M374 535q65 0 114.5-25t77.5-76 28-129V0h-96v294q0 77-37.5 116T355 449q-51 0-89-20t-58.5-59-20.5-97V0H91v530h92V387l-15 38q26 52 80 81t126 29z"/><glyph glyph-name="o" unicode="o" horiz-adv-x="635" d="M318-6q-80 0-142 35t-98 96.5T42 265q0 79 36 140t98 95.5T318 535q79 0 141.5-34.5t98-95T593 265q0-79-35.5-140t-98-96T318-6zm0 84q51 0 91.5 23t63.5 65.5 23 98.5q0 57-23 98.5T409.5 428 318 451t-91-23-64-64.5-24-98.5q0-56 24-98.5t64-65.5 91-23z"/><glyph glyph-name="p" unicode="p" horiz-adv-x="682" d="M372-6q-66 0-120.5 30.5t-87 90.5T132 265t31.5 150 86 90T372 535q78 0 138-34t95-94.5T640 265t-35-142-95-95T372-6zM91-194v724h92V387l-6-123 10-123v-335H91zM364 78q51 0 91.5 23t64 65.5T543 265q0 57-23.5 98.5t-64 64.5-91.5 23q-50 0-90.5-23t-64-64.5T186 265q0-56 23.5-98.5t64-65.5T364 78z"/><glyph glyph-name="q" unicode="q" horiz-adv-x="682" d="M310-6q-77 0-137.5 34T77 123 42 265t35 141.5 95.5 94.5T310 535q69 0 123-30t85.5-90T550 265t-32.5-150T431 24.5 310-6zm8 84q50 0 90.5 23t64 65.5T496 265q0 57-23.5 98.5t-64 64.5-90.5 23q-51 0-91-23t-64-64.5-24-98.5q0-56 24-98.5t64-65.5 91-23zm177-272v335l10 123-6 123v143h92v-724h-96z"/><glyph glyph-name="r" unicode="r" horiz-adv-x="410" d="M91 0v530h92V386l-9 36q22 55 74 84t128 29v-93q-6 1-11.5 1H354q-77 0-122-46t-45-133V0H91z"/><glyph glyph-name="s" unicode="s" horiz-adv-x="501" d="M243-6q-66 0-125.5 18T24 56l40 76q34-23 84-39t102-16q67 0 96.5 19t29.5 53q0 25-18 39t-47.5 21-65.5 12.5-72 14-66 24-48 43T41 376q0 48 27 84t76.5 55.5T262 535q52 0 105.5-12.5T455 487l-41-76q-36 24-75 33t-78 9q-63 0-94-20.5T136 380q0-27 18.5-41.5t48-22.5 65.5-13.5 72-14 65.5-23.5 48-42 18.5-72q0-48-28-83t-79-54.5T243-6z"/><glyph glyph-name="t" unicode="t" horiz-adv-x="414" d="M273-6q-80 0-124 43t-44 123v486h96V164q0-43 21.5-66T284 75q45 0 75 25l30-69q-22-19-52.5-28T273-6zM15 451v79h338v-79H15z"/><glyph glyph-name="u" unicode="u" horiz-adv-x="677" d="M314-6q-68 0-119.5 25t-80 76.5T86 225v305h96V236q0-78 37.5-117T325 80q50 0 87 20.5t57 60 20 95.5v274h96V0h-91v143l15-38q-26-53-78-82T314-6z"/><glyph glyph-name="v" unicode="v" horiz-adv-x="559" d="M230 0-2 530H98L304 50h-48l210 480h94L328 0h-98z"/><glyph glyph-name="w" unicode="w" horiz-adv-x="899" d="M203 0 6 530h91L272 50h-43l182 480h81L670 50h-42l179 480h86L695 0h-92L436 438h28L295 0h-92z"/><glyph glyph-name="x" unicode="x" horiz-adv-x="552" d="m14 0 228 296-1-49L24 530h107l166-218h-41l166 218h105L307 245l1 51L538 0H429L254 232l39-6L121 0H14z"/><glyph glyph-name="y" unicode="y" horiz-adv-x="559" d="M114-200q-38 0-74 12.5T-22-151l41 72q20-19 44-29t51-10q35 0 58 18t43 64l33 73 10 12 208 481h94L303-53q-23-56-51.5-88T189-186.5 114-200zM240-17-2 530H98L304 58z"/><glyph glyph-name="z" unicode="z" horiz-adv-x="521" d="M40 0v62l340 422 19-33H46v79h430v-63L136 46l-22 33h370V0H40z"/><glyph glyph-name="braceleft" unicode="{" horiz-adv-x="351" d="M288-194q-75 0-113 37.5T137-46v230q0 26-12 38t-33 12H57v80h35q21 0 33 12t12 38v230q0 74 38 111t113 37h44v-79h-25q-37 0-55.5-20T233 585V366q0-35-9-54.5t-26.5-29T152 268v12q28-4 45.5-14t26.5-29.5 9-54.5V-37q0-38 18.5-58t55.5-20h25v-79h-44z"/><glyph glyph-name="bar" unicode="|" horiz-adv-x="299" d="M105-194v936h89v-936h-89z"/><glyph glyph-name="braceright" unicode="}" horiz-adv-x="351" d="M63-194H19v79h24q39 0 57.5 20T119-37v219q0 35 8.5 54.5T154 266t45 14v-12q-27 5-45 14.5t-26.5 29T119 366v219q0 38-18.5 58T43 663H19v79h44q75 0 113.5-37T215 594V364q0-26 12-38t32-12h34v-80h-34q-20 0-32-12t-12-38V-46q0-73-38.5-110.5T63-194z"/><glyph glyph-name="asciitilde" unicode="~" horiz-adv-x="582" d="M392 265q-36 0-63 15t-49.5 34-42.5 33.5-44 14.5q-32 0-51-24t-21-66H58q2 84 39 124t93 40q36 0 63-15t49.5-34 42.5-33.5 44-14.5q33 0 52 24.5t20 66.5h63q-2-84-38.5-124.5T392 265z"/><glyph glyph-name="uni00A0" horiz-adv-x="269"/><glyph glyph-name="exclamdown" unicode="¡" horiz-adv-x="268" d="m172 309 19-463H78l18 463h76zm-37 226q28 0 46-19t18-46q0-26-18-44.5T135 407t-47 18.5T69 470q0 27 19 46t47 19z"/><glyph glyph-name="cent" unicode="¢" horiz-adv-x="571" d="M282-120v770h64v-770h-64zM322-6q-81 0-144.5 35T78 125 42 265t36 140 99.5 95.5T322 535q72 0 128.5-28.5T538 422l-73-47q-26 39-63.5 57.5T321 451q-52 0-93-23t-65-64.5-24-98.5 24-99 65-65 93-23q43 0 80.5 18.5T465 154l73-46q-31-55-87.5-84.5T322-6z"/><glyph glyph-name="sterling" unicode="£" horiz-adv-x="646" d="M139 14v434q0 79 34.5 137.5T274 676t160 32q61 0 109-12t88-38l-33-83q-35 25-79 34.5t-94 9.5q-93 0-140-44t-47-126V14h-99zM30 0v87h586V0H30zm0 317v66h474v-66H30z"/><glyph glyph-name="currency" unicode="¤" horiz-adv-x="700" d="M146 463 31 578l55 59 116-115zM86-2 31 57l115 115 56-59zm527 0L497 113l56 59L669 57zm-60 465-56 59 116 115 56-59zM350 55q-55 0-104.5 20.5t-86.5 57-58.5 84T79 319t21.5 102.5T159 506t86.5 57.5T350 584q56 0 105.5-20.5t87-57.5 58.5-84.5T622 319t-21-102.5-58.5-84-87-57T350 55zm0 79q54 0 97.5 25.5t70.5 67 27 92.5-27 93-70.5 67.5T350 505q-52 0-96-25.5T184 412t-26-93 26-92.5 70-67 96-25.5z"/><glyph glyph-name="yen" unicode="¥" horiz-adv-x="707" d="M304 0v305l23-67L-4 700h106l283-396h-60l284 396h102L381 238l22 67V0h-99zM93 117v57h521v-57H93zm0 138v57h521v-57H93z"/><glyph glyph-name="brokenbar" unicode="¦" horiz-adv-x="299" d="M105 392v350h89V392h-89zm0-586v350h89v-350h-89z"/><glyph glyph-name="section" unicode="§" horiz-adv-x="500" d="m353 147-65 49q40 7 66.5 31.5T381 290q0 29-17.5 47t-46 28-63 18.5-69 18.5-63.5 26-46.5 43.5T58 543q0 49 27.5 85.5t79 57T287 706q31 0 66-6t66.5-17 52.5-27l-31-73q-35 24-76 35t-85 11q-67 0-101.5-21.5T144 546q0-27 17.5-44t46-26.5 63-17.5 69-18.5 63-28 45.5-47 17-73.5q0-52-31.5-90T353 147zM232-106q-38 0-78 8.5t-73.5 23T26-42l31 73q31-25 79.5-42.5T236-29q57 0 89.5 21.5T358 54q0 29-17.5 45.5t-46 26.5-63 18-69 18-63 27-46 45T36 306q0 56 31.5 93t80.5 54l63-50q-39-7-65-30.5T120 311q0-30 17.5-47.5t46.5-28 63.5-18.5 69-18 63.5-26.5 46.5-44.5T444 56q0-48-26.5-84.5t-74-57T232-106z"/><glyph glyph-name="dieresis" unicode="¨" horiz-adv-x="600" d="M393 624q-21 0-36 14.5T342 675q0 23 15 37.5t36 14.5 36-14.5 15-37.5q0-22-15-36.5T393 624zm-186 0q-21 0-36 14.5T156 675q0 23 15 37.5t36 14.5 36-14.5 15-37.5q0-22-15-36.5T207 624z"/><glyph glyph-name="copyright" unicode="©" horiz-adv-x="802" d="M400-3q-75 0-139 27T149 99.5 74.5 212 48 350t27 138 75 112.5T262.5 676 402 703t139.5-26.5 112-74.5 74-111.5T754 352t-27-139.5-75.5-113T539 24 400-3zm0 45q65 0 121 24t98 66 65 98.5T707 352t-23 121-64 97-96.5 64.5T402 658t-122.5-23.5-97.5-66-64-98T95 350t23-121 64-98 97-65.5T400 42zm11 102q-61 0-109 26t-75 72.5T200 350t27 107.5 75 72.5 109 26q53 0 95.5-21.5T573 475l-57-41q-19 28-46.5 41T410 488q-39 0-68.5-17.5t-47.5-48-18-72.5 18-72.5 47.5-48T410 212q32 0 59.5 13t46.5 41l57-40q-24-38-66.5-60T411 144z"/><glyph glyph-name="ordfeminine" unicode="ª" horiz-adv-x="404" d="M275 428v66l-5 12v113q0 39-22 57t-65 18q-31 0-60-9.5T73 659l-26 45q26 20 65 31.5t78 11.5q72 0 110.5-32t38.5-98V428h-64zm-112-4q-62 0-94 27t-32 67 31.5 66T173 610h108v-43h-99q-43 0-61-12.5T103 521q0-24 19.5-36.5T177 472t58 13 35 36l11-43q-10-22-40.5-38T163 424z"/><glyph glyph-name="guillemotleft" unicode="«" horiz-adv-x="504" d="M190 74 46 265l144 192h88L137 265 278 74h-88zm192 0L238 265l144 192h88L329 265 470 74h-88z"/><glyph glyph-name="logicalnot" unicode="¬" horiz-adv-x="582" d="M515 390V133h-85v178H67v79h448z"/><glyph glyph-name="uni00AD" unicode="­" horiz-adv-x="383" d="M57 233v83h269v-83H57z"/><glyph glyph-name="registered" unicode="®" horiz-adv-x="802" d="M400-3q-75 0-139 27T149 99.5 74.5 212 48 350t27 138 75 112.5T262.5 676 402 703t139.5-26.5 112-74.5 74-111.5T754 352t-27-139.5-75.5-113T539 24 400-3zm119 153L419 304h69l100-154h-69zM400 42q65 0 121 24t98 66 65 98.5T707 352t-23 121-64 97-96.5 64.5T402 658t-122.5-23.5-97.5-66-64-98T95 350t23-121 64-98 97-65.5T400 42zM259 150v400h160q76 0 119-37t43-99q0-64-43-100t-119-36h-92V150h-68zm67 184h88q48 0 74.5 21t26.5 59-26.5 58.5T414 493h-88V334z"/><glyph glyph-name="macron" unicode="¯" horiz-adv-x="600" d="M137 642v60h326v-60H137z"/><glyph glyph-name="degree" unicode="°" horiz-adv-x="419" d="M209 381q-46 0-83.5 21.5t-59 58.5T45 544q0 45 21.5 82t59 58.5T209 706t83.5-21.5T352 626t22-82q0-46-22-83t-59.5-58.5T209 381zm1 54q30 0 54.5 14.5t38.5 39 14 54.5q0 32-14 57t-38.5 39-54.5 14q-31 0-56-14t-39-38.5-14-57.5q0-31 14-55.5t39-38.5 56-14z"/><glyph glyph-name="plusminus" unicode="±" horiz-adv-x="582" d="M67 0v79h448V0H67zm182 185v427h84V185h-84zM67 359v79h448v-79H67z"/><glyph glyph-name="uni00B2" unicode="²" horiz-adv-x="430" d="M46 327v45l185 162q36 33 48 52.5t12 37.5q0 26-24 44.5T191 687q-36 0-65.5-11.5T77 642l-49 38q26 32 68.5 49.5T196 747q81 0 123-34t42-84q0-30-14.5-58T284 501L122 359l-19 26h277v-58H46z"/><glyph glyph-name="uni00B3" unicode="³" horiz-adv-x="430" d="M201 322q-54 0-101.5 14T27 373l28 53q24-20 63-32t83-12q56 0 83 18.5t27 49.5-26 49-80 18h-47v47l137 147 12-27H40v58h321v-45L224 550l-32 21h25q81 0 122.5-34t41.5-87q0-35-20-64t-60-46.5T201 322z"/><glyph glyph-name="acute" unicode="´" horiz-adv-x="600" d="m225 607 136 130h122L315 607h-90z"/><glyph glyph-name="uni00B5" unicode="µ" horiz-adv-x="682" d="M91-194v724h96V236q0-78 37.5-117T330 80q50 0 87 20.5t57 60 20 95.5v274h96V0h-91v144l16-29q-16-43-45-69.5t-65-39T332-6q-57 0-99.5 23.5T168 85l19 37v-316H91z"/><glyph glyph-name="paragraph" unicode="¶" horiz-adv-x="648" d="M227-100v484q-61 0-108 22.5T45.5 469 19 563q0 55 27.5 95.5t77.5 62T241 742h302v-842h-80v767H307v-767h-80z"/><glyph glyph-name="periodcentered" unicode="·" horiz-adv-x="267" d="M134 206q-28 0-48 19.5T66 275t20 49 48 19q29 0 47.5-19t18.5-49-18.5-49.5T134 206z"/><glyph glyph-name="cedilla" unicode="¸" horiz-adv-x="600" d="M275-224q-26 0-48 5.5T186-202l21 49q16-9 32.5-13t35.5-4q29 0 42.5 10.5T331-130q0 18-13.5 28.5T274-91h-27l25 98h55l-15-57q43-4 65-27t22-56q0-42-34-66.5T275-224z"/><glyph glyph-name="uni00B9" unicode="¹" horiz-adv-x="430" d="m268 339-44 46h146v-58H81v58h160l-44-46v377l31-32H89v58h179V339z"/><glyph glyph-name="ordmasculine" unicode="º" horiz-adv-x="418" d="M209 424q-51 0-91 21t-63 58-23 83q0 47 23 83.5t63 57 91 20.5q52 0 92-20.5t62.5-57T386 586q0-46-22.5-83T301 445t-92-21zm0 58q49 0 79.5 29t30.5 75q0 47-30.5 75.5T209 690q-48 0-79-28.5T99 586q0-45 31-74.5t79-29.5z"/><glyph glyph-name="guillemotright" unicode="»" horiz-adv-x="504" d="M122 74H34l141 191L34 457h88l144-192zm192 0h-88l141 191-141 192h88l144-192z"/><glyph glyph-name="onequarter" unicode="¼" horiz-adv-x="1034" d="m268 297-44 46h146v-58H81v58h160l-44-46v377l31-32H89v58h179V297zM240 0l478 700h76L316 0h-76zm386 99v47l201 269h78L703 146l-34 11h338V99H626zM857 0v99l6 58v83h63V0h-69z"/><glyph glyph-name="onehalf" unicode="½" horiz-adv-x="1034" d="m268 297-44 46h146v-58H81v58h160l-44-46v377l31-32H89v58h179V297zM240 0l478 700h76L316 0h-76zm410 0v45l185 162q36 33 48 52.5t12 37.5q0 26-24 44.5T795 360q-36 0-65.5-11.5T681 315l-49 38q26 32 68.5 49.5T800 420q81 0 123-34t42-84q0-30-14.5-58T888 174L726 32l-19 26h277V0H650z"/><glyph glyph-name="threequarters" unicode="¾" horiz-adv-x="1034" d="M201 280q-54 0-101.5 14T27 331l28 53q24-20 63-32t83-12q56 0 83 18.5t27 49.5-26 49-80 18h-47v47l137 147 12-27H40v58h321v-45L224 508l-32 21h25q81 0 122.5-34t41.5-87q0-35-20-64t-60-46.5T201 280zM240 0l478 700h76L316 0h-76zm386 99v47l201 269h78L703 146l-34 11h338V99H626zM857 0v99l6 58v83h63V0h-69z"/><glyph glyph-name="questiondown" unicode="¿" horiz-adv-x="573" d="M306-162q-72 0-125.5 21.5T98-80 69 11q0 40 12.5 69.5t33 51.5 42.5 41 42.5 38 33 42.5T245 309h100q0-38-12.5-66T300 193t-43-41.5-43-38.5-32.5-41T169 22q0-41 38-70t105-29q61 0 105.5 20.5T491 2l73-52q-41-53-106-82.5T306-162zm-11 569q-28 0-46.5 18.5T230 470q0 27 18.5 46t46.5 19q29 0 47-19t18-46q0-26-18-44.5T295 407z"/><glyph glyph-name="Agrave" unicode="À" horiz-adv-x="732" d="m-1 0 317 700h99L733 0H628L345 644h40L102 0H-1zm135 175 27 80h394l29-80H134zm217 582L183 887h122l136-130h-90z"/><glyph glyph-name="Aacute" unicode="Á" horiz-adv-x="732" d="m-1 0 317 700h99L733 0H628L345 644h40L102 0H-1zm135 175 27 80h394l29-80H134zm157 582 136 130h122L381 757h-90z"/><glyph glyph-name="Acircumflex" unicode="Â" horiz-adv-x="732" d="m-1 0 317 700h99L733 0H628L345 644h40L102 0H-1zm135 175 27 80h394l29-80H134zm53 582 133 130h92l133-130h-87L326 867h80L274 757h-87z"/><glyph glyph-name="Atilde" unicode="Ã" horiz-adv-x="732" d="m-1 0 317 700h99L733 0H628L345 644h40L102 0H-1zm135 175 27 80h394l29-80H134zm302 585q-24 0-42.5 10T360 793.5 331 817t-28 10q-22 0-35.5-16.5T252 765h-54q2 56 28 89t70 33q24 0 43-10.5t34-24 28.5-23.5 27.5-10q22 0 36 16t15 44h54q-1-53-27.5-86T436 760z"/><glyph glyph-name="Adieresis" unicode="Ä" horiz-adv-x="732" d="m-1 0 317 700h99L733 0H628L345 644h40L102 0H-1zm135 175 27 80h394l29-80H134zm325 599q-21 0-36 14.5T408 825q0 23 15 37.5t36 14.5 36-14.5 15-37.5q0-22-15-36.5T459 774zm-186 0q-21 0-36 14.5T222 825q0 23 15 37.5t36 14.5 36-14.5 15-37.5q0-22-15-36.5T273 774z"/><glyph glyph-name="Aring" unicode="Å" horiz-adv-x="732" d="m-1 0 317 700h99L733 0H628L345 644h40L102 0H-1zm135 175 27 80h394l29-80H134zm231 589q-31 0-56 15t-39.5 39-14.5 54 14.5 55 39.5 40 56 15q32 0 57-15t39.5-40 14.5-55-14.5-54-39.5-39-57-15zm0 42q29 0 47.5 19t18.5 47q0 29-18.5 48T365 939q-28 0-46.5-18.5T300 872q0-28 18-47t47-19z"/><glyph glyph-name="AE" unicode="Æ" horiz-adv-x="1047" d="m-1 0 417 700h100v-87h-88l61 44L102 0H-1zm178 175 6 80h333v-80H177zm397 223h359v-85H573zm8-311h409V0H483v700h494v-87H582V87z"/><glyph glyph-name="Ccedilla" unicode="Ç" horiz-adv-x="723" d="M418-8q-80 0-147.5 26.5t-117 75T76 207 48 350t28 143 78 113.5 117.5 75T419 708q81 0 149.5-27.5T685 599l-65-63q-40 42-90 62.5T423 619q-59 0-109.5-20T226 543t-57.5-85.5T148 350t20.5-107.5T226 157t87.5-56T423 81q57 0 107 20.5t90 63.5l65-63q-48-54-116.5-82T418-8zm-41-216q-26 0-48 5.5T288-202l21 49q16-9 32.5-13t35.5-4q29 0 42.5 10.5T433-130q0 18-13.5 28.5T376-91h-27l25 98h55l-15-57q43-4 65-27t22-56q0-42-34-66.5T377-224z"/><glyph glyph-name="Egrave" unicode="È" horiz-adv-x="670" d="M196 398h360v-85H196v85zm9-311h408V0H105v700h494v-87H205V87zm133 670L170 887h122l136-130h-90z"/><glyph glyph-name="Eacute" unicode="É" horiz-adv-x="670" d="M196 398h360v-85H196v85zm9-311h408V0H105v700h494v-87H205V87zm73 670 136 130h122L368 757h-90z"/><glyph glyph-name="Ecircumflex" unicode="Ê" horiz-adv-x="670" d="M196 398h360v-85H196v85zm9-311h408V0H105v700h494v-87H205V87zm-31 670 133 130h92l133-130h-87L313 867h80L261 757h-87z"/><glyph glyph-name="Edieresis" unicode="Ë" horiz-adv-x="670" d="M196 398h360v-85H196v85zm9-311h408V0H105v700h494v-87H205V87zm241 687q-21 0-36 14.5T395 825q0 23 15 37.5t36 14.5 36-14.5 15-37.5q0-22-15-36.5T446 774zm-186 0q-21 0-36 14.5T209 825q0 23 15 37.5t36 14.5 36-14.5 15-37.5q0-22-15-36.5T260 774z"/><glyph glyph-name="Igrave" unicode="Ì" horiz-adv-x="310" d="M105 0v700h100V0H105zm35 757L-28 887H94l136-130h-90z"/><glyph glyph-name="Iacute" unicode="Í" horiz-adv-x="310" d="M105 0v700h100V0H105zM80 757l136 130h122L170 757H80z"/><glyph glyph-name="Icircumflex" unicode="Î" horiz-adv-x="310" d="M105 0v700h100V0H105zM-24 757l133 130h92l133-130h-87L115 867h80L63 757h-87z"/><glyph glyph-name="Idieresis" unicode="Ï" horiz-adv-x="310" d="M105 0v700h100V0H105zm143 774q-21 0-36 14.5T197 825q0 23 15 37.5t36 14.5 36-14.5 15-37.5q0-22-15-36.5T248 774zm-186 0q-21 0-36 14.5T11 825q0 23 15 37.5T62 877t36-14.5 15-37.5q0-22-15-36.5T62 774z"/><glyph glyph-name="Eth" unicode="Ð" horiz-adv-x="834" d="M113 0v700h295q112 0 197.5-44t133-123T786 350t-47.5-183-133-123T408 0H113zm100 87h189q87 0 150.5 33t98.5 92.5T686 350q0 79-35 138t-98.5 92T402 613H213V87zM10 317v79h400v-79H10z"/><glyph glyph-name="Ntilde" unicode="Ñ" horiz-adv-x="812" d="M105 0v700h82l463-575h-43v575h100V0h-82L162 575h43V0H105zm370 760q-24 0-42.5 10T399 793.5 370 817t-28 10q-22 0-35.5-16.5T291 765h-54q2 56 28 89t70 33q24 0 43-10.5t34-24 28.5-23.5 27.5-10q22 0 36 16t15 44h54q-1-53-27.5-86T475 760z"/><glyph glyph-name="Ograve" unicode="Ò" horiz-adv-x="840" d="M421-8q-80 0-148.5 27T154 94.5 76 208 48 350t28 142 78 113.5T272 681t149 27q80 0 147.5-26.5t118-75 78-113.5T792 350t-27.5-143-78-113.5-118-75T421-8zm0 89q58 0 107.5 20t86 56.5 57 85.5T692 350t-20.5 107-57 85.5-86 56.5T421 619q-59 0-108.5-20T226 542.5 168.5 457 148 350t20.5-107 57.5-85.5 86.5-56.5T421 81zm-15 676L238 887h122l136-130h-90z"/><glyph glyph-name="Oacute" unicode="Ó" horiz-adv-x="840" d="M421-8q-80 0-148.5 27T154 94.5 76 208 48 350t28 142 78 113.5T272 681t149 27q80 0 147.5-26.5t118-75 78-113.5T792 350t-27.5-143-78-113.5-118-75T421-8zm0 89q58 0 107.5 20t86 56.5 57 85.5T692 350t-20.5 107-57 85.5-86 56.5T421 619q-59 0-108.5-20T226 542.5 168.5 457 148 350t20.5-107 57.5-85.5 86.5-56.5T421 81zm-75 676 136 130h122L436 757h-90z"/><glyph glyph-name="Ocircumflex" unicode="Ô" horiz-adv-x="840" d="M421-8q-80 0-148.5 27T154 94.5 76 208 48 350t28 142 78 113.5T272 681t149 27q80 0 147.5-26.5t118-75 78-113.5T792 350t-27.5-143-78-113.5-118-75T421-8zm0 89q58 0 107.5 20t86 56.5 57 85.5T692 350t-20.5 107-57 85.5-86 56.5T421 619q-59 0-108.5-20T226 542.5 168.5 457 148 350t20.5-107 57.5-85.5 86.5-56.5T421 81zM242 757l133 130h92l133-130h-87L381 867h80L329 757h-87z"/><glyph glyph-name="Otilde" unicode="Õ" horiz-adv-x="840" d="M421-8q-80 0-148.5 27T154 94.5 76 208 48 350t28 142 78 113.5T272 681t149 27q80 0 147.5-26.5t118-75 78-113.5T792 350t-27.5-143-78-113.5-118-75T421-8zm0 89q58 0 107.5 20t86 56.5 57 85.5T692 350t-20.5 107-57 85.5-86 56.5T421 619q-59 0-108.5-20T226 542.5 168.5 457 148 350t20.5-107 57.5-85.5 86.5-56.5T421 81zm70 679q-24 0-42.5 10T415 793.5 386 817t-28 10q-22 0-35.5-16.5T307 765h-54q2 56 28 89t70 33q24 0 43-10.5t34-24 28.5-23.5 27.5-10q22 0 36 16t15 44h54q-1-53-27.5-86T491 760z"/><glyph glyph-name="Odieresis" unicode="Ö" horiz-adv-x="840" d="M421-8q-80 0-148.5 27T154 94.5 76 208 48 350t28 142 78 113.5T272 681t149 27q80 0 147.5-26.5t118-75 78-113.5T792 350t-27.5-143-78-113.5-118-75T421-8zm0 89q58 0 107.5 20t86 56.5 57 85.5T692 350t-20.5 107-57 85.5-86 56.5T421 619q-59 0-108.5-20T226 542.5 168.5 457 148 350t20.5-107 57.5-85.5 86.5-56.5T421 81zm93 693q-21 0-36 14.5T463 825q0 23 15 37.5t36 14.5 36-14.5 15-37.5q0-22-15-36.5T514 774zm-186 0q-21 0-36 14.5T277 825q0 23 15 37.5t36 14.5 36-14.5 15-37.5q0-22-15-36.5T328 774z"/><glyph glyph-name="multiply" unicode="×" horiz-adv-x="582" d="m107 220 315 318 54-58-316-318zm0 260 53 58 316-318-54-58z"/><glyph glyph-name="Oslash" unicode="Ø" horiz-adv-x="840" d="M421-8q-80 0-148.5 27T154 94.5 76 208 48 350t28 142 78 113.5T272 681t149 27q80 0 147.5-26.5t118-75 78-113.5T792 350t-27.5-143-78-113.5-118-75T421-8zm0 89q58 0 107.5 20t86 56.5 57 85.5T692 350t-20.5 107-57 85.5-86 56.5T421 619q-59 0-108.5-20T226 542.5 168.5 457 148 350t20.5-107 57.5-85.5 86.5-56.5T421 81zM81-70l602 840h78L159-70H81z"/><glyph glyph-name="Ugrave" unicode="Ù" horiz-adv-x="791" d="M395-8Q257-8 178 71T99 302v398h100V306q0-117 51.5-171T396 81q95 0 146.5 54T594 306v394h97V302q0-152-78.5-231T395-8zm-14 765L213 887h122l136-130h-90z"/><glyph glyph-name="Uacute" unicode="Ú" horiz-adv-x="791" d="M395-8Q257-8 178 71T99 302v398h100V306q0-117 51.5-171T396 81q95 0 146.5 54T594 306v394h97V302q0-152-78.5-231T395-8zm-74 765 136 130h122L411 757h-90z"/><glyph glyph-name="Ucircumflex" unicode="Û" horiz-adv-x="791" d="M395-8Q257-8 178 71T99 302v398h100V306q0-117 51.5-171T396 81q95 0 146.5 54T594 306v394h97V302q0-152-78.5-231T395-8zM217 757l133 130h92l133-130h-87L356 867h80L304 757h-87z"/><glyph glyph-name="Udieresis" unicode="Ü" horiz-adv-x="791" d="M395-8Q257-8 178 71T99 302v398h100V306q0-117 51.5-171T396 81q95 0 146.5 54T594 306v394h97V302q0-152-78.5-231T395-8zm94 782q-21 0-36 14.5T438 825q0 23 15 37.5t36 14.5 36-14.5 15-37.5q0-22-15-36.5T489 774zm-186 0q-21 0-36 14.5T252 825q0 23 15 37.5t36 14.5 36-14.5 15-37.5q0-22-15-36.5T303 774z"/><glyph glyph-name="Yacute" unicode="Ý" horiz-adv-x="647" d="M274 0v268l23-62L-4 700h107l253-417h-58l254 417h99L351 206l22 62V0h-99zm-25 757 136 130h122L339 757h-90z"/><glyph glyph-name="Thorn" unicode="Þ" horiz-adv-x="722" d="M181 125v86h194q96 0 145.5 41.5T570 369q0 76-49.5 117T375 527H181v87h197q92 0 157-29.5t100-84T670 370t-35-131.5T535 154t-157-29H181zM105 0v700h100V0H105z"/><glyph glyph-name="germandbls" unicode="ß" horiz-adv-x="676" d="M392-6q-30 0-60.5 4T277 10l15 81q20-7 42.5-10t53.5-3q45 0 78 14.5t52 43 19 68.5q0 61-44.5 93.5T377 330h-57v81q76 1 118.5 37.5T481 546q0 53-36 85.5T342 664q-72 0-113.5-41T187 502V0H91v494q0 84 33 140.5t89.5 85T342 748t124-26 80-71 28-101q0-46-17.5-81T511 409.5 449.5 372 383 359l30 38q62 0 112-23t79-66.5T633 202q0-66-31-112.5t-85.5-71T392-6z"/><glyph glyph-name="agrave" unicode="à" horiz-adv-x="598" d="M420 0v112l-5 21v191q0 61-35.5 94.5T273 452q-47 0-92-15.5T105 395l-40 72q41 33 98.5 50.5T284 535q109 0 168-53t59-162V0h-91zM246-6q-59 0-103.5 20T74 69.5 50 150q0 43 20.5 78t67 56T263 305h168v-69H267q-72 0-97-24t-25-58q0-39 31-62.5T262 68q54 0 94.5 24t58.5 70l19-66q-19-47-67-74.5T246-6zm30 613L108 737h122l136-130h-90z"/><glyph glyph-name="aacute" unicode="á" horiz-adv-x="598" d="M420 0v112l-5 21v191q0 61-35.5 94.5T273 452q-47 0-92-15.5T105 395l-40 72q41 33 98.5 50.5T284 535q109 0 168-53t59-162V0h-91zM246-6q-59 0-103.5 20T74 69.5 50 150q0 43 20.5 78t67 56T263 305h168v-69H267q-72 0-97-24t-25-58q0-39 31-62.5T262 68q54 0 94.5 24t58.5 70l19-66q-19-47-67-74.5T246-6zm-30 613 136 130h122L306 607h-90z"/><glyph glyph-name="acircumflex" unicode="â" horiz-adv-x="598" d="M420 0v112l-5 21v191q0 61-35.5 94.5T273 452q-47 0-92-15.5T105 395l-40 72q41 33 98.5 50.5T284 535q109 0 168-53t59-162V0h-91zM246-6q-59 0-103.5 20T74 69.5 50 150q0 43 20.5 78t67 56T263 305h168v-69H267q-72 0-97-24t-25-58q0-39 31-62.5T262 68q54 0 94.5 24t58.5 70l19-66q-19-47-67-74.5T246-6zM112 607l133 130h92l133-130h-87L251 717h80L199 607h-87z"/><glyph glyph-name="atilde" unicode="ã" horiz-adv-x="598" d="M420 0v112l-5 21v191q0 61-35.5 94.5T273 452q-47 0-92-15.5T105 395l-40 72q41 33 98.5 50.5T284 535q109 0 168-53t59-162V0h-91zM246-6q-59 0-103.5 20T74 69.5 50 150q0 43 20.5 78t67 56T263 305h168v-69H267q-72 0-97-24t-25-58q0-39 31-62.5T262 68q54 0 94.5 24t58.5 70l19-66q-19-47-67-74.5T246-6zm115 616q-24 0-42.5 10T285 643.5 256 667t-28 10q-22 0-35.5-16.5T177 615h-54q2 56 28 89t70 33q24 0 43-10.5t34-24 28.5-23.5 27.5-10q22 0 36 16t15 44h54q-1-53-27.5-86T361 610z"/><glyph glyph-name="adieresis" unicode="ä" horiz-adv-x="598" d="M420 0v112l-5 21v191q0 61-35.5 94.5T273 452q-47 0-92-15.5T105 395l-40 72q41 33 98.5 50.5T284 535q109 0 168-53t59-162V0h-91zM246-6q-59 0-103.5 20T74 69.5 50 150q0 43 20.5 78t67 56T263 305h168v-69H267q-72 0-97-24t-25-58q0-39 31-62.5T262 68q54 0 94.5 24t58.5 70l19-66q-19-47-67-74.5T246-6zm138 630q-21 0-36 14.5T333 675q0 23 15 37.5t36 14.5 36-14.5 15-37.5q0-22-15-36.5T384 624zm-186 0q-21 0-36 14.5T147 675q0 23 15 37.5t36 14.5 36-14.5 15-37.5q0-22-15-36.5T198 624z"/><glyph glyph-name="aring" unicode="å" horiz-adv-x="598" d="M420 0v112l-5 21v191q0 61-35.5 94.5T273 452q-47 0-92-15.5T105 395l-40 72q41 33 98.5 50.5T284 535q109 0 168-53t59-162V0h-91zM246-6q-59 0-103.5 20T74 69.5 50 150q0 43 20.5 78t67 56T263 305h168v-69H267q-72 0-97-24t-25-58q0-39 31-62.5T262 68q54 0 94.5 24t58.5 70l19-66q-19-47-67-74.5T246-6zm44 600q-31 0-56 15t-39.5 39-14.5 54 14.5 55 39.5 40 56 15q32 0 57-15t39.5-40 14.5-55-14.5-54-39.5-39-57-15zm0 42q29 0 47.5 19t18.5 47q0 29-18.5 48T290 769q-28 0-46.5-18.5T225 702q0-28 18-47t47-19z"/><glyph glyph-name="ae" unicode="æ" horiz-adv-x="989" d="M256-6q-97 0-151.5 44.5T50 154q0 40 20.5 74t67 55T263 304h167v-69H267q-71 0-96.5-23.5T145 156q0-41 31.5-64.5T264 68q71 0 111 36.5t40 96.5v123q0 61-35.5 94.5T274 452q-48 0-93-15.5T105 395l-40 72q41 33 98.5 50.5T283 535q92 0 146-36.5T498 391l-46 6q31 64 91.5 101T683 535q57 0 105.5-19.5t84-55.5 55-85T947 268q0-10-.5-18t-2.5-15H492v69h402l-40-26q0 57-24 96t-63.5 59.5T682 454q-43 0-82.5-20.5t-64-60T511 276v-16q0-53 24-94.5t67.5-64.5T704 78q47 0 85 16t68 48l54-62q-37-43-90.5-64.5T701-6q-61 0-115 19t-94 59-62 103l62-2q-12-67-48.5-106.5t-86-56T256-6z"/><glyph glyph-name="ccedilla" unicode="ç" horiz-adv-x="571" d="M322-6q-81 0-144.5 35T78 125 42 265t36 140 99.5 95.5T322 535q72 0 128.5-28.5T538 422l-73-47q-26 39-63.5 57.5T321 451q-52 0-93-23t-65-64.5-24-98.5 24-99 65-65 93-23q43 0 80.5 18.5T465 154l73-46q-31-55-87.5-84.5T322-6zm-47-218q-26 0-48 5.5T186-202l21 49q16-9 32.5-13t35.5-4q29 0 42.5 10.5T331-130q0 18-13.5 28.5T274-91h-27l25 98h55l-15-57q43-4 65-27t22-56q0-42-34-66.5T275-224z"/><glyph glyph-name="egrave" unicode="è" horiz-adv-x="612" d="M327-6q-85 0-149.5 35t-100 96T42 265t34.5 140 95 95.5T308 535q77 0 136-34t92.5-95.5T570 262q0-6-.5-14t-1.5-15H117v69h401l-39-24q1 51-21 91t-60.5 62.5T308 454q-50 0-89-22.5t-61-63-22-92.5v-16q0-53 24.5-94.5T229 101t101-23q47 0 85.5 16t67.5 48l53-62q-36-42-89.5-64T327-6zm-35 613L124 737h122l136-130h-90z"/><glyph glyph-name="eacute" unicode="é" horiz-adv-x="612" d="M327-6q-85 0-149.5 35t-100 96T42 265t34.5 140 95 95.5T308 535q77 0 136-34t92.5-95.5T570 262q0-6-.5-14t-1.5-15H117v69h401l-39-24q1 51-21 91t-60.5 62.5T308 454q-50 0-89-22.5t-61-63-22-92.5v-16q0-53 24.5-94.5T229 101t101-23q47 0 85.5 16t67.5 48l53-62q-36-42-89.5-64T327-6zm-95 613 136 130h122L322 607h-90z"/><glyph glyph-name="ecircumflex" unicode="ê" horiz-adv-x="612" d="M327-6q-85 0-149.5 35t-100 96T42 265t34.5 140 95 95.5T308 535q77 0 136-34t92.5-95.5T570 262q0-6-.5-14t-1.5-15H117v69h401l-39-24q1 51-21 91t-60.5 62.5T308 454q-50 0-89-22.5t-61-63-22-92.5v-16q0-53 24.5-94.5T229 101t101-23q47 0 85.5 16t67.5 48l53-62q-36-42-89.5-64T327-6zM128 607l133 130h92l133-130h-87L267 717h80L215 607h-87z"/><glyph glyph-name="edieresis" unicode="ë" horiz-adv-x="612" d="M327-6q-85 0-149.5 35t-100 96T42 265t34.5 140 95 95.5T308 535q77 0 136-34t92.5-95.5T570 262q0-6-.5-14t-1.5-15H117v69h401l-39-24q1 51-21 91t-60.5 62.5T308 454q-50 0-89-22.5t-61-63-22-92.5v-16q0-53 24.5-94.5T229 101t101-23q47 0 85.5 16t67.5 48l53-62q-36-42-89.5-64T327-6zm73 630q-21 0-36 14.5T349 675q0 23 15 37.5t36 14.5 36-14.5 15-37.5q0-22-15-36.5T400 624zm-186 0q-21 0-36 14.5T163 675q0 23 15 37.5t36 14.5 36-14.5 15-37.5q0-22-15-36.5T214 624z"/><glyph glyph-name="igrave" unicode="ì" horiz-adv-x="279" d="M91 0v530h96V0H91zm33 607L-44 737H78l136-130h-90z"/><glyph glyph-name="iacute" unicode="í" horiz-adv-x="279" d="M91 0v530h96V0H91zM64 607l136 130h122L154 607H64z"/><glyph glyph-name="icircumflex" unicode="î" horiz-adv-x="279" d="M91 0v530h96V0H91zM-15 607 94 737h90l109-130h-82L104 717h70L67 607h-82z"/><glyph glyph-name="idieresis" unicode="ï" horiz-adv-x="279" d="M91 0v530h96V0H91zm119 625q-21 0-35 14.5T161 675q0 22 14 36.5t35 14.5 35.5-14.5T260 675q0-21-14.5-35.5T210 625zm-142 0q-21 0-35.5 14.5T18 675q0 22 14.5 36.5T68 726t35-14.5 14-36.5q0-21-14-35.5T68 625z"/><glyph glyph-name="eth" unicode="ð" horiz-adv-x="640" d="M294-8q-71 0-128 27.5T75.5 97 42 216q0 68 33.5 118t91 77.5T297 439q58 0 105-20.5t79.5-59T526 265l-37-14q7 28 9.5 58t2.5 57q0 93-30.5 155T384 614t-133 31q-43 0-79.5-6.5T106 622l-16 82q32 10 73 16t88 6q105 0 182.5-43t121-128T598 345q0-109-36-188T459 35 294-8zm7 81q55 0 93.5 20.5t58.5 53 20 69.5q0 40-21.5 72.5t-58.5 51-86 18.5q-78 0-123-39t-45-103q0-43 20.5-75t57-50T301 73zM154 480l-26 63 411 166 26-64z"/><glyph glyph-name="ntilde" unicode="ñ" horiz-adv-x="681" d="M374 535q65 0 114.5-25t77.5-76 28-129V0h-96v294q0 77-37.5 116T355 449q-51 0-89-20t-58.5-59-20.5-97V0H91v530h92V387l-15 38q26 52 80 81t126 29zm39 75q-24 0-42.5 10T337 643.5 308 667t-28 10q-22 0-35.5-16.5T229 615h-54q2 56 28 89t70 33q24 0 43-10.5t34-24 28.5-23.5 27.5-10q22 0 36 16t15 44h54q-1-53-27.5-86T413 610z"/><glyph glyph-name="ograve" unicode="ò" horiz-adv-x="635" d="M318-6q-80 0-142 35t-98 96.5T42 265q0 79 36 140t98 95.5T318 535q79 0 141.5-34.5t98-95T593 265q0-79-35.5-140t-98-96T318-6zm0 84q51 0 91.5 23t63.5 65.5 23 98.5q0 57-23 98.5T409.5 428 318 451t-91-23-64-64.5-24-98.5q0-56 24-98.5t64-65.5 91-23zm-16 529L134 737h122l136-130h-90z"/><glyph glyph-name="oacute" unicode="ó" horiz-adv-x="635" d="M318-6q-80 0-142 35t-98 96.5T42 265q0 79 36 140t98 95.5T318 535q79 0 141.5-34.5t98-95T593 265q0-79-35.5-140t-98-96T318-6zm0 84q51 0 91.5 23t63.5 65.5 23 98.5q0 57-23 98.5T409.5 428 318 451t-91-23-64-64.5-24-98.5q0-56 24-98.5t64-65.5 91-23zm-76 529 136 130h122L332 607h-90z"/><glyph glyph-name="ocircumflex" unicode="ô" horiz-adv-x="635" d="M318-6q-80 0-142 35t-98 96.5T42 265q0 79 36 140t98 95.5T318 535q79 0 141.5-34.5t98-95T593 265q0-79-35.5-140t-98-96T318-6zm0 84q51 0 91.5 23t63.5 65.5 23 98.5q0 57-23 98.5T409.5 428 318 451t-91-23-64-64.5-24-98.5q0-56 24-98.5t64-65.5 91-23zM138 607l133 130h92l133-130h-87L277 717h80L225 607h-87z"/><glyph glyph-name="otilde" unicode="õ" horiz-adv-x="635" d="M318-6q-80 0-142 35t-98 96.5T42 265q0 79 36 140t98 95.5T318 535q79 0 141.5-34.5t98-95T593 265q0-79-35.5-140t-98-96T318-6zm0 84q51 0 91.5 23t63.5 65.5 23 98.5q0 57-23 98.5T409.5 428 318 451t-91-23-64-64.5-24-98.5q0-56 24-98.5t64-65.5 91-23zm69 532q-24 0-42.5 10T311 643.5 282 667t-28 10q-22 0-35.5-16.5T203 615h-54q2 56 28 89t70 33q24 0 43-10.5t34-24 28.5-23.5 27.5-10q22 0 36 16t15 44h54q-1-53-27.5-86T387 610z"/><glyph glyph-name="odieresis" unicode="ö" horiz-adv-x="635" d="M318-6q-80 0-142 35t-98 96.5T42 265q0 79 36 140t98 95.5T318 535q79 0 141.5-34.5t98-95T593 265q0-79-35.5-140t-98-96T318-6zm0 84q51 0 91.5 23t63.5 65.5 23 98.5q0 57-23 98.5T409.5 428 318 451t-91-23-64-64.5-24-98.5q0-56 24-98.5t64-65.5 91-23zm92 546q-21 0-36 14.5T359 675q0 23 15 37.5t36 14.5 36-14.5 15-37.5q0-22-15-36.5T410 624zm-186 0q-21 0-36 14.5T173 675q0 23 15 37.5t36 14.5 36-14.5 15-37.5q0-22-15-36.5T224 624z"/><glyph glyph-name="divide" unicode="÷" horiz-adv-x="582" d="M67 310v79h448v-79H67zM291 93q-24 0-40.5 17.5T234 154t16.5 42.5T291 213t41-16.5 17-42.5-17-43.5T291 93zm0 394q-24 0-40.5 17.5T234 547q0 26 16.5 43t40.5 17 41-17 17-43q0-25-17-42.5T291 487z"/><glyph glyph-name="oslash" unicode="ø" horiz-adv-x="635" d="M318-6q-80 0-142 35t-98 96.5T42 265q0 79 36 140t98 95.5T318 535q79 0 141.5-34.5t98-95T593 265q0-79-35.5-140t-98-96T318-6zm0 84q51 0 91.5 23t63.5 65.5 23 98.5q0 57-23 98.5T409.5 428 318 451t-91-23-64-64.5-24-98.5q0-56 24-98.5t64-65.5 91-23zM66-71l441 669h59L126-71H66z"/><glyph glyph-name="ugrave" unicode="ù" horiz-adv-x="677" d="M314-6q-68 0-119.5 25t-80 76.5T86 225v305h96V236q0-78 37.5-117T325 80q50 0 87 20.5t57 60 20 95.5v274h96V0h-91v143l15-38q-26-53-78-82T314-6zm7 613L153 737h122l136-130h-90z"/><glyph glyph-name="uacute" unicode="ú" horiz-adv-x="677" d="M314-6q-68 0-119.5 25t-80 76.5T86 225v305h96V236q0-78 37.5-117T325 80q50 0 87 20.5t57 60 20 95.5v274h96V0h-91v143l15-38q-26-53-78-82T314-6zm-53 613 136 130h122L351 607h-90z"/><glyph glyph-name="ucircumflex" unicode="û" horiz-adv-x="677" d="M314-6q-68 0-119.5 25t-80 76.5T86 225v305h96V236q0-78 37.5-117T325 80q50 0 87 20.5t57 60 20 95.5v274h96V0h-91v143l15-38q-26-53-78-82T314-6zM157 607l133 130h92l133-130h-87L296 717h80L244 607h-87z"/><glyph glyph-name="udieresis" unicode="ü" horiz-adv-x="677" d="M314-6q-68 0-119.5 25t-80 76.5T86 225v305h96V236q0-78 37.5-117T325 80q50 0 87 20.5t57 60 20 95.5v274h96V0h-91v143l15-38q-26-53-78-82T314-6zm115 630q-21 0-36 14.5T378 675q0 23 15 37.5t36 14.5 36-14.5 15-37.5q0-22-15-36.5T429 624zm-186 0q-21 0-36 14.5T192 675q0 23 15 37.5t36 14.5 36-14.5 15-37.5q0-22-15-36.5T243 624z"/><glyph glyph-name="yacute" unicode="ý" horiz-adv-x="559" d="M114-200q-38 0-74 12.5T-22-151l41 72q20-19 44-29t51-10q35 0 58 18t43 64l33 73 10 12 208 481h94L303-53q-23-56-51.5-88T189-186.5 114-200zM240-17-2 530H98L304 58zm-49 624 136 130h122L281 607h-90z"/><glyph glyph-name="thorn" unicode="þ" horiz-adv-x="682" d="M372-6q-66 0-120.5 30.5t-87 90.5T132 265t31.5 150 86 90T372 535q78 0 138-34t95-94.5T640 265t-35-142-95-95T372-6zM91-194v936h96V387l-10-123 10-123v-335H91zM364 78q51 0 91.5 23t64 65.5T543 265q0 57-23.5 98.5t-64 64.5-91.5 23q-50 0-90.5-23t-64-64.5T186 265q0-56 23.5-98.5t64-65.5T364 78z"/><glyph glyph-name="ydieresis" unicode="ÿ" horiz-adv-x="559" d="M114-200q-38 0-74 12.5T-22-151l41 72q20-19 44-29t51-10q35 0 58 18t43 64l33 73 10 12 208 481h94L303-53q-23-56-51.5-88T189-186.5 114-200zM240-17-2 530H98L304 58zm119 641q-21 0-36 14.5T308 675q0 23 15 37.5t36 14.5 36-14.5 15-37.5q0-22-15-36.5T359 624zm-186 0q-21 0-36 14.5T122 675q0 23 15 37.5t36 14.5 36-14.5 15-37.5q0-22-15-36.5T173 624z"/><glyph glyph-name="Amacron" unicode="Ā" horiz-adv-x="732" d="m-1 0 317 700h99L733 0H628L345 644h40L102 0H-1zm135 175 27 80h394l29-80H134zm69 617v60h326v-60H203z"/><glyph glyph-name="amacron" unicode="ā" horiz-adv-x="598" d="M420 0v112l-5 21v191q0 61-35.5 94.5T273 452q-47 0-92-15.5T105 395l-40 72q41 33 98.5 50.5T284 535q109 0 168-53t59-162V0h-91zM246-6q-59 0-103.5 20T74 69.5 50 150q0 43 20.5 78t67 56T263 305h168v-69H267q-72 0-97-24t-25-58q0-39 31-62.5T262 68q54 0 94.5 24t58.5 70l19-66q-19-47-67-74.5T246-6zM128 642v60h326v-60H128z"/><glyph glyph-name="Abreve" unicode="Ă" horiz-adv-x="732" d="m-1 0 317 700h99L733 0H628L345 644h40L102 0H-1zm135 175 27 80h394l29-80H134zm232 576q-68 0-114 36.5T204 887h65q2-37 30-58.5t67-21.5 67.5 21.5T463 887h65q-2-63-48-99.5T366 751z"/><glyph glyph-name="abreve" unicode="ă" horiz-adv-x="598" d="M420 0v112l-5 21v191q0 61-35.5 94.5T273 452q-47 0-92-15.5T105 395l-40 72q41 33 98.5 50.5T284 535q109 0 168-53t59-162V0h-91zM246-6q-59 0-103.5 20T74 69.5 50 150q0 43 20.5 78t67 56T263 305h168v-69H267q-72 0-97-24t-25-58q0-39 31-62.5T262 68q54 0 94.5 24t58.5 70l19-66q-19-47-67-74.5T246-6zm45 607q-68 0-114 36.5T129 737h65q2-37 30-58.5t67-21.5 67.5 21.5T388 737h65q-2-63-48-99.5T291 601z"/><glyph glyph-name="Aogonek" unicode="Ą" horiz-adv-x="732" d="m-1 0 317 700h99L733 0H628L345 644h40L102 0H-1zm135 175 27 80h394l29-80H134zm531-399q-56 0-88 28t-32 73q0 27 13.5 54T604-16t84 48l45-32q-44-20-70-39t-37.5-38-11.5-39q0-25 17.5-38.5T675-168q17 0 33.5 5t28.5 12l18-49q-18-11-41.5-17.5T665-224z"/><glyph glyph-name="aogonek" unicode="ą" horiz-adv-x="598" d="M420 0v112l-5 21v191q0 61-35.5 94.5T273 452q-47 0-92-15.5T105 395l-40 72q41 33 98.5 50.5T284 535q109 0 168-53t59-162V0h-91zM246-6q-59 0-103.5 20T74 69.5 50 150q0 43 20.5 78t67 56T263 305h168v-69H267q-72 0-97-24t-25-58q0-39 31-62.5T262 68q54 0 94.5 24t58.5 70l19-66q-19-47-67-74.5T246-6zm197-218q-56 0-88 28t-32 73q0 27 13.5 54T382-16t84 48l45-32q-44-20-70-39t-37.5-38-11.5-39q0-25 17.5-38.5T453-168q17 0 33.5 5t28.5 12l18-49q-18-11-41.5-17.5T443-224z"/><glyph glyph-name="Cacute" unicode="Ć" horiz-adv-x="723" d="M418-8q-80 0-147.5 26.5t-117 75T76 207 48 350t28 143 78 113.5 117.5 75T419 708q81 0 149.5-27.5T685 599l-65-63q-40 42-90 62.5T423 619q-59 0-109.5-20T226 543t-57.5-85.5T148 350t20.5-107.5T226 157t87.5-56T423 81q57 0 107 20.5t90 63.5l65-63q-48-54-116.5-82T418-8zm-82 765 136 130h122L426 757h-90z"/><glyph glyph-name="cacute" unicode="ć" horiz-adv-x="571" d="M322-6q-81 0-144.5 35T78 125 42 265t36 140 99.5 95.5T322 535q72 0 128.5-28.5T538 422l-73-47q-26 39-63.5 57.5T321 451q-52 0-93-23t-65-64.5-24-98.5 24-99 65-65 93-23q43 0 80.5 18.5T465 154l73-46q-31-55-87.5-84.5T322-6zm-94 613 136 130h122L318 607h-90z"/><glyph glyph-name="Ccircumflex" unicode="Ĉ" horiz-adv-x="723" d="M418-8q-80 0-147.5 26.5t-117 75T76 207 48 350t28 143 78 113.5 117.5 75T419 708q81 0 149.5-27.5T685 599l-65-63q-40 42-90 62.5T423 619q-59 0-109.5-20T226 543t-57.5-85.5T148 350t20.5-107.5T226 157t87.5-56T423 81q57 0 107 20.5t90 63.5l65-63q-48-54-116.5-82T418-8zM232 757l133 130h92l133-130h-87L371 867h80L319 757h-87z"/><glyph glyph-name="ccircumflex" unicode="ĉ" horiz-adv-x="571" d="M322-6q-81 0-144.5 35T78 125 42 265t36 140 99.5 95.5T322 535q72 0 128.5-28.5T538 422l-73-47q-26 39-63.5 57.5T321 451q-52 0-93-23t-65-64.5-24-98.5 24-99 65-65 93-23q43 0 80.5 18.5T465 154l73-46q-31-55-87.5-84.5T322-6zM124 607l133 130h92l133-130h-87L263 717h80L211 607h-87z"/><glyph glyph-name="Cdotaccent" unicode="Ċ" horiz-adv-x="723" d="M418-8q-80 0-147.5 26.5t-117 75T76 207 48 350t28 143 78 113.5 117.5 75T419 708q81 0 149.5-27.5T685 599l-65-63q-40 42-90 62.5T423 619q-59 0-109.5-20T226 543t-57.5-85.5T148 350t20.5-107.5T226 157t87.5-56T423 81q57 0 107 20.5t90 63.5l65-63q-48-54-116.5-82T418-8zm-7 783q-25 0-42 17t-17 42 17 42 42 17 42-17 17-42-17-42-42-17z"/><glyph glyph-name="cdotaccent" unicode="ċ" horiz-adv-x="571" d="M322-6q-81 0-144.5 35T78 125 42 265t36 140 99.5 95.5T322 535q72 0 128.5-28.5T538 422l-73-47q-26 39-63.5 57.5T321 451q-52 0-93-23t-65-64.5-24-98.5 24-99 65-65 93-23q43 0 80.5 18.5T465 154l73-46q-31-55-87.5-84.5T322-6zm-19 631q-25 0-42 17t-17 42 17 42 42 17 42-17 17-42-17-42-42-17z"/><glyph glyph-name="Ccaron" unicode="Č" horiz-adv-x="723" d="M418-8q-80 0-147.5 26.5t-117 75T76 207 48 350t28 143 78 113.5 117.5 75T419 708q81 0 149.5-27.5T685 599l-65-63q-40 42-90 62.5T423 619q-59 0-109.5-20T226 543t-57.5-85.5T148 350t20.5-107.5T226 157t87.5-56T423 81q57 0 107 20.5t90 63.5l65-63q-48-54-116.5-82T418-8zm-53 765L232 887h87l132-109h-80l132 109h87L457 757h-92z"/><glyph glyph-name="ccaron" unicode="č" horiz-adv-x="571" d="M322-6q-81 0-144.5 35T78 125 42 265t36 140 99.5 95.5T322 535q72 0 128.5-28.5T538 422l-73-47q-26 39-63.5 57.5T321 451q-52 0-93-23t-65-64.5-24-98.5 24-99 65-65 93-23q43 0 80.5 18.5T465 154l73-46q-31-55-87.5-84.5T322-6zm-65 613L124 737h87l132-109h-80l132 109h87L349 607h-92z"/><glyph glyph-name="Dcaron" unicode="Ď" horiz-adv-x="826" d="M105 0v700h295q112 0 197.5-44t133-123T778 350t-47.5-183-133-123T400 0H105zm100 87h189q87 0 150.5 33t98.5 92.5T678 350q0 79-35 138t-98.5 92T394 613H205V87zm128 669L200 886h87l132-109h-80l132 109h87L425 756h-92z"/><glyph glyph-name="dcaron" unicode="ď" horiz-adv-x="682" d="M310-6q-77 0-137.5 34T77 123 42 265t35 141.5 95.5 94.5T310 535q67 0 121-30t86.5-90T550 265t-31.5-150T433 24.5 310-6zm8 84q50 0 90.5 23t64 65.5T496 265q0 57-23.5 98.5t-64 64.5-90.5 23q-51 0-91-23t-64-64.5-24-98.5q0-56 24-98.5t64-65.5 91-23zM499 0v143l6 123-10 123v353h96V0h-92zm181 582v193h79l-12-193h-67z"/><glyph glyph-name="Dcroat" unicode="Đ" horiz-adv-x="834" d="M113 0v700h295q112 0 197.5-44t133-123T786 350t-47.5-183-133-123T408 0H113zm100 87h189q87 0 150.5 33t98.5 92.5T686 350q0 79-35 138t-98.5 92T402 613H213V87zM10 317v79h400v-79H10z"/><glyph glyph-name="dcroat" unicode="đ" horiz-adv-x="682" d="M310-6q-77 0-137.5 34T77 123 42 265t35 141.5 95.5 94.5T310 535q67 0 121-30t86.5-90T550 265t-31.5-150T433 24.5 310-6zm8 84q50 0 90.5 23t64 65.5T496 265q0 57-23.5 98.5t-64 64.5-90.5 23q-51 0-91-23t-64-64.5-24-98.5q0-56 24-98.5t64-65.5 91-23zM499 0v143l6 123-10 123v353h96V0h-92zM286 601v68h396v-68H286z"/><glyph glyph-name="Emacron" unicode="Ē" horiz-adv-x="670" d="M196 398h360v-85H196v85zm9-311h408V0H105v700h494v-87H205V87zm-15 705v60h326v-60H190z"/><glyph glyph-name="emacron" unicode="ē" horiz-adv-x="612" d="M327-6q-85 0-149.5 35t-100 96T42 265t34.5 140 95 95.5T308 535q77 0 136-34t92.5-95.5T570 262q0-6-.5-14t-1.5-15H117v69h401l-39-24q1 51-21 91t-60.5 62.5T308 454q-50 0-89-22.5t-61-63-22-92.5v-16q0-53 24.5-94.5T229 101t101-23q47 0 85.5 16t67.5 48l53-62q-36-42-89.5-64T327-6zM144 642v60h326v-60H144z"/><glyph glyph-name="Ebreve" unicode="Ĕ" horiz-adv-x="670" d="M196 398h360v-85H196v85zm9-311h408V0H105v700h494v-87H205V87zm148 664q-68 0-114 36.5T191 887h65q2-37 30-58.5t67-21.5 67.5 21.5T450 887h65q-2-63-48-99.5T353 751z"/><glyph glyph-name="ebreve" unicode="ĕ" horiz-adv-x="612" d="M327-6q-85 0-149.5 35t-100 96T42 265t34.5 140 95 95.5T308 535q77 0 136-34t92.5-95.5T570 262q0-6-.5-14t-1.5-15H117v69h401l-39-24q1 51-21 91t-60.5 62.5T308 454q-50 0-89-22.5t-61-63-22-92.5v-16q0-53 24.5-94.5T229 101t101-23q47 0 85.5 16t67.5 48l53-62q-36-42-89.5-64T327-6zm-20 607q-68 0-114 36.5T145 737h65q2-37 30-58.5t67-21.5 67.5 21.5T404 737h65q-2-63-48-99.5T307 601z"/><glyph glyph-name="Edotaccent" unicode="Ė" horiz-adv-x="670" d="M196 398h360v-85H196v85zm9-311h408V0H105v700h494v-87H205V87zm148 688q-25 0-42 17t-17 42 17 42 42 17 42-17 17-42-17-42-42-17z"/><glyph glyph-name="edotaccent" unicode="ė" horiz-adv-x="612" d="M327-6q-85 0-149.5 35t-100 96T42 265t34.5 140 95 95.5T308 535q77 0 136-34t92.5-95.5T570 262q0-6-.5-14t-1.5-15H117v69h401l-39-24q1 51-21 91t-60.5 62.5T308 454q-50 0-89-22.5t-61-63-22-92.5v-16q0-53 24.5-94.5T229 101t101-23q47 0 85.5 16t67.5 48l53-62q-36-42-89.5-64T327-6zm-20 631q-25 0-42 17t-17 42 17 42 42 17 42-17 17-42-17-42-42-17z"/><glyph glyph-name="Eogonek" unicode="Ę" horiz-adv-x="670" d="M196 398h360v-85H196v85zm9-311h408V0H105v700h494v-87H205V87zm340-311q-56 0-88 28t-32 73q0 27 13.5 54T484-16t84 48l45-32q-44-20-70-39t-37.5-38-11.5-39q0-25 17.5-38.5T555-168q17 0 33.5 5t28.5 12l18-49q-18-11-41.5-17.5T545-224z"/><glyph glyph-name="eogonek" unicode="ę" horiz-adv-x="612" d="M436-224q-55 0-87.5 29T316-119q0 34 19 72.5T397 25l34-14q-23-8-49.5-12.5T327-6q-85 0-149.5 35t-100 96T42 265t34.5 140 95 95.5T308 535q77 0 136-34t92.5-95.5T570 262q0-6-.5-14t-1.5-15H117v69h401l-39-24q1 51-21 91t-60.5 62.5T308 454q-50 0-89-22.5t-61-63-22-92.5v-16q0-53 24.5-94.5T229 101t101-23q47 0 85.5 16t67.5 48l53-62q-8-10-18-18t-21-18q-44-37-68.5-65T394-71t-10-42q0-28 17.5-41.5T446-168q16 0 32.5 5t28.5 12l19-49q-19-11-42-17.5t-48-6.5z"/><glyph glyph-name="Ecaron" unicode="Ě" horiz-adv-x="670" d="M196 398h360v-85H196v85zm9-311h408V0H105v700h494v-87H205V87zm102 670L174 887h87l132-109h-80l132 109h87L399 757h-92z"/><glyph glyph-name="ecaron" unicode="ě" horiz-adv-x="612" d="M327-6q-85 0-149.5 35t-100 96T42 265t34.5 140 95 95.5T308 535q77 0 136-34t92.5-95.5T570 262q0-6-.5-14t-1.5-15H117v69h401l-39-24q1 51-21 91t-60.5 62.5T308 454q-50 0-89-22.5t-61-63-22-92.5v-16q0-53 24.5-94.5T229 101t101-23q47 0 85.5 16t67.5 48l53-62q-36-42-89.5-64T327-6zm-66 613L128 737h87l132-109h-80l132 109h87L353 607h-92z"/><glyph glyph-name="Gcircumflex" unicode="Ĝ" horiz-adv-x="772" d="M421-8q-81 0-149 26.5t-118 75T76 207 48 350t28 143 78.5 113.5 118.5 75T423 708q83 0 152-27t117-81l-62-62q-43 42-93.5 61.5T427 619q-60 0-111.5-20t-89-56-58-85.5T148 350q0-57 20.5-106.5t58-86T315 101t111-20q56 0 107.5 17.5T629 157l57-76q-52-44-121.5-66.5T421-8zM590 94v260h96V81zM231 757l133 130h92l133-130h-87L370 867h80L318 757h-87z"/><glyph glyph-name="gcircumflex" unicode="ĝ" horiz-adv-x="690" d="M323-200q-73 0-141.5 20.5T70-121l46 74q37-32 91-50.5T320-116q94 0 138 44t44 134v112l10 105-5 106v145h91V72q0-140-70-206t-205-66zM311 22q-77 0-137.5 32.5t-96 90.5T42 279q0 77 35.5 134.5t96 89.5T311 535q68 0 124-27.5t89.5-84.5T558 279q0-86-33.5-143T435 50.5 311 22zm11 84q53 0 94 22t64.5 61 23.5 90-23.5 90-64.5 60.5-94 21.5-94.5-21.5-65-60.5-23.5-90 23.5-90 65-61 94.5-22zM150 607l133 130h92l133-130h-87L289 717h80L237 607h-87z"/><glyph glyph-name="Gbreve" unicode="Ğ" horiz-adv-x="772" d="M421-8q-81 0-149 26.5t-118 75T76 207 48 350t28 143 78.5 113.5 118.5 75T423 708q83 0 152-27t117-81l-62-62q-43 42-93.5 61.5T427 619q-60 0-111.5-20t-89-56-58-85.5T148 350q0-57 20.5-106.5t58-86T315 101t111-20q56 0 107.5 17.5T629 157l57-76q-52-44-121.5-66.5T421-8zM590 94v260h96V81zM410 751q-68 0-114 36.5T248 887h65q2-37 30-58.5t67-21.5 67.5 21.5T507 887h65q-2-63-48-99.5T410 751z"/><glyph glyph-name="gbreve" unicode="ğ" horiz-adv-x="690" d="M323-200q-73 0-141.5 20.5T70-121l46 74q37-32 91-50.5T320-116q94 0 138 44t44 134v112l10 105-5 106v145h91V72q0-140-70-206t-205-66zM311 22q-77 0-137.5 32.5t-96 90.5T42 279q0 77 35.5 134.5t96 89.5T311 535q68 0 124-27.5t89.5-84.5T558 279q0-86-33.5-143T435 50.5 311 22zm11 84q53 0 94 22t64.5 61 23.5 90-23.5 90-64.5 60.5-94 21.5-94.5-21.5-65-60.5-23.5-90 23.5-90 65-61 94.5-22zm7 495q-68 0-114 36.5T167 737h65q2-37 30-58.5t67-21.5 67.5 21.5T426 737h65q-2-63-48-99.5T329 601z"/><glyph glyph-name="Gdotaccent" unicode="Ġ" horiz-adv-x="772" d="M421-8q-81 0-149 26.5t-118 75T76 207 48 350t28 143 78.5 113.5 118.5 75T423 708q83 0 152-27t117-81l-62-62q-43 42-93.5 61.5T427 619q-60 0-111.5-20t-89-56-58-85.5T148 350q0-57 20.5-106.5t58-86T315 101t111-20q56 0 107.5 17.5T629 157l57-76q-52-44-121.5-66.5T421-8zM590 94v260h96V81zM410 775q-25 0-42 17t-17 42 17 42 42 17 42-17 17-42-17-42-42-17z"/><glyph glyph-name="gdotaccent" unicode="ġ" horiz-adv-x="690" d="M323-200q-73 0-141.5 20.5T70-121l46 74q37-32 91-50.5T320-116q94 0 138 44t44 134v112l10 105-5 106v145h91V72q0-140-70-206t-205-66zM311 22q-77 0-137.5 32.5t-96 90.5T42 279q0 77 35.5 134.5t96 89.5T311 535q68 0 124-27.5t89.5-84.5T558 279q0-86-33.5-143T435 50.5 311 22zm11 84q53 0 94 22t64.5 61 23.5 90-23.5 90-64.5 60.5-94 21.5-94.5-21.5-65-60.5-23.5-90 23.5-90 65-61 94.5-22zm7 519q-25 0-42 17t-17 42 17 42 42 17 42-17 17-42-17-42-42-17z"/><glyph glyph-name="uni0122" unicode="Ģ" horiz-adv-x="772" d="M421-8q-81 0-149 26.5t-118 75T76 207 48 350t28 143 78.5 113.5 118.5 75T423 708q83 0 152-27t117-81l-62-62q-43 42-93.5 61.5T427 619q-60 0-111.5-20t-89-56-58-85.5T148 350q0-57 20.5-106.5t58-86T315 101t111-20q56 0 107.5 17.5T629 157l57-76q-52-44-121.5-66.5T421-8zM590 94v260h96V81zM363-263l33 114 9-36q-24 0-37.5 12.5T354-140t14 33 37 13q24 0 37.5-13.5T456-140q0-10-2.5-23T443-191l-30-72h-50z"/><glyph glyph-name="uni0123" unicode="ģ" horiz-adv-x="690" d="M323-200q-73 0-141.5 20.5T70-121l46 74q37-32 91-50.5T320-116q94 0 138 44t44 134v112l10 105-5 106v145h91V72q0-140-70-206t-205-66zM311 22q-77 0-137.5 32.5t-96 90.5T42 279q0 77 35.5 134.5t96 89.5T311 535q68 0 124-27.5t89.5-84.5T558 279q0-86-33.5-143T435 50.5 311 22zm11 84q53 0 94 22t64.5 61 23.5 90-23.5 90-64.5 60.5-94 21.5-94.5-21.5-65-60.5-23.5-90 23.5-90 65-61 94.5-22zm7 495q-27 0-41.5 13.5T273 647q0 10 3.5 22t11.5 28l37 94h55l-39-135-12 36q26 0 41-12t15-33q0-20-14.5-33T329 601z"/><glyph glyph-name="Hcircumflex" unicode="Ĥ" horiz-adv-x="812" d="M607 700h100V0H607v700zM205 0H105v700h100V0zm411 312H195v87h421v-87zM226 757l133 130h92l133-130h-87L365 867h80L313 757h-87z"/><glyph glyph-name="hcircumflex" unicode="ĥ" horiz-adv-x="681" d="M374 535q65 0 114.5-25t77.5-76 28-129V0h-96v294q0 77-37.5 116T355 449q-51 0-89-20t-58.5-59-20.5-97V0H91v742h96V387l-19 38q26 52 80 81t126 29zM-40 799 93 929h92l133-130h-87L99 909h80L47 799h-87z"/><glyph glyph-name="Hbar" unicode="Ħ" horiz-adv-x="827" d="M615 700h100V0H615v700zM213 0H113v700h100V0zm411 312H203v87h421v-87zM9 514v79h807v-79H9z"/><glyph glyph-name="hbar" unicode="ħ" horiz-adv-x="681" d="M374 535q65 0 114.5-25t77.5-76 28-129V0h-96v294q0 77-37.5 116T355 449q-51 0-89-20t-58.5-59-20.5-97V0H91v742h96V387l-19 38q26 52 80 81t126 29zM0 601v68h396v-68H0z"/><glyph glyph-name="Itilde" unicode="Ĩ" horiz-adv-x="310" d="M105 0v700h100V0H105zm120 760q-24 0-42.5 10T149 793.5 120 817t-28 10q-22 0-35.5-16.5T41 765h-54q2 56 28 89t70 33q24 0 43-10.5t34-24 28.5-23.5 27.5-10q22 0 36 16t15 44h54q-1-53-27.5-86T225 760z"/><glyph glyph-name="itilde" unicode="ĩ" horiz-adv-x="279" d="M91 0v530h96V0H91zm108 610q-22 0-38.5 10T131 643.5 107 667t-23 10q-17 0-25.5-16.5T50 615H-4q0 59 22 90.5T79 737q23 0 39-10.5t29-23.5 24-23 23-10q17 0 25.5 16t8.5 43h54q0-56-22-87.5T199 610z"/><glyph glyph-name="Imacron" unicode="Ī" horiz-adv-x="310" d="M105 0v700h100V0H105zM22 792v60h266v-60H22z"/><glyph glyph-name="imacron" unicode="ī" horiz-adv-x="279" d="M91 0v530h96V0H91zM6 642v60h266v-60H6z"/><glyph glyph-name="Ibreve" unicode="Ĭ" horiz-adv-x="310" d="M105 0v700h100V0H105zm50 751q-68 0-114 36.5T-7 887h65q2-37 30-58.5t67-21.5 67.5 21.5T252 887h65q-2-63-48-99.5T155 751z"/><glyph glyph-name="ibreve" unicode="ĭ" horiz-adv-x="279" d="M91 0v530h96V0H91zm48 601q-59 0-98 36.5T2 737h62q0-37 20-58.5t55-21.5 55 21.5 20 58.5h62q0-63-39-99.5T139 601z"/><glyph glyph-name="Iogonek" unicode="Į" horiz-adv-x="310" d="M105 0v700h100V0H105zm73-224q-45 0-72.5 26.5T78-127q0 39 21 79.5T170 31l35-31q-37-36-48-64.5T146-116q0-24 13-38t31-14q9 0 17.5 3t16.5 9l17-48q-24-20-63-20z"/><glyph glyph-name="iogonek" unicode="į" horiz-adv-x="279" d="M91 0v530h96V0H91zm48 632q-28 0-46.5 18T74 694q0 27 18.5 45t46.5 18 46.5-17.5T204 696q0-27-18-45.5T139 632zm21-856q-45 0-72.5 26.5T60-127q0 39 21 79.5T152 31l35-31q-37-36-48-64.5T128-116q0-24 13-38t31-14q9 0 17.5 3t16.5 9l17-48q-24-20-63-20z"/><glyph glyph-name="Idotaccent" unicode="İ" horiz-adv-x="310" d="M105 0v700h100V0H105zm50 775q-25 0-42 17t-17 42 17 42 42 17 42-17 17-42-17-42-42-17z"/><glyph glyph-name="dotlessi" unicode="ı" horiz-adv-x="279" d="M91 0v530h96V0H91z"/><glyph glyph-name="IJ" unicode="Ĳ" horiz-adv-x="720" d="M327-8q-71 0-132.5 19.5T87 63l39 80q43-30 95.5-46T329 81q92 0 142 54t50 167v398h100V307q0-104-37-174T481.5 27.5 327-8zM99 309v391h100V309H99z"/><glyph glyph-name="ij" unicode="ĳ" horiz-adv-x="562" d="M91 0v530h96V0H91zm48 632q-28 0-46.5 18T74 694q0 27 18.5 45t46.5 18 46.5-17.5T204 696q0-27-18-45.5T139 632zm163-832q-33 0-63.5 8T187-168l31 74q30-25 78-25 38 0 58.5 23.5T375-26v556h96V-24q0-81-43.5-128.5T302-200zm121 832q-28 0-46.5 18T358 694q0 27 18.5 45t46.5 18 46.5-17.5T488 696q0-27-18-45.5T423 632z"/><glyph glyph-name="Jcircumflex" unicode="Ĵ" horiz-adv-x="513" d="M195-8Q133-8 79 18T-9 93l58 68q29-40 65.5-61.5T195 78q120 0 120 142v393H62v87h352V225q0-117-55.5-175T195-8zM60 757l133 130h92l133-130h-87L199 867h80L147 757H60z"/><glyph glyph-name="jcircumflex" unicode="ĵ" horiz-adv-x="284" d="M23-200q-33 0-63.5 8T-92-168l31 74q30-25 78-25 38 0 58.5 23.5T96-26v556h96V-24q0-81-43.5-128.5T23-200zm-33 807L99 737h90l109-130h-82L109 717h70L72 607h-82z"/><glyph glyph-name="uni0136" unicode="Ķ" horiz-adv-x="719" d="m193 169-5 122 397 409h114L392 376l-56-62zM105 0v700h100V0H105zm496 0L314 334l67 74L718 0H601zM333-263l33 114 9-36q-24 0-37.5 12.5T324-140t14 33 37 13q24 0 37.5-13.5T426-140q0-10-2.5-23T413-191l-30-72h-50z"/><glyph glyph-name="uni0137" unicode="ķ" horiz-adv-x="616" d="m169 128 2 123 305 279h116L358 300l-52-44zM91 0v742h96V0H91zm405 0L288 258l62 77L614 0H496zM271-263l33 114 9-36q-24 0-37.5 12.5T262-140t14 33 37 13q24 0 37.5-13.5T364-140q0-10-2.5-23T351-191l-30-72h-50z"/><glyph glyph-name="kgreenlandic" unicode="ĸ" horiz-adv-x="606" d="m169 128 2 123 305 279h116L358 300l-52-44zM91 0v530h96V0H91zm405 0L288 258l62 77L614 0H496z"/><glyph glyph-name="Lacute" unicode="Ĺ" horiz-adv-x="594" d="M105 0v700h100V87h379V0H105zM80 757l136 130h122L170 757H80z"/><glyph glyph-name="lacute" unicode="ĺ" horiz-adv-x="279" d="M91 0v742h96V0H91zM64 819l136 130h122L154 819H64z"/><glyph glyph-name="uni013B" unicode="Ļ" horiz-adv-x="594" d="M105 0v700h100V87h379V0H105zm209-263 33 114 9-36q-24 0-37.5 12.5T305-140t14 33 37 13q24 0 37.5-13.5T407-140q0-10-2.5-23T394-191l-30-72h-50z"/><glyph glyph-name="uni013C" unicode="ļ" horiz-adv-x="279" d="M91 0v742h96V0H91zm6-263 33 114 9-36q-24 0-37.5 12.5T88-140t14 33 37 13q24 0 37.5-13.5T190-140q0-10-2.5-23T177-191l-30-72H97z"/><glyph glyph-name="Lcaron" unicode="Ľ" horiz-adv-x="594" d="M105 0v700h100V87h379V0H105zm333 540v193h79l-12-193h-67z"/><glyph glyph-name="lcaron" unicode="ľ" horiz-adv-x="279" d="M91 0v742h96V0H91zm185 582v193h79l-12-193h-67z"/><glyph glyph-name="Ldot" unicode="Ŀ" horiz-adv-x="594" d="M105 0v700h100V87h379V0H105zm347 331q-25 0-43 17.5T391 393t18 44.5 43 17.5 42.5-17.5T512 393t-17.5-44.5T452 331z"/><glyph glyph-name="ldot" unicode="ŀ" horiz-adv-x="345" d="M91 0v742h96V0H91zm221 301q-25 0-41.5 16.5T254 358q0 23 16.5 40t41.5 17q24 0 40.5-17t16.5-40q0-24-16.5-40.5T312 301z"/><glyph glyph-name="Lslash" unicode="Ł" horiz-adv-x="601" d="M113 0v700h100V87h379V0H113zM52 247 8 303l316 240 44-56z"/><glyph glyph-name="lslash" unicode="ł" horiz-adv-x="294" d="M99 0v742h96V0H99zM36 229l-43 57 265 202 43-58z"/><glyph glyph-name="Nacute" unicode="Ń" horiz-adv-x="812" d="M105 0v700h82l463-575h-43v575h100V0h-82L162 575h43V0H105zm225 757 136 130h122L420 757h-90z"/><glyph glyph-name="nacute" unicode="ń" horiz-adv-x="681" d="M374 535q65 0 114.5-25t77.5-76 28-129V0h-96v294q0 77-37.5 116T355 449q-51 0-89-20t-58.5-59-20.5-97V0H91v530h92V387l-15 38q26 52 80 81t126 29zm-106 72 136 130h122L358 607h-90z"/><glyph glyph-name="uni0145" unicode="Ņ" horiz-adv-x="812" d="M105 0v700h82l463-575h-43v575h100V0h-82L162 575h43V0H105zm258-263 33 114 9-36q-24 0-37.5 12.5T354-140t14 33 37 13q24 0 37.5-13.5T456-140q0-10-2.5-23T443-191l-30-72h-50z"/><glyph glyph-name="uni0146" unicode="ņ" horiz-adv-x="681" d="M374 535q65 0 114.5-25t77.5-76 28-129V0h-96v294q0 77-37.5 116T355 449q-51 0-89-20t-58.5-59-20.5-97V0H91v530h92V387l-15 38q26 52 80 81t126 29zm-73-798 33 114 9-36q-24 0-37.5 12.5T292-140t14 33 37 13q24 0 37.5-13.5T394-140q0-10-2.5-23T381-191l-30-72h-50z"/><glyph glyph-name="Ncaron" unicode="Ň" horiz-adv-x="812" d="M105 0v700h82l463-575h-43v575h100V0h-82L162 575h43V0H105zm254 757L226 887h87l132-109h-80l132 109h87L451 757h-92z"/><glyph glyph-name="ncaron" unicode="ň" horiz-adv-x="681" d="M374 535q65 0 114.5-25t77.5-76 28-129V0h-96v294q0 77-37.5 116T355 449q-51 0-89-20t-58.5-59-20.5-97V0H91v530h92V387l-15 38q26 52 80 81t126 29zm-77 72L164 737h87l132-109h-80l132 109h87L389 607h-92z"/><glyph glyph-name="napostrophe" unicode="ŉ" horiz-adv-x="728" d="m7 469 50 203 13-58q-29 0-48.5 18T2 680q0 31 19.5 49.5T69 748q29 0 47-19.5t18-48.5q0-9-1-18.5t-4.5-21.5-10.5-31L70 469H7zm414 66q65 0 114.5-25t77.5-76 28-129V0h-96v294q0 77-37.5 116T402 449q-51 0-89-20t-58.5-59-20.5-97V0h-96v530h92V387l-15 38q26 52 80 81t126 29z"/><glyph glyph-name="Eng" unicode="Ŋ" horiz-adv-x="812" d="M105 0v700h82l463-575L625 0 162 575h43V0H105zm385-200q-53 0-100 20.5T310-121l49 72q24-30 57-47.5t74-17.5q117 0 117 143v671h100V42q0-123-55-182.5T490-200z"/><glyph glyph-name="eng" unicode="ŋ" horiz-adv-x="681" d="M374 535q65 0 114.5-25t77.5-76 28-129V-24q0-81-43.5-128.5T425-200q-33 0-63.5 8T310-168l31 74q30-25 78-25 38 0 58.5 23.5T498-26v320q0 77-37.5 116T355 449q-51 0-89-20t-58.5-59-20.5-97V0H91v530h92V387l-15 38q26 52 80 81t126 29z"/><glyph glyph-name="Omacron" unicode="Ō" horiz-adv-x="840" d="M421-8q-80 0-148.5 27T154 94.5 76 208 48 350t28 142 78 113.5T272 681t149 27q80 0 147.5-26.5t118-75 78-113.5T792 350t-27.5-143-78-113.5-118-75T421-8zm0 89q58 0 107.5 20t86 56.5 57 85.5T692 350t-20.5 107-57 85.5-86 56.5T421 619q-59 0-108.5-20T226 542.5 168.5 457 148 350t20.5-107 57.5-85.5 86.5-56.5T421 81zM258 792v60h326v-60H258z"/><glyph glyph-name="omacron" unicode="ō" horiz-adv-x="635" d="M318-6q-80 0-142 35t-98 96.5T42 265q0 79 36 140t98 95.5T318 535q79 0 141.5-34.5t98-95T593 265q0-79-35.5-140t-98-96T318-6zm0 84q51 0 91.5 23t63.5 65.5 23 98.5q0 57-23 98.5T409.5 428 318 451t-91-23-64-64.5-24-98.5q0-56 24-98.5t64-65.5 91-23zM154 642v60h326v-60H154z"/><glyph glyph-name="Obreve" unicode="Ŏ" horiz-adv-x="840" d="M421-8q-80 0-148.5 27T154 94.5 76 208 48 350t28 142 78 113.5T272 681t149 27q80 0 147.5-26.5t118-75 78-113.5T792 350t-27.5-143-78-113.5-118-75T421-8zm0 89q58 0 107.5 20t86 56.5 57 85.5T692 350t-20.5 107-57 85.5-86 56.5T421 619q-59 0-108.5-20T226 542.5 168.5 457 148 350t20.5-107 57.5-85.5 86.5-56.5T421 81zm0 670q-68 0-114 36.5T259 887h65q2-37 30-58.5t67-21.5 67.5 21.5T518 887h65q-2-63-48-99.5T421 751z"/><glyph glyph-name="obreve" unicode="ŏ" horiz-adv-x="635" d="M318-6q-80 0-142 35t-98 96.5T42 265q0 79 36 140t98 95.5T318 535q79 0 141.5-34.5t98-95T593 265q0-79-35.5-140t-98-96T318-6zm0 84q51 0 91.5 23t63.5 65.5 23 98.5q0 57-23 98.5T409.5 428 318 451t-91-23-64-64.5-24-98.5q0-56 24-98.5t64-65.5 91-23zm-1 523q-68 0-114 36.5T155 737h65q2-37 30-58.5t67-21.5 67.5 21.5T414 737h65q-2-63-48-99.5T317 601z"/><glyph glyph-name="Ohungarumlaut" unicode="Ő" horiz-adv-x="840" d="M421-8q-80 0-148.5 27T154 94.5 76 208 48 350t28 142 78 113.5T272 681t149 27q80 0 147.5-26.5t118-75 78-113.5T792 350t-27.5-143-78-113.5-118-75T421-8zm0 89q58 0 107.5 20t86 56.5 57 85.5T692 350t-20.5 107-57 85.5-86 56.5T421 619q-59 0-108.5-20T226 542.5 168.5 457 148 350t20.5-107 57.5-85.5 86.5-56.5T421 81zm47 676 89 130h101L549 757h-81zm-175 0 90 130h102L374 757h-81z"/><glyph glyph-name="ohungarumlaut" unicode="ő" horiz-adv-x="635" d="M318-6q-80 0-142 35t-98 96.5T42 265q0 79 36 140t98 95.5T318 535q79 0 141.5-34.5t98-95T593 265q0-79-35.5-140t-98-96T318-6zm0 84q51 0 91.5 23t63.5 65.5 23 98.5q0 57-23 98.5T409.5 428 318 451t-91-23-64-64.5-24-98.5q0-56 24-98.5t64-65.5 91-23zm46 529 89 130h101L445 607h-81zm-175 0 90 130h102L270 607h-81z"/><glyph glyph-name="OE" unicode="Œ" horiz-adv-x="1126" d="M426 0Q314 0 229 44T96 166.5 48 349t48 183.5T229 656t197 44h160v-87H431q-85 0-149-33t-99-92.5T148 349q0-78 35-137t99-92 149-33h155V0H426zm226 398h360v-85H652v85zm8-311h409V0H561v700h494v-87H660V87z"/><glyph glyph-name="oe" unicode="œ" horiz-adv-x="1067" d="M318-6q-80 0-142 35t-98 96-36 140 36 140 98 95.5T318 535q79 0 139-34.5t93.5-95.5T584 265t-33.5-140T457 29 318-6zm0 84q51 0 91.5 23t63.5 65.5 23 98.5q0 57-23 98.5T409.5 428 318 451t-91-23-64-64.5-24-98.5q0-56 24-98.5t64-65.5 91-23zM781-6q-84 0-147 35t-97 96-34 140 33 140 91.5 95.5T762 535q77 0 136-34t92.5-95.5T1024 262v-14l-1-15H572v69h400l-38-24q1 51-21.5 91t-61 62.5T762 454q-50 0-88.5-22.5t-60.5-63-22-92.5v-16q0-53 24-94.5t68-64.5 101-23q47 0 86 16t67 48l53-62q-36-42-89-64T781-6z"/><glyph glyph-name="Racute" unicode="Ŕ" horiz-adv-x="727" d="M105 0v700h273q92 0 157-29t100-84 35-131-35-130.5T535 242t-157-29H160l45 46V0H105zm468 0L395 254h107L682 0H573zM205 249l-45 49h215q96 0 145.5 41.5T570 456t-49.5 116T375 613H160l45 50V249zm91 508 136 130h122L386 757h-90z"/><glyph glyph-name="racute" unicode="ŕ" horiz-adv-x="410" d="M91 0v530h92V386l-9 36q22 55 74 84t128 29v-93q-6 1-11.5 1H354q-77 0-122-46t-45-133V0H91zm68 607 136 130h122L249 607h-90z"/><glyph glyph-name="uni0156" unicode="Ŗ" horiz-adv-x="727" d="M105 0v700h273q92 0 157-29t100-84 35-131-35-130.5T535 242t-157-29H160l45 46V0H105zm468 0L395 254h107L682 0H573zM205 249l-45 49h215q96 0 145.5 41.5T570 456t-49.5 116T375 613H160l45 50V249zm124-512 33 114 9-36q-24 0-37.5 12.5T320-140t14 33 37 13q24 0 37.5-13.5T422-140q0-10-2.5-23T409-191l-30-72h-50z"/><glyph glyph-name="uni0157" unicode="ŗ" horiz-adv-x="410" d="M91 0v530h92V386l-9 36q22 55 74 84t128 29v-93q-6 1-11.5 1H354q-77 0-122-46t-45-133V0H91zm6-263 33 114 9-36q-24 0-37.5 12.5T88-140t14 33 37 13q24 0 37.5-13.5T190-140q0-10-2.5-23T177-191l-30-72H97z"/><glyph glyph-name="Rcaron" unicode="Ř" horiz-adv-x="727" d="M105 0v700h273q92 0 157-29t100-84 35-131-35-130.5T535 242t-157-29H160l45 46V0H105zm468 0L395 254h107L682 0H573zM205 249l-45 49h215q96 0 145.5 41.5T570 456t-49.5 116T375 613H160l45 50V249zm120 508L192 887h87l132-109h-80l132 109h87L417 757h-92z"/><glyph glyph-name="rcaron" unicode="ř" horiz-adv-x="410" d="M91 0v530h92V386l-9 36q22 55 74 84t128 29v-93q-6 1-11.5 1H354q-77 0-122-46t-45-133V0H91zm97 607L55 737h87l132-109h-80l132 109h87L280 607h-92z"/><glyph glyph-name="Sacute" unicode="Ś" horiz-adv-x="621" d="M309-8q-80 0-153 24.5T41 80l37 78q40-35 102-58t129-23q61 0 99 14t56 38.5 18 55.5q0 36-23.5 58t-61 35.5T315 302t-90.5 23.5-83 34.5T81 416.5 58 508q0 54 28.5 99.5t88 73T326 708q61 0 121-16t104-46l-33-80q-45 30-95 43.5T326 623q-59 0-97-15t-55.5-40-17.5-56q0-37 23.5-59t61-35 82.5-23.5 90.5-23.5 83-34 60.5-56 23-90q0-53-29-98.5t-89.5-73T309-8zm-62 765 136 130h122L337 757h-90z"/><glyph glyph-name="sacute" unicode="ś" horiz-adv-x="501" d="M243-6q-66 0-125.5 18T24 56l40 76q34-23 84-39t102-16q67 0 96.5 19t29.5 53q0 25-18 39t-47.5 21-65.5 12.5-72 14-66 24-48 43T41 376q0 48 27 84t76.5 55.5T262 535q52 0 105.5-12.5T455 487l-41-76q-36 24-75 33t-78 9q-63 0-94-20.5T136 380q0-27 18.5-41.5t48-22.5 65.5-13.5 72-14 65.5-23.5 48-42 18.5-72q0-48-28-83t-79-54.5T243-6zm-70 613 136 130h122L263 607h-90z"/><glyph glyph-name="Scircumflex" unicode="Ŝ" horiz-adv-x="621" d="M309-8q-80 0-153 24.5T41 80l37 78q40-35 102-58t129-23q61 0 99 14t56 38.5 18 55.5q0 36-23.5 58t-61 35.5T315 302t-90.5 23.5-83 34.5T81 416.5 58 508q0 54 28.5 99.5t88 73T326 708q61 0 121-16t104-46l-33-80q-45 30-95 43.5T326 623q-59 0-97-15t-55.5-40-17.5-56q0-37 23.5-59t61-35 82.5-23.5 90.5-23.5 83-34 60.5-56 23-90q0-53-29-98.5t-89.5-73T309-8zM143 757l133 130h92l133-130h-87L282 867h80L230 757h-87z"/><glyph glyph-name="scircumflex" unicode="ŝ" horiz-adv-x="501" d="M243-6q-66 0-125.5 18T24 56l40 76q34-23 84-39t102-16q67 0 96.5 19t29.5 53q0 25-18 39t-47.5 21-65.5 12.5-72 14-66 24-48 43T41 376q0 48 27 84t76.5 55.5T262 535q52 0 105.5-12.5T455 487l-41-76q-36 24-75 33t-78 9q-63 0-94-20.5T136 380q0-27 18.5-41.5t48-22.5 65.5-13.5 72-14 65.5-23.5 48-42 18.5-72q0-48-28-83t-79-54.5T243-6zM69 607l133 130h92l133-130h-87L208 717h80L156 607H69z"/><glyph glyph-name="Scedilla" unicode="Ş" horiz-adv-x="621" d="M309-8q-80 0-153 24.5T41 80l37 78q40-35 102-58t129-23q61 0 99 14t56 38.5 18 55.5q0 36-23.5 58t-61 35.5T315 302t-90.5 23.5-83 34.5T81 416.5 58 508q0 54 28.5 99.5t88 73T326 708q61 0 121-16t104-46l-33-80q-45 30-95 43.5T326 623q-59 0-97-15t-55.5-40-17.5-56q0-37 23.5-59t61-35 82.5-23.5 90.5-23.5 83-34 60.5-56 23-90q0-53-29-98.5t-89.5-73T309-8zm-12-216q-26 0-48 5.5T208-202l21 49q16-9 32.5-13t35.5-4q29 0 42.5 10.5T353-130q0 18-13.5 28.5T296-91h-27l25 98h55l-15-57q43-4 65-27t22-56q0-42-34-66.5T297-224z"/><glyph glyph-name="scedilla" unicode="ş" horiz-adv-x="501" d="M243-6q-66 0-125.5 18T24 56l40 76q34-23 84-39t102-16q67 0 96.5 19t29.5 53q0 25-18 39t-47.5 21-65.5 12.5-72 14-66 24-48 43T41 376q0 48 27 84t76.5 55.5T262 535q52 0 105.5-12.5T455 487l-41-76q-36 24-75 33t-78 9q-63 0-94-20.5T136 380q0-27 18.5-41.5t48-22.5 65.5-13.5 72-14 65.5-23.5 48-42 18.5-72q0-48-28-83t-79-54.5T243-6zm-20-218q-26 0-48 5.5T134-202l21 49q16-9 32.5-13t35.5-4q29 0 42.5 10.5T279-130q0 18-13.5 28.5T222-91h-27l25 98h55l-15-57q43-4 65-27t22-56q0-42-34-66.5T223-224z"/><glyph glyph-name="Scaron" unicode="Š" horiz-adv-x="621" d="M309-8q-80 0-153 24.5T41 80l37 78q40-35 102-58t129-23q61 0 99 14t56 38.5 18 55.5q0 36-23.5 58t-61 35.5T315 302t-90.5 23.5-83 34.5T81 416.5 58 508q0 54 28.5 99.5t88 73T326 708q61 0 121-16t104-46l-33-80q-45 30-95 43.5T326 623q-59 0-97-15t-55.5-40-17.5-56q0-37 23.5-59t61-35 82.5-23.5 90.5-23.5 83-34 60.5-56 23-90q0-53-29-98.5t-89.5-73T309-8zm-33 765L143 887h87l132-109h-80l132 109h87L368 757h-92z"/><glyph glyph-name="scaron" unicode="š" horiz-adv-x="501" d="M243-6q-66 0-125.5 18T24 56l40 76q34-23 84-39t102-16q67 0 96.5 19t29.5 53q0 25-18 39t-47.5 21-65.5 12.5-72 14-66 24-48 43T41 376q0 48 27 84t76.5 55.5T262 535q52 0 105.5-12.5T455 487l-41-76q-36 24-75 33t-78 9q-63 0-94-20.5T136 380q0-27 18.5-41.5t48-22.5 65.5-13.5 72-14 65.5-23.5 48-42 18.5-72q0-48-28-83t-79-54.5T243-6zm-41 613L69 737h87l132-109h-80l132 109h87L294 607h-92z"/><glyph glyph-name="uni0162" unicode="Ţ" horiz-adv-x="587" d="M244 0v613H4v87h579v-87H343V0h-99zm24-224q-26 0-48 5.5T179-202l21 49q16-9 32.5-13t35.5-4q29 0 42.5 10.5T324-130q0 18-13.5 28.5T267-91h-27l25 98h55l-15-57q43-4 65-27t22-56q0-42-34-66.5T268-224z"/><glyph glyph-name="uni0163" unicode="ţ" horiz-adv-x="414" d="M273-6q-80 0-124 43t-44 123v486h96V164q0-43 21.5-66T284 75q45 0 75 25l30-69q-22-19-52.5-28T273-6zM15 451v79h338v-79H15zm213-675q-26 0-48 5.5T139-202l21 49q16-9 32.5-13t35.5-4q29 0 42.5 10.5T284-130q0 18-13.5 28.5T227-91h-27l25 98h55l-15-57q43-4 65-27t22-56q0-42-34-66.5T228-224z"/><glyph glyph-name="Tcaron" unicode="Ť" horiz-adv-x="587" d="M244 0v613H4v87h579v-87H343V0h-99zm3 757L114 887h87l132-109h-80l132 109h87L339 757h-92z"/><glyph glyph-name="tcaron" unicode="ť" horiz-adv-x="414" d="M273-6q-80 0-124 43t-44 123v486h96V164q0-43 21.5-66T284 75q45 0 75 25l30-69q-22-19-52.5-28T273-6zM15 451v79h338v-79H15zm270 145v169h76l-11-169h-65z"/><glyph glyph-name="Tbar" unicode="Ŧ" horiz-adv-x="587" d="M244 0v613H4v87h579v-87H343V0h-99zM93 300v79h400v-79H93z"/><glyph glyph-name="tbar" unicode="ŧ" horiz-adv-x="424" d="M278-6q-80 0-124 43t-44 123v486h96V164q0-43 21.5-66T289 75q45 0 75 25l30-69q-22-19-52.5-28T278-6zM20 451v79h338v-79H20zm12-196v67h315v-67H32z"/><glyph glyph-name="Utilde" unicode="Ũ" horiz-adv-x="791" d="M395-8Q257-8 178 71T99 302v398h100V306q0-117 51.5-171T396 81q95 0 146.5 54T594 306v394h97V302q0-152-78.5-231T395-8zm71 768q-24 0-42.5 10T390 793.5 361 817t-28 10q-22 0-35.5-16.5T282 765h-54q2 56 28 89t70 33q24 0 43-10.5t34-24 28.5-23.5 27.5-10q22 0 36 16t15 44h54q-1-53-27.5-86T466 760z"/><glyph glyph-name="utilde" unicode="ũ" horiz-adv-x="677" d="M314-6q-68 0-119.5 25t-80 76.5T86 225v305h96V236q0-78 37.5-117T325 80q50 0 87 20.5t57 60 20 95.5v274h96V0h-91v143l15-38q-26-53-78-82T314-6zm92 616q-24 0-42.5 10T330 643.5 301 667t-28 10q-22 0-35.5-16.5T222 615h-54q2 56 28 89t70 33q24 0 43-10.5t34-24 28.5-23.5 27.5-10q22 0 36 16t15 44h54q-1-53-27.5-86T406 610z"/><glyph glyph-name="Umacron" unicode="Ū" horiz-adv-x="791" d="M395-8Q257-8 178 71T99 302v398h100V306q0-117 51.5-171T396 81q95 0 146.5 54T594 306v394h97V302q0-152-78.5-231T395-8zM233 792v60h326v-60H233z"/><glyph glyph-name="umacron" unicode="ū" horiz-adv-x="677" d="M314-6q-68 0-119.5 25t-80 76.5T86 225v305h96V236q0-78 37.5-117T325 80q50 0 87 20.5t57 60 20 95.5v274h96V0h-91v143l15-38q-26-53-78-82T314-6zM173 642v60h326v-60H173z"/><glyph glyph-name="Ubreve" unicode="Ŭ" horiz-adv-x="791" d="M395-8Q257-8 178 71T99 302v398h100V306q0-117 51.5-171T396 81q95 0 146.5 54T594 306v394h97V302q0-152-78.5-231T395-8zm1 759q-68 0-114 36.5T234 887h65q2-37 30-58.5t67-21.5 67.5 21.5T493 887h65q-2-63-48-99.5T396 751z"/><glyph glyph-name="ubreve" unicode="ŭ" horiz-adv-x="677" d="M314-6q-68 0-119.5 25t-80 76.5T86 225v305h96V236q0-78 37.5-117T325 80q50 0 87 20.5t57 60 20 95.5v274h96V0h-91v143l15-38q-26-53-78-82T314-6zm22 607q-68 0-114 36.5T174 737h65q2-37 30-58.5t67-21.5 67.5 21.5T433 737h65q-2-63-48-99.5T336 601z"/><glyph glyph-name="Uring" unicode="Ů" horiz-adv-x="791" d="M395-8Q257-8 178 71T99 302v398h100V306q0-117 51.5-171T396 81q95 0 146.5 54T594 306v394h97V302q0-152-78.5-231T395-8zm0 772q-31 0-56 15t-39.5 39-14.5 54 14.5 55 39.5 40 56 15q32 0 57-15t39.5-40 14.5-55-14.5-54-39.5-39-57-15zm0 42q29 0 47.5 19t18.5 47q0 29-18.5 48T395 939q-28 0-46.5-18.5T330 872q0-28 18-47t47-19z"/><glyph glyph-name="uring" unicode="ů" horiz-adv-x="677" d="M314-6q-68 0-119.5 25t-80 76.5T86 225v305h96V236q0-78 37.5-117T325 80q50 0 87 20.5t57 60 20 95.5v274h96V0h-91v143l15-38q-26-53-78-82T314-6zm21 600q-31 0-56 15t-39.5 39-14.5 54 14.5 55 39.5 40 56 15q32 0 57-15t39.5-40 14.5-55-14.5-54-39.5-39-57-15zm0 42q29 0 47.5 19t18.5 47q0 29-18.5 48T335 769q-28 0-46.5-18.5T270 702q0-28 18-47t47-19z"/><glyph glyph-name="Uhungarumlaut" unicode="Ű" horiz-adv-x="791" d="M395-8Q257-8 178 71T99 302v398h100V306q0-117 51.5-171T396 81q95 0 146.5 54T594 306v394h97V302q0-152-78.5-231T395-8zm48 765 89 130h101L524 757h-81zm-175 0 90 130h102L349 757h-81z"/><glyph glyph-name="uhungarumlaut" unicode="ű" horiz-adv-x="677" d="M314-6q-68 0-119.5 25t-80 76.5T86 225v305h96V236q0-78 37.5-117T325 80q50 0 87 20.5t57 60 20 95.5v274h96V0h-91v143l15-38q-26-53-78-82T314-6zm69 613 89 130h101L464 607h-81zm-175 0 90 130h102L289 607h-81z"/><glyph glyph-name="Uogonek" unicode="Ų" horiz-adv-x="791" d="M594 700h97V302q0-122-49-193T510 8q-59-21-90-42.5t-42.5-42T366-116q0-25 17.5-38.5T428-168q16 0 32.5 5t28.5 12l19-49q-19-11-42-17.5t-48-6.5q-56 0-88 28t-32 73q0 27 13.5 54.5T356-15t85 47l-3-38q-10-1-21-1.5T395-8Q257-8 178 71T99 302v398h100V306q0-117 51.5-171T396 81q95 0 146.5 54T594 306v394z"/><glyph glyph-name="uogonek" unicode="ų" horiz-adv-x="677" d="M314-6q-68 0-119.5 25t-80 76.5T86 225v305h96V236q0-78 37.5-117T325 80q50 0 87 20.5t57 60 20 95.5v274h96V0h-91v143l15-38q-26-53-78-82T314-6zm203-218q-56 0-88 28t-32 73q0 27 13.5 54T456-16t84 48l45-32q-44-20-70-39t-37.5-38-11.5-39q0-25 17.5-38.5T527-168q17 0 33.5 5t28.5 12l18-49q-18-11-41.5-17.5T517-224z"/><glyph glyph-name="Wcircumflex" unicode="Ŵ" horiz-adv-x="1126" d="M266 0 32 700h103L350 54h-52l223 646h92L831 54h-50l218 646h95L860 0H755L551 599h27L373 0H266zm119 757 133 130h92l133-130h-87L524 867h80L472 757h-87z"/><glyph glyph-name="wcircumflex" unicode="ŵ" horiz-adv-x="899" d="M203 0 6 530h91L272 50h-43l182 480h81L670 50h-42l179 480h86L695 0h-92L436 438h28L295 0h-92zm65 605 133 130h92l133-130h-87L407 715h80L355 605h-87z"/><glyph glyph-name="Ycircumflex" unicode="Ŷ" horiz-adv-x="647" d="M274 0v268l23-62L-4 700h107l253-417h-58l254 417h99L351 206l22 62V0h-99zM145 757l133 130h92l133-130h-87L284 867h80L232 757h-87z"/><glyph glyph-name="ycircumflex" unicode="ŷ" horiz-adv-x="559" d="M114-200q-38 0-74 12.5T-22-151l41 72q20-19 44-29t51-10q35 0 58 18t43 64l33 73 10 12 208 481h94L303-53q-23-56-51.5-88T189-186.5 114-200zM240-17-2 530H98L304 58zM87 607l133 130h92l133-130h-87L226 717h80L174 607H87z"/><glyph glyph-name="Ydieresis" unicode="Ÿ" horiz-adv-x="647" d="M274 0v268l23-62L-4 700h107l253-417h-58l254 417h99L351 206l22 62V0h-99zm143 774q-21 0-36 14.5T366 825q0 23 15 37.5t36 14.5 36-14.5 15-37.5q0-22-15-36.5T417 774zm-186 0q-21 0-36 14.5T180 825q0 23 15 37.5t36 14.5 36-14.5 15-37.5q0-22-15-36.5T231 774z"/><glyph glyph-name="Zacute" unicode="Ź" horiz-adv-x="657" d="M43 0v68l471 584 11-39H50v87h565v-68L146 48l-12 39h494V0H43zm218 757 136 130h122L351 757h-90z"/><glyph glyph-name="zacute" unicode="ź" horiz-adv-x="521" d="M40 0v62l340 422 19-33H46v79h430v-63L136 46l-22 33h370V0H40zm147 607 136 130h122L277 607h-90z"/><glyph glyph-name="Zdotaccent" unicode="Ż" horiz-adv-x="657" d="M43 0v68l471 584 11-39H50v87h565v-68L146 48l-12 39h494V0H43zm293 775q-25 0-42 17t-17 42 17 42 42 17 42-17 17-42-17-42-42-17z"/><glyph glyph-name="zdotaccent" unicode="ż" horiz-adv-x="521" d="M40 0v62l340 422 19-33H46v79h430v-63L136 46l-22 33h370V0H40zm222 625q-25 0-42 17t-17 42 17 42 42 17 42-17 17-42-17-42-42-17z"/><glyph glyph-name="Zcaron" unicode="Ž" horiz-adv-x="657" d="M43 0v68l471 584 11-39H50v87h565v-68L146 48l-12 39h494V0H43zm247 757L157 887h87l132-109h-80l132 109h87L382 757h-92z"/><glyph glyph-name="zcaron" unicode="ž" horiz-adv-x="521" d="M40 0v62l340 422 19-33H46v79h430v-63L136 46l-22 33h370V0H40zm176 607L83 737h87l132-109h-80l132 109h87L308 607h-92z"/><glyph glyph-name="longs" unicode="ſ" horiz-adv-x="306" d="M115 0v577q0 78 45.5 124.5T290 748q32 0 60-7.5t48-23.5l-29-73q-15 12-34 18.5t-40 6.5q-41 0-62.5-23.5T211 576V0h-96zM25 451v79h139v-79H25z"/><glyph glyph-name="uni018F" unicode="Ə" horiz-adv-x="817" d="M409-8q-78 0-144 27T150.5 94.5 75 209.5 48 354v28h632v-85H115l32 53q0-61 19-111t54-85.5T303 98t106-20 105.5 19.5 82 55T650 237t19 108v9q0 57-20.5 105.5t-57 84-85 55.5T402 619q-41 0-80.5-9t-75-27-64.5-46l-60 69q33 33 76.5 55.5T294 696t109 12q80 0 146.5-26.5t116-75T742 493t27-142-27-142.5-76-114T551.5 19 409-8z"/><glyph glyph-name="florin" unicode="ƒ" horiz-adv-x="449" d="M21-200q-34 0-64 8.5T-92-167l36 73q29-25 73-25 39 0 63.5 23.5T110-26l75 603q9 78 58.5 124.5T375 748q31 0 61-8t48-25l-37-73q-13 12-31 18.5t-39 6.5q-42 0-67.5-23.5T278 574l-9-69-2-44-61-490q-10-78-58-124.5T21-200zm56 638 10 79h338l-9-79H77z"/><glyph glyph-name="Ohorn" unicode="Ơ" horiz-adv-x="840" d="M421-8q-80 0-148.5 27T154 94.5 76 208 48 350q0 78 28 143t78.5 113.5 119.5 75T424 708q60 0 105-7t87-7q46 0 70.5 18t24.5 55q0 18-6 33.5T691 829l60 24q13-19 20.5-42t7.5-47q0-63-43.5-98T612 631q-29 0-61.5 3.5T489 642l125 15q53-27 93-73t62.5-105.5T792 350q0-78-27.5-143t-78-113.5-118-75T421-8zm0 89q58 0 107.5 20.5t86 56.5 57 85T692 350q0 57-20.5 106.5t-57 85.5-86 56.5T421 619q-59 0-108.5-20T226 542.5 168.5 457 148 350q0-57 20.5-106t57.5-86 86.5-57T421 81z"/><glyph glyph-name="ohorn" unicode="ơ" horiz-adv-x="635" d="M318-6q-80 0-142 35t-98 96-36 140 36 140 98.5 95.5T319 535q27 0 45.5-1.5t36-3T440 529q39 0 57.5 19.5T516 596q0 19-6 34.5T495 659l60 23q13-18 21-41t8-48q0-38-18-67t-51.5-45-81.5-16q-16 0-32 1.5t-34 4.5l55 45q77-28 124-94.5T593 265q0-79-35.5-140t-98-96T318-6zm0 84q50 0 90.5 23t64 65.5T496 265q0 57-23 98.5T409.5 428 318 451t-91-23-64-64.5-24-98.5q0-56 24-98.5t64-65.5 91-23z"/><glyph glyph-name="Uhorn" unicode="Ư" horiz-adv-x="798" d="M395-8Q257-8 178 71T99 302v398h100V306q0-117 51.5-171T396 81q95 0 146.5 54T594 306v394h97V302q0-152-78.5-231T395-8zm247 635v73h18q33 0 48.5 18.5T724 765q0 19-5.5 35T704 828l61 23q14-17 21-40t7-49q0-60-35-97.5T660 627h-18z"/><glyph glyph-name="uhorn" unicode="ư" horiz-adv-x="685" d="M314-6q-68 0-119.5 25t-80 76.5T86 225v305h96V236q0-78 37.5-117T325 80q50 0 87 20.5t57 60 20 95.5v274h96V0h-91v143l15-38q-26-53-78-82T314-6zm206 463v73h18q33 0 48.5 18.5T602 595q0 19-5.5 35T582 658l61 23q14-17 21-40t7-49q0-60-35-97.5T538 457h-18z"/><glyph glyph-name="uni01B7" unicode="Ʒ" horiz-adv-x="623" d="M297-8q-80 0-151.5 23T31 76l37 79q37-33 97-54.5T295 79q85 0 131.5 34t46.5 93q0 56-45 89t-140 33h-58v69l226 256 9-38H58v85h483v-68L316 377l-43 29h33q90 0 149-25t89-70.5T574 206 543.5 98 452 20.5 297-8z"/><glyph glyph-name="uni01C4" unicode="Ǆ" horiz-adv-x="1454" d="M105 0v700h295q112 0 197.5-44t133-123T778 350t-47.5-183-133-123T400 0H105zm100 87h189q87 0 150.5 33t98.5 92.5T678 350q0 79-35 138t-98.5 92T394 613H205V87zM835 0v68l471 584 11-39H842v87h565v-68L938 48l-12 39h494V0H835zm247 757L949 887h87l132-109h-80l132 109h87l-133-130h-92z"/><glyph glyph-name="uni01C5" unicode="ǅ" horiz-adv-x="1347" d="M105 0v700h295q112 0 197.5-44t133-123T778 350t-47.5-183-133-123T400 0H105zm100 87h189q87 0 150.5 33t98.5 92.5T678 350q0 79-35 138t-98.5 92T394 613H205V87zM866 0v62l340 422 19-33H872v79h430v-63L962 46l-22 33h370V0H866zm176 607L909 737h87l132-109h-80l132 109h87l-133-130h-92z"/><glyph glyph-name="uni01C6" unicode="ǆ" horiz-adv-x="1211" d="M310-6q-77 0-137.5 34T77 123 42 265t35 141.5 95.5 94.5T310 535q67 0 121-30t86.5-90T550 265t-31.5-150T433 24.5 310-6zm8 84q50 0 90.5 23t64 65.5T496 265q0 57-23.5 98.5t-64 64.5-90.5 23q-51 0-91-23t-64-64.5-24-98.5q0-56 24-98.5t64-65.5 91-23zM499 0v143l6 123-10 123v353h96V0h-92zm220 0v62l340 422 19-33H725v79h430v-63L815 46l-22 33h370V0H719zm176 607L762 737h87l132-109h-80l132 109h87L987 607h-92z"/><glyph glyph-name="uni01C7" unicode="Ǉ" horiz-adv-x="1107" d="M105 0v700h100V87h379V0H105zm684-8q-62 0-116 26t-88 75l58 68q29-40 65.5-61.5T789 78q120 0 120 142v393H656v87h352V225q0-117-55.5-175T789-8z"/><glyph glyph-name="uni01C8" unicode="ǈ" horiz-adv-x="877" d="M105 0v700h100V87h379V0H105zm512-200q-33 0-63.5 8T502-168l31 74q30-25 78-25 38 0 58.5 23.5T690-26v556h96V-24q0-81-43.5-128.5T617-200zm121 832q-28 0-46.5 18T673 694q0 27 18.5 45t46.5 18 46.5-17.5T803 696q0-27-18-45.5T738 632z"/><glyph glyph-name="uni01C9" unicode="ǉ" horiz-adv-x="562" d="M91 0v742h96V0H91zm211-200q-33 0-63.5 8T187-168l31 74q30-25 78-25 38 0 58.5 23.5T375-26v556h96V-24q0-81-43.5-128.5T302-200zm121 832q-28 0-46.5 18T358 694q0 27 18.5 45t46.5 18 46.5-17.5T488 696q0-27-18-45.5T423 632z"/><glyph glyph-name="uni01CA" unicode="Ǌ" horiz-adv-x="1325" d="M105 0v700h82l463-575h-43v575h100V0h-82L162 575h43V0H105zm902-8q-62 0-116 26t-88 75l58 68q29-40 65.5-61.5T1007 78q120 0 120 142v393H874v87h352V225q0-117-55.5-175T1007-8z"/><glyph glyph-name="uni01CB" unicode="ǋ" horiz-adv-x="1095" d="M105 0v700h82l463-575h-43v575h100V0h-82L162 575h43V0H105zm730-200q-33 0-63.5 8T720-168l31 74q30-25 78-25 38 0 58.5 23.5T908-26v556h96V-24q0-81-43.5-128.5T835-200zm121 832q-28 0-46.5 18T891 694q0 27 18.5 45t46.5 18 46.5-17.5T1021 696q0-27-18-45.5T956 632z"/><glyph glyph-name="uni01CC" unicode="ǌ" horiz-adv-x="964" d="M374 535q65 0 114.5-25t77.5-76 28-129V0h-96v294q0 77-37.5 116T355 449q-51 0-89-20t-58.5-59-20.5-97V0H91v530h92V387l-15 38q26 52 80 81t126 29zm330-735q-33 0-63.5 8T589-168l31 74q30-25 78-25 38 0 58.5 23.5T777-26v556h96V-24q0-81-43.5-128.5T704-200zm121 832q-28 0-46.5 18T760 694q0 27 18.5 45t46.5 18 46.5-17.5T890 696q0-27-18-45.5T825 632z"/><glyph glyph-name="uni01CD" unicode="Ǎ" horiz-adv-x="732" d="m-1 0 317 700h99L733 0H628L345 644h40L102 0H-1zm135 175 27 80h394l29-80H134zm186 582L187 887h87l132-109h-80l132 109h87L412 757h-92z"/><glyph glyph-name="uni01CE" unicode="ǎ" horiz-adv-x="598" d="M420 0v112l-5 21v191q0 61-35.5 94.5T273 452q-47 0-92-15.5T105 395l-40 72q41 33 98.5 50.5T284 535q109 0 168-53t59-162V0h-91zM246-6q-59 0-103.5 20T74 69.5 50 150q0 43 20.5 78t67 56T263 305h168v-69H267q-72 0-97-24t-25-58q0-39 31-62.5T262 68q54 0 94.5 24t58.5 70l19-66q-19-47-67-74.5T246-6zm-1 613L112 737h87l132-109h-80l132 109h87L337 607h-92z"/><glyph glyph-name="uni01D3" unicode="Ǔ" horiz-adv-x="791" d="M395-8Q257-8 178 71T99 302v398h100V306q0-117 51.5-171T396 81q95 0 146.5 54T594 306v394h97V302q0-152-78.5-231T395-8zm-45 765L217 887h87l132-109h-80l132 109h87L442 757h-92z"/><glyph glyph-name="uni01D4" unicode="ǔ" horiz-adv-x="677" d="M314-6q-68 0-119.5 25t-80 76.5T86 225v305h96V236q0-78 37.5-117T325 80q50 0 87 20.5t57 60 20 95.5v274h96V0h-91v143l15-38q-26-53-78-82T314-6zm-24 613L157 737h87l132-109h-80l132 109h87L382 607h-92z"/><glyph glyph-name="uni01E4" unicode="Ǥ" horiz-adv-x="807" d="M401 198v79h383v-79H401zM421-8q-81 0-149 26.5t-118 75T76 207 48 350t28 143 78.5 113.5 118.5 75T423 708q83 0 152-27t117-81l-62-62q-43 42-93.5 61.5T427 619q-60 0-111.5-20t-89-56-58-85.5T148 350q0-57 20.5-106.5t58-86T315 101t111-20q56 0 107.5 17.5T629 157l57-76q-52-44-121.5-66.5T421-8zM590 94v260h96V81z"/><glyph glyph-name="uni01E5" unicode="ǥ" horiz-adv-x="698" d="M323-200q-73 0-141.5 20.5T70-121l46 74q37-32 91-50.5T320-116q94 0 138 44t44 134v112l10 105-5 106v145h91V72q0-140-70-206t-205-66zM284-58V7l378 1v-66H284zm27 101q-77 0-137.5 31.5t-96 87T42 290t35.5 128.5 96 86T311 535q68 0 124-27t89.5-81T558 290t-33.5-138T435 70 311 43zm11 81q53 0 94 21t64.5 58.5T504 290q0 50-23.5 86.5T416 434t-94 21-94.5-21-65-57.5T139 290q0-49 23.5-86.5t65-58.5 94.5-21z"/><glyph glyph-name="Gcaron" unicode="Ǧ" horiz-adv-x="772" d="M421-8q-81 0-149 26.5t-118 75T76 207 48 350t28 143 78.5 113.5 118.5 75T423 708q83 0 152-27t117-81l-62-62q-43 42-93.5 61.5T427 619q-60 0-111.5-20t-89-56-58-85.5T148 350q0-57 20.5-106.5t58-86T315 101t111-20q56 0 107.5 17.5T629 157l57-76q-52-44-121.5-66.5T421-8zM590 94v260h96V81zM364 757 231 887h87l132-109h-80l132 109h87L456 757h-92z"/><glyph glyph-name="gcaron" unicode="ǧ" horiz-adv-x="690" d="M323-200q-73 0-141.5 20.5T70-121l46 74q37-32 91-50.5T320-116q94 0 138 44t44 134v112l10 105-5 106v145h91V72q0-140-70-206t-205-66zM311 22q-77 0-137.5 32.5t-96 90.5T42 279q0 77 35.5 134.5t96 89.5T311 535q68 0 124-27.5t89.5-84.5T558 279q0-86-33.5-143T435 50.5 311 22zm11 84q53 0 94 22t64.5 61 23.5 90-23.5 90-64.5 60.5-94 21.5-94.5-21.5-65-60.5-23.5-90 23.5-90 65-61 94.5-22zm-39 501L150 737h87l132-109h-80l132 109h87L375 607h-92z"/><glyph glyph-name="uni01E8" unicode="Ǩ" horiz-adv-x="719" d="m193 169-5 122 397 409h114L392 376l-56-62zM105 0v700h100V0H105zm496 0L314 334l67 74L718 0H601zM329 757 196 887h87l132-109h-80l132 109h87L421 757h-92z"/><glyph glyph-name="uni01E9" unicode="ǩ" horiz-adv-x="616" d="m169 128 2 123 305 279h116L358 300l-52-44zM91 0v742h96V0H91zm405 0L288 258l62 77L614 0H496zM93 819-40 949h87l132-109H99l132 109h87L185 819H93z"/><glyph glyph-name="uni01EA" unicode="Ǫ" horiz-adv-x="840" d="M429-224q-56 0-88 28t-32 73q0 27 13.5 54.5t45 53.5T452 32l3-38q-10-1-18.5-1.5T421-8q-81 0-148.5 26.5t-118 75T76 207 48 350t28 143 78.5 113.5 118 75T421 708q80 0 147.5-26.5t118-75 78-113.5T792 350q0-89-36-160T659.5 72 524 6q-45-11-78-30t-51-42-18-50q0-25 18-38.5t44-13.5q16 0 32.5 5t28.5 12l19-49q-18-11-41.5-17.5T429-224zm-8 305q58 0 107.5 20t86 56.5 57 85.5T692 350t-20.5 107-57 85.5-86 56.5T421 619q-59 0-108.5-20T226 542.5 168.5 457 148 350t20.5-107 57.5-85.5 86.5-56.5T421 81z"/><glyph glyph-name="uni01EB" unicode="ǫ" horiz-adv-x="635" d="M347-224q-56 0-88 28t-32 71q0 28 13 56t43.5 54T366 32l5-33q-16-3-28.5-4T318-6q-80 0-142 35t-98 96-36 140 36 140 98 95.5T318 535q79 0 141.5-34.5t98-95.5T593 265q0-87-43.5-152T432 16q-56-25-85.5-47.5T306-75t-11-40q0-26 17.5-39.5T357-168q16 0 32.5 5t28.5 12l19-49q-19-11-42-17.5t-48-6.5zM318 78q51 0 91.5 23t63.5 65.5 23 98.5q0 57-23 98.5T409.5 428 318 451t-91-23-64-64.5-24-98.5q0-56 24-98.5t64-65.5 91-23z"/><glyph glyph-name="uni01EE" unicode="Ǯ" horiz-adv-x="623" d="M297-8q-80 0-151.5 23T31 76l37 79q37-33 97-54.5T295 79q85 0 131.5 34t46.5 93q0 56-45 89t-140 33h-58v69l226 256 9-38H58v85h483v-68L316 377l-43 29h33q90 0 149-25t89-70.5T574 206 543.5 98 452 20.5 297-8zm-41 765L123 887h87l132-109h-80l132 109h87L348 757h-92z"/><glyph glyph-name="uni01EF" unicode="ǯ" horiz-adv-x="527" d="M232-201q-77 0-144.5 24T-20-113l37 80q34-35 90.5-57T228-112q82 0 124.5 35T395 19q0 59-41 94t-130 35h-57v68l211 265 9-36H5v85h459v-69L252 195l-43 31h32q127 0 190-57.5T494 19q0-61-29-110.5T378-171t-146-30zm-52 808L47 737h87l132-109h-80l132 109h87L272 607h-92z"/><glyph glyph-name="Aringacute" unicode="Ǻ" horiz-adv-x="732" d="m-1 0 317 700h99L733 0H628L345 644h40L102 0H-1zm135 175 27 80h394l29-80H134zm231 589q-31 0-56 15t-39.5 39-14.5 54 14.5 55 39.5 40 56 15q32 0 57-15t39.5-40 14.5-55-14.5-54-39.5-39-57-15zm0 42q29 0 47.5 19t18.5 47q0 29-18.5 48T365 939q-28 0-46.5-18.5T300 872q0-28 18-47t47-19zm82 121-51 18 107 108 50-41z"/><glyph glyph-name="aringacute" unicode="ǻ" horiz-adv-x="598" d="M420 0v112l-5 21v191q0 61-35.5 94.5T273 452q-47 0-92-15.5T105 395l-40 72q41 33 98.5 50.5T284 535q109 0 168-53t59-162V0h-91zM246-6q-59 0-103.5 20T74 69.5 50 150q0 43 20.5 78t67 56T263 305h168v-69H267q-72 0-97-24t-25-58q0-39 31-62.5T262 68q54 0 94.5 24t58.5 70l19-66q-19-47-67-74.5T246-6zm44 600q-31 0-56 15t-39.5 39-14.5 54 14.5 55 39.5 40 56 15q32 0 57-15t39.5-40 14.5-55-14.5-54-39.5-39-57-15zm0 42q29 0 47.5 19t18.5 47q0 29-18.5 48T290 769q-28 0-46.5-18.5T225 702q0-28 18-47t47-19zm82 121-51 18 107 108 50-41z"/><glyph glyph-name="AEacute" unicode="Ǽ" horiz-adv-x="1047" d="m-1 0 417 700h100v-87h-88l61 44L102 0H-1zm178 175 6 80h333v-80H177zm397 223h359v-85H573zm8-311h409V0H483v700h494v-87H582V87zM457 757l136 130h122L547 757h-90z"/><glyph glyph-name="aeacute" unicode="ǽ" horiz-adv-x="989" d="M256-6q-97 0-151.5 44.5T50 154q0 40 20.5 74t67 55T263 304h167v-69H267q-71 0-96.5-23.5T145 156q0-41 31.5-64.5T264 68q71 0 111 36.5t40 96.5v123q0 61-35.5 94.5T274 452q-48 0-93-15.5T105 395l-40 72q41 33 98.5 50.5T283 535q92 0 146-36.5T498 391l-46 6q31 64 91.5 101T683 535q57 0 105.5-19.5t84-55.5 55-85T947 268q0-10-.5-18t-2.5-15H492v69h402l-40-26q0 57-24 96t-63.5 59.5T682 454q-43 0-82.5-20.5t-64-60T511 276v-16q0-53 24-94.5t67.5-64.5T704 78q47 0 85 16t68 48l54-62q-37-43-90.5-64.5T701-6q-61 0-115 19t-94 59-62 103l62-2q-12-67-48.5-106.5t-86-56T256-6zm132 613 136 130h122L478 607h-90z"/><glyph glyph-name="Oslashacute" unicode="Ǿ" horiz-adv-x="840" d="M421-8q-80 0-148.5 27T154 94.5 76 208 48 350t28 142 78 113.5T272 681t149 27q80 0 147.5-26.5t118-75 78-113.5T792 350t-27.5-143-78-113.5-118-75T421-8zm0 89q58 0 107.5 20t86 56.5 57 85.5T692 350t-20.5 107-57 85.5-86 56.5T421 619q-59 0-108.5-20T226 542.5 168.5 457 148 350t20.5-107 57.5-85.5 86.5-56.5T421 81zM81-70l602 840h78L159-70H81zm265 827 136 130h122L436 757h-90z"/><glyph glyph-name="oslashacute" unicode="ǿ" horiz-adv-x="635" d="M318-6q-80 0-142 35t-98 96.5T42 265q0 79 36 140t98 95.5T318 535q79 0 141.5-34.5t98-95T593 265q0-79-35.5-140t-98-96T318-6zm0 84q51 0 91.5 23t63.5 65.5 23 98.5q0 57-23 98.5T409.5 428 318 451t-91-23-64-64.5-24-98.5q0-56 24-98.5t64-65.5 91-23zM66-71l441 669h59L126-71H66zm174 678 136 130h122L330 607h-90z"/><glyph glyph-name="uni0200" unicode="Ȁ" horiz-adv-x="732" d="m-1 0 317 700h99L733 0H628L345 644h40L102 0H-1zm135 175 27 80h394l29-80H134zm279 582L302 887h102l90-130h-81zm-175 0L129 887h101l89-130h-81z"/><glyph glyph-name="uni0201" unicode="ȁ" horiz-adv-x="598" d="M420 0v112l-5 21v191q0 61-35.5 94.5T273 452q-47 0-92-15.5T105 395l-40 72q41 33 98.5 50.5T284 535q109 0 168-53t59-162V0h-91zM246-6q-59 0-103.5 20T74 69.5 50 150q0 43 20.5 78t67 56T263 305h168v-69H267q-72 0-97-24t-25-58q0-39 31-62.5T262 68q54 0 94.5 24t58.5 70l19-66q-19-47-67-74.5T246-6zm92 613L227 737h102l90-130h-81zm-175 0L54 737h101l89-130h-81z"/><glyph glyph-name="uni0202" unicode="Ȃ" horiz-adv-x="732" d="m-1 0 317 700h99L733 0H628L345 644h40L102 0H-1zm135 175 27 80h394l29-80H134zm70 582q2 63 48 99.5T366 893t114-36.5 48-99.5h-65q-1 37-29.5 58.5T366 837t-67-21.5-30-58.5h-65z"/><glyph glyph-name="uni0203" unicode="ȃ" horiz-adv-x="598" d="M420 0v112l-5 21v191q0 61-35.5 94.5T273 452q-47 0-92-15.5T105 395l-40 72q41 33 98.5 50.5T284 535q109 0 168-53t59-162V0h-91zM246-6q-59 0-103.5 20T74 69.5 50 150q0 43 20.5 78t67 56T263 305h168v-69H267q-72 0-97-24t-25-58q0-39 31-62.5T262 68q54 0 94.5 24t58.5 70l19-66q-19-47-67-74.5T246-6zM129 607q2 63 48 99.5T291 743t114-36.5 48-99.5h-65q-1 37-29.5 58.5T291 687t-67-21.5-30-58.5h-65z"/><glyph glyph-name="uni0204" unicode="Ȅ" horiz-adv-x="670" d="M196 398h360v-85H196v85zm9-311h408V0H105v700h494v-87H205V87zm195 670L289 887h102l90-130h-81zm-175 0L116 887h101l89-130h-81z"/><glyph glyph-name="uni0205" unicode="ȅ" horiz-adv-x="612" d="M327-6q-85 0-149.5 35t-100 96T42 265t34.5 140 95 95.5T308 535q77 0 136-34t92.5-95.5T570 262q0-6-.5-14t-1.5-15H117v69h401l-39-24q1 51-21 91t-60.5 62.5T308 454q-50 0-89-22.5t-61-63-22-92.5v-16q0-53 24.5-94.5T229 101t101-23q47 0 85.5 16t67.5 48l53-62q-36-42-89.5-64T327-6zm27 613L243 737h102l90-130h-81zm-175 0L70 737h101l89-130h-81z"/><glyph glyph-name="uni0206" unicode="Ȇ" horiz-adv-x="670" d="M196 398h360v-85H196v85zm9-311h408V0H105v700h494v-87H205V87zm-14 670q2 63 48 99.5T353 893t114-36.5 48-99.5h-65q-1 37-29.5 58.5T353 837t-67-21.5-30-58.5h-65z"/><glyph glyph-name="uni0207" unicode="ȇ" horiz-adv-x="612" d="M327-6q-85 0-149.5 35t-100 96T42 265t34.5 140 95 95.5T308 535q77 0 136-34t92.5-95.5T570 262q0-6-.5-14t-1.5-15H117v69h401l-39-24q1 51-21 91t-60.5 62.5T308 454q-50 0-89-22.5t-61-63-22-92.5v-16q0-53 24.5-94.5T229 101t101-23q47 0 85.5 16t67.5 48l53-62q-36-42-89.5-64T327-6zM145 607q2 63 48 99.5T307 743t114-36.5 48-99.5h-65q-1 37-29.5 58.5T307 687t-67-21.5-30-58.5h-65z"/><glyph glyph-name="uni0208" unicode="Ȉ" horiz-adv-x="310" d="M105 0v700h100V0H105zm97 757L91 887h102l90-130h-81zm-175 0L-82 887H19l89-130H27z"/><glyph glyph-name="uni0209" unicode="ȉ" horiz-adv-x="279" d="M91 0v530h96V0H91zm95 607L75 737h102l90-130h-81zm-175 0L-98 737H3l89-130H11z"/><glyph glyph-name="uni020A" unicode="Ȋ" horiz-adv-x="310" d="M105 0v700h100V0H105zM-7 757q2 63 48 99.5T155 893t114-36.5 48-99.5h-65q-1 37-29.5 58.5T155 837t-67-21.5T58 757H-7z"/><glyph glyph-name="uni020B" unicode="ȋ" horiz-adv-x="279" d="M91 0v530h96V0H91zM2 607q0 63 39 99.5t98 36.5 98-36.5 39-99.5h-62q0 37-20 58.5T139 687t-55-21.5T64 607H2z"/><glyph glyph-name="uni020C" unicode="Ȍ" horiz-adv-x="840" d="M421-8q-80 0-148.5 27T154 94.5 76 208 48 350t28 142 78 113.5T272 681t149 27q80 0 147.5-26.5t118-75 78-113.5T792 350t-27.5-143-78-113.5-118-75T421-8zm0 89q58 0 107.5 20t86 56.5 57 85.5T692 350t-20.5 107-57 85.5-86 56.5T421 619q-59 0-108.5-20T226 542.5 168.5 457 148 350t20.5-107 57.5-85.5 86.5-56.5T421 81zm47 676L357 887h102l90-130h-81zm-175 0L184 887h101l89-130h-81z"/><glyph glyph-name="uni020D" unicode="ȍ" horiz-adv-x="635" d="M318-6q-80 0-142 35t-98 96.5T42 265q0 79 36 140t98 95.5T318 535q79 0 141.5-34.5t98-95T593 265q0-79-35.5-140t-98-96T318-6zm0 84q51 0 91.5 23t63.5 65.5 23 98.5q0 57-23 98.5T409.5 428 318 451t-91-23-64-64.5-24-98.5q0-56 24-98.5t64-65.5 91-23zm46 529L253 737h102l90-130h-81zm-175 0L80 737h101l89-130h-81z"/><glyph glyph-name="uni020E" unicode="Ȏ" horiz-adv-x="840" d="M421-8q-80 0-148.5 27T154 94.5 76 208 48 350t28 142 78 113.5T272 681t149 27q80 0 147.5-26.5t118-75 78-113.5T792 350t-27.5-143-78-113.5-118-75T421-8zm0 89q58 0 107.5 20t86 56.5 57 85.5T692 350t-20.5 107-57 85.5-86 56.5T421 619q-59 0-108.5-20T226 542.5 168.5 457 148 350t20.5-107 57.5-85.5 86.5-56.5T421 81zM259 757q2 63 48 99.5T421 893t114-36.5 48-99.5h-65q-1 37-29.5 58.5T421 837t-67-21.5-30-58.5h-65z"/><glyph glyph-name="uni020F" unicode="ȏ" horiz-adv-x="635" d="M318-6q-80 0-142 35t-98 96.5T42 265q0 79 36 140t98 95.5T318 535q79 0 141.5-34.5t98-95T593 265q0-79-35.5-140t-98-96T318-6zm0 84q51 0 91.5 23t63.5 65.5 23 98.5q0 57-23 98.5T409.5 428 318 451t-91-23-64-64.5-24-98.5q0-56 24-98.5t64-65.5 91-23zM155 607q2 63 48 99.5T317 743t114-36.5 48-99.5h-65q-1 37-29.5 58.5T317 687t-67-21.5-30-58.5h-65z"/><glyph glyph-name="uni0210" unicode="Ȑ" horiz-adv-x="727" d="M105 0v700h273q92 0 157-29t100-84 35-131-35-130.5T535 242t-157-29H160l45 46V0H105zm468 0L395 254h107L682 0H573zM205 249l-45 49h215q96 0 145.5 41.5T570 456t-49.5 116T375 613H160l45 50V249zm213 508L307 887h102l90-130h-81zm-175 0L134 887h101l89-130h-81z"/><glyph glyph-name="uni0211" unicode="ȑ" horiz-adv-x="410" d="M91 0v530h92V386l-9 36q22 55 74 84t128 29v-93q-6 1-11.5 1H354q-77 0-122-46t-45-133V0H91zm190 607L170 737h102l90-130h-81zm-175 0L-3 737H98l89-130h-81z"/><glyph glyph-name="uni0212" unicode="Ȓ" horiz-adv-x="727" d="M105 0v700h273q92 0 157-29t100-84 35-131-35-130.5T535 242t-157-29H160l45 46V0H105zm468 0L395 254h107L682 0H573zM205 249l-45 49h215q96 0 145.5 41.5T570 456t-49.5 116T375 613H160l45 50V249zm4 508q2 63 48 99.5T371 893t114-36.5 48-99.5h-65q-1 37-29.5 58.5T371 837t-67-21.5-30-58.5h-65z"/><glyph glyph-name="uni0213" unicode="ȓ" horiz-adv-x="410" d="M91 0v530h92V386l-9 36q22 55 74 84t128 29v-93q-6 1-11.5 1H354q-77 0-122-46t-45-133V0H91zM72 607q2 63 48 99.5T234 743t114-36.5 48-99.5h-65q-1 37-29.5 58.5T234 687t-67-21.5-30-58.5H72z"/><glyph glyph-name="uni0214" unicode="Ȕ" horiz-adv-x="791" d="M395-8Q257-8 178 71T99 302v398h100V306q0-117 51.5-171T396 81q95 0 146.5 54T594 306v394h97V302q0-152-78.5-231T395-8zm48 765L332 887h102l90-130h-81zm-175 0L159 887h101l89-130h-81z"/><glyph glyph-name="uni0215" unicode="ȕ" horiz-adv-x="677" d="M314-6q-68 0-119.5 25t-80 76.5T86 225v305h96V236q0-78 37.5-117T325 80q50 0 87 20.5t57 60 20 95.5v274h96V0h-91v143l15-38q-26-53-78-82T314-6zm69 613L272 737h102l90-130h-81zm-175 0L99 737h101l89-130h-81z"/><glyph glyph-name="uni0216" unicode="Ȗ" horiz-adv-x="791" d="M395-8Q257-8 178 71T99 302v398h100V306q0-117 51.5-171T396 81q95 0 146.5 54T594 306v394h97V302q0-152-78.5-231T395-8zM234 757q2 63 48 99.5T396 893t114-36.5 48-99.5h-65q-1 37-29.5 58.5T396 837t-67-21.5-30-58.5h-65z"/><glyph glyph-name="uni0217" unicode="ȗ" horiz-adv-x="677" d="M314-6q-68 0-119.5 25t-80 76.5T86 225v305h96V236q0-78 37.5-117T325 80q50 0 87 20.5t57 60 20 95.5v274h96V0h-91v143l15-38q-26-53-78-82T314-6zM174 607q2 63 48 99.5T336 743t114-36.5 48-99.5h-65q-1 37-29.5 58.5T336 687t-67-21.5-30-58.5h-65z"/><glyph glyph-name="uni0218" unicode="Ș" horiz-adv-x="621" d="M309-8q-80 0-153 24.5T41 80l37 78q40-35 102-58t129-23q61 0 99 14t56 38.5 18 55.5q0 36-23.5 58t-61 35.5T315 302t-90.5 23.5-83 34.5T81 416.5 58 508q0 54 28.5 99.5t88 73T326 708q61 0 121-16t104-46l-33-80q-45 30-95 43.5T326 623q-59 0-97-15t-55.5-40-17.5-56q0-37 23.5-59t61-35 82.5-23.5 90.5-23.5 83-34 60.5-56 23-90q0-53-29-98.5t-89.5-73T309-8zm-29-255 33 114 9-36q-24 0-37.5 12.5T271-140t14 33 37 13q24 0 37.5-13.5T373-140q0-10-2.5-23T360-191l-30-72h-50z"/><glyph glyph-name="uni0219" unicode="ș" horiz-adv-x="501" d="M243-6q-66 0-125.5 18T24 56l40 76q34-23 84-39t102-16q67 0 96.5 19t29.5 53q0 25-18 39t-47.5 21-65.5 12.5-72 14-66 24-48 43T41 376q0 48 27 84t76.5 55.5T262 535q52 0 105.5-12.5T455 487l-41-76q-36 24-75 33t-78 9q-63 0-94-20.5T136 380q0-27 18.5-41.5t48-22.5 65.5-13.5 72-14 65.5-23.5 48-42 18.5-72q0-48-28-83t-79-54.5T243-6zm-37-257 33 114 9-36q-24 0-37.5 12.5T197-140t14 33 37 13q24 0 37.5-13.5T299-140q0-10-2.5-23T286-191l-30-72h-50z"/><glyph glyph-name="uni021A" unicode="Ț" horiz-adv-x="587" d="M244 0v613H4v87h579v-87H343V0h-99zm7-263 33 114 9-36q-24 0-37.5 12.5T242-140t14 33 37 13q24 0 37.5-13.5T344-140q0-10-2.5-23T331-191l-30-72h-50z"/><glyph glyph-name="uni021B" unicode="ț" horiz-adv-x="414" d="M273-6q-80 0-124 43t-44 123v486h96V164q0-43 21.5-66T284 75q45 0 75 25l30-69q-22-19-52.5-28T273-6zM15 451v79h338v-79H15zm196-714 33 114 9-36q-24 0-37.5 12.5T202-140t14 33 37 13q24 0 37.5-13.5T304-140q0-10-2.5-23T291-191l-30-72h-50z"/><glyph glyph-name="uni021E" unicode="Ȟ" horiz-adv-x="812" d="M607 700h100V0H607v700zM205 0H105v700h100V0zm411 312H195v87h421v-87zM359 757 226 887h87l132-109h-80l132 109h87L451 757h-92z"/><glyph glyph-name="uni021F" unicode="ȟ" horiz-adv-x="681" d="M374 535q65 0 114.5-25t77.5-76 28-129V0h-96v294q0 77-37.5 116T355 449q-51 0-89-20t-58.5-59-20.5-97V0H91v742h96V387l-19 38q26 52 80 81t126 29zM93 819-40 949h87l132-109H99l132 109h87L185 819H93z"/><glyph glyph-name="uni022A" unicode="Ȫ" horiz-adv-x="840" d="M421-8q-80 0-148.5 27T154 94.5 76 208 48 350t28 142 78 113.5T272 681t149 27q80 0 147.5-26.5t118-75 78-113.5T792 350t-27.5-143-78-113.5-118-75T421-8zm0 89q58 0 107.5 20t86 56.5 57 85.5T692 350t-20.5 107-57 85.5-86 56.5T421 619q-59 0-108.5-20T226 542.5 168.5 457 148 350t20.5-107 57.5-85.5 86.5-56.5T421 81zm91 693q-20 0-34.5 14.5T463 824t14.5 35 34.5 14q21 0 35.5-14t14.5-35-14.5-35.5T512 774zm-181 0q-21 0-35.5 14.5T281 824t14.5 35 35.5 14 35-14 14-35-14-35.5-35-14.5zm-73 147v57h326v-57H258z"/><glyph glyph-name="uni022B" unicode="ȫ" horiz-adv-x="635" d="M318-6q-80 0-142 35t-98 96.5T42 265q0 79 36 140t98 95.5T318 535q79 0 141.5-34.5t98-95T593 265q0-79-35.5-140t-98-96T318-6zm0 84q51 0 91.5 23t63.5 65.5 23 98.5q0 57-23 98.5T409.5 428 318 451t-91-23-64-64.5-24-98.5q0-56 24-98.5t64-65.5 91-23zm90 546q-20 0-34.5 14.5T359 674t14.5 35 34.5 14q21 0 35.5-14t14.5-35-14.5-35.5T408 624zm-181 0q-21 0-35.5 14.5T177 674t14.5 35 35.5 14 35-14 14-35-14-35.5-35-14.5zm-73 147v57h326v-57H154z"/><glyph glyph-name="uni022C" unicode="Ȭ" horiz-adv-x="840" d="M421-8q-80 0-148.5 27T154 94.5 76 208 48 350t28 142 78 113.5T272 681t149 27q80 0 147.5-26.5t118-75 78-113.5T792 350t-27.5-143-78-113.5-118-75T421-8zm0 89q58 0 107.5 20t86 56.5 57 85.5T692 350t-20.5 107-57 85.5-86 56.5T421 619q-59 0-108.5-20T226 542.5 168.5 457 148 350t20.5-107 57.5-85.5 86.5-56.5T421 81zm70 681q-32 0-55 13.5t-42 27-38 13.5q-23 0-34-13t-12-37h-54q1 49 27 76t69 27q32 0 54.5-13.5t42-27T487 815q22 0 33.5 13t12.5 36h53q-1-47-26.5-74.5T491 762zM258 921v57h326v-57H258z"/><glyph glyph-name="uni022D" unicode="ȭ" horiz-adv-x="635" d="M318-6q-80 0-142 35t-98 96.5T42 265q0 79 36 140t98 95.5T318 535q79 0 141.5-34.5t98-95T593 265q0-79-35.5-140t-98-96T318-6zm0 84q51 0 91.5 23t63.5 65.5 23 98.5q0 57-23 98.5T409.5 428 318 451t-91-23-64-64.5-24-98.5q0-56 24-98.5t64-65.5 91-23zm69 534q-32 0-55 13.5t-42 27-38 13.5q-23 0-34-13t-12-37h-54q1 49 27 76t69 27q32 0 54.5-13.5t42-27T383 665q22 0 33.5 13t12.5 36h53q-1-47-26.5-74.5T387 612zM154 771v57h326v-57H154z"/><glyph glyph-name="uni0230" unicode="Ȱ" horiz-adv-x="840" d="M421-8q-80 0-148.5 27T154 94.5 76 208 48 350t28 142 78 113.5T272 681t149 27q80 0 147.5-26.5t118-75 78-113.5T792 350t-27.5-143-78-113.5-118-75T421-8zm0 89q58 0 107.5 20t86 56.5 57 85.5T692 350t-20.5 107-57 85.5-86 56.5T421 619q-59 0-108.5-20T226 542.5 168.5 457 148 350t20.5-107 57.5-85.5 86.5-56.5T421 81zm0 692q-21 0-36 14.5T370 825q0 22 15 36.5t36 14.5 36-14.5 15-36.5q0-23-15-37.5T421 773zM258 924v57h326v-57H258z"/><glyph glyph-name="uni0231" unicode="ȱ" horiz-adv-x="635" d="M318-6q-80 0-142 35t-98 96.5T42 265q0 79 36 140t98 95.5T318 535q79 0 141.5-34.5t98-95T593 265q0-79-35.5-140t-98-96T318-6zm0 84q51 0 91.5 23t63.5 65.5 23 98.5q0 57-23 98.5T409.5 428 318 451t-91-23-64-64.5-24-98.5q0-56 24-98.5t64-65.5 91-23zm-1 545q-21 0-36 14.5T266 675q0 22 15 36.5t36 14.5 36-14.5 15-36.5q0-23-15-37.5T317 623zM154 774v57h326v-57H154z"/><glyph glyph-name="uni0232" unicode="Ȳ" horiz-adv-x="647" d="M274 0v268l23-62L-4 700h107l253-417h-58l254 417h99L351 206l22 62V0h-99zM161 792v60h326v-60H161z"/><glyph glyph-name="uni0233" unicode="ȳ" horiz-adv-x="559" d="M114-200q-38 0-74 12.5T-22-151l41 72q20-19 44-29t51-10q35 0 58 18t43 64l33 73 10 12 208 481h94L303-53q-23-56-51.5-88T189-186.5 114-200zM240-17-2 530H98L304 58zM103 642v60h326v-60H103z"/><glyph glyph-name="uni0237" unicode="ȷ" horiz-adv-x="284" d="M23-200q-33 0-63.5 8T-92-168l31 74q30-25 78-25 38 0 58.5 23.5T96-26v556h96V-24q0-81-43.5-128.5T23-200z"/><glyph glyph-name="uni0259" unicode="ə" horiz-adv-x="612" d="M285 535q86 0 150-34.5t99.5-95.5T570 265t-34.5-140T441 29 304-6q-76 0-135.5 34.5t-93 96T42 267q0 7 .5 15t1.5 15h451v-70H95l38 24q0-51 22-90.5t60.5-62T304 76q51 0 90 22.5t60.5 63T476 254v16q0 54-24 94.5T384.5 428 283 451q-47 0-85.5-15.5T129 387l-52 62q35 42 89 64t119 22z"/><glyph glyph-name="uni0292" unicode="ʒ" horiz-adv-x="527" d="M232-201q-77 0-144.5 24T-20-113l37 80q34-35 90.5-57T228-112q82 0 124.5 35T395 19q0 59-41 94t-130 35h-57v68l211 265 9-36H5v85h459v-69L252 195l-43 31h32q127 0 190-57.5T494 19q0-61-29-110.5T378-171t-146-30z"/><glyph glyph-name="uni02B9" unicode="ʹ" horiz-adv-x="210" d="m69 430-6 270h84l-7-270H69z"/><glyph glyph-name="uni02BA" unicode="ʺ" horiz-adv-x="391" d="m69 430-6 270h84l-7-270H69zm181 0-6 270h84l-7-270h-71z"/><glyph glyph-name="uni02BB" unicode="ʻ" horiz-adv-x="273" d="m193 861-50-203-12 58q29 0 48-18t19-48-19-49-47-19q-29 0-48 19.5T65 650q0 10 1.5 19t5.5 21.5T83 721l47 140h63z"/><glyph glyph-name="uni02BC" unicode="ʼ" horiz-adv-x="238" d="m58 469 50 203 13-58q-29 0-48.5 18T53 680q0 31 19.5 49.5T120 748q29 0 47-19.5t18-48.5q0-9-1-18.5t-4.5-21.5-10.5-31l-48-140H58z"/><glyph glyph-name="uni02BE" unicode="ʾ" horiz-adv-x="600" d="M299 594v44q29 0 47.5 18.5T365 702q0 29-18.5 47.5T299 768v44q33 0 58-15t39.5-40 14.5-55-14.5-54-39.5-39-58-15z"/><glyph glyph-name="uni02BF" unicode="ʿ" horiz-adv-x="600" d="M299 594q-32 0-57.5 15t-40 39-14.5 54 14.5 55 40 40 57.5 15v-44q-28 0-46.5-18.5T234 702q0-27 18-45.5t47-18.5v-44z"/><glyph glyph-name="circumflex" unicode="ˆ" horiz-adv-x="600" d="m121 607 133 130h92l133-130h-87L260 717h80L208 607h-87z"/><glyph glyph-name="caron" unicode="ˇ" horiz-adv-x="600" d="M254 607 121 737h87l132-109h-80l132 109h87L346 607h-92z"/><glyph glyph-name="uni02C8" unicode="ˈ" horiz-adv-x="172" d="M53 510v190h66V510H53z"/><glyph glyph-name="uni02C9" unicode="ˉ" horiz-adv-x="600" d="M137 642v60h326v-60H137z"/><glyph glyph-name="uni02CA" unicode="ˊ" horiz-adv-x="600" d="m225 607 136 130h122L315 607h-90z"/><glyph glyph-name="uni02CB" unicode="ˋ" horiz-adv-x="600" d="M285 607 117 737h122l136-130h-90z"/><glyph glyph-name="uni02CC" unicode="ˌ" horiz-adv-x="173" d="M53-220v190h67v-190H53z"/><glyph glyph-name="breve" unicode="˘" horiz-adv-x="600" d="M300 601q-68 0-114 36.5T138 737h65q2-37 30-58.5t67-21.5 67.5 21.5T397 737h65q-2-63-48-99.5T300 601z"/><glyph glyph-name="dotaccent" unicode="˙" horiz-adv-x="600" d="M300 625q-25 0-42 17t-17 42 17 42 42 17 42-17 17-42-17-42-42-17z"/><glyph glyph-name="ring" unicode="˚" horiz-adv-x="600" d="M299 594q-31 0-56 15t-39.5 39-14.5 54 14.5 55 39.5 40 56 15q32 0 57-15t39.5-40 14.5-55-14.5-54-39.5-39-57-15zm0 42q29 0 47.5 19t18.5 47q0 29-18.5 48T299 769q-28 0-46.5-18.5T234 702q0-28 18-47t47-19z"/><glyph glyph-name="ogonek" unicode="˛" horiz-adv-x="600" d="M233-224q-56 0-88 28t-32 73q0 27 13.5 54T172-16t84 48l45-32q-44-20-70-39t-37.5-38-11.5-39q0-25 17.5-38.5T243-168q17 0 33.5 5t28.5 12l18-49q-18-11-41.5-17.5T233-224z"/><glyph glyph-name="tilde" unicode="˜" horiz-adv-x="600" d="M370 610q-24 0-42.5 10T294 643.5 265 667t-28 10q-22 0-35.5-16.5T186 615h-54q2 56 28 89t70 33q24 0 43-10.5t34-24 28.5-23.5 27.5-10q22 0 36 16t15 44h54q-1-53-27.5-86T370 610z"/><glyph glyph-name="hungarumlaut" unicode="˝" horiz-adv-x="600" d="m347 607 89 130h101L428 607h-81zm-175 0 90 130h102L253 607h-81z"/><glyph glyph-name="gravecomb" unicode="̀" d="M285 607 117 737h122l136-130h-90z"/><glyph glyph-name="acutecomb" unicode="́" d="m225 607 136 130h122L315 607h-90z"/><glyph glyph-name="uni0302" unicode="̂" d="m121 607 133 130h92l133-130h-87L260 717h80L208 607h-87z"/><glyph glyph-name="tildecomb" unicode="̃" d="M370 610q-24 0-42.5 10T294 643.5 265 667t-28 10q-22 0-35.5-16.5T186 615h-54q2 56 28 89t70 33q24 0 43-10.5t34-24 28.5-23.5 27.5-10q22 0 36 16t15 44h54q-1-53-27.5-86T370 610z"/><glyph glyph-name="uni0304" unicode="̄" d="M137 642v60h326v-60H137z"/><glyph glyph-name="uni0306" unicode="̆" d="M300 601q-68 0-114 36.5T138 737h65q2-37 30-58.5t67-21.5 67.5 21.5T397 737h65q-2-63-48-99.5T300 601z"/><glyph glyph-name="uni0307" unicode="̇" d="M300 625q-25 0-42 17t-17 42 17 42 42 17 42-17 17-42-17-42-42-17z"/><glyph glyph-name="uni0308" unicode="̈" d="M393 624q-21 0-36 14.5T342 675q0 23 15 37.5t36 14.5 36-14.5 15-37.5q0-22-15-36.5T393 624zm-186 0q-21 0-36 14.5T156 675q0 23 15 37.5t36 14.5 36-14.5 15-37.5q0-22-15-36.5T207 624z"/><glyph glyph-name="hookabovecomb" unicode="̉" d="m319 598-33 39q29 14 42.5 30.5T342 704q0 21-14 34t-38 13q-31 0-60-19l-22 45q19 14 43.5 21t47.5 7q46 0 74-25.5t28-67.5q0-37-20-65.5T319 598z"/><glyph glyph-name="uni030A" unicode="̊" d="M299 594q-31 0-56 15t-39.5 39-14.5 54 14.5 55 39.5 40 56 15q32 0 57-15t39.5-40 14.5-55-14.5-54-39.5-39-57-15zm0 42q29 0 47.5 19t18.5 47q0 29-18.5 48T299 769q-28 0-46.5-18.5T234 702q0-28 18-47t47-19z"/><glyph glyph-name="uni030B" unicode="̋" d="m347 607 89 130h101L428 607h-81zm-175 0 90 130h102L253 607h-81z"/><glyph glyph-name="uni030C" unicode="̌" d="M254 607 121 737h87l132-109h-80l132 109h87L346 607h-92z"/><glyph glyph-name="uni030F" unicode="̏" d="M347 607 236 737h102l90-130h-81zm-175 0L63 737h101l89-130h-81z"/><glyph glyph-name="uni0311" unicode="̑" d="M138 607q2 63 48 99.5T300 743t114-36.5 48-99.5h-65q-1 37-29.5 58.5T300 687t-67-21.5-30-58.5h-65z"/><glyph glyph-name="uni0312" unicode="̒" d="M300 601q-27 0-41.5 13.5T244 647q0 10 3.5 22t11.5 28l37 94h55l-39-135-12 36q26 0 41-12t15-33q0-20-14.5-33T300 601z"/><glyph glyph-name="uni031B" unicode="̛" d="M282 457v73h18q33 0 48.5 18.5T364 595q0 19-5.5 35T344 658l61 23q14-17 21-40t7-49q0-60-35-97.5T300 457h-18z"/><glyph glyph-name="dotbelowcomb" unicode="̣" d="M300-196q-21 0-36 14t-15 36q0 23 15 37.5T300-94t36-14.5 15-37.5q0-22-15-36t-36-14z"/><glyph glyph-name="uni0324" unicode="̤" d="M387-193q-20 0-35 14t-15 36q0 21 15 35t35 14 34.5-14 14.5-35q0-22-14.5-36T387-193zm-174 0q-20 0-34.5 14T164-143q0 21 14.5 35T213-94q21 0 36-14t15-35q0-22-15-36t-36-14z"/><glyph glyph-name="uni0326" unicode="̦" d="m258-263 33 114 9-36q-24 0-37.5 12.5T249-140t14 33 37 13q24 0 37.5-13.5T351-140q0-10-2.5-23T338-191l-30-72h-50z"/><glyph glyph-name="uni0327" unicode="̧" d="M275-224q-26 0-48 5.5T186-202l21 49q16-9 32.5-13t35.5-4q29 0 42.5 10.5T331-130q0 18-13.5 28.5T274-91h-27l25 98h55l-15-57q43-4 65-27t22-56q0-42-34-66.5T275-224z"/><glyph glyph-name="uni0328" unicode="̨" d="M233-224q-56 0-88 28t-32 73q0 27 13.5 54T172-16t84 48l45-32q-44-20-70-39t-37.5-38-11.5-39q0-25 17.5-38.5T243-168q17 0 33.5 5t28.5 12l18-49q-18-11-41.5-17.5T233-224z"/><glyph glyph-name="uni032E" unicode="̮" d="M300-209q-68 0-114 35t-48 93h63q0-35 28.5-55t70.5-20 70.5 20T399-81h63q-2-58-48-93t-114-35z"/><glyph glyph-name="uni0331" unicode="̱" d="M137-174v61h326v-61H137z"/><glyph glyph-name="uni0335" unicode="̵" d="M102 404v68h396v-68H102z"/><glyph glyph-name="uni0336" unicode="̶" d="M33 398v79h807v-79H33z"/><glyph glyph-name="uni0337" unicode="̷" d="m96 257-43 57 265 202 43-58z"/><glyph glyph-name="uni0338" unicode="̸" d="m61-70 441 669h59L121-70H61z"/><glyph glyph-name="uni0394" unicode="Δ" horiz-adv-x="732" d="M415 700 733 0H-1l317 700h99zM118 38 88 87h554l-31-49-266 606h40z"/><glyph glyph-name="uni03A9" unicode="Ω" horiz-adv-x="898" d="M9 0v87h196q-60 48-93.5 118T78 359q0 77 28 141t78.5 111 118 72T449 708q80 0 147-25t117.5-72T792 500t28-141q0-84-33.5-154T693 87h196V0H543v81q86 44 131.5 116T720 354q0 59-20 107.5t-56 84-86 54.5-109 19-109-19-85.5-54.5-56-84T178 354q0-85 45.5-157.5T355 81V0H9z"/><glyph glyph-name="uni03BC" unicode="μ" horiz-adv-x="682" d="M91-194v724h96V236q0-78 37.5-117T330 80q50 0 87 20.5t57 60 20 95.5v274h96V0h-91v144l16-29q-16-43-45-69.5t-65-39T332-6q-57 0-99.5 23.5T168 85l19 37v-316H91z"/><glyph glyph-name="pi" unicode="π" horiz-adv-x="724" d="M33 261q-20 23-30.5 55.5T-8 378q0 43 22 77.5T76 510t95 20h544l-1-79H182q-50 0-77.5-21.5T77 363q0-19 8.5-40t20.5-40zM174 0l54 472h96L270 0h-96zm297 0v472h96V0h-96z"/><glyph glyph-name="uni0400" unicode="Ѐ" horiz-adv-x="665" d="M200 398h360v-85H200v85zm9-311h408V0H109v700h494v-87H209V87zm133 670L174 887h122l136-130h-90z"/><glyph glyph-name="uni0401" unicode="Ё" horiz-adv-x="665" d="M200 398h360v-85H200v85zm9-311h408V0H109v700h494v-87H209V87zm241 687q-21 0-36 14.5T399 825q0 23 15 37.5t36 14.5 36-14.5 15-37.5q0-22-15-36.5T450 774zm-186 0q-21 0-36 14.5T213 825q0 23 15 37.5t36 14.5 36-14.5 15-37.5q0-22-15-36.5T264 774z"/><glyph glyph-name="uni0402" unicode="Ђ" horiz-adv-x="833" d="M254 0v639l24-26H14v87h601v-87H328l24 26V0h-98zm224 4 12 83q36-9 72-7.5t66.5 16 49 41.5 18.5 71q0 54-30 86t-81 42-115.5-1T336 292l-1 90q95 36 178.5 42t147-15.5 99-71.5T795 210q0-69-27-114.5t-72.5-70T593.5-4 478 4z"/><glyph glyph-name="uni0403" unicode="Ѓ" horiz-adv-x="578" d="M109 0v700h459l-1-87H183l24 25 1-638h-99zm146 757 136 130h122L345 757h-90z"/><glyph glyph-name="uni0404" unicode="Є" horiz-adv-x="708" d="M495 385v-82H120v82h375zM406-8q-76 0-140.5 26.5t-112 75-74 113.5T53 350t26.5 143 74 113.5 112 75T406 708q84 0 154.5-28T678 598l-62-63q-42 43-93.5 63T411 618q-55 0-102.5-20t-82-55.5-53.5-85T154 350t19-107.5 53.5-85 82-55.5T411 82q60 0 111.5 20t93.5 63l62-63q-47-54-117.5-82T406-8z"/><glyph glyph-name="uni0405" unicode="Ѕ" horiz-adv-x="636" d="M317-8q-80 0-153 24.5T49 80l37 78q40-35 102-58t129-23q61 0 99 14t56 38.5 18 55.5q0 36-23.5 58t-61 35.5T323 302t-90.5 23.5-83 34.5T89 416.5 66 508q0 54 28.5 99.5t88 73T334 708q61 0 121-16t104-46l-33-80q-45 30-95 43.5T334 623q-59 0-97-15t-55.5-40-17.5-56q0-37 23.5-59t61-35 82.5-23.5 90.5-23.5 83-34 60.5-56 23-90q0-53-29-98.5t-89.5-73T317-8z"/><glyph glyph-name="uni0406" unicode="І" horiz-adv-x="317" d="M109 0v700h99V0h-99z"/><glyph glyph-name="uni0407" unicode="Ї" horiz-adv-x="310" d="M105 0v700h100V0H105zm143 774q-21 0-36.5 14.5T196 825q0 23 15.5 37.5T248 877t36-14.5 15-37.5q0-22-15-36.5T248 774zm-186 0q-21 0-36 14.5T11 825q0 23 15 37.5T62 877t36-14.5 15-37.5q0-22-15-36.5T62 774z"/><glyph glyph-name="uni0408" unicode="Ј" horiz-adv-x="540" d="M222-8q-62 0-116 26T18 93l58 68q29-40 65.5-61.5T222 78q120 0 120 142v393H89v87h352V225q0-117-55.5-175T222-8z"/><glyph glyph-name="uni0409" unicode="Љ" horiz-adv-x="1187" d="M76-8Q61-8 46-6T13 0l7 89q16-4 32-4 44 0 70 35t38.5 106T177 405l11 295h493V0h-98v639l24-26H252l22 27-8-232q-3-104-14-182T219 96t-56.5-78T76-8zm813 464q124 0 191-55.5t67-165.5q0-116-72.5-175.5T871 0H582v700h99V456h208zM867 79q87 0 133.5 39t46.5 115q0 74-46 109t-134 35H681V79h186z"/><glyph glyph-name="uni040A" unicode="Њ" horiz-adv-x="1180" d="M109 0v700h99V420h389v280h98V0h-98v334H208V0h-99zm586 53-24 26h207q79 0 122 35.5t43 99.5q0 63-43 96.5T878 344H671l24 27V53zM597 0v700h98V394l-24 30h230q115 0 179-54t64-152q0-103-68-160.5T887 0H597z"/><glyph glyph-name="uni040B" unicode="Ћ" horiz-adv-x="842" d="M252 0v639l25-26H13v87h596v-87H326l24 26V0h-98zm82 375q59 24 112.5 35.5T550 422q110 0 176.5-57.5T793 189V0h-98v176q0 78-44.5 117.5T529 333q-84 0-194-51z"/><glyph glyph-name="uni040C" unicode="Ќ" horiz-adv-x="711" d="M580 0 326 345l81 50L694 0H580zM109 0v700h98V0h-98zm68 308v88h227v-88H177zm239 31-92 14 251 347h107zM284 757l136 130h122L374 757h-90z"/><glyph glyph-name="uni040D" unicode="Ѝ" horiz-adv-x="823" d="M109 0v700h99V160l414 540h92V0h-98v539L201 0h-92zm286 757L227 887h122l136-130h-90z"/><glyph glyph-name="uni040E" unicode="Ў" horiz-adv-x="691" d="M107 88q52-19 96-9.5t79 66.5l34 54 10 11 257 490h99L371 124q-35-66-81.5-99.5t-100-37T81 8zm216 33L16 700h107l255-499zm18 628q-82 0-126.5 36T169 886h71q1-39 28-60.5t73-21.5q45 0 72.5 21.5T442 886h70q-1-65-45.5-101T341 749z"/><glyph glyph-name="uni040F" unicode="Џ" horiz-adv-x="807" d="M697 700V0H449v-159h-92V0H109v700h99V87h390v613h99z"/><glyph glyph-name="uni0410" unicode="А" horiz-adv-x="758" d="m12 0 317 700h99L746 0H641L358 644h40L115 0H12zm135 175 27 80h394l29-80H147z"/><glyph glyph-name="uni0411" unicode="Б" horiz-adv-x="731" d="M109 0v700h528v-85H208V415h218q125 0 190-52t65-151q0-102-70.5-157T409 0H109zm99 79h197q87 0 131.5 33t44.5 98q0 126-176 126H208V79z"/><glyph glyph-name="uni0412" unicode="В" horiz-adv-x="747" d="M109 0v700h301q114 0 179-46t65-134q0-86-62-131.5T429 343l18 30q117 0 179.5-46.5T689 191q0-90-65.5-140.5T429 0H109zm99 79h219q80 0 120.5 29.5T588 199t-40.5 89T427 316H208V79zm0 313h195q73 0 111.5 29t38.5 85q0 57-38.5 86T403 621H208V392z"/><glyph glyph-name="uni0413" unicode="Г" horiz-adv-x="578" d="M109 0v700h459l-1-87H183l24 25 1-638h-99z"/><glyph glyph-name="uni0414" unicode="Д" horiz-adv-x="804" d="M574 47v566H267l-5-147q-3-74-9.5-142T234 201.5 200.5 112 146 69L38 87q39-3 64.5 26.5t40 83 21.5 125T174 475l7 225h492V47h-99zM13-153l1 240h762v-240h-93V0H107l-1-153H13z"/><glyph glyph-name="uni0415" unicode="Е" horiz-adv-x="665" d="M200 398h360v-85H200v85zm9-311h408V0H109v700h494v-87H209V87z"/><glyph glyph-name="uni0416" unicode="Ж" horiz-adv-x="1029" d="M893 0 674 345l84 50L1010 0H893zM534 308v88h205v-88H534zm230 31-93 14 215 347h107zM136 0H19l251 395 85-50zm428 0h-98v700h98V0zm-68 308H290v88h206v-88zm-230 31L36 700h107l214-347z"/><glyph glyph-name="uni0417" unicode="З" horiz-adv-x="642" d="m32 76 35 74q46-36 101.5-54T279 77.5 380.5 92t74.5 45 28 74q0 54-43.5 82T319 321H163v81h149q67 0 104.5 27.5T454 506q0 37-22.5 62.5t-61 38.5-87 13.5-99.5-13T86 565l-32 82q64 36 133.5 50.5t134.5 9 117.5-30 84-64T555 518q0-50-26-88.5t-72-59T350 350l4 27q70 0 121.5-22.5t80-63.5 28.5-95q0-51-26-90.5t-70.5-66T386.5 1 268-7 145.5 17 32 76z"/><glyph glyph-name="uni0418" unicode="И" horiz-adv-x="823" d="M109 0v700h99V160l414 540h92V0h-98v539L201 0h-92z"/><glyph glyph-name="uni0419" unicode="Й" horiz-adv-x="823" d="M109 0v700h99V160l414 540h92V0h-98v539L201 0h-92zm301 749q-82 0-126.5 36T238 886h71q1-39 28-60.5t73-21.5q45 0 72.5 21.5T511 886h70q-1-65-45.5-101T410 749z"/><glyph glyph-name="uni041A" unicode="К" horiz-adv-x="711" d="M580 0 326 345l81 50L694 0H580zM109 0v700h98V0h-98zm68 308v88h227v-88H177zm239 31-92 14 251 347h107z"/><glyph glyph-name="uni041B" unicode="Л" horiz-adv-x="790" d="M76-8Q61-8 46-6T13 0l7 89q16-4 32-4 44 0 70 35t38.5 106T177 405l11 295h493V0h-98v639l24-26H252l22 27-8-232q-3-104-14-182T219 96t-56.5-78T76-8z"/><glyph glyph-name="uni041C" unicode="М" horiz-adv-x="963" d="M109 0v700h82l314-529h-44l310 529h82l1-700h-96l-1 549h23L504 85h-46L180 549h25V0h-96z"/><glyph glyph-name="uni041D" unicode="Н" horiz-adv-x="820" d="M611 700h100V0H611v700zM209 0H109v700h100V0zm411 312H199v87h421v-87z"/><glyph glyph-name="uni041E" unicode="О" horiz-adv-x="848" d="M424-8q-80 0-148.5 27T157 94.5 79 208 51 350t28 142 78 113.5T275 681t149 27q80 0 147.5-26.5t118-75 78-113.5T795 350t-27.5-143-78-113.5-118-75T424-8zm0 89q58 0 107.5 20t86 56.5 57 85.5T695 350t-20.5 107-57 85.5-86 56.5T424 619q-59 0-108.5-20T229 542.5 171.5 457 151 350t20.5-107 57.5-85.5 86.5-56.5T424 81z"/><glyph glyph-name="uni041F" unicode="П" horiz-adv-x="821" d="M109 0v700h603V0h-98v639l24-26H183l25 26V0h-99z"/><glyph glyph-name="uni0420" unicode="Р" horiz-adv-x="714" d="M109 0v700h273q92 0 157-29t100-84 35-131-35-130.5-100-84T382 212H164l45 47V0H109zm100 249-45 50h215q96 0 145.5 41T574 456t-49.5 116T379 613H164l45 50V249z"/><glyph glyph-name="uni0421" unicode="С" horiz-adv-x="718" d="M422-8q-80 0-147.5 26.5t-117 75T80 207 52 350t28 143 78 113.5 117.5 75T423 708q81 0 149.5-27.5T689 599l-65-63q-40 42-90 62.5T427 619q-59 0-109.5-20T230 543t-57.5-85.5T152 350t20.5-107.5T230 157t87.5-56T427 81q57 0 107 20.5t90 63.5l65-63q-48-54-116.5-82T422-8z"/><glyph glyph-name="uni0422" unicode="Т" horiz-adv-x="603" d="M252 0v639l25-26H13v87h577v-87H326l24 26V0h-98z"/><glyph glyph-name="uni0423" unicode="У" horiz-adv-x="691" d="M107 88q52-19 96-9.5t79 66.5l34 54 10 11 257 490h99L371 124q-35-66-81.5-99.5t-100-37T81 8zm216 33L16 700h107l255-499z"/><glyph glyph-name="uni0424" unicode="Ф" horiz-adv-x="926" d="M451 47q-128 0-219 35.5T93 186 45 351t48 165 139 104 219 36h25q128 0 218.5-36T833 516t48-165q0-96-47.5-164.5t-137-104T480 47h-29zm11 78h8q102 1 172 26.5t106.5 76T785 352q0 73-37 123t-106.5 76T472 577h-10q-103 0-174.5-25.5T179 476t-37-125 38-125 109.5-75.5T462 125zM417-26v752h93V-26h-93z"/><glyph glyph-name="uni0425" unicode="Х" horiz-adv-x="668" d="M34 700h115l183-256 183 256h117L395 364 651 0H533L332 279 132 0H17l255 360z"/><glyph glyph-name="uni0426" unicode="Ц" horiz-adv-x="829" d="M109 0v700h99V87h390v613h99V0H109zm603-159V26l24-26H598v87h207v-246h-93z"/><glyph glyph-name="uni0427" unicode="Ч" horiz-adv-x="736" d="M545 284q-59-25-114.5-37.5T323 234q-128 0-198.5 62T54 473v227h98V484q0-78 48-120t134-42q51 0 104.5 13T543 373zM528 0v700h99V0h-99z"/><glyph glyph-name="uni0428" unicode="Ш" horiz-adv-x="1095" d="m522 87-23-26v639h98V61l-25 26h341l-25-26v639h98V0H109v700h99V61l-25 26h339z"/><glyph glyph-name="uni0429" unicode="Щ" horiz-adv-x="1121" d="m522 87-23-26v639h98V61l-25 26h341l-25-26v639h98V0H109v700h99V61l-25 26h339zm477-240V26l25-26H886v87h205v-240h-92z"/><glyph glyph-name="uni042A" unicode="Ъ" horiz-adv-x="828" d="M531 456q124 0 190.5-55.5T788 235q0-116-72-175.5T512 0H224v613H13v87h310V456h208zM510 79q86 0 132 39t46 115q0 74-45.5 109T510 377H323V79h187z"/><glyph glyph-name="uni042B" unicode="Ы" horiz-adv-x="993" d="M416 456q124 0 191-55.5T674 235q0-116-72.5-175.5T398 0H109v700h99V456h208zM394 79q87 0 133.5 39T574 233q0 74-46 109t-134 35H208V79h186zM785 0v700h99V0h-99z"/><glyph glyph-name="uni042C" unicode="Ь" horiz-adv-x="713" d="M416 456q124 0 191-55.5T674 235q0-116-72.5-175.5T398 0H109v700h99V456h208zM394 79q87 0 133.5 39T574 233q0 74-46 109t-134 35H208V79h186z"/><glyph glyph-name="uni042D" unicode="Э" horiz-adv-x="707" d="M212 315v82h375v-82H212zm90 393q76 0 140-26.5t111.5-75 74-113.5T654 350t-26.5-143-74-113.5-111.5-75T302-8q-84 0-154.5 28T29 102l63 63q42-43 93.5-63T297 82q55 0 102 20t81.5 55.5 53.5 85T553 350t-19 107.5-53.5 85T399 598t-102 20q-60 0-111.5-20T92 535l-63 63q48 54 118.5 82T302 708z"/><glyph glyph-name="uni042E" unicode="Ю" horiz-adv-x="1099" d="M109 0v700h99V400h181v-90H208V0h-99zm580-8q-76 0-141 26.5t-113 75T360.5 207 334 350t26.5 143T435 606.5t113 75T689 708t141.5-26.5 113.5-75 74.5-113.5 26.5-143-26.5-143T944 93.5t-113.5-75T689-8zm0 90q55 0 101.5 19.5t81 55.5 54 85T945 350t-19.5 108-54 85-81 55.5T690 618t-100.5-19.5-81-55.5-54-85T435 350t19.5-108 54-85 81-55.5T689 82z"/><glyph glyph-name="uni042F" unicode="Я" horiz-adv-x="731" d="M524 0v228l26-24H331q-85 0-146.5 29t-94 83.5T58 448q0 80 35 136.5t99 86T341 700h281V0h-98zM58 0l173 248h102L164 0H58zm466 260v382l26-29H345q-90 0-138-41.5T159 449q0-77 45.5-119T339 288h211z"/><glyph glyph-name="uni0430" unicode="а" horiz-adv-x="589" d="M418 0v112l-5 21v191q0 61-35.5 94.5T271 452q-47 0-92-15.5T103 395l-40 72q41 33 98.5 50.5T282 535q109 0 168-53t59-162V0h-91zM244-6q-59 0-103.5 20T72 69.5 48 150q0 43 20.5 78t67 56T261 305h168v-69H265q-72 0-97-24t-25-58q0-39 31-62.5T260 68q54 0 94.5 24t58.5 70l19-66q-19-47-67-74.5T244-6z"/><glyph glyph-name="uni0431" unicode="б" horiz-adv-x="662" d="M338-8q-66 0-116.5 21T135 75.5t-54.5 105T62 330q0 68 12 122t34.5 96 56 73 76 51.5T334 704l242 54 14-89-223-48q-20-4-48-12t-57-24.5-54-45.5-40-75.5T153 349q0-19 1-29t2.5-20 2.5-30l-40 41q16 55 51 96t84.5 63.5T363 493q74 0 131.5-32t90.5-88 33-128q0-73-34.5-130.5t-97.5-90T338-8zm9 80q51 0 90 22.5t61 61 22 86.5-22 85-61 58.5-92 21.5q-50 0-90-20.5t-62-57-22-84.5 22.5-87.5 62-62.5T347 72z"/><glyph glyph-name="uni0432" unicode="в" horiz-adv-x="614" d="M93 0v530h246q93 0 146.5-35.5T539 394t-50.5-100.5T355 258l15 26q95 0 141-35t46-103q0-69-51.5-107.5T348 0H93zm94 74h154q60 0 90 18.5t30 59.5q0 42-27.5 61.5T347 233H187V74zm0 228h144q55 0 83.5 20.5T443 380q0 38-28.5 57T331 456H187V302z"/><glyph glyph-name="uni0433" unicode="г" horiz-adv-x="488" d="M93 0v530h390v-84H166l23 22V0H93z"/><glyph glyph-name="uni0434" unicode="д" horiz-adv-x="664" d="M455 45v401H225l-5-102q-2-50-6.5-96.5t-14-85.5T172 98t-48-31L29 84q31-1 50 20.5t29.5 59.5 15.5 86.5 8 100.5l8 179h411V45h-96zM8-123V84h624v-207h-90V0H99v-123H8z"/><glyph glyph-name="uni0435" unicode="е" horiz-adv-x="628" d="M329-6q-85 0-149.5 35t-100 96T44 265t34.5 140 95 95.5T310 535q77 0 136-34t92.5-95.5T572 262q0-6-.5-14t-1.5-15H119v69h401l-39-24q1 51-21 91t-60.5 62.5T310 454q-50 0-89-22.5t-61-63-22-92.5v-16q0-53 24.5-94.5T231 101t101-23q47 0 85.5 16t67.5 48l53-62q-36-42-89.5-64T329-6z"/><glyph glyph-name="uni0436" unicode="ж" horiz-adv-x="849" d="M722 0 553 258l79 48L836 0H722zM443 224v82h172v-82H443zm198 30-91 12 169 264h103zM127 0H13l203 306 79-48zm345 0h-96v530h96V0zm-67 224H234v82h171v-82zm-197 30L27 530h102l169-264z"/><glyph glyph-name="uni0437" unicode="з" horiz-adv-x="544" d="M248-7q70 0 124.5 20.5t86.5 57 32 84.5q0 60-51 95t-140 35l-4-23q52 0 92 17t64 46.5 24 67.5q0 45-31.5 78T359 521.5 236 537q-46-1-92.5-13.5T49 488l26-75q43 21 84.5 31t81.5 11q41 0 71.5-9t47.5-26 17-41q0-22-14.5-38.5T322 316t-61-8h-90v-69h96q59 0 92-20t33-57q0-26-18-45.5T322.5 86 243 75q-50 0-99 13.5T57 126L28 53Q73 24 130.5 8.5T248-7z"/><glyph glyph-name="uni0438" unicode="и" horiz-adv-x="694" d="M93 0v530h96V144l325 386h87V0h-96v386L181 0H93z"/><glyph glyph-name="uni0439" unicode="й" horiz-adv-x="694" d="M93 0v530h96V144l325 386h87V0h-96v386L181 0H93zm248 599q-73 0-114.5 35.5T184 737h65q1-38 25.5-60t65.5-22 66 22 26 60h67q-1-67-43-102.5T341 599z"/><glyph glyph-name="uni043A" unicode="к" horiz-adv-x="598" d="M477 0 272 258l79 48L590 0H477zM93 0v530h96V0H93zm67 224v82h175v-82H160zm199 30-89 12 203 264h103z"/><glyph glyph-name="uni043B" unicode="л" horiz-adv-x="641" d="m5 1 6 81q7-1 13-2t11-1q32 0 50.5 22t27.5 58.5 13 82.5 6 92l9 196h407V0h-96v474l23-28H203l22 29-7-147q-3-70-11-131T182.5 90t-45-72T64-8Q51-8 36.5-5.5T5 1z"/><glyph glyph-name="uni043C" unicode="м" horiz-adv-x="798" d="M93 0v530h99l228-392h-40l234 392h90V0h-87v422l16-9L419 60h-42L162 420l19 4V0H93z"/><glyph glyph-name="uni043D" unicode="н" horiz-adv-x="681" d="M93 0v530h96V305h302v225h96V0h-96v222H189V0H93z"/><glyph glyph-name="uni043E" unicode="о" horiz-adv-x="641" d="M320-6q-80 0-142 35t-98 96.5T44 265q0 79 36 140t98 95.5T320 535q79 0 141.5-34.5t98-95T595 265q0-79-35.5-140t-98-96T320-6zm0 84q51 0 91.5 23t63.5 65.5 23 98.5q0 57-23 98.5T411.5 428 320 451t-91-23-64-64.5-24-98.5q0-56 24-98.5t64-65.5 91-23z"/><glyph glyph-name="uni043F" unicode="п" horiz-adv-x="677" d="M93 0v530h491V0h-96v470l23-24H166l23 24V0H93z"/><glyph glyph-name="uni0440" unicode="р" horiz-adv-x="688" d="M374-6q-66 0-120.5 30.5t-87 90.5T134 265t31.5 150 86 90T374 535q78 0 138-34t95-94.5T642 265t-35-142-95-95T374-6zM93-194v724h92V387l-6-123 10-123v-335H93zM366 78q51 0 91.5 23t64 65.5T545 265q0 57-23.5 98.5t-64 64.5-91.5 23q-50 0-90.5-23t-64-64.5T188 265q0-56 23.5-98.5t64-65.5T366 78z"/><glyph glyph-name="uni0441" unicode="с" horiz-adv-x="571" d="M324-6q-81 0-144.5 35T80 125 44 265t36 140 99.5 95.5T324 535q72 0 128.5-28.5T540 422l-73-47q-26 39-63.5 57.5T323 451q-52 0-93-23t-65-64.5-24-98.5 24-99 65-65 93-23q43 0 80.5 18.5T467 154l73-46q-31-55-87.5-84.5T324-6z"/><glyph glyph-name="uni0442" unicode="т" horiz-adv-x="493" d="M198 0v471l24-25H4v84h484v-84H271l23 25V0h-96z"/><glyph glyph-name="uni0443" unicode="у" horiz-adv-x="571" d="M120-200q-38 0-74 12.5T-16-151l41 72q20-19 44-29t51-10q35 0 58 18t43 64l33 73 10 12 208 481h94L309-53q-23-56-51.5-88T195-186.5 120-200zM246-17 4 530h100L310 58z"/><glyph glyph-name="uni0444" unicode="ф" horiz-adv-x="805" d="M409-8h-23Q223-6 133 64.5T43 266q0 130 90.5 199.5T389 536h21q167 0 259.5-70T762 266q0-132-93-203T409-8zm-2 84q87 0 144.5 22t86.5 64 29 104q0 61-29 102t-86.5 62T407 451h-15q-85 0-141.5-21.5T166 367t-28-101q0-61 28.5-103t85-64T392 76h15zm-52-270v936h94v-936h-94z"/><glyph glyph-name="uni0445" unicode="х" horiz-adv-x="541" d="m9 0 228 296-1-49L19 530h107l166-218h-41l166 218h105L302 245l1 51L533 0H424L249 232l39-6L116 0H9z"/><glyph glyph-name="uni0446" unicode="ц" horiz-adv-x="690" d="M93 0v530h96V84h290v446h96V0H93zm475-123V5l24-5H479v84h180v-207h-91z"/><glyph glyph-name="uni0447" unicode="ч" horiz-adv-x="609" d="M427 217q-42-20-86.5-31.5T249 174q-96 0-151.5 45T42 358v172h96V364q0-57 35.5-84t95.5-27q38 0 78.5 10t79.5 28v-74zM420 0v530h96V0h-96z"/><glyph glyph-name="uni0448" unicode="ш" horiz-adv-x="941" d="m445 84-22-25v471h96V59l-24 25h280l-23-25v471h96V0H93v530h96V59l-23 25h279z"/><glyph glyph-name="uni0449" unicode="щ" horiz-adv-x="941" d="m445 84-22-25v471h96V59l-24 25h280l-23-25v471h96V0H93v530h96V59l-23 25h279zm391-197V25l23-25H747v84h179v-197h-90z"/><glyph glyph-name="uni044A" unicode="ъ" horiz-adv-x="639" d="M406 351q100 0 151.5-45.5T609 178q0-86-57-132T389 0H166v446H4v84h258V351h144zM386 73q62 0 94 27t32 80q0 100-126 100H262V73h124z"/><glyph glyph-name="uni044B" unicode="ы" horiz-adv-x="807" d="M617 0v530h96V0h-96zM332 350q101-1 153.5-46T538 177q0-86-57.5-132.5T316-1L93 0v530h96V351zM309 72q64-1 98 26t34 80q0 52-33.5 76T309 279l-120 2V73z"/><glyph glyph-name="uni044C" unicode="ь" horiz-adv-x="575" d="M338 350q101-1 154-46t53-127q0-86-58-132.5T323-1L93 0v530h96V351zM315 72q65-1 98.5 26t33.5 80q0 52-33 76t-99 25l-126 2V73z"/><glyph glyph-name="uni044D" unicode="э" horiz-adv-x="575" d="M175 233v71h297v-71H175zm71 303q82 0 147-35t102-96 37-140q0-78-37-140T393 28 246-7q-68 0-125.5 22T24 79l56 56q33-32 73.5-47.5T242 72q58 0 103 24.5t71.5 68.5T443 265t-26.5 99.5T345 433t-103 25q-48 0-88.5-16T80 394l-56 55q39 43 96.5 65T246 536z"/><glyph glyph-name="uni044E" unicode="ю" horiz-adv-x="876" d="M93 0v530h96V313h160v-89H189V0H93zm469-6q-78 0-138.5 35T328 125.5 293 265q0 79 35 140.5t95.5 95.5T562 535q77 0 138-34t96-95.5T831 265t-35-140-96-96T562-6zm0 84q50 0 89 23.5t62 65 23 98.5-23 98.5-62 64.5-89 23q-49 0-88.5-23T411 363.5 388 265t23-98.5 62.5-65T562 78z"/><glyph glyph-name="uni044F" unicode="я" horiz-adv-x="612" d="M432 0v186l15-18H278q-106 0-165.5 45T53 344q0 92 63.5 139T286 530h232V0h-86zM48 0l144 203h99L151 0H48zm384 216v257l15-27H289q-66 0-102-24.5T151 341q0-104 134-104h162z"/><glyph glyph-name="uni0450" unicode="ѐ" horiz-adv-x="631" d="M329-6q-85 0-149.5 35t-100 96T44 265t34.5 140 95 95.5T310 535q77 0 136-34t92.5-95.5T572 262q0-6-.5-14t-1.5-15H119v69h401l-39-24q1 51-21 91t-60.5 62.5T310 454q-50 0-89-22.5t-61-63-22-92.5v-16q0-53 24.5-94.5T231 101t101-23q47 0 85.5 16t67.5 48l53-62q-36-42-89.5-64T329-6zm-35 613L126 737h122l136-130h-90z"/><glyph glyph-name="uni0451" unicode="ё" horiz-adv-x="628" d="M329-6q-85 0-149.5 35t-100 96T44 265t34.5 140 95 95.5T310 535q77 0 136-34t92.5-95.5T572 262q0-6-.5-14t-1.5-15H119v69h401l-39-24q1 51-21 91t-60.5 62.5T310 454q-50 0-89-22.5t-61-63-22-92.5v-16q0-53 24.5-94.5T231 101t101-23q47 0 85.5 16t67.5 48l53-62q-36-42-89.5-64T329-6zm73 630q-21 0-36 14.5T351 675q0 23 15 37.5t36 14.5 36-14.5 15-37.5q0-22-15-36.5T402 624zm-186 0q-21 0-36 14.5T165 675q0 23 15 37.5t36 14.5 36-14.5 15-37.5q0-22-15-36.5T216 624z"/><glyph glyph-name="uni0452" unicode="ђ" horiz-adv-x="675" d="M427-200q-33 0-63.5 8T312-168l31 74q30-25 78-25 38 0 59 23.5T501-26v320q0 77-38 116t-106 39q-50 0-88-20t-58.5-59-20.5-97V0H94v742h91V387l-15 38q26 52 80 81t126 29q65 0 114.5-25t78-76T597 305V-24q0-81-44-128.5T427-200zM-10 601v68h435v-68H-10z"/><glyph glyph-name="uni0453" unicode="ѓ" horiz-adv-x="488" d="M93 0v530h390v-84H166l23 22V0H93zm123 605 136 130h122L306 605h-90z"/><glyph glyph-name="uni0454" unicode="є" horiz-adv-x="577" d="M401 297v-72H103v72h298zM330-6q-83 0-147.5 34.5T81 125 44 265q0 79 37 140t101.5 96.5T330 537q69 0 126-22t96-65l-56-55q-33 32-74 47.5T333 458q-57 0-102.5-25T159 364.5 133 265t26-100 71.5-68.5T333 72q48 0 89 15.5t74 48.5l56-56q-39-42-96-64T330-6z"/><glyph glyph-name="uni0455" unicode="ѕ" horiz-adv-x="536" d="M262-6q-66 0-125.5 18T43 56l40 76q34-23 84-39t102-16q67 0 96.5 19t29.5 53q0 25-18 39t-47.5 21-65.5 12.5-72 14-66 24-48 43T60 376q0 48 27 84t76.5 55.5T281 535q52 0 105.5-12.5T474 487l-41-76q-36 24-75 33t-78 9q-63 0-94-20.5T155 380q0-27 18.5-41.5t48-22.5 65.5-13.5 72-14 65.5-23.5 48-42 18.5-72q0-48-28-83t-79-54.5T262-6z"/><glyph glyph-name="uni0456" unicode="і" horiz-adv-x="283" d="M93 0v530h96V0H93zm48 632q-28 0-46.5 18T76 694q0 27 18.5 45t46.5 18 46.5-17.5T206 696q0-27-18-45.5T141 632z"/><glyph glyph-name="uni0457" unicode="ї" horiz-adv-x="279" d="M91 0v530h96V0H91zm119 625q-21 0-35 14.5T161 675q0 22 14 36.5t35 14.5 35.5-14.5T260 675q0-21-14.5-35.5T210 625zm-142 0q-21 0-35.5 14.5T18 675q0 22 14.5 36.5T68 726t35-14.5 14-36.5q0-21-14-35.5T68 625z"/><glyph glyph-name="uni0458" unicode="ј" horiz-adv-x="284" d="M21-200q-33 0-63.5 8T-94-168l31 74q30-25 78-25 38 0 58.5 23.5T94-26v556h96V-24q0-81-43.5-128.5T21-200zm121 832q-28 0-46.5 18T77 694q0 27 18.5 45t46.5 18 46.5-17.5T207 696q0-27-18-45.5T142 632z"/><glyph glyph-name="uni0459" unicode="љ" horiz-adv-x="933" d="m5 1 6 81q7-1 13-2t11-1q32 0 50.5 22t27.5 58.5 13 82.5 6 92l9 196h407V0h-96v474l23-28H203l22 29-7-147q-3-70-11-131T182.5 90t-45-72T64-8Q51-8 36.5-5.5T5 1zm691 349q101-1 154-46t53-127q0-86-58-132.5T681-1L451 0v530h96V351zM673 72q65-1 98.5 26t33.5 80q0 52-33 76t-99 25l-126 2V73z"/><glyph glyph-name="uni045A" unicode="њ" horiz-adv-x="952" d="M729 324q95 0 146-40.5T926 168q0-79-56.5-123.5T713 0H481v241H189V0H93v530h96V324h292v206h96V324h152zM709 71q57 0 88 24t31 67q0 41-30.5 62.5T709 246H577V71h132z"/><glyph glyph-name="uni045B" unicode="ћ" horiz-adv-x="674" d="M-36 605v57h464v-57H-36zm412-70q65 0 114.5-25t78-76T597 305V0h-96v294q0 77-38 116t-106 39q-50 0-88-20t-58.5-59-20.5-97V0H94v742h96V387l-20 38q26 52 80 81t126 29z"/><glyph glyph-name="uni045C" unicode="ќ" horiz-adv-x="598" d="M477 0 272 258l79 48L590 0H477zM93 0v530h96V0H93zm67 224v82h175v-82H160zm199 30-89 12 203 264h103zM233 607l136 130h122L323 607h-90z"/><glyph glyph-name="uni045D" unicode="ѝ" horiz-adv-x="694" d="M93 0v530h96V144l325 386h87V0h-96v386L181 0H93zm233 607L158 737h122l136-130h-90z"/><glyph glyph-name="uni045E" unicode="ў" horiz-adv-x="571" d="M120-200q-38 0-74 12.5T-16-151l41 72q20-19 44-29t51-10q35 0 58 18t43 64l33 73 10 12 208 481h94L309-53q-23-56-51.5-88T195-186.5 120-200zM246-17 4 530h100L310 58zm26 616q-73 0-114.5 35.5T115 737h65q1-38 25.5-60t65.5-22 66 22 26 60h67q-1-67-43-102.5T272 599z"/><glyph glyph-name="uni045F" unicode="џ" horiz-adv-x="646" d="M552 530V0H369v-123h-91V0H93v530h96V84h267v446h96z"/><glyph glyph-name="uni0462" unicode="Ѣ" horiz-adv-x="811" d="M206 0v742h98V452h212q125 0 190-56t65-165q0-111-70.5-171T498 0H206zm98 79h191q87 0 131 38t44 111q0 145-175 145H304V79zM19 555v74h499v-74H19z"/><glyph glyph-name="uni0463" unicode="ѣ" horiz-adv-x="613" d="M0 483v70h423v-70H0zm376-133q101-1 154-46t53-127q0-86-58-132.5T360-1L131 0v742h96V351zM353 72q65-1 98.5 26t33.5 80q0 52-33 76t-99 25l-126 2V73z"/><glyph glyph-name="uni046A" unicode="Ѫ" horiz-adv-x="900" d="m18 0 69 158q31 76 69 123.5t84.5 70T340 374h5L101 634v66h699v-63L554 374h5q55 0 102-23t85.5-70.5T814 158L882 0H779l-56 134q-33 87-81 126.5T532 300h-35V0h-94v300h-33q-63 0-111.5-39T177 134L121 0H18zm195 623 237-249h1l236 249H213z"/><glyph glyph-name="uni046B" unicode="ѫ" horiz-adv-x="704" d="m15 0 49 116q24 60 53 97.5t65 55 81 17.5h179q46 0 82-17.5t65-55 51-97.5L689 0h-94l-39 95q-22 65-54 94t-81 29h-29V0h-83v218h-26q-47 0-80-29t-56-94L110 0H15zm335 285 173 178H178zm-78-18L77 469v61h546v-61L427 267H272z"/><glyph glyph-name="uni0472" unicode="Ѳ" horiz-adv-x="848" d="M424 708q80 0 147.5-26.5t118-75 78-113.5T795 350t-27.5-143-78-113.5-118-75T424-8q-81 0-149 27T157 94.5 79 208 51 350t28 142 78 113.5T275 681t149 27zm0-89q-53 0-99.5-17T242 554.5 183.5 482 155 390h537q-6 50-29 92t-58.5 72.5T523 602t-99 17zm0-538q53 0 99 17t81.5 47.5T663 218t29 93H155q6-51 28.5-93t58.5-72.5T324.5 98 424 81z"/><glyph glyph-name="uni0473" unicode="ѳ" horiz-adv-x="650" d="M325 535q82 0 145-34t99.5-95.5T606 265t-36.5-140T470 29 325-6q-81 0-144.5 35t-100 96T44 265t36.5 140.5 100 95.5T325 535zm0-76q-50 0-89.5-20T171 383.5 138 299h373q-6 48-31.5 84t-65 56-89.5 20zm0-388q50 0 89.5 20t65 56 31.5 84H138q7-48 32.5-84T236 91t89-20z"/><glyph glyph-name="uni0474" unicode="Ѵ" horiz-adv-x="761" d="M302 0 14 700h109l229-555 147 404q38 100 95 136.5T748 699l-11-98q-62 15-96.5-11T578 488L400 0h-98z"/><glyph glyph-name="uni0475" unicode="ѵ" horiz-adv-x="596" d="M237 0 5 530h106L316 51h-58l139 369q20 54 46 82t62 34 87-7l-10-95q-30 8-48.5 5t-32-23-29.5-62L333 0h-96z"/><glyph glyph-name="uni048A" unicode="Ҋ" horiz-adv-x="852" d="M109 0v700h99V160l414 540h92V0h-98v539L201 0h-92zm301 749q-82 0-126.5 36T238 886h71q1-39 28-60.5t73-21.5q45 0 72.5 21.5T511 886h70q-1-65-45.5-101T410 749zm254-902 44 179 39-26H616v87h199l-71-240h-80z"/><glyph glyph-name="uni048B" unicode="ҋ" horiz-adv-x="716" d="M93 0v530h96V144l325 386h87V0h-96v386L181 0H93zm248 601q-68 0-114 36.5T179 737h65q2-37 30-58.5t67-21.5 67.5 21.5T438 737h65q-2-63-48-99.5T341 601zm208-714 36 138 58-25H505v84h180l-58-197h-78z"/><glyph glyph-name="uni048C" unicode="Ҍ" horiz-adv-x="739" d="M134 0v742h99V452h212q124 0 189-56t65-165q0-111-70.5-171T426 0H134zm99 79h190q87 0 131 38t44 111q0 145-175 145H233V79zM31 555v74h416v-74H31z"/><glyph glyph-name="uni048D" unicode="ҍ" horiz-adv-x="606" d="M125 0v530h96V338l149-1q101-1 154-41.5T577 173q0-86-58-130.5T354-1zm222 72q65-1 98.5 24t33.5 78q0 52-33 72t-99 21l-126 1V73zM22 398v71h395v-71H22z"/><glyph glyph-name="uni048E" unicode="Ҏ" horiz-adv-x="733" d="M109 0v700h274q91 0 156-29.5t100-85T674 452t-35-133.5-100-85T383 204H183l26 26V0H109zm100 262-26 28h196q96 0 145.5 42T574 452t-49.5 119.5T379 613H183l26 29V262zm452-133-55-45-263 344 55 45z"/><glyph glyph-name="uni048F" unicode="ҏ" horiz-adv-x="699" d="M388-6q-71 0-124 32t-81.5 92.5T154 264q0 86 28 146.5t80.5 92.5T388 535q72 0 130-34t92-94.5T644 264q0-81-34-142t-92-94.5T388-6zM94-194v724h92V387l-6-123 10-124v-334H94zM369 78q52 0 92.5 22.5t64 64.5 23.5 99-23.5 98.5-64 65T369 451t-92.5-23.5-64-65T189 264t23.5-99 64-64.5T369 78zm264-99-54-42-200 251 55 43z"/><glyph glyph-name="uni0490" unicode="Ґ" horiz-adv-x="581" d="M109 0v700h367v144h92V613H208V0h-99z"/><glyph glyph-name="uni0491" unicode="ґ" horiz-adv-x="466" d="M93 0v530h277v108h90V446H189V0H93z"/><glyph glyph-name="uni0492" unicode="Ғ" horiz-adv-x="618" d="M30 286v75h497v-75H30zM136 0v700h459l-1-87H209l24 25 1-638h-98z"/><glyph glyph-name="uni0493" unicode="ғ" horiz-adv-x="516" d="M43 195v68h388v-68H43zM109 0v530h390v-84H182l23 22V0h-96z"/><glyph glyph-name="uni0494" unicode="Ҕ" horiz-adv-x="703" d="M109 0v700h479v-87H183l25 26V0h-99zm211-137 17 83q62-13 111.5 7.5t79 67T557 133q0 53-20.5 92t-56 62-81.5 28-97-9-103-49l-4 86q70 37 137 48.5t125.5-.5 103-44.5 70-85T656 140q0-72-26-129.5T557.5-85t-107-52.5-130.5.5z"/><glyph glyph-name="uni0495" unicode="ҕ" horiz-adv-x="601" d="M93 0v530h379v-84H166l23 25V0H93zm154-192 20 83q66-11 113.5 5.5t73.5 56T480 48q0 52-20 86t-53.5 51-74 18.5-82.5-11-79-37.5l-2 86q60 30 119.5 40t112-1 92-40.5T555 163t23-111-24.5-115.5T485-149t-104.5-45.5T247-192z"/><glyph glyph-name="uni0496" unicode="Җ" horiz-adv-x="1067" d="M893 0 674 345l84 50L1010 0H893zM534 308v88h205v-88H534zm230 31-93 14 215 347h107zM136 0H19l251 395 85-50zm428 0h-98v700h98V0zm-68 308H290v88h206v-88zm-230 31L36 700h107l214-347zm695-492V26l25-26h-93v87h161v-240h-93z"/><glyph glyph-name="uni0497" unicode="җ" horiz-adv-x="882" d="M722 0 553 258l79 48L836 0H722zM443 224v82h172v-82H443zm198 30-91 12 169 264h103zM127 0H13l203 306 79-48zm345 0h-96v530h96V0zm-67 224H234v82h171v-82zm-197 30L27 530h102l169-264zm581-367V24l23-24h-90v82h154v-195h-87z"/><glyph glyph-name="uni0498" unicode="Ҙ" horiz-adv-x="642" d="m32 76 35 74q46-36 101.5-54T279 77.5 380.5 92t74.5 45 28 74q0 54-43.5 82T319 321H163v81h149q67 0 104.5 27.5T454 506q0 37-22.5 62.5t-61 38.5-87 13.5-99.5-13T86 565l-32 82q64 36 133.5 50.5t134.5 9 117.5-30 84-64T555 518q0-50-26-88.5t-72-59T350 350l4 27q70 0 121.5-22.5t80-63.5 28.5-95q0-51-26-90.5t-70.5-66T386.5 1 268-7 145.5 17 32 76zm318-53v-176h-93V23h93z"/><glyph glyph-name="uni0499" unicode="ҙ" horiz-adv-x="544" d="M248-7q70 0 124.5 20.5t86.5 57 32 84.5q0 60-51 95t-140 35l-4-23q52 0 92 17t64 46.5 24 67.5q0 45-31.5 78T359 521.5 236 537q-46-1-92.5-13.5T49 488l26-75q43 21 84.5 31t81.5 11q41 0 71.5-9t47.5-26 17-41q0-22-14.5-38.5T322 316t-61-8h-90v-69h96q59 0 92-20t33-57q0-26-18-45.5T322.5 86 243 75q-50 0-99 13.5T57 126L28 53Q73 24 130.5 8.5T248-7zm49 28h-91v-134h91V21z"/><glyph glyph-name="uni049A" unicode="Қ" horiz-adv-x="755" d="M580 0 326 345l81 50L694 0H580zM109 0v700h98V0h-98zm68 308v88h227v-88H177zm239 31-92 14 251 347h107zm232-492V26l25-26h-93v87h161v-240h-93z"/><glyph glyph-name="uni049B" unicode="қ" horiz-adv-x="598" d="M477 0 272 258l79 48L590 0H477zM93 0v530h96V0H93zm67 224v82h175v-82H160zm199 30-89 12 203 264h103zm185-367V24l23-24h-90v82h154v-195h-87z"/><glyph glyph-name="uni049C" unicode="Ҝ" horiz-adv-x="740" d="M605 0 374 345l82 50L722 0H605zM109 0v700h98V0h-98zm68 308v88h260v-88H177zm100-140v369h75V168h-75zm187 171-92 14 224 347h107z"/><glyph glyph-name="uni049D" unicode="ҝ" horiz-adv-x="614" d="M490 0 314 258l77 48L602 0H490zM91 0v530h96V0H91zm68 224v82h213v-82H159zm241 30-88 12 174 264h101zM237 126v280h70V126h-70z"/><glyph glyph-name="uni049E" unicode="Ҟ" horiz-adv-x="733" d="M35 541v71h363v-71H35zM602 0 348 345l81 50L716 0H602zM131 0v700h98V0h-98zm68 308v88h227v-88H199zm239 31-92 14 251 347h107z"/><glyph glyph-name="uni049F" unicode="ҟ" horiz-adv-x="597" d="M0 601v69l342-1v-68H0zM476 0 271 258l79 48L590 0H476zM94 0v742h96V0H94zm67 224v82h173v-82H161zm198 30-90 12 204 264h103z"/><glyph glyph-name="uni04A0" unicode="Ҡ" horiz-adv-x="827" d="M13 613v87h310v-87H13zM697 0 442 345l81 50L810 0H697zM225 0v700h98V0h-98zm68 308v88h227v-88H293zm239 31-92 14 251 347h107z"/><glyph glyph-name="uni04A1" unicode="ҡ" horiz-adv-x="670" d="M4 447v83h258v-83H4zM550 0 345 258l79 48L663 0H550zM166 0v530h96V0h-96zm67 224v82h175v-82H233zm199 30-90 12 203 264h104z"/><glyph glyph-name="uni04A2" unicode="Ң" horiz-adv-x="847" d="M611 700h100V0H611v700zM209 0H109v700h100V0zm411 312H199v87h421v-87zm108-465V26l25-26H615v87h205v-240h-92z"/><glyph glyph-name="uni04A3" unicode="ң" horiz-adv-x="701" d="M93 0v530h96V305h302v225h96V0h-96v222H189V0H93zm487-113V25l23-25H491v84h179v-197h-90z"/><glyph glyph-name="uni04A4" unicode="Ҥ" horiz-adv-x="1087" d="M611 700h100V0H611v700zM209 0H109v700h100V0zm411 312H199v87h421v-87zM615 0v700h459l-1-87H689l24 25 1-638h-99z"/><glyph glyph-name="uni04A5" unicode="ҥ" horiz-adv-x="886" d="M93 0v530h96V305h302v225h96V0h-96v222H189V0H93zm398 0v530h390v-84H564l23 22V0h-96z"/><glyph glyph-name="uni04A6" unicode="Ҧ" horiz-adv-x="1196" d="m821-137 17 83q47-10 86.5-1T994-20t47 65 17 88q0 53-19.5 91.5t-55 61-81 28-97-8T701 257l-3 88q70 36 136.5 47t125-1 103-45.5 69.5-85 25-120.5q0-72-26.5-129.5t-72.5-96T951-138t-130 1zM109 0v700h603V0h-98v639l24-26H183l25 26V0h-99z"/><glyph glyph-name="uni04A7" unicode="ҧ" horiz-adv-x="976" d="M93 0v530h477V0h-96v470l23-24H166l23 24V0H93zm531-192 20 83q67-11 114 5.5t73.5 56T858 48q0 52-20 86t-53.5 51-74.5 18.5-82.5-11T549 155l-3 86q61 30 120 40t111.5-1 92.5-40.5 63-76.5 23-111-24.5-115.5T863-149t-105-45.5-134 2.5z"/><glyph glyph-name="uni04A8" unicode="Ҩ" horiz-adv-x="974" d="M447-8q-87 0-158 27.5t-123 78-80.5 120T57 370q0 103 46.5 192T233 706l78-46q-72-50-113-128t-41-166 39-156 108-105.5T465 67q75 0 135 24.5T704 161t67.5 107T795 404q0 66-20.5 114T716 592.5 626 619q-53 0-92-27.5t-60.5-77T452 398q0-91 35-161.5T582.5 123t141-54T896 84l9-74Q818-14 736-7.5t-152 38T462 116t-81.5 125.5T351 399q0 91 35 160.5t97.5 109T628 708q80 0 140.5-37t94-103T896 416q0-70-22-134t-63-117-97-91.5-123.5-60T447-8z"/><glyph glyph-name="uni04A9" unicode="ҩ" horiz-adv-x="806" d="M367-8q-95 0-167 36.5t-112.5 102T47 283q0 79 36.5 146T186 538l75-42q-56-40-87-96t-31-120q0-65 30-113.5T256.5 91 382 64q79 0 138 31t92 87 33 129q0 44-16 76.5T584 438t-67 18q-40 0-70-19t-46-53-16-80q0-67 27.5-117.5t76-81T601 67t137 10l6-70Q673-12 606.5-7.5T483 21 382.5 85.5 315 181t-24 121q0 71 28.5 124t79.5 82.5T518 538q67 0 116.5-28t76.5-77 27-116q0-69-28.5-128t-79-103.5-117.5-69T367-8z"/><glyph glyph-name="uni04AA" unicode="Ҫ" horiz-adv-x="718" d="M422-8q-80 0-147.5 26.5t-117 75T80 207 52 350t28 143 78 113.5 117.5 75T423 708q81 0 149.5-27.5T689 599l-65-63q-40 42-90 62.5T427 619q-59 0-109.5-20T230 543t-57.5-85.5T152 350t20.5-107.5T230 157t87.5-56T427 81q57 0 107 20.5t90 63.5l65-63q-48-54-116.5-82T422-8zm31 31v-176h-93V23h93z"/><glyph glyph-name="uni04AB" unicode="ҫ" horiz-adv-x="571" d="M324-6q-81 0-144.5 35T80 125 44 265t36 140 99.5 95.5T324 535q72 0 128.5-28.5T540 422l-73-47q-26 39-63.5 57.5T323 451q-52 0-93-23t-65-64.5-24-98.5 24-99 65-65 93-23q43 0 80.5 18.5T467 154l73-46q-31-55-87.5-84.5T324-6zm37 27v-134h-91V21h91z"/><glyph glyph-name="uni04AC" unicode="Ҭ" horiz-adv-x="603" d="M252 0v639l25-26H13v87h577v-87H326l24 26V0h-98zm113-153V26l25-26H252v87h205v-240h-92z"/><glyph glyph-name="uni04AD" unicode="ҭ" horiz-adv-x="493" d="M198 0v471l24-25H4v84h484v-84H271l23 25V0h-96zm89-113V25l23-25H198v84h179v-197h-90z"/><glyph glyph-name="Ustraitcy" unicode="Ү" horiz-adv-x="667" d="M284 0v268l23-62L7 700h106l253-417h-58l254 417h99L361 206l22 62V0h-99z"/><glyph glyph-name="ustraitcy" unicode="ү" horiz-adv-x="574" d="M258-48 6 530h101L313 50h-49l211 480h93L315-48h-57zm77 95v-241h-97V47h97z"/><glyph glyph-name="Ustraitstrokecy" unicode="Ұ" horiz-adv-x="667" d="M117 216v68h428v-68H117zM284 0v268l23-62L7 700h106l253-417h-58l254 417h99L361 206l22 62V0h-99z"/><glyph glyph-name="ustraitstrokecy" unicode="ұ" horiz-adv-x="574" d="M70-28v67h431v-67H70zm188-20L6 530h101L313 50h-49l211 480h93L315-48h-57zm77 95v-241h-97V47h97z"/><glyph glyph-name="uni04B2" unicode="Ҳ" horiz-adv-x="705" d="M34 700h115l183-256 183 256h117L395 364 651 0H533L332 279 132 0H17l255 360zm567-853V26l25-26h-93v87h161v-240h-93z"/><glyph glyph-name="uni04B3" unicode="ҳ" horiz-adv-x="541" d="m9 0 228 296-1-49L19 530h107l166-218h-41l166 218h105L302 245l1 51L533 0H424L249 232l39-6L116 0H9zm481-113V24l23-24h-90v82h154v-195h-87z"/><glyph glyph-name="uni04B4" unicode="Ҵ" horiz-adv-x="974" d="M254 0v639l24-26H14v87h549v-87H327l25 26V0h-98zm0-1v700h98V86h391v613h99V-1H254zm603-159V25l23-26H743v87h207v-246h-93z"/><glyph glyph-name="uni04B5" unicode="ҵ" horiz-adv-x="771" d="M199 0v530h96V84h268v446h96V0H199zm446-113V25l22-25H563v84h172v-197h-90zM450 530v-84H5v84h445z"/><glyph glyph-name="uni04B6" unicode="Ҷ" horiz-adv-x="763" d="M545 284q-59-25-114.5-37.5T323 234q-128 0-198.5 62T54 473v227h98V484q0-78 48-120t134-42q51 0 104.5 13T543 373zM528 0v700h99V0h-99zm114-153V26l25-26H529v87h205v-240h-92z"/><glyph glyph-name="uni04B7" unicode="ҷ" horiz-adv-x="634" d="M427 217q-42-20-86.5-31.5T249 174q-96 0-151.5 45T42 358v172h96V364q0-57 35.5-84t95.5-27q38 0 78.5 10t79.5 28v-74zM420 0v530h96V0h-96zm89-113V25l23-25H420v84h179v-197h-90z"/><glyph glyph-name="uni04B8" unicode="Ҹ" horiz-adv-x="736" d="M295 94v370h75V94h-75zm249 190q-58-25-114-37.5T322 234q-128 0-198.5 62T53 473v227h99V484q0-78 47.5-120T333 322q51 0 104.5 13T543 373zM528 0v700h98V0h-98z"/><glyph glyph-name="uni04B9" unicode="ҹ" horiz-adv-x="609" d="M240 75v284h71V75h-71zm186 142q-42-20-86.5-31.5T248 174q-96 0-151.5 45T41 358v172h96V364q0-57 35.5-84t95.5-27q38 0 78.5 10t80.5 28zM419 0v530h96V0h-96z"/><glyph glyph-name="uni04BA" unicode="Һ" horiz-adv-x="736" d="M584 0v216q0 79-47.5 120.5T402 378q-50 0-104-13t-105-38l-2 89q59 25 115 37.5T413 466q128 0 198.5-62T682 227V0h-98zM109 0v700h99V0h-99z"/><glyph glyph-name="uni04BB" unicode="һ" horiz-adv-x="674" d="M376 535q65 0 114.5-25t77.5-76 28-129V0h-96v294q0 77-37.5 116T357 449q-51 0-89-20t-58.5-59-20.5-97V0H93v742h96V387l-19 38q26 52 80 81t126 29z"/><glyph glyph-name="uni04BC" unicode="Ҽ" horiz-adv-x="989" d="M596-8q-72 0-138 24T340.5 85.5t-81 112T230 348q0 83 29 149.5T338 611t115.5 72T591 708t136.5-25 114-71.5 78-112T948 353q0-12-1.5-26t-3.5-26H205q-59 0-98 23t-58.5 62.5-16.5 88T61 574l94-19q-20-30-26-60t2-54.5 30-39.5 56-15h654l-25-36q1 61-18.5 110.5t-55 85.5-81.5 55-100 19-101-19.5-83-55.5-56.5-85.5T330 350q0-63 21.5-112.5t59-84.5 85-53.5T596 81q54 0 109 21t103 64l72-65q-63-55-137-82T596-8z"/><glyph glyph-name="uni04BD" unicode="ҽ" horiz-adv-x="771" d="M230 233h-65q-65 0-101.5 26T22 330.5 44 432l80-17q-19-31-19-56.5t18-41 54-15.5h53v-69zM479-6q-88 0-154 35t-103 96-37 140 35.5 140 97.5 95.5T459 535t140.5-34 96-95.5T730 262q0-6-.5-14t-2.5-15H263v69h413l-40-24q1 51-22 91t-63 62.5-92 22.5-92-22.5-63-63-23-92.5v-16q0-53 25.5-94.5T377 101t104-23q49 0 89 16t70 48l54-62q-37-42-92-64T479-6z"/><glyph glyph-name="uni04BE" unicode="Ҿ" horiz-adv-x="989" d="M596-8q-72 0-138 24T340.5 85.5t-81 112T230 348q0 83 29 149.5T338 611t115.5 72T591 708t136.5-25 114-71.5 78-112T948 353q0-12-1.5-26t-3.5-26H205q-59 0-98 23t-58.5 62.5-16.5 88T61 574l94-19q-20-30-26-60t2-54.5 30-39.5 56-15h654l-25-36q1 61-18.5 110.5t-55 85.5-81.5 55-100 19-101-19.5-83-55.5-56.5-85.5T330 350q0-63 21.5-112.5t59-84.5 85-53.5T596 81q54 0 109 21t103 64l72-65q-63-55-137-82T596-8zm48 31v-176h-93V23h93z"/><glyph glyph-name="uni04BF" unicode="ҿ" horiz-adv-x="771" d="M230 233h-65q-65 0-101.5 26T22 330.5 44 432l80-17q-19-31-19-56.5t18-41 54-15.5h53v-69zM479-6q-88 0-154 35t-103 96-37 140 35.5 140 97.5 95.5T459 535t140.5-34 96-95.5T730 262q0-6-.5-14t-2.5-15H263v69h413l-40-24q1 51-22 91t-63 62.5-92 22.5-92-22.5-63-63-23-92.5v-16q0-53 25.5-94.5T377 101t104-23q49 0 89 16t70 48l54-62q-37-42-92-64T479-6zm31 27v-134h-91V21h91z"/><glyph glyph-name="uni04C0" unicode="Ӏ" horiz-adv-x="318" d="M109 0v700h100V0H109z"/><glyph glyph-name="uni04C1" unicode="Ӂ" horiz-adv-x="1029" d="M893 0 674 345l84 50L1010 0H893zM534 308v88h205v-88H534zm230 31-93 14 215 347h107zM136 0H19l251 395 85-50zm428 0h-98v700h98V0zm-68 308H290v88h206v-88zm-230 31L36 700h107l214-347zm250 410q-82 0-126.5 36T344 886h71q1-39 28-60.5t73-21.5q45 0 72.5 21.5T617 886h70q-1-65-45.5-101T516 749z"/><glyph glyph-name="uni04C2" unicode="ӂ" horiz-adv-x="849" d="M722 0 553 258l79 48L836 0H722zM443 224v82h172v-82H443zm198 30-91 12 169 264h103zM127 0H13l203 306 79-48zm345 0h-96v530h96V0zm-67 224H234v82h171v-82zm-197 30L27 530h102l169-264zm216 345q-73 0-114.5 35.5T267 737h65q1-38 25.5-60t65.5-22 66 22 26 60h67q-1-67-43-102.5T424 599z"/><glyph glyph-name="uni04C3" unicode="Ӄ" horiz-adv-x="714" d="M109 0v700h98V0h-98zm68 308v88h212v-88H177zm242 35-95 10 250 347h107zm106-545q-60 0-118 30l26 76q40-20 72-20 36 0 57 22t21 63q0 34-20.5 78T506 139.5t-82 98-97 93.5l78 55q83-80 147.5-154.5T654 90t37-124q0-78-45-123t-121-45z"/><glyph glyph-name="uni04C4" unicode="ӄ" horiz-adv-x="598" d="M409-200q-57 0-115 29l27 72q39-21 73-21 37 0 59.5 23T476-35q0 41-25 91t-70.5 102T276 256l75 53q69-58 118.5-118.5t76-118.5T572-40q0-48-20-84.5t-57-56-86-19.5zM93 0v530h96V0H93zm67 224v83h175v-83H160zm199 30-89 12 203 264h103z"/><glyph glyph-name="uni04C6" unicode="ӆ" horiz-adv-x="663" d="m5 1 6 81q7-1 13-2t11-1q32 0 50.5 22t27.5 58.5 13 82.5 6 92l9 196h407V0h-96v474l23-28H203l22 29-7-147q-3-70-11-131T182.5 90t-45-72T64-8Q51-8 36.5-5.5T5 1zm491-114 36 138 58-25H452v84h180l-58-197h-78z"/><glyph glyph-name="uni04C7" unicode="Ӈ" horiz-adv-x="815" d="m421-167 29 73q26-17 53.5-21.5t51 2.5T593-86t15 52v340H208V0h-99v700h99V394h400v306h98V-39q0-60-28-97.5t-71.5-53-93-10T421-167z"/><glyph glyph-name="uni04C8" unicode="ӈ" horiz-adv-x="687" d="M428-200q-33 0-64 8.5T311-167l30 73q29-25 74-25 39 0 60.5 23.5T497-26v248H189V0H93v530h96V305h308v225h96V-29q0-78-43-124.5T428-200z"/><glyph glyph-name="uni04C9" unicode="Ӊ" horiz-adv-x="848" d="M611 700h100V0H611v700zM209 0H109v700h100V0zm411 312H199v87h421v-87zm43-465 44 179 39-26H615v87h199l-71-240h-80z"/><glyph glyph-name="uni04CA" unicode="ӊ" horiz-adv-x="702" d="M93 0v530h96V305h302v225h96V0h-96v222H189V0H93zm443-113 36 138 58-25H492v84h180l-58-197h-78z"/><glyph glyph-name="uni04CB" unicode="Ӌ" horiz-adv-x="732" d="M320 254q-128 0-198.5 60T51 485v215h99V496q0-74 47.5-114T330 342q52 0 105.5 13T541 392v-87q-57-25-113-38t-108-13zm83-407V87h220V0H486l10 26v-179h-93zM524 0v700h99V0h-99z"/><glyph glyph-name="uni04CC" unicode="ӌ" horiz-adv-x="606" d="M246 191q-97 0-152 44.5T39 374v156h96V380q0-56 35-83t96-27q77 0 158 38v-75q-42-20-87-31t-91-11zm79-304V80h180V0H392l24 25v-138h-91zM417 0v530h96V0h-96z"/><glyph glyph-name="uni04CD" unicode="Ӎ" horiz-adv-x="1000" d="M109 0v700h82l314-529h-44l310 529h82l1-700h-96l-1 549h23L504 85h-46L180 549h25V0h-96zm704-153 44 179 39-26H765v87h199l-71-240h-80z"/><glyph glyph-name="uni04CE" unicode="ӎ" horiz-adv-x="829" d="M93 0v530h99l228-392h-40l234 392h90V0h-87v422l16-9L419 60h-42L162 420l19 4V0H93zm568-113 36 138 58-25H617v84h180l-58-197h-78z"/><glyph glyph-name="uni04CF" unicode="ӏ" horiz-adv-x="283" d="M94 0v742h96V0H94z"/><glyph glyph-name="uni04D0" unicode="Ӑ" horiz-adv-x="758" d="m12 0 317 700h99L746 0H641L358 644h40L115 0H12zm135 175 27 80h394l29-80H147zm233 574q-82 0-126.5 36T208 886h71q1-39 28-60.5t73-21.5q45 0 72.5 21.5T481 886h70q-1-65-45.5-101T380 749z"/><glyph glyph-name="uni04D1" unicode="ӑ" horiz-adv-x="589" d="M418 0v112l-5 21v191q0 61-35.5 94.5T271 452q-47 0-92-15.5T103 395l-40 72q41 33 98.5 50.5T282 535q109 0 168-53t59-162V0h-91zM244-6q-59 0-103.5 20T72 69.5 48 150q0 43 20.5 78t67 56T261 305h168v-69H265q-72 0-97-24t-25-58q0-39 31-62.5T260 68q54 0 94.5 24t58.5 70l19-66q-19-47-67-74.5T244-6zm45 605q-73 0-114.5 35.5T132 737h65q1-38 25.5-60t65.5-22 66 22 26 60h67q-1-67-43-102.5T289 599z"/><glyph glyph-name="uni04D2" unicode="Ӓ" horiz-adv-x="758" d="m12 0 317 700h99L746 0H641L358 644h40L115 0H12zm135 175 27 80h394l29-80H147zm325 599q-21 0-36 14.5T421 825q0 23 15 37.5t36 14.5 36-14.5 15-37.5q0-22-15-36.5T472 774zm-186 0q-21 0-36 14.5T235 825q0 23 15 37.5t36 14.5 36-14.5 15-37.5q0-22-15-36.5T286 774z"/><glyph glyph-name="uni04D3" unicode="ӓ" horiz-adv-x="589" d="M418 0v112l-5 21v191q0 61-35.5 94.5T271 452q-47 0-92-15.5T103 395l-40 72q41 33 98.5 50.5T282 535q109 0 168-53t59-162V0h-91zM244-6q-59 0-103.5 20T72 69.5 48 150q0 43 20.5 78t67 56T261 305h168v-69H265q-72 0-97-24t-25-58q0-39 31-62.5T260 68q54 0 94.5 24t58.5 70l19-66q-19-47-67-74.5T244-6zm138 630q-21 0-36 14.5T331 675q0 23 15 37.5t36 14.5 36-14.5 15-37.5q0-22-15-36.5T382 624zm-186 0q-21 0-36 14.5T145 675q0 23 15 37.5t36 14.5 36-14.5 15-37.5q0-22-15-36.5T196 624z"/><glyph glyph-name="uni04D4" unicode="Ӕ" horiz-adv-x="1046" d="m7 0 417 700h100v-87h-88l61 44L110 0H7zm178 175 6 80h333v-80H185zm397 223h359v-85H581zm8-311h409V0H491v700h494v-87H590V87z"/><glyph glyph-name="uni04D5" unicode="ӕ" horiz-adv-x="995" d="M254-6q-97 0-151.5 44.5T48 154q0 40 20.5 74t67 55T261 304h167v-69H265q-71 0-96.5-23.5T143 156q0-41 31.5-64.5T262 68q71 0 111 36.5t40 96.5v123q0 61-35.5 94.5T272 452q-48 0-93-15.5T103 395l-40 72q41 33 98.5 50.5T281 535q92 0 146-36.5T496 391l-46 6q31 64 91.5 101T681 535q57 0 105.5-19.5t84-55.5 55-85T945 268q0-10-.5-18t-2.5-15H490v69h402l-40-26q0 57-24 96t-63.5 59.5T680 454q-43 0-82.5-20.5t-64-60T509 276v-16q0-53 24-94.5t67.5-64.5T702 78q47 0 85 16t68 48l54-62q-37-43-90.5-64.5T699-6q-61 0-115 19t-94 59-62 103l62-2q-12-67-48.5-106.5t-86-56T254-6z"/><glyph glyph-name="uni04D6" unicode="Ӗ" horiz-adv-x="665" d="M200 398h360v-85H200v85zm9-311h408V0H109v700h494v-87H209V87zm148 662q-82 0-126.5 36T185 886h71q1-39 28-60.5t73-21.5q45 0 72.5 21.5T458 886h70q-1-65-45.5-101T357 749z"/><glyph glyph-name="uni04D7" unicode="ӗ" horiz-adv-x="631" d="M329-6q-85 0-149.5 35t-100 96T44 265t34.5 140 95 95.5T310 535q77 0 136-34t92.5-95.5T572 262q0-6-.5-14t-1.5-15H119v69h401l-39-24q1 51-21 91t-60.5 62.5T310 454q-50 0-89-22.5t-61-63-22-92.5v-16q0-53 24.5-94.5T231 101t101-23q47 0 85.5 16t67.5 48l53-62q-36-42-89.5-64T329-6zm-20 605q-73 0-114.5 35.5T152 737h65q1-38 25.5-60t65.5-22 66 22 26 60h67q-1-67-43-102.5T309 599z"/><glyph glyph-name="uni04D8" unicode="Ә" horiz-adv-x="823" d="M403-8q-74 0-139.5 25T148 88.5t-78.5 112T41 347q0 12 .5 23t2.5 23h694v-73H117l24 30q-1-60 19.5-109.5t56-85.5T300 99.5 403 80t103.5 19.5T592 155t58 85.5T671 350q0 63-22 112.5T588.5 547 501 600.5 397 619t-110.5-21T181 534l-72 65q64 55 139.5 82T399 708q74 0 140.5-24t119-69.5 82.5-112T771 352q0-83-29.5-149.5T660.5 89 543 17 403-8z"/><glyph glyph-name="uni04D9" unicode="ә" horiz-adv-x="627" d="M298 535q86 0 150-34.5T548 405t36-140-34.5-140-95-96T317-6q-76 0-135 34.5t-92.5 96T56 267v15l1 15h451v-70H108l38 24q0-51 22-90.5t60.5-62T317 76q51 0 90 22.5t60.5 63T489 254v16q0 54-24 94.5T397.5 428 296 451q-47 0-85.5-15.5T143 387l-53 62q36 42 89.5 64T298 535z"/><glyph glyph-name="uni04DA" unicode="Ӛ" horiz-adv-x="823" d="M403-8q-74 0-139.5 25T148 88.5t-78.5 112T41 347q0 12 .5 23t2.5 23h694v-73H117l24 30q-1-60 19.5-109.5t56-85.5T300 99.5 403 80t103.5 19.5T592 155t58 85.5T671 350q0 63-22 112.5T588.5 547 501 600.5 397 619t-110.5-21T181 534l-72 65q64 55 139.5 82T399 708q74 0 140.5-24t119-69.5 82.5-112T771 352q0-83-29.5-149.5T660.5 89 543 17 403-8zm103 782q-21 0-36 14.5T455 825q0 23 15 37.5t36 14.5 36-14.5 15-37.5q0-22-15-36.5T506 774zm-186 0q-21 0-36 14.5T269 825q0 23 15 37.5t36 14.5 36-14.5 15-37.5q0-22-15-36.5T320 774z"/><glyph glyph-name="uni04DB" unicode="ӛ" horiz-adv-x="627" d="M298 535q86 0 150-34.5T548 405t36-140-34.5-140-95-96T317-6q-76 0-135 34.5t-92.5 96T56 267v15l1 15h451v-70H108l38 24q0-51 22-90.5t60.5-62T317 76q51 0 90 22.5t60.5 63T489 254v16q0 54-24 94.5T397.5 428 296 451q-47 0-85.5-15.5T143 387l-53 62q36 42 89.5 64T298 535zm114 89q-21 0-36 14.5T361 675q0 23 15 37.5t36 14.5 36-14.5 15-37.5q0-22-15-36.5T412 624zm-186 0q-21 0-36 14.5T175 675q0 23 15 37.5t36 14.5 36-14.5 15-37.5q0-22-15-36.5T226 624z"/><glyph glyph-name="uni04DC" unicode="Ӝ" horiz-adv-x="1029" d="M893 0 674 345l84 50L1010 0H893zM534 308v88h205v-88H534zm230 31-93 14 215 347h107zM136 0H19l251 395 85-50zm428 0h-98v700h98V0zm-68 308H290v88h206v-88zm-230 31L36 700h107l214-347zm343 435q-21 0-36 14.5T558 825q0 23 15 37.5t36 14.5 36-14.5 15-37.5q0-22-15-36.5T609 774zm-186 0q-21 0-36 14.5T372 825q0 23 15 37.5t36 14.5 36-14.5 15-37.5q0-22-15-36.5T423 774z"/><glyph glyph-name="uni04DD" unicode="ӝ" horiz-adv-x="849" d="M722 0 553 258l79 48L836 0H722zM443 224v82h172v-82H443zm198 30-91 12 169 264h103zM127 0H13l203 306 79-48zm345 0h-96v530h96V0zm-67 224H234v82h171v-82zm-197 30L27 530h102l169-264zm309 370q-21 0-36 14.5T466 675q0 23 15 37.5t36 14.5 36-14.5 15-37.5q0-22-15-36.5T517 624zm-186 0q-21 0-36 14.5T280 675q0 23 15 37.5t36 14.5 36-14.5 15-37.5q0-22-15-36.5T331 624z"/><glyph glyph-name="uni04DE" unicode="Ӟ" horiz-adv-x="642" d="m32 76 35 74q46-36 101.5-54T279 77.5 380.5 92t74.5 45 28 74q0 54-43.5 82T319 321H163v81h149q67 0 104.5 27.5T454 506q0 37-22.5 62.5t-61 38.5-87 13.5-99.5-13T86 565l-32 82q64 36 133.5 50.5t134.5 9 117.5-30 84-64T555 518q0-50-26-88.5t-72-59T350 350l4 27q70 0 121.5-22.5t80-63.5 28.5-95q0-51-26-90.5t-70.5-66T386.5 1 268-7 145.5 17 32 76zm380 698q-21 0-36 14.5T361 825q0 23 15 37.5t36 14.5 36-14.5 15-37.5q0-22-15-36.5T412 774zm-186 0q-21 0-36 14.5T175 825q0 23 15 37.5t36 14.5 36-14.5 15-37.5q0-22-15-36.5T226 774z"/><glyph glyph-name="uni04DF" unicode="ӟ" horiz-adv-x="544" d="M248-7q70 0 124.5 20.5t86.5 57 32 84.5q0 60-51 95t-140 35l-4-23q52 0 92 17t64 46.5 24 67.5q0 45-31.5 78T359 521.5 236 537q-46-1-92.5-13.5T49 488l26-75q43 21 84.5 31t81.5 11q41 0 71.5-9t47.5-26 17-41q0-22-14.5-38.5T322 316t-61-8h-90v-69h96q59 0 92-20t33-57q0-26-18-45.5T322.5 86 243 75q-50 0-99 13.5T57 126L28 53Q73 24 130.5 8.5T248-7zm108 631q-21 0-36 14.5T305 675q0 23 15 37.5t36 14.5 36-14.5 15-37.5q0-22-15-36.5T356 624zm-186 0q-21 0-36 14.5T119 675q0 23 15 37.5t36 14.5 36-14.5 15-37.5q0-22-15-36.5T170 624z"/><glyph glyph-name="uni04E0" unicode="Ӡ" horiz-adv-x="623" d="M297-8q-80 0-151.5 23T31 76l37 79q37-33 97-54.5T295 79q85 0 131.5 34t46.5 93q0 56-45 89t-140 33h-58v69l226 256 9-38H58v85h483v-68L316 377l-43 29h33q90 0 149-25t89-70.5T574 206 543.5 98 452 20.5 297-8z"/><glyph glyph-name="uni04E1" unicode="ӡ" horiz-adv-x="527" d="M232-201q-77 0-144.5 24T-20-113l37 80q34-35 90.5-57T228-112q82 0 124.5 35T395 19q0 59-41 94t-130 35h-57v68l211 265 9-36H5v85h459v-69L252 195l-43 31h32q127 0 190-57.5T494 19q0-61-29-110.5T378-171t-146-30z"/><glyph glyph-name="uni04E2" unicode="Ӣ" horiz-adv-x="823" d="M109 0v700h99V160l414 540h92V0h-98v539L201 0h-92zm138 792v60h326v-60H247z"/><glyph glyph-name="uni04E3" unicode="ӣ" horiz-adv-x="694" d="M93 0v530h96V144l325 386h87V0h-96v386L181 0H93zm85 642v60h326v-60H178z"/><glyph glyph-name="uni04E4" unicode="Ӥ" horiz-adv-x="823" d="M109 0v700h99V160l414 540h92V0h-98v539L201 0h-92zm394 774q-21 0-36 14.5T452 825q0 23 15 37.5t36 14.5 36-14.5 15-37.5q0-22-15-36.5T503 774zm-186 0q-21 0-36 14.5T266 825q0 23 15 37.5t36 14.5 36-14.5 15-37.5q0-22-15-36.5T317 774z"/><glyph glyph-name="uni04E5" unicode="ӥ" horiz-adv-x="694" d="M93 0v530h96V144l325 386h87V0h-96v386L181 0H93zm341 624q-21 0-36 14.5T383 675q0 23 15 37.5t36 14.5 36-14.5 15-37.5q0-22-15-36.5T434 624zm-186 0q-21 0-36 14.5T197 675q0 23 15 37.5t36 14.5 36-14.5 15-37.5q0-22-15-36.5T248 624z"/><glyph glyph-name="uni04E6" unicode="Ӧ" horiz-adv-x="848" d="M424-8q-80 0-148.5 27T157 94.5 79 208 51 350t28 142 78 113.5T275 681t149 27q80 0 147.5-26.5t118-75 78-113.5T795 350t-27.5-143-78-113.5-118-75T424-8zm0 89q58 0 107.5 20t86 56.5 57 85.5T695 350t-20.5 107-57 85.5-86 56.5T424 619q-59 0-108.5-20T229 542.5 171.5 457 151 350t20.5-107 57.5-85.5 86.5-56.5T424 81zm93 693q-21 0-36 14.5T466 825q0 23 15 37.5t36 14.5 36-14.5 15-37.5q0-22-15-36.5T517 774zm-186 0q-21 0-36 14.5T280 825q0 23 15 37.5t36 14.5 36-14.5 15-37.5q0-22-15-36.5T331 774z"/><glyph glyph-name="uni04E7" unicode="ӧ" horiz-adv-x="641" d="M320-6q-80 0-142 35t-98 96.5T44 265q0 79 36 140t98 95.5T320 535q79 0 141.5-34.5t98-95T595 265q0-79-35.5-140t-98-96T320-6zm0 84q51 0 91.5 23t63.5 65.5 23 98.5q0 57-23 98.5T411.5 428 320 451t-91-23-64-64.5-24-98.5q0-56 24-98.5t64-65.5 91-23zm92 546q-21 0-36 14.5T361 675q0 23 15 37.5t36 14.5 36-14.5 15-37.5q0-22-15-36.5T412 624zm-186 0q-21 0-36 14.5T175 675q0 23 15 37.5t36 14.5 36-14.5 15-37.5q0-22-15-36.5T226 624z"/><glyph glyph-name="uni04E8" unicode="Ө" horiz-adv-x="848" d="M424 708q80 0 147.5-26.5t118-75 78-113.5T795 350t-27.5-143-78-113.5-118-75T424-8q-81 0-149 27T157 94.5 79 208 51 350t28 142 78 113.5T275 681t149 27zm0-89q-53 0-99.5-17T242 554.5 183.5 482 155 390h537q-6 50-29 92t-58.5 72.5T523 602t-99 17zm0-538q53 0 99 17t81.5 47.5T663 218t29 93H155q6-51 28.5-93t58.5-72.5T324.5 98 424 81z"/><glyph glyph-name="uni04E9" unicode="ө" horiz-adv-x="650" d="M325 535q82 0 145-34t99.5-95.5T606 265t-36.5-140T470 29 325-6q-81 0-144.5 35t-100 96T44 265t36.5 140.5 100 95.5T325 535zm0-76q-50 0-89.5-20T171 383.5 138 299h373q-6 48-31.5 84t-65 56-89.5 20zm0-388q50 0 89.5 20t65 56 31.5 84H138q7-48 32.5-84T236 91t89-20z"/><glyph glyph-name="uni04EA" unicode="Ӫ" horiz-adv-x="848" d="M424 708q80 0 147.5-26.5t118-75 78-113.5T795 350t-27.5-143-78-113.5-118-75T424-8q-81 0-149 27T157 94.5 79 208 51 350t28 142 78 113.5T275 681t149 27zm0-89q-53 0-99.5-17T242 554.5 183.5 482 155 390h537q-6 50-29 92t-58.5 72.5T523 602t-99 17zm0-538q53 0 99 17t81.5 47.5T663 218t29 93H155q6-51 28.5-93t58.5-72.5T324.5 98 424 81zm93 693q-21 0-36 14.5T466 825q0 23 15 37.5t36 14.5 36-14.5 15-37.5q0-22-15-36.5T517 774zm-186 0q-21 0-36 14.5T280 825q0 23 15 37.5t36 14.5 36-14.5 15-37.5q0-22-15-36.5T331 774z"/><glyph glyph-name="uni04EB" unicode="ӫ" horiz-adv-x="650" d="M325 535q82 0 145-34t99.5-95.5T606 265t-36.5-140T470 29 325-6q-81 0-144.5 35t-100 96T44 265t36.5 140.5 100 95.5T325 535zm0-76q-50 0-89.5-20T171 383.5 138 299h373q-6 48-31.5 84t-65 56-89.5 20zm0-388q50 0 89.5 20t65 56 31.5 84H138q7-48 32.5-84T236 91t89-20zm93 553q-21 0-36 14.5T367 675q0 23 15 37.5t36 14.5 36-14.5 15-37.5q0-22-15-36.5T418 624zm-186 0q-21 0-36 14.5T181 675q0 23 15 37.5t36 14.5 36-14.5 15-37.5q0-22-15-36.5T232 624z"/><glyph glyph-name="uni04EC" unicode="Ӭ" horiz-adv-x="707" d="M212 315v82h375v-82H212zm90 393q76 0 140-26.5t111.5-75 74-113.5T654 350t-26.5-143-74-113.5-111.5-75T302-8q-84 0-154.5 28T29 102l63 63q42-43 93.5-63T297 82q55 0 102 20t81.5 55.5 53.5 85T553 350t-19 107.5-53.5 85T399 598t-102 20q-60 0-111.5-20T92 535l-63 63q48 54 118.5 82T302 708zm111 66q-21 0-36 14.5T362 825q0 23 15 37.5t36 14.5 36-14.5 15-37.5q0-22-15-36.5T413 774zm-186 0q-21 0-36 14.5T176 825q0 23 15 37.5t36 14.5 36-14.5 15-37.5q0-22-15-36.5T227 774z"/><glyph glyph-name="uni04ED" unicode="ӭ" horiz-adv-x="575" d="M175 233v71h297v-71H175zm71 303q82 0 147-35t102-96 37-140q0-78-37-140T393 28 246-7q-68 0-125.5 22T24 79l56 56q33-32 73.5-47.5T242 72q58 0 103 24.5t71.5 68.5T443 265t-26.5 99.5T345 433t-103 25q-48 0-88.5-16T80 394l-56 55q39 43 96.5 65T246 536zm110 88q-21 0-36 14.5T305 675q0 23 15 37.5t36 14.5 36-14.5 15-37.5q0-22-15-36.5T356 624zm-186 0q-21 0-36 14.5T119 675q0 23 15 37.5t36 14.5 36-14.5 15-37.5q0-22-15-36.5T170 624z"/><glyph glyph-name="uni04EE" unicode="Ӯ" horiz-adv-x="691" d="M107 88q52-19 96-9.5t79 66.5l34 54 10 11 257 490h99L371 124q-35-66-81.5-99.5t-100-37T81 8zm216 33L16 700h107l255-499zM177 792v60h326v-60H177z"/><glyph glyph-name="uni04EF" unicode="ӯ" horiz-adv-x="571" d="M120-200q-38 0-74 12.5T-16-151l41 72q20-19 44-29t51-10q35 0 58 18t43 64l33 73 10 12 208 481h94L309-53q-23-56-51.5-88T195-186.5 120-200zM246-17 4 530h100L310 58zM109 642v60h326v-60H109z"/><glyph glyph-name="uni04F0" unicode="Ӱ" horiz-adv-x="691" d="M107 88q52-19 96-9.5t79 66.5l34 54 10 11 257 490h99L371 124q-35-66-81.5-99.5t-100-37T81 8zm216 33L16 700h107l255-499zm110 653q-21 0-36 14.5T382 825q0 23 15 37.5t36 14.5 36-14.5 15-37.5q0-22-15-36.5T433 774zm-186 0q-21 0-36 14.5T196 825q0 23 15 37.5t36 14.5 36-14.5 15-37.5q0-22-15-36.5T247 774z"/><glyph glyph-name="uni04F1" unicode="ӱ" horiz-adv-x="571" d="M120-200q-38 0-74 12.5T-16-151l41 72q20-19 44-29t51-10q35 0 58 18t43 64l33 73 10 12 208 481h94L309-53q-23-56-51.5-88T195-186.5 120-200zM246-17 4 530h100L310 58zm119 641q-21 0-36 14.5T314 675q0 23 15 37.5t36 14.5 36-14.5 15-37.5q0-22-15-36.5T365 624zm-186 0q-21 0-36 14.5T128 675q0 23 15 37.5t36 14.5 36-14.5 15-37.5q0-22-15-36.5T179 624z"/><glyph glyph-name="uni04F2" unicode="Ӳ" horiz-adv-x="691" d="M107 88q52-19 96-9.5t79 66.5l34 54 10 11 257 490h99L371 124q-35-66-81.5-99.5t-100-37T81 8zm216 33L16 700h107l255-499zm64 636 89 130h101L468 757h-81zm-175 0 90 130h102L293 757h-81z"/><glyph glyph-name="uni04F3" unicode="ӳ" horiz-adv-x="571" d="M120-200q-38 0-74 12.5T-16-151l41 72q20-19 44-29t51-10q35 0 58 18t43 64l33 73 10 12 208 481h94L309-53q-23-56-51.5-88T195-186.5 120-200zM246-17 4 530h100L310 58zm73 624 89 130h101L400 607h-81zm-175 0 90 130h102L225 607h-81z"/><glyph glyph-name="uni04F4" unicode="Ӵ" horiz-adv-x="736" d="M545 284q-59-25-114.5-37.5T323 234q-128 0-198.5 62T54 473v227h98V484q0-78 48-120t134-42q51 0 104.5 13T543 373zM528 0v700h99V0h-99zm-94 774q-21 0-36 14.5T383 825q0 23 15 37.5t36 14.5 36-14.5 15-37.5q0-22-15-36.5T434 774zm-186 0q-21 0-36 14.5T197 825q0 23 15 37.5t36 14.5 36-14.5 15-37.5q0-22-15-36.5T248 774z"/><glyph glyph-name="uni04F5" unicode="ӵ" horiz-adv-x="609" d="M427 217q-42-20-86.5-31.5T249 174q-96 0-151.5 45T42 358v172h96V364q0-57 35.5-84t95.5-27q38 0 78.5 10t79.5 28v-74zM420 0v530h96V0h-96zm-51 624q-21 0-36 14.5T318 675q0 23 15 37.5t36 14.5 36-14.5 15-37.5q0-22-15-36.5T369 624zm-186 0q-21 0-36 14.5T132 675q0 23 15 37.5t36 14.5 36-14.5 15-37.5q0-22-15-36.5T183 624z"/><glyph glyph-name="uni04F6" unicode="Ӷ" horiz-adv-x="578" d="M109 0v700h459l-1-87H183l24 25 1-638h-99zm113-153V26l25-26H109v87h205v-240h-92z"/><glyph glyph-name="uni04F7" unicode="ӷ" horiz-adv-x="488" d="M93 0v530h390v-84H166l23 22V0H93zm89-113V25l23-25H93v84h179v-197h-90z"/><glyph glyph-name="uni04F8" unicode="Ӹ" horiz-adv-x="993" d="M416 456q124 0 191-55.5T674 235q0-116-72.5-175.5T398 0H109v700h99V456h208zM394 79q87 0 133.5 39T574 233q0 74-46 109t-134 35H208V79h186zM785 0v700h99V0h-99zM591 774q-21 0-36 14.5T540 825q0 23 15 37.5t36 14.5 36-14.5 15-37.5q0-22-15-36.5T591 774zm-186 0q-21 0-36 14.5T354 825q0 23 15 37.5t36 14.5 36-14.5 15-37.5q0-22-15-36.5T405 774z"/><glyph glyph-name="uni04F9" unicode="ӹ" horiz-adv-x="807" d="M617 0v530h96V0h-96zM332 350q101-1 153.5-46T538 177q0-86-57.5-132.5T316-1L93 0v530h96V351zM309 72q64-1 98 26t34 80q0 52-33.5 76T309 279l-120 2V73zm200 552q-21 0-36 14.5T458 675q0 23 15 37.5t36 14.5 36-14.5 15-37.5q0-22-15-36.5T509 624zm-186 0q-21 0-36 14.5T272 675q0 23 15 37.5t36 14.5 36-14.5 15-37.5q0-22-15-36.5T323 624z"/><glyph glyph-name="uni04FA" unicode="Ӻ" horiz-adv-x="619" d="M136 0v700h460v-87H234V0h-98zm34-200q-30 0-61 8.5T49-166l29 71q35-24 75-24 36 0 60 22.5T237-28v49l30-21H136v87h198V-40q0-51-22.5-87t-59-54.5T170-200zM29 287v74h498v-74H29z"/><glyph glyph-name="uni04FB" unicode="ӻ" horiz-adv-x="492" d="M117 0v530h350v-84H213V0h-96zm13-200q-34 0-65 9t-52 25l28 71q15-11 35-18.5t42-7.5q39 0 60 24t21 72v46l29-21H117v84h178V-34q0-50-19.5-87t-56-58-89.5-21zM33 218v68h391v-68H33z"/><glyph glyph-name="uni04FC" unicode="Ӽ" horiz-adv-x="672" d="m14 0 262 359L29 700h115l194-268 192 268h110L395 362l-52-62L129 0H14zm462-202q-30 0-59.5 7.5T359-172l25 70q37-20 71-20 36 0 58 22.5T535-37q0 32-18 71t-49 83.5-69.5 92.5-79.5 98l64 72q52-66 99-124.5t83-110 57-98T643-41q0-51-22.5-87t-60-55-84.5-19z"/><glyph glyph-name="uni04FD" unicode="ӽ" horiz-adv-x="541" d="m11 0 207 271L21 530h108l144-189 144 189h106L120 0H11zm357-200q-58 0-116 31l28 72q17-10 36.5-16.5T354-120q36 0 58.5 21.5T435-45q0 29-20 66t-62.5 89.5T242 241l65 61q57-67 99-119t70-92.5 41.5-75T531-52q0-45-21.5-78.5t-58-51.5-83.5-18z"/><glyph glyph-name="uni04FE" unicode="Ӿ" horiz-adv-x="684" d="M94 319v75h490v-75H94zM43 700h115l183-256 184 256h116L404 364 661 0H542L341 279 142 0H26l256 360z"/><glyph glyph-name="uni04FF" unicode="ӿ" horiz-adv-x="569" d="m22 0 229 299-3-58L32 530h111l162-217-40-2 167 219h103L317 244l1 59L546 0H434L263 230l39-5L129 0H22zm65 232v68h396v-68H87z"/><glyph glyph-name="uni0510" unicode="Ԑ" horiz-adv-x="642" d="M609 76q-52-39-113-59T373-7 254.5 1t-101 38.5-70.5 66T57 196q0 54 28.5 95t80 63.5T287 377l4-27q-61 0-107 20.5t-71.5 59T87 518q0 55 31 95t83.5 64T319 707t135-8.5T588 648l-32-82q-47 28-98.5 42T358 621.5 271.5 608t-61-39-22.5-63q0-49 37-76.5T329 402h149v-81H323q-77 0-121-28t-44-82q0-44 28-74t74.5-45 102-14.5 111 18.5T575 150z"/><glyph glyph-name="uni0511" unicode="ԑ" horiz-adv-x="544" d="M296-7q-70 0-125 20.5t-86.5 57T53 155q0 60 51 95t140 35l4-23q-52 0-92.5 17t-64 46.5T68 393q0 45 31 78t85.5 50.5T307 537q47-1 93.5-13.5T495 488l-26-75q-43 21-84.5 31T302 455q-40 0-70.5-9T184 420t-17-41q0-22 14-38.5t40-24.5 62-8h90v-69h-97q-59 0-91.5-20T152 162q0-26 18-45.5T221.5 86 301 75q49 0 98.5 13.5T487 126l29-73Q471 24 413.5 8.5T296-7z"/><glyph glyph-name="uni0512" unicode="Ԓ" horiz-adv-x="791" d="m396-167 29 73q26-17 53.5-21.5t51 2.5T568-86t15 52v647H274l-8-205q-4-104-15-182T218.5 96 162 18 75-8Q61-8 46-6T12 0l8 89q16-4 31-4 44 0 70 35t39 106 17 179l11 295h493V-39q0-60-28-97.5t-71.5-53-93-10T396-167z"/><glyph glyph-name="uni0513" unicode="ԓ" horiz-adv-x="641" d="M382-200q-33 0-64 8.5T266-167l29 73q30-25 74-25 40 0 61.5 23.5T452-26v500l23-28H203l22 29-7-147q-3-70-11-131T182.5 90t-45-72T64-8Q51-8 36.5-5.5T5 1l6 81q7-1 13-2t11-1q32 0 50.5 22t28 58.5 13 82.5 5.5 92l9 196h407V-29q0-77-42.5-124T382-200z"/><glyph glyph-name="uni051A" unicode="Ԛ" horiz-adv-x="854" d="M424-8q-80 0-148.5 27T157 94.5 79 208 51 350t28 142 78 113.5T275 681t149 27q80 0 147.5-26.5t118-75 78-113.5T795 350t-27.5-143-78-113.5-118-75T424-8zm229-138q-35 0-67 8.5t-64 27-66 48T382 10l107 28q30-37 57.5-60.5t54.5-34T654-67q75 0 128 60l47-57q-68-82-176-82zM424 81q58 0 107.5 20t86 57 57 86T695 350q0 58-20.5 107t-57 85.5-86 56.5T424 619q-59 0-108.5-20T229 542.5 171.5 457 151 350q0-57 20.5-106t57.5-86 86.5-57T424 81z"/><glyph glyph-name="uni051B" unicode="ԛ" horiz-adv-x="688" d="M314-6q-77 0-137.5 34T81 123 46 265t35 141.5 95.5 94.5T314 535q69 0 123-30t85.5-90T554 265t-32.5-150T435 24.5 314-6zm8 84q50 0 90.5 23t64 65.5T500 265q0 57-23.5 98.5t-64 64.5-90.5 23q-51 0-91-23t-64-64.5-24-98.5q0-56 24-98.5t64-65.5 91-23zm177-272v335l10 123-6 123v143h92v-724h-96z"/><glyph glyph-name="uni051C" unicode="Ԝ" horiz-adv-x="1085" d="M253 0 21 700h104L337 54h-54l217 646h93L806 54h-52l214 646h97L834 0H729L531 598h28L357 0H253z"/><glyph glyph-name="uni051D" unicode="ԝ" horiz-adv-x="938" d="M214 0 9 530h99L288 50h-47l186 480h89L698 50h-47l184 480h92L724 0h-99L456 438h27L313 0h-99z"/><glyph glyph-name="uni0524" unicode="Ԥ" horiz-adv-x="848" d="M109 0v700h603V0h-98v639l24-26H183l25 26V0h-99zm618-153V26l25-26H614v87h205v-240h-92z"/><glyph glyph-name="uni0525" unicode="ԥ" horiz-adv-x="677" d="M93 0v530h491V0h-96v470l23-24H166l23 24V0H93zm484-113V25l23-25H488v84h179v-197h-90z"/><glyph glyph-name="uni0526" unicode="Ԧ" horiz-adv-x="805" d="M584 0v216q0 79-47.5 120.5T402 378q-50 0-104-13t-105-38l-2 89q59 25 115 37.5T413 466q128 0 198.5-62T682 227V0h-98zM109 0v700h99V0h-99zm588-153V26l25-26H584v87h205v-240h-92z"/><glyph glyph-name="uni0527" unicode="ԧ" horiz-adv-x="700" d="M500 0v291q0 78-37.5 116.5T358 446q-51 0-89-20.5T210 366t-21-95l-40 35q4 72 34 123t81.5 78.5T384 535q63 0 111-25t74.5-75.5T596 308V0h-96zM93 0v742h96V0H93zm492-113V25l46-25H500v84h175v-197h-90z"/><glyph glyph-name="uni0528" unicode="Ԩ" horiz-adv-x="816" d="m-76-167 29 73q25-17 52.5-21.5t51 2.5T95-86t15 52v734h98V394h400v306h99V0h-99v306H208V-39q0-60-28-97.5t-71.5-53-92.5-10-92 32.5z"/><glyph glyph-name="uni0529" unicode="ԩ" horiz-adv-x="681" d="M492 530h96V0h-96v223H190V-29q0-78-42.5-124.5T26-200q-33 0-64.5 8.5T-91-167l29 73q30-25 74-25 39 0 60.5 23.5T94-26v556h96V307h302v223z"/><glyph glyph-name="uni052E" unicode="Ԯ" horiz-adv-x="817" d="M76-8Q61-8 46-6T13 0l7 89q16-4 32-4 44 0 70 35t38.5 106T177 405l11 295h493V0h-98v639l24-26H252l22 27-8-232q-3-104-14-182T219 96t-56.5-78T76-8zm619-145V26l25-26H583v87h205v-240h-93z"/><glyph glyph-name="uni052F" unicode="ԯ" horiz-adv-x="662" d="m5 1 6 81q7-1 13-2t11-1q32 0 50.5 22t27.5 58.5 13 82.5 6 92l9 196h407V0h-96v474l23-28H203l22 29-7-147q-3-70-11-131T182.5 90t-45-72T64-8Q51-8 36.5-5.5T5 1zm535-114V25l23-25H451v84h179v-197h-90z"/><glyph glyph-name="uni1E08" unicode="Ḉ" horiz-adv-x="723" d="M418-8q-80 0-147.5 26.5t-117 75T76 207 48 350t28 143 78 113.5 117.5 75T419 708q81 0 149.5-27.5T685 599l-65-63q-40 42-90 62.5T423 619q-59 0-109.5-20T226 543t-57.5-85.5T148 350t20.5-107.5T226 157t87.5-56T423 81q57 0 107 20.5t90 63.5l65-63q-48-54-116.5-82T418-8zm-41-216q-26 0-48 5.5T288-202l21 49q16-9 32.5-13t35.5-4q29 0 42.5 10.5T433-130q0 18-13.5 28.5T376-91h-27l25 98h55l-15-57q43-4 65-27t22-56q0-42-34-66.5T377-224zm-41 981 136 130h122L426 757h-90z"/><glyph glyph-name="uni1E09" unicode="ḉ" horiz-adv-x="571" d="M322-6q-81 0-144.5 35T78 125 42 265t36 140 99.5 95.5T322 535q72 0 128.5-28.5T538 422l-73-47q-26 39-63.5 57.5T321 451q-52 0-93-23t-65-64.5-24-98.5 24-99 65-65 93-23q43 0 80.5 18.5T465 154l73-46q-31-55-87.5-84.5T322-6zm-47-218q-26 0-48 5.5T186-202l21 49q16-9 32.5-13t35.5-4q29 0 42.5 10.5T331-130q0 18-13.5 28.5T274-91h-27l25 98h55l-15-57q43-4 65-27t22-56q0-42-34-66.5T275-224zm-47 831 136 130h122L318 607h-90z"/><glyph glyph-name="uni1E0C" unicode="Ḍ" horiz-adv-x="826" d="M105 0v700h295q112 0 197.5-44t133-123T778 350t-47.5-183-133-123T400 0H105zm100 87h189q87 0 150.5 33t98.5 92.5T678 350q0 79-35 138t-98.5 92T394 613H205V87zm178-283q-21 0-36 14t-15 36q0 23 15 37.5T383-94t36-14.5 15-37.5q0-22-15-36t-36-14z"/><glyph glyph-name="uni1E0D" unicode="ḍ" horiz-adv-x="682" d="M310-6q-77 0-137.5 34T77 123 42 265t35 141.5 95.5 94.5T310 535q67 0 121-30t86.5-90T550 265t-31.5-150T433 24.5 310-6zm8 84q50 0 90.5 23t64 65.5T496 265q0 57-23.5 98.5t-64 64.5-90.5 23q-51 0-91-23t-64-64.5-24-98.5q0-56 24-98.5t64-65.5 91-23zM499 0v143l6 123-10 123v353h96V0h-92zM347-196q-21 0-36 14t-15 36q0 23 15 37.5T347-94t36-14.5 15-37.5q0-22-15-36t-36-14z"/><glyph glyph-name="uni1E0E" unicode="Ḏ" horiz-adv-x="826" d="M105 0v700h295q112 0 197.5-44t133-123T778 350t-47.5-183-133-123T400 0H105zm100 87h189q87 0 150.5 33t98.5 92.5T678 350q0 79-35 138t-98.5 92T394 613H205V87zm15-261v61h326v-61H220z"/><glyph glyph-name="uni1E0F" unicode="ḏ" horiz-adv-x="682" d="M310-6q-77 0-137.5 34T77 123 42 265t35 141.5 95.5 94.5T310 535q67 0 121-30t86.5-90T550 265t-31.5-150T433 24.5 310-6zm8 84q50 0 90.5 23t64 65.5T496 265q0 57-23.5 98.5t-64 64.5-90.5 23q-51 0-91-23t-64-64.5-24-98.5q0-56 24-98.5t64-65.5 91-23zM499 0v143l6 123-10 123v353h96V0h-92zM184-174v61h326v-61H184z"/><glyph glyph-name="uni1E14" unicode="Ḕ" horiz-adv-x="670" d="M196 398h360v-85H196v85zm9-311h408V0H105v700h494v-87H205V87zm-15 692v57h326v-57H190zm154 120-148 113h109l117-113h-78z"/><glyph glyph-name="uni1E15" unicode="ḕ" horiz-adv-x="612" d="M327-6q-85 0-149.5 35t-100 96T42 265t34.5 140 95 95.5T308 535q77 0 136-34t92.5-95.5T570 262q0-6-.5-14t-1.5-15H117v69h401l-39-24q1 51-21 91t-60.5 62.5T308 454q-50 0-89-22.5t-61-63-22-92.5v-16q0-53 24.5-94.5T229 101t101-23q47 0 85.5 16t67.5 48l53-62q-36-42-89.5-64T327-6zM144 629v57h326v-57H144zm154 120L150 862h109l117-113h-78z"/><glyph glyph-name="uni1E16" unicode="Ḗ" horiz-adv-x="670" d="M196 398h360v-85H196v85zm9-311h408V0H105v700h494v-87H205V87zm-15 692v57h326v-57H190zm94 120 118 113h109L363 899h-79z"/><glyph glyph-name="uni1E17" unicode="ḗ" horiz-adv-x="612" d="M327-6q-85 0-149.5 35t-100 96T42 265t34.5 140 95 95.5T308 535q77 0 136-34t92.5-95.5T570 262q0-6-.5-14t-1.5-15H117v69h401l-39-24q1 51-21 91t-60.5 62.5T308 454q-50 0-89-22.5t-61-63-22-92.5v-16q0-53 24.5-94.5T229 101t101-23q47 0 85.5 16t67.5 48l53-62q-36-42-89.5-64T327-6zM144 629v57h326v-57H144zm94 120 118 113h109L317 749h-79z"/><glyph glyph-name="uni1E1C" unicode="Ḝ" horiz-adv-x="670" d="M196 398h360v-85H196v85zm9-311h408V0H105v700h494v-87H205V87zm133-311q-26 0-48 5.5T249-202l21 49q16-9 32.5-13t35.5-4q29 0 42.5 10.5T394-130q0 18-13.5 28.5T337-91h-27l25 98h55l-15-57q43-4 65-27t22-56q0-42-34-66.5T338-224zm15 975q-68 0-114 36.5T191 887h65q2-37 30-58.5t67-21.5 67.5 21.5T450 887h65q-2-63-48-99.5T353 751z"/><glyph glyph-name="uni1E1D" unicode="ḝ" horiz-adv-x="612" d="M327-6q-85 0-149.5 35t-100 96T42 265t34.5 140 95 95.5T308 535q77 0 136-34t92.5-95.5T570 262q0-6-.5-14t-1.5-15H117v69h401l-39-24q1 51-21 91t-60.5 62.5T308 454q-50 0-89-22.5t-61-63-22-92.5v-16q0-53 24.5-94.5T229 101t101-23q47 0 85.5 16t67.5 48l53-62q-36-42-89.5-64T327-6zm-45-218q-26 0-48 5.5T193-202l21 49q16-9 32.5-13t35.5-4q29 0 42.5 10.5T338-130q0 18-13.5 28.5T281-91h-27l25 98h55l-15-57q43-4 65-27t22-56q0-42-34-66.5T282-224zm25 825q-68 0-114 36.5T145 737h65q2-37 30-58.5t67-21.5 67.5 21.5T404 737h65q-2-63-48-99.5T307 601z"/><glyph glyph-name="uni1E20" unicode="Ḡ" horiz-adv-x="772" d="M421-8q-81 0-149 26.5t-118 75T76 207 48 350t28 143 78.5 113.5 118.5 75T423 708q83 0 152-27t117-81l-62-62q-43 42-93.5 61.5T427 619q-60 0-111.5-20t-89-56-58-85.5T148 350q0-57 20.5-106.5t58-86T315 101t111-20q56 0 107.5 17.5T629 157l57-76q-52-44-121.5-66.5T421-8zM590 94v260h96V81zM247 792v60h326v-60H247z"/><glyph glyph-name="uni1E21" unicode="ḡ" horiz-adv-x="690" d="M323-200q-73 0-141.5 20.5T70-121l46 74q37-32 91-50.5T320-116q94 0 138 44t44 134v112l10 105-5 106v145h91V72q0-140-70-206t-205-66zM311 22q-77 0-137.5 32.5t-96 90.5T42 279q0 77 35.5 134.5t96 89.5T311 535q68 0 124-27.5t89.5-84.5T558 279q0-86-33.5-143T435 50.5 311 22zm11 84q53 0 94 22t64.5 61 23.5 90-23.5 90-64.5 60.5-94 21.5-94.5-21.5-65-60.5-23.5-90 23.5-90 65-61 94.5-22zM166 642v60h326v-60H166z"/><glyph glyph-name="uni1E24" unicode="Ḥ" horiz-adv-x="812" d="M607 700h100V0H607v700zM205 0H105v700h100V0zm411 312H195v87h421v-87zM405-196q-21 0-36 14t-15 36q0 23 15 37.5T405-94t36-14.5 15-37.5q0-22-15-36t-36-14z"/><glyph glyph-name="uni1E25" unicode="ḥ" horiz-adv-x="681" d="M374 535q65 0 114.5-25t77.5-76 28-129V0h-96v294q0 77-37.5 116T355 449q-51 0-89-20t-58.5-59-20.5-97V0H91v742h96V387l-19 38q26 52 80 81t126 29zm-31-731q-21 0-36 14t-15 36q0 23 15 37.5T343-94t36-14.5 15-37.5q0-22-15-36t-36-14z"/><glyph glyph-name="uni1E2A" unicode="Ḫ" horiz-adv-x="812" d="M607 700h100V0H607v700zM205 0H105v700h100V0zm411 312H195v87h421v-87zM405-209q-68 0-114 35t-48 93h63q0-35 28.5-55t70.5-20 70.5 20T504-81h63q-2-58-48-93t-114-35z"/><glyph glyph-name="uni1E2B" unicode="ḫ" horiz-adv-x="681" d="M374 535q65 0 114.5-25t77.5-76 28-129V0h-96v294q0 77-37.5 116T355 449q-51 0-89-20t-58.5-59-20.5-97V0H91v742h96V387l-19 38q26 52 80 81t126 29zm-31-744q-68 0-114 35t-48 93h63q0-35 28.5-55t70.5-20 70.5 20T442-81h63q-2-58-48-93t-114-35z"/><glyph glyph-name="uni1E2E" unicode="Ḯ" horiz-adv-x="310" d="M105 0v700h100V0H105zm141 774q-20 0-34.5 14.5T197 824t14.5 35 34.5 14q21 0 35.5-14t14.5-35-14.5-35.5T246 774zm-181 0q-21 0-35.5 14.5T15 824t14.5 35T65 873t35-14 14-35-14-35.5T65 774zm21 125 118 113h109L165 899H86z"/><glyph glyph-name="uni1E2F" unicode="ḯ" horiz-adv-x="279" d="M91 0v530h96V0H91zm139 624q-20 0-34.5 14.5T181 674t14.5 35 34.5 14q21 0 35.5-14t14.5-35-14.5-35.5T230 624zm-181 0q-21 0-35.5 14.5T-1 674t14.5 35T49 723t35-14 14-35-14-35.5T49 624zm21 125 118 113h109L149 749H70z"/><glyph glyph-name="uni1E36" unicode="Ḷ" horiz-adv-x="594" d="M105 0v700h100V87h379V0H105zm251-196q-21 0-36 14t-15 36q0 23 15 37.5T356-94t36-14.5 15-37.5q0-22-15-36t-36-14z"/><glyph glyph-name="uni1E37" unicode="ḷ" horiz-adv-x="279" d="M91 0v742h96V0H91zm48-196q-21 0-36 14t-15 36q0 23 15 37.5T139-94t36-14.5 15-37.5q0-22-15-36t-36-14z"/><glyph glyph-name="uni1E3A" unicode="Ḻ" horiz-adv-x="594" d="M105 0v700h100V87h379V0H105zm88-174v61h326v-61H193z"/><glyph glyph-name="uni1E3B" unicode="ḻ" horiz-adv-x="279" d="M91 0v742h96V0H91zM-24-174v61h326v-61H-24z"/><glyph glyph-name="uni1E42" unicode="Ṃ" horiz-adv-x="955" d="M105 0v700h82l314-529h-44l310 529h82l1-700h-96l-1 549h23L500 85h-46L176 549h25V0h-96zm372-196q-21 0-36 14t-15 36q0 23 15 37.5T477-94t36-14.5 15-37.5q0-22-15-36t-36-14z"/><glyph glyph-name="uni1E43" unicode="ṃ" horiz-adv-x="1057" d="M754 535q64 0 113-25t76.5-76T971 305V0h-96v294q0 77-36 116t-101 39q-48 0-84-20t-55.5-59-19.5-97V0h-96v294q0 77-35.5 116T346 449q-47 0-83-20t-56-59-20-97V0H91v530h92V389l-15 36q25 52 77 81t121 29q76 0 131-37.5T569 384l-39 16q24 61 84 98t140 37zM530-196q-21 0-36 14t-15 36q0 23 15 37.5T530-94t36-14.5 15-37.5q0-22-15-36t-36-14z"/><glyph glyph-name="uni1E44" unicode="Ṅ" horiz-adv-x="812" d="M105 0v700h82l463-575h-43v575h100V0h-82L162 575h43V0H105zm300 775q-25 0-42 17t-17 42 17 42 42 17 42-17 17-42-17-42-42-17z"/><glyph glyph-name="uni1E45" unicode="ṅ" horiz-adv-x="681" d="M374 535q65 0 114.5-25t77.5-76 28-129V0h-96v294q0 77-37.5 116T355 449q-51 0-89-20t-58.5-59-20.5-97V0H91v530h92V387l-15 38q26 52 80 81t126 29zm-31 90q-25 0-42 17t-17 42 17 42 42 17 42-17 17-42-17-42-42-17z"/><glyph glyph-name="uni1E46" unicode="Ṇ" horiz-adv-x="812" d="M105 0v700h82l463-575h-43v575h100V0h-82L162 575h43V0H105zm300-196q-21 0-36 14t-15 36q0 23 15 37.5T405-94t36-14.5 15-37.5q0-22-15-36t-36-14z"/><glyph glyph-name="uni1E47" unicode="ṇ" horiz-adv-x="681" d="M374 535q65 0 114.5-25t77.5-76 28-129V0h-96v294q0 77-37.5 116T355 449q-51 0-89-20t-58.5-59-20.5-97V0H91v530h92V387l-15 38q26 52 80 81t126 29zm-31-731q-21 0-36 14t-15 36q0 23 15 37.5T343-94t36-14.5 15-37.5q0-22-15-36t-36-14z"/><glyph glyph-name="uni1E48" unicode="Ṉ" horiz-adv-x="812" d="M105 0v700h82l463-575h-43v575h100V0h-82L162 575h43V0H105zm137-174v61h326v-61H242z"/><glyph glyph-name="uni1E49" unicode="ṉ" horiz-adv-x="681" d="M374 535q65 0 114.5-25t77.5-76 28-129V0h-96v294q0 77-37.5 116T355 449q-51 0-89-20t-58.5-59-20.5-97V0H91v530h92V387l-15 38q26 52 80 81t126 29zM180-174v61h326v-61H180z"/><glyph glyph-name="uni1E4C" unicode="Ṍ" horiz-adv-x="840" d="M421-8q-80 0-148.5 27T154 94.5 76 208 48 350t28 142 78 113.5T272 681t149 27q80 0 147.5-26.5t118-75 78-113.5T792 350t-27.5-143-78-113.5-118-75T421-8zm0 89q58 0 107.5 20t86 56.5 57 85.5T692 350t-20.5 107-57 85.5-86 56.5T421 619q-59 0-108.5-20T226 542.5 168.5 457 148 350t20.5-107 57.5-85.5 86.5-56.5T421 81zm70 681q-32 0-55 13.5t-42 27-38 13.5q-23 0-34-13t-12-37h-54q1 49 27 76t69 27q32 0 54.5-13.5t42-27T487 815q22 0 33.5 13t12.5 36h53q-1-47-26.5-74.5T491 762zM352 899l118 113h109L431 899h-79z"/><glyph glyph-name="uni1E4D" unicode="ṍ" horiz-adv-x="635" d="M318-6q-80 0-142 35t-98 96.5T42 265q0 79 36 140t98 95.5T318 535q79 0 141.5-34.5t98-95T593 265q0-79-35.5-140t-98-96T318-6zm0 84q51 0 91.5 23t63.5 65.5 23 98.5q0 57-23 98.5T409.5 428 318 451t-91-23-64-64.5-24-98.5q0-56 24-98.5t64-65.5 91-23zm69 534q-32 0-55 13.5t-42 27-38 13.5q-23 0-34-13t-12-37h-54q1 49 27 76t69 27q32 0 54.5-13.5t42-27T383 665q22 0 33.5 13t12.5 36h53q-1-47-26.5-74.5T387 612zM248 749l118 113h109L327 749h-79z"/><glyph glyph-name="uni1E4E" unicode="Ṏ" horiz-adv-x="840" d="M421-8q-80 0-148.5 27T154 94.5 76 208 48 350t28 142 78 113.5T272 681t149 27q80 0 147.5-26.5t118-75 78-113.5T792 350t-27.5-143-78-113.5-118-75T421-8zm0 89q58 0 107.5 20t86 56.5 57 85.5T692 350t-20.5 107-57 85.5-86 56.5T421 619q-59 0-108.5-20T226 542.5 168.5 457 148 350t20.5-107 57.5-85.5 86.5-56.5T421 81zm70 681q-32 0-55 13.5t-42 27-38 13.5q-23 0-34-13t-12-37h-54q1 49 27 76t69 27q32 0 54.5-13.5t42-27T487 815q22 0 33.5 13t12.5 36h53q-1-47-26.5-74.5T491 762zm21 154q-20 0-34.5 14.5T463 966t14.5 35 34.5 14q21 0 35.5-14t14.5-35-14.5-35.5T512 916zm-181 0q-21 0-35.5 14.5T281 966t14.5 35 35.5 14 35-14 14-35-14-35.5-35-14.5z"/><glyph glyph-name="uni1E4F" unicode="ṏ" horiz-adv-x="635" d="M318-6q-80 0-142 35t-98 96.5T42 265q0 79 36 140t98 95.5T318 535q79 0 141.5-34.5t98-95T593 265q0-79-35.5-140t-98-96T318-6zm0 84q51 0 91.5 23t63.5 65.5 23 98.5q0 57-23 98.5T409.5 428 318 451t-91-23-64-64.5-24-98.5q0-56 24-98.5t64-65.5 91-23zm69 534q-32 0-55 13.5t-42 27-38 13.5q-23 0-34-13t-12-37h-54q1 49 27 76t69 27q32 0 54.5-13.5t42-27T383 665q22 0 33.5 13t12.5 36h53q-1-47-26.5-74.5T387 612zm21 154q-20 0-34.5 14.5T359 816t14.5 35 34.5 14q21 0 35.5-14t14.5-35-14.5-35.5T408 766zm-181 0q-21 0-35.5 14.5T177 816t14.5 35 35.5 14 35-14 14-35-14-35.5-35-14.5z"/><glyph glyph-name="uni1E50" unicode="Ṑ" horiz-adv-x="840" d="M421-8q-80 0-148.5 27T154 94.5 76 208 48 350t28 142 78 113.5T272 681t149 27q80 0 147.5-26.5t118-75 78-113.5T792 350t-27.5-143-78-113.5-118-75T421-8zm0 89q58 0 107.5 20t86 56.5 57 85.5T692 350t-20.5 107-57 85.5-86 56.5T421 619q-59 0-108.5-20T226 542.5 168.5 457 148 350t20.5-107 57.5-85.5 86.5-56.5T421 81zM258 779v57h326v-57H258zm154 120-148 113h109l117-113h-78z"/><glyph glyph-name="uni1E51" unicode="ṑ" horiz-adv-x="635" d="M318-6q-80 0-142 35t-98 96.5T42 265q0 79 36 140t98 95.5T318 535q79 0 141.5-34.5t98-95T593 265q0-79-35.5-140t-98-96T318-6zm0 84q51 0 91.5 23t63.5 65.5 23 98.5q0 57-23 98.5T409.5 428 318 451t-91-23-64-64.5-24-98.5q0-56 24-98.5t64-65.5 91-23zM154 629v57h326v-57H154zm154 120L160 862h109l117-113h-78z"/><glyph glyph-name="uni1E52" unicode="Ṓ" horiz-adv-x="840" d="M421-8q-80 0-148.5 27T154 94.5 76 208 48 350t28 142 78 113.5T272 681t149 27q80 0 147.5-26.5t118-75 78-113.5T792 350t-27.5-143-78-113.5-118-75T421-8zm0 89q58 0 107.5 20t86 56.5 57 85.5T692 350t-20.5 107-57 85.5-86 56.5T421 619q-59 0-108.5-20T226 542.5 168.5 457 148 350t20.5-107 57.5-85.5 86.5-56.5T421 81zM258 779v57h326v-57H258zm94 120 118 113h109L431 899h-79z"/><glyph glyph-name="uni1E53" unicode="ṓ" horiz-adv-x="635" d="M318-6q-80 0-142 35t-98 96.5T42 265q0 79 36 140t98 95.5T318 535q79 0 141.5-34.5t98-95T593 265q0-79-35.5-140t-98-96T318-6zm0 84q51 0 91.5 23t63.5 65.5 23 98.5q0 57-23 98.5T409.5 428 318 451t-91-23-64-64.5-24-98.5q0-56 24-98.5t64-65.5 91-23zM154 629v57h326v-57H154zm94 120 118 113h109L327 749h-79z"/><glyph glyph-name="uni1E5A" unicode="Ṛ" horiz-adv-x="727" d="M105 0v700h273q92 0 157-29t100-84 35-131-35-130.5T535 242t-157-29H160l45 46V0H105zm468 0L395 254h107L682 0H573zM205 249l-45 49h215q96 0 145.5 41.5T570 456t-49.5 116T375 613H160l45 50V249zm166-445q-21 0-36 14t-15 36q0 23 15 37.5T371-94t36-14.5 15-37.5q0-22-15-36t-36-14z"/><glyph glyph-name="uni1E5B" unicode="ṛ" horiz-adv-x="410" d="M91 0v530h92V386l-9 36q22 55 74 84t128 29v-93q-6 1-11.5 1H354q-77 0-122-46t-45-133V0H91zm48-196q-21 0-36 14t-15 36q0 23 15 37.5T139-94t36-14.5 15-37.5q0-22-15-36t-36-14z"/><glyph glyph-name="uni1E5E" unicode="Ṟ" horiz-adv-x="727" d="M105 0v700h273q92 0 157-29t100-84 35-131-35-130.5T535 242t-157-29H160l45 46V0H105zm468 0L395 254h107L682 0H573zM205 249l-45 49h215q96 0 145.5 41.5T570 456t-49.5 116T375 613H160l45 50V249zm3-423v61h326v-61H208z"/><glyph glyph-name="uni1E5F" unicode="ṟ" horiz-adv-x="410" d="M91 0v530h92V386l-9 36q22 55 74 84t128 29v-93q-6 1-11.5 1H354q-77 0-122-46t-45-133V0H91zM-24-174v61h326v-61H-24z"/><glyph glyph-name="uni1E60" unicode="Ṡ" horiz-adv-x="621" d="M309-8q-80 0-153 24.5T41 80l37 78q40-35 102-58t129-23q61 0 99 14t56 38.5 18 55.5q0 36-23.5 58t-61 35.5T315 302t-90.5 23.5-83 34.5T81 416.5 58 508q0 54 28.5 99.5t88 73T326 708q61 0 121-16t104-46l-33-80q-45 30-95 43.5T326 623q-59 0-97-15t-55.5-40-17.5-56q0-37 23.5-59t61-35 82.5-23.5 90.5-23.5 83-34 60.5-56 23-90q0-53-29-98.5t-89.5-73T309-8zm13 783q-25 0-42 17t-17 42 17 42 42 17 42-17 17-42-17-42-42-17z"/><glyph glyph-name="uni1E61" unicode="ṡ" horiz-adv-x="501" d="M243-6q-66 0-125.5 18T24 56l40 76q34-23 84-39t102-16q67 0 96.5 19t29.5 53q0 25-18 39t-47.5 21-65.5 12.5-72 14-66 24-48 43T41 376q0 48 27 84t76.5 55.5T262 535q52 0 105.5-12.5T455 487l-41-76q-36 24-75 33t-78 9q-63 0-94-20.5T136 380q0-27 18.5-41.5t48-22.5 65.5-13.5 72-14 65.5-23.5 48-42 18.5-72q0-48-28-83t-79-54.5T243-6zm5 631q-25 0-42 17t-17 42 17 42 42 17 42-17 17-42-17-42-42-17z"/><glyph glyph-name="uni1E62" unicode="Ṣ" horiz-adv-x="621" d="M309-8q-80 0-153 24.5T41 80l37 78q40-35 102-58t129-23q61 0 99 14t56 38.5 18 55.5q0 36-23.5 58t-61 35.5T315 302t-90.5 23.5-83 34.5T81 416.5 58 508q0 54 28.5 99.5t88 73T326 708q61 0 121-16t104-46l-33-80q-45 30-95 43.5T326 623q-59 0-97-15t-55.5-40-17.5-56q0-37 23.5-59t61-35 82.5-23.5 90.5-23.5 83-34 60.5-56 23-90q0-53-29-98.5t-89.5-73T309-8zm13-188q-21 0-36 14t-15 36q0 23 15 37.5T322-94t36-14.5 15-37.5q0-22-15-36t-36-14z"/><glyph glyph-name="uni1E63" unicode="ṣ" horiz-adv-x="501" d="M243-6q-66 0-125.5 18T24 56l40 76q34-23 84-39t102-16q67 0 96.5 19t29.5 53q0 25-18 39t-47.5 21-65.5 12.5-72 14-66 24-48 43T41 376q0 48 27 84t76.5 55.5T262 535q52 0 105.5-12.5T455 487l-41-76q-36 24-75 33t-78 9q-63 0-94-20.5T136 380q0-27 18.5-41.5t48-22.5 65.5-13.5 72-14 65.5-23.5 48-42 18.5-72q0-48-28-83t-79-54.5T243-6zm5-190q-21 0-36 14t-15 36q0 23 15 37.5T248-94t36-14.5 15-37.5q0-22-15-36t-36-14z"/><glyph glyph-name="uni1E64" unicode="Ṥ" horiz-adv-x="621" d="M309-8q-80 0-153 24.5T41 80l37 78q40-35 102-58t129-23q61 0 99 14t56 38.5 18 55.5q0 36-23.5 58t-61 35.5T315 302t-90.5 23.5-83 34.5T81 416.5 58 508q0 54 28.5 99.5t88 73T326 708q61 0 121-16t104-46l-33-80q-45 30-95 43.5T326 623q-59 0-97-15t-55.5-40-17.5-56q0-37 23.5-59t61-35 82.5-23.5 90.5-23.5 83-34 60.5-56 23-90q0-53-29-98.5t-89.5-73T309-8zm-56 765 118 113h109L332 757h-79zm69 158q-21 0-36 14.5T271 967q0 22 15 36.5t36 14.5 36-14.5 15-36.5q0-23-15-37.5T322 915z"/><glyph glyph-name="uni1E65" unicode="ṥ" horiz-adv-x="501" d="M243-6q-66 0-125.5 18T24 56l40 76q34-23 84-39t102-16q67 0 96.5 19t29.5 53q0 25-18 39t-47.5 21-65.5 12.5-72 14-66 24-48 43T41 376q0 48 27 84t76.5 55.5T262 535q52 0 105.5-12.5T455 487l-41-76q-36 24-75 33t-78 9q-63 0-94-20.5T136 380q0-27 18.5-41.5t48-22.5 65.5-13.5 72-14 65.5-23.5 48-42 18.5-72q0-48-28-83t-79-54.5T243-6zm-64 613 118 113h109L258 607h-79zm69 158q-21 0-36 14.5T197 817q0 22 15 36.5t36 14.5 36-14.5 15-36.5q0-23-15-37.5T248 765z"/><glyph glyph-name="uni1E66" unicode="Ṧ" horiz-adv-x="621" d="M309-8q-80 0-153 24.5T41 80l37 78q40-35 102-58t129-23q61 0 99 14t56 38.5 18 55.5q0 36-23.5 58t-61 35.5T315 302t-90.5 23.5-83 34.5T81 416.5 58 508q0 54 28.5 99.5t88 73T326 708q61 0 121-16t104-46l-33-80q-45 30-95 43.5T326 623q-59 0-97-15t-55.5-40-17.5-56q0-37 23.5-59t61-35 82.5-23.5 90.5-23.5 83-34 60.5-56 23-90q0-53-29-98.5t-89.5-73T309-8zm-32 765L143 857h88l131-80h-80l131 80h88L367 757h-90zm45 135q-21 0-36 14.5T271 944q0 22 15 36.5t36 14.5 36-14.5 15-36.5q0-23-15-37.5T322 892z"/><glyph glyph-name="uni1E67" unicode="ṧ" horiz-adv-x="501" d="M243-6q-66 0-125.5 18T24 56l40 76q34-23 84-39t102-16q67 0 96.5 19t29.5 53q0 25-18 39t-47.5 21-65.5 12.5-72 14-66 24-48 43T41 376q0 48 27 84t76.5 55.5T262 535q52 0 105.5-12.5T455 487l-41-76q-36 24-75 33t-78 9q-63 0-94-20.5T136 380q0-27 18.5-41.5t48-22.5 65.5-13.5 72-14 65.5-23.5 48-42 18.5-72q0-48-28-83t-79-54.5T243-6zm-40 613L69 707h88l131-80h-80l131 80h88L293 607h-90zm45 135q-21 0-36 14.5T197 794q0 22 15 36.5t36 14.5 36-14.5 15-36.5q0-23-15-37.5T248 742z"/></font>
</defs>
</svg>
