<svg xmlns="http://www.w3.org/2000/svg" aria-hidden="true" overflow="hidden" style="position:absolute;width:0;height:0">
  <defs>
    <symbol id="icon-location" viewBox="0 0 32 32">
      <path d="M16 3.215c-4.419 0-8 3.566-8 7.984 0 7.638 8 17.6 8 17.6s8-9.963 8-17.6c0-4.416-3.581-7.984-8-7.984zm0 12.401c-1.146 0-2.245-.455-3.055-1.265s-1.265-1.909-1.265-3.055c0-1.146.455-2.245 1.265-3.055S14.854 6.976 16 6.976c1.146 0 2.245.455 3.055 1.265s1.265 1.909 1.265 3.055c0 1.146-.455 2.245-1.265 3.055S17.146 15.616 16 15.616z"/>
    </symbol>
    <symbol id="icon-telegram" viewBox="0 0 32 32">
      <path d="M26.07 3.996c-.321.023-.636.099-.933.223h-.004c-.285.113-1.64.683-3.7 1.547l-7.382 3.109c-5.297 2.23-10.504 4.426-10.504 4.426l.062-.024s-.359.118-.734.375c-.232.147-.431.34-.586.567-.184.27-.332.683-.277 1.11.09.722.558 1.155.894 1.394.34.242.664.355.664.355h.008l4.883 1.645c.219.703 1.488 4.875 1.793 5.836.18.574.355.933.574 1.207.106.14.23.257.379.351.077.045.16.081.246.106l-.05-.012c.015.004.027.016.038.02.04.011.067.015.118.023.773.234 1.394-.246 1.394-.246l.035-.028 2.883-2.625 4.832 3.707.11.047c1.007.442 2.027.196 2.566-.238.543-.437.754-.996.754-.996l.035-.09 3.734-19.129c.106-.472.133-.914.016-1.343-.121-.434-.399-.808-.781-1.047-.321-.195-.692-.289-1.067-.27zm-.101 2.05c-.004.063.008.056-.02.177v.011l-3.699 18.93c-.016.027-.043.086-.117.145-.078.062-.14.101-.465-.028l-5.91-4.531-3.57 3.254.75-4.79 9.656-9c.398-.37.265-.448.265-.448.028-.454-.601-.133-.601-.133l-12.176 7.543-.004-.02-5.851-1.972c.01-.003.02-.007.03-.012l.032-.016.031-.011s5.211-2.196 10.508-4.426c2.652-1.117 5.324-2.242 7.379-3.11 1.219-.513 2.439-1.023 3.66-1.53.082-.032.043-.032.102-.032v-.001z" opacity=".7"/>
    </symbol>
    <symbol id="icon-facebook" viewBox="0 0 32 32">
      <path d="M14.26 11.916v1.836h-1.344v2.244h1.344v6.671h2.763v-6.671h1.853s.175-1.076.259-2.253h-2.101V12.21c0-.231.301-.539.6-.539h1.504V9.334h-2.047c-2.899 0-2.831 2.247-2.831 2.583z" opacity=".7"/>
      <path d="M8 5.333c-.707 0-1.386.281-1.886.781S5.333 7.292 5.333 8v16c0 .707.281 1.385.781 1.886s1.178.781 1.886.781h16c.707 0 1.385-.281 1.886-.781s.781-1.178.781-1.886V8c0-.707-.281-1.386-.781-1.886S24.708 5.333 24 5.333H8zm0-2.666h16c1.415 0 2.771.562 3.771 1.562S29.333 6.586 29.333 8v16c0 1.415-.562 2.771-1.562 3.771S25.414 29.333 24 29.333H8c-1.415 0-2.771-.562-3.771-1.562S2.667 25.414 2.667 24V8c0-1.415.562-2.771 1.562-3.771S6.586 2.667 8 2.667z" opacity=".7"/>
    </symbol>
    <symbol id="icon-instagram" viewBox="0 0 32 32">
      <path d="M9.953 1.421c1.564-.072 2.063-.088 6.047-.088s4.483.017 6.045.088c1.563.071 2.629.32 3.563.681.977.369 1.864.947 2.597 1.693.747.732 1.323 1.617 1.691 2.596.363.933.611 2 .683 3.56.072 1.567.088 2.065.088 6.048 0 3.984-.017 4.483-.088 6.047-.071 1.56-.32 2.627-.683 3.56-.368.979-.945 1.866-1.691 2.599-.733.747-1.62 1.323-2.597 1.691-.933.363-2 .611-3.56.683-1.565.072-2.064.088-6.048.088s-4.483-.017-6.047-.088c-1.56-.071-2.627-.32-3.56-.683-.979-.368-1.866-.945-2.599-1.691-.746-.732-1.324-1.619-1.692-2.597-.361-.933-.609-2-.681-3.56-.072-1.567-.088-2.065-.088-6.048 0-3.984.017-4.483.088-6.045s.32-2.629.681-3.563c.369-.979.947-1.865 1.693-2.597.732-.746 1.618-1.323 2.596-1.692.933-.361 2-.609 3.56-.681h.001zm11.974 2.64C20.38 3.99 19.916 3.976 16 3.976s-4.38.015-5.927.085c-1.431.065-2.207.304-2.724.505-.684.267-1.173.583-1.687 1.096-.487.473-.861 1.05-1.096 1.687-.201.517-.44 1.293-.505 2.724-.071 1.547-.085 2.011-.085 5.927s.015 4.38.085 5.927c.065 1.431.304 2.207.505 2.724.235.636.609 1.213 1.096 1.687.473.487 1.051.861 1.687 1.096.517.201 1.293.44 2.724.505 1.547.071 2.009.085 5.927.085s4.38-.015 5.927-.085c1.431-.065 2.207-.304 2.724-.505.684-.267 1.173-.583 1.687-1.096.487-.473.861-1.051 1.096-1.687.201-.517.44-1.293.505-2.724.071-1.547.085-2.011.085-5.927s-.015-4.38-.085-5.927c-.065-1.431-.304-2.207-.505-2.724-.267-.684-.583-1.173-1.096-1.687-.473-.487-1.05-.861-1.687-1.096-.517-.201-1.293-.44-2.724-.505zm-7.8 16.46c1.046.435 2.211.494 3.296.166s2.022-1.022 2.652-1.965c.63-.942.913-2.074.801-3.201s-.612-2.181-1.415-2.981c-.512-.511-1.13-.903-1.812-1.146s-1.408-.333-2.128-.262-1.415.301-2.036.673c-.62.372-1.151.877-1.553 1.478s-.665 1.285-.772 2c-.106.715-.053 1.446.157 2.138s.571 1.329 1.056 1.866c.486.536 1.084.958 1.752 1.235zm-3.458-9.852c.7-.7 1.531-1.255 2.446-1.634S15.01 8.461 16 8.461c.99 0 1.97.195 2.885.574s1.746.934 2.446 1.634c.7.7 1.255 1.531 1.634 2.446s.574 1.895.574 2.885-.195 1.97-.574 2.885c-.379.915-.934 1.746-1.634 2.446C19.917 22.745 18 23.539 16 23.539s-3.917-.794-5.331-2.208C9.255 19.917 8.461 18 8.461 16s.794-3.917 2.208-5.331zm14.542-1.085c.173-.164.312-.36.408-.579s.147-.454.151-.692c.003-.238-.041-.475-.131-.696s-.223-.422-.391-.59c-.169-.169-.369-.302-.59-.391s-.458-.134-.696-.131c-.239.003-.474.055-.692.151s-.415.235-.579.408c-.318.337-.493.785-.486 1.249s.194.907.522 1.235c.328.328.771.515 1.235.522s.912-.167 1.249-.486z" opacity=".7"/>
    </symbol>
    <symbol id="icon-phone" viewBox="0 0 32 32">
      <path d="M21 2.667c.796 0 1.559.316 2.121.879S24 4.872 24 5.667v20.667c0 .796-.316 1.559-.879 2.121s-1.326.879-2.121.879H11c-.796 0-1.559-.316-2.121-.879S8 27.129 8 26.334V5.667c0-.796.316-1.559.879-2.121s1.326-.879 2.121-.879h10zm0 2H11c-.265 0-.52.105-.707.293S10 5.402 10 5.667v20.667c0 .552.448 1 1 1h10c.265 0 .52-.105.707-.293s.293-.442.293-.707V5.667c0-.265-.105-.52-.293-.707s-.442-.293-.707-.293zm-3.335 18.666c.265 0 .52.105.707.292s.293.441.294.707-.105.52-.292.707c-.187.188-.441.293-.707.294l-3.333.005c-.265 0-.52-.105-.707-.292s-.293-.441-.294-.707c0-.265.105-.52.292-.707s.441-.293.707-.294l3.333-.005z"/>
    </symbol>
    <symbol id="icon-arrow_right" viewBox="0 0 32 32">
      <path d="M22.492 7.586 21.078 9l6 6H1v2h26.078l-6 6 1.414 1.414L30.906 16l-8.414-8.414z"/>
    </symbol>
    <symbol id="icon-arrow_left" viewBox="0 0 32 32">
      <path d="M31.083 15H5.005l6-6-1.414-1.414L1.177 16l8.414 8.414L11.005 23l-6-6h26.078v-2z"/>
    </symbol>
    <symbol id="icon-select_arrow" viewBox="0 0 32 32">
      <path d="M3.272 10.586c.375-.375.884-.586 1.414-.586s1.039.211 1.414.586l9.9 9.9 9.9-9.9c.377-.364.882-.566 1.407-.561s1.026.215 1.397.586.581.872.586 1.397-.197 1.03-.561 1.407L17.415 24.729c-.375.375-.884.586-1.414.586s-1.039-.211-1.414-.586L3.273 13.415c-.375-.375-.586-.884-.586-1.414s.211-1.039.586-1.414z"/>
    </symbol>
    <symbol id="icon-close" viewBox="0 0 32 32">
      <path fill="none" stroke="#000" stroke-linecap="round" stroke-linejoin="round" stroke-width="2" d="m27.428 3.428-24 24M3.428 3.428l24 24"/>
    </symbol>
  </defs>
</svg>
